G75*
G70*
%OFA0B0*%
%FSLAX24Y24*%
%IPPOS*%
%LPD*%
%AMOC8*
5,1,8,0,0,1.08239X$1,22.5*
%
%ADD10C,0.0000*%
%ADD11C,0.0060*%
%ADD12C,0.0100*%
%ADD13C,0.0040*%
%ADD14R,0.0295X0.0571*%
%ADD15C,0.0080*%
%ADD16R,0.0200X0.0200*%
%ADD17R,0.0256X0.0551*%
%ADD18R,0.0197X0.0197*%
D10*
X000377Y000377D02*
X014156Y000377D01*
X014156Y014156D01*
X000377Y014156D01*
X000377Y000377D01*
X001322Y001952D02*
X001324Y002002D01*
X001330Y002052D01*
X001340Y002101D01*
X001354Y002149D01*
X001371Y002196D01*
X001392Y002241D01*
X001417Y002285D01*
X001445Y002326D01*
X001477Y002365D01*
X001511Y002402D01*
X001548Y002436D01*
X001588Y002466D01*
X001630Y002493D01*
X001674Y002517D01*
X001720Y002538D01*
X001767Y002554D01*
X001815Y002567D01*
X001865Y002576D01*
X001914Y002581D01*
X001965Y002582D01*
X002015Y002579D01*
X002064Y002572D01*
X002113Y002561D01*
X002161Y002546D01*
X002207Y002528D01*
X002252Y002506D01*
X002295Y002480D01*
X002336Y002451D01*
X002375Y002419D01*
X002411Y002384D01*
X002443Y002346D01*
X002473Y002306D01*
X002500Y002263D01*
X002523Y002219D01*
X002542Y002173D01*
X002558Y002125D01*
X002570Y002076D01*
X002578Y002027D01*
X002582Y001977D01*
X002582Y001927D01*
X002578Y001877D01*
X002570Y001828D01*
X002558Y001779D01*
X002542Y001731D01*
X002523Y001685D01*
X002500Y001641D01*
X002473Y001598D01*
X002443Y001558D01*
X002411Y001520D01*
X002375Y001485D01*
X002336Y001453D01*
X002295Y001424D01*
X002252Y001398D01*
X002207Y001376D01*
X002161Y001358D01*
X002113Y001343D01*
X002064Y001332D01*
X002015Y001325D01*
X001965Y001322D01*
X001914Y001323D01*
X001865Y001328D01*
X001815Y001337D01*
X001767Y001350D01*
X001720Y001366D01*
X001674Y001387D01*
X001630Y001411D01*
X001588Y001438D01*
X001548Y001468D01*
X001511Y001502D01*
X001477Y001539D01*
X001445Y001578D01*
X001417Y001619D01*
X001392Y001663D01*
X001371Y001708D01*
X001354Y001755D01*
X001340Y001803D01*
X001330Y001852D01*
X001324Y001902D01*
X001322Y001952D01*
X010790Y002424D02*
X010792Y002453D01*
X010798Y002481D01*
X010807Y002509D01*
X010820Y002535D01*
X010837Y002558D01*
X010856Y002580D01*
X010878Y002599D01*
X010903Y002614D01*
X010929Y002627D01*
X010957Y002635D01*
X010985Y002640D01*
X011014Y002641D01*
X011043Y002638D01*
X011071Y002631D01*
X011098Y002621D01*
X011124Y002607D01*
X011147Y002590D01*
X011168Y002570D01*
X011186Y002547D01*
X011201Y002522D01*
X011212Y002495D01*
X011220Y002467D01*
X011224Y002438D01*
X011224Y002410D01*
X011220Y002381D01*
X011212Y002353D01*
X011201Y002326D01*
X011186Y002301D01*
X011168Y002278D01*
X011147Y002258D01*
X011124Y002241D01*
X011098Y002227D01*
X011071Y002217D01*
X011043Y002210D01*
X011014Y002207D01*
X010985Y002208D01*
X010957Y002213D01*
X010929Y002221D01*
X010903Y002234D01*
X010878Y002249D01*
X010856Y002268D01*
X010837Y002290D01*
X010820Y002313D01*
X010807Y002339D01*
X010798Y002367D01*
X010792Y002395D01*
X010790Y002424D01*
X010692Y012188D02*
X010694Y012223D01*
X010700Y012258D01*
X010710Y012292D01*
X010723Y012325D01*
X010740Y012356D01*
X010761Y012384D01*
X010784Y012411D01*
X010811Y012434D01*
X010839Y012455D01*
X010870Y012472D01*
X010903Y012485D01*
X010937Y012495D01*
X010972Y012501D01*
X011007Y012503D01*
X011042Y012501D01*
X011077Y012495D01*
X011111Y012485D01*
X011144Y012472D01*
X011175Y012455D01*
X011203Y012434D01*
X011230Y012411D01*
X011253Y012384D01*
X011274Y012356D01*
X011291Y012325D01*
X011304Y012292D01*
X011314Y012258D01*
X011320Y012223D01*
X011322Y012188D01*
X011320Y012153D01*
X011314Y012118D01*
X011304Y012084D01*
X011291Y012051D01*
X011274Y012020D01*
X011253Y011992D01*
X011230Y011965D01*
X011203Y011942D01*
X011175Y011921D01*
X011144Y011904D01*
X011111Y011891D01*
X011077Y011881D01*
X011042Y011875D01*
X011007Y011873D01*
X010972Y011875D01*
X010937Y011881D01*
X010903Y011891D01*
X010870Y011904D01*
X010839Y011921D01*
X010811Y011942D01*
X010784Y011965D01*
X010761Y011992D01*
X010740Y012020D01*
X010723Y012051D01*
X010710Y012084D01*
X010700Y012118D01*
X010694Y012153D01*
X010692Y012188D01*
X001322Y012582D02*
X001324Y012632D01*
X001330Y012682D01*
X001340Y012731D01*
X001354Y012779D01*
X001371Y012826D01*
X001392Y012871D01*
X001417Y012915D01*
X001445Y012956D01*
X001477Y012995D01*
X001511Y013032D01*
X001548Y013066D01*
X001588Y013096D01*
X001630Y013123D01*
X001674Y013147D01*
X001720Y013168D01*
X001767Y013184D01*
X001815Y013197D01*
X001865Y013206D01*
X001914Y013211D01*
X001965Y013212D01*
X002015Y013209D01*
X002064Y013202D01*
X002113Y013191D01*
X002161Y013176D01*
X002207Y013158D01*
X002252Y013136D01*
X002295Y013110D01*
X002336Y013081D01*
X002375Y013049D01*
X002411Y013014D01*
X002443Y012976D01*
X002473Y012936D01*
X002500Y012893D01*
X002523Y012849D01*
X002542Y012803D01*
X002558Y012755D01*
X002570Y012706D01*
X002578Y012657D01*
X002582Y012607D01*
X002582Y012557D01*
X002578Y012507D01*
X002570Y012458D01*
X002558Y012409D01*
X002542Y012361D01*
X002523Y012315D01*
X002500Y012271D01*
X002473Y012228D01*
X002443Y012188D01*
X002411Y012150D01*
X002375Y012115D01*
X002336Y012083D01*
X002295Y012054D01*
X002252Y012028D01*
X002207Y012006D01*
X002161Y011988D01*
X002113Y011973D01*
X002064Y011962D01*
X002015Y011955D01*
X001965Y011952D01*
X001914Y011953D01*
X001865Y011958D01*
X001815Y011967D01*
X001767Y011980D01*
X001720Y011996D01*
X001674Y012017D01*
X001630Y012041D01*
X001588Y012068D01*
X001548Y012098D01*
X001511Y012132D01*
X001477Y012169D01*
X001445Y012208D01*
X001417Y012249D01*
X001392Y012293D01*
X001371Y012338D01*
X001354Y012385D01*
X001340Y012433D01*
X001330Y012482D01*
X001324Y012532D01*
X001322Y012582D01*
D11*
X001202Y009767D02*
X002702Y009767D01*
X002952Y009517D01*
X002952Y009017D01*
X002702Y008767D01*
X001202Y008767D01*
X000952Y008517D01*
X000952Y008017D01*
X001202Y007767D01*
X002702Y007767D01*
X002952Y007517D01*
X002952Y007017D01*
X002702Y006767D01*
X001202Y006767D01*
X000952Y006517D01*
X000952Y006017D01*
X001202Y005767D01*
X000952Y005517D01*
X000952Y005017D01*
X001202Y004767D01*
X002702Y004767D01*
X002952Y005017D01*
X002952Y005517D01*
X002702Y005767D01*
X001202Y005767D01*
X001202Y006767D02*
X000952Y007017D01*
X000952Y007517D01*
X001202Y007767D01*
X001202Y008767D02*
X000952Y009017D01*
X000952Y009517D01*
X001202Y009767D01*
X002702Y008767D02*
X002952Y008517D01*
X002952Y008017D01*
X002702Y007767D01*
X002702Y006767D02*
X002952Y006517D01*
X002952Y006017D01*
X002702Y005767D01*
X005153Y001314D02*
X005476Y001314D01*
X005476Y000814D02*
X005153Y000814D01*
X011739Y003184D02*
X011966Y003184D01*
X012108Y003184D02*
X012335Y003184D01*
X012476Y003184D02*
X012646Y003184D01*
X012703Y003241D01*
X012703Y003468D01*
X012646Y003525D01*
X012476Y003525D01*
X012476Y003184D01*
X012221Y003355D02*
X012108Y003355D01*
X012108Y003525D02*
X012108Y003184D01*
X012108Y003525D02*
X012335Y003525D01*
X012335Y003747D02*
X012335Y004087D01*
X012476Y004087D02*
X012646Y004087D01*
X012703Y004030D01*
X012703Y003917D01*
X012646Y003860D01*
X012476Y003860D01*
X012476Y003747D02*
X012476Y004087D01*
X012476Y004309D02*
X012476Y004650D01*
X012335Y004593D02*
X012278Y004650D01*
X012164Y004650D01*
X012108Y004593D01*
X012108Y004366D01*
X012164Y004309D01*
X012278Y004309D01*
X012335Y004366D01*
X012476Y004423D02*
X012703Y004650D01*
X012533Y004480D02*
X012703Y004309D01*
X013051Y004273D02*
X013051Y004613D01*
X013221Y004613D01*
X013277Y004557D01*
X013277Y004330D01*
X013221Y004273D01*
X013051Y004273D01*
X013107Y004051D02*
X013051Y003994D01*
X013051Y003767D01*
X013107Y003711D01*
X013221Y003711D01*
X013277Y003767D01*
X013419Y003711D02*
X013589Y003711D01*
X013646Y003767D01*
X013646Y003994D01*
X013589Y004051D01*
X013419Y004051D01*
X013419Y003711D01*
X013419Y003488D02*
X013646Y003148D01*
X013646Y003488D01*
X013787Y003488D02*
X013957Y003488D01*
X014014Y003432D01*
X014014Y003205D01*
X013957Y003148D01*
X013787Y003148D01*
X013787Y003488D01*
X013419Y003488D02*
X013419Y003148D01*
X013277Y003205D02*
X013277Y003318D01*
X013164Y003318D01*
X013277Y003205D02*
X013221Y003148D01*
X013107Y003148D01*
X013051Y003205D01*
X013051Y003432D01*
X013107Y003488D01*
X013221Y003488D01*
X013277Y003432D01*
X013277Y003994D02*
X013221Y004051D01*
X013107Y004051D01*
X013419Y004330D02*
X013476Y004273D01*
X013589Y004273D01*
X013646Y004330D01*
X013646Y004557D01*
X013589Y004613D01*
X013476Y004613D01*
X013419Y004557D01*
X013419Y004330D01*
X013419Y004836D02*
X013532Y004836D01*
X013476Y004836D02*
X013476Y005176D01*
X013532Y005176D02*
X013419Y005176D01*
X013277Y005119D02*
X013221Y005176D01*
X013051Y005176D01*
X013051Y004836D01*
X013221Y004836D01*
X013277Y004892D01*
X013277Y005119D01*
X013221Y005398D02*
X013277Y005455D01*
X013277Y005568D01*
X013164Y005568D01*
X013051Y005455D02*
X013107Y005398D01*
X013221Y005398D01*
X013051Y005455D02*
X013051Y005682D01*
X013107Y005738D01*
X013221Y005738D01*
X013277Y005682D01*
X013419Y005738D02*
X013646Y005398D01*
X013646Y005738D01*
X013787Y005738D02*
X013957Y005738D01*
X014014Y005682D01*
X014014Y005455D01*
X013957Y005398D01*
X013787Y005398D01*
X013787Y005738D01*
X013419Y005738D02*
X013419Y005398D01*
X012703Y005491D02*
X012646Y005434D01*
X012533Y005434D01*
X012476Y005491D01*
X012335Y005548D02*
X012335Y005775D01*
X012476Y005718D02*
X012533Y005775D01*
X012646Y005775D01*
X012703Y005718D01*
X012703Y005661D01*
X012646Y005605D01*
X012703Y005548D01*
X012703Y005491D01*
X012646Y005605D02*
X012589Y005605D01*
X012335Y005548D02*
X012221Y005434D01*
X012108Y005548D01*
X012108Y005775D01*
X011966Y005718D02*
X011966Y005661D01*
X011910Y005605D01*
X011966Y005548D01*
X011966Y005491D01*
X011910Y005434D01*
X011796Y005434D01*
X011739Y005491D01*
X011853Y005605D02*
X011910Y005605D01*
X011966Y005718D02*
X011910Y005775D01*
X011796Y005775D01*
X011739Y005718D01*
X012164Y005212D02*
X012108Y005155D01*
X012108Y004929D01*
X012164Y004872D01*
X012278Y004872D01*
X012335Y004929D01*
X012476Y004929D02*
X012533Y004872D01*
X012646Y004872D01*
X012703Y004929D01*
X012703Y004985D01*
X012646Y005042D01*
X012533Y005042D01*
X012476Y005099D01*
X012476Y005155D01*
X012533Y005212D01*
X012646Y005212D01*
X012703Y005155D01*
X012335Y005155D02*
X012278Y005212D01*
X012164Y005212D01*
X011910Y004650D02*
X011796Y004650D01*
X011739Y004593D01*
X011739Y004536D01*
X011796Y004480D01*
X011910Y004480D01*
X011966Y004423D01*
X011966Y004366D01*
X011910Y004309D01*
X011796Y004309D01*
X011739Y004366D01*
X011966Y004593D02*
X011910Y004650D01*
X012108Y004087D02*
X012108Y003747D01*
X012221Y003860D01*
X012335Y003747D01*
X011739Y003525D02*
X011739Y003184D01*
X013202Y000894D02*
X013202Y000554D01*
X013202Y000667D02*
X013372Y000780D01*
X013509Y000780D02*
X013566Y000780D01*
X013566Y000554D01*
X013622Y000554D02*
X013509Y000554D01*
X013372Y000554D02*
X013202Y000667D01*
X013566Y000894D02*
X013566Y000951D01*
X013755Y000780D02*
X013755Y000610D01*
X013811Y000554D01*
X013981Y000554D01*
X013981Y000780D01*
X013891Y013590D02*
X013891Y013816D01*
X013777Y013930D01*
X013664Y013816D01*
X013664Y013590D01*
X013664Y013760D02*
X013891Y013760D01*
X013154Y013703D02*
X013154Y013930D01*
X013154Y013703D02*
X013041Y013590D01*
X012927Y013703D01*
X012927Y013930D01*
X012786Y013930D02*
X012559Y013930D01*
X012559Y013590D01*
X012786Y013590D01*
X012672Y013760D02*
X012559Y013760D01*
X012417Y013760D02*
X012417Y013873D01*
X012361Y013930D01*
X012191Y013930D01*
X012191Y013590D01*
X012191Y013703D02*
X012361Y013703D01*
X012417Y013760D01*
X012304Y013703D02*
X012417Y013590D01*
X011681Y013646D02*
X011624Y013590D01*
X011511Y013590D01*
X011454Y013646D01*
X011454Y013873D01*
X011511Y013930D01*
X011624Y013930D01*
X011681Y013873D01*
X011312Y013873D02*
X011312Y013646D01*
X011256Y013590D01*
X011086Y013590D01*
X011086Y013930D01*
X011256Y013930D01*
X011312Y013873D01*
X010944Y013873D02*
X010887Y013930D01*
X010774Y013930D01*
X010717Y013873D01*
X010717Y013816D01*
X010774Y013760D01*
X010887Y013760D01*
X010944Y013703D01*
X010944Y013646D01*
X010887Y013590D01*
X010774Y013590D01*
X010717Y013646D01*
X010576Y013590D02*
X010462Y013703D01*
X010519Y013703D02*
X010349Y013703D01*
X010349Y013590D02*
X010349Y013930D01*
X010519Y013930D01*
X010576Y013873D01*
X010576Y013760D01*
X010519Y013703D01*
X010208Y013760D02*
X010151Y013703D01*
X009981Y013703D01*
X010094Y013703D02*
X010208Y013590D01*
X010208Y013760D02*
X010208Y013873D01*
X010151Y013930D01*
X009981Y013930D01*
X009981Y013590D01*
D12*
X000889Y012582D02*
X000891Y012647D01*
X000897Y012711D01*
X000907Y012775D01*
X000920Y012839D01*
X000938Y012901D01*
X000959Y012962D01*
X000984Y013022D01*
X001013Y013080D01*
X001045Y013137D01*
X001081Y013191D01*
X001119Y013243D01*
X001161Y013292D01*
X001206Y013339D01*
X001254Y013383D01*
X001304Y013425D01*
X001356Y013462D01*
X001411Y013497D01*
X001468Y013528D01*
X001527Y013556D01*
X001587Y013580D01*
X001648Y013601D01*
X001711Y013617D01*
X001775Y013630D01*
X001839Y013639D01*
X001903Y013644D01*
X001968Y013645D01*
X002033Y013642D01*
X002097Y013635D01*
X002161Y013624D01*
X002225Y013609D01*
X002287Y013591D01*
X002348Y013569D01*
X002407Y013543D01*
X002465Y013513D01*
X002520Y013480D01*
X002574Y013444D01*
X002626Y013404D01*
X002674Y013362D01*
X002721Y013316D01*
X002764Y013268D01*
X002804Y013217D01*
X002841Y013164D01*
X002875Y013109D01*
X002906Y013052D01*
X002933Y012993D01*
X002956Y012932D01*
X002975Y012870D01*
X002991Y012807D01*
X003003Y012743D01*
X003011Y012679D01*
X003015Y012614D01*
X003015Y012550D01*
X003011Y012485D01*
X003003Y012421D01*
X002991Y012357D01*
X002975Y012294D01*
X002956Y012232D01*
X002933Y012171D01*
X002906Y012112D01*
X002875Y012055D01*
X002841Y012000D01*
X002804Y011947D01*
X002764Y011896D01*
X002721Y011848D01*
X002674Y011802D01*
X002626Y011760D01*
X002574Y011720D01*
X002520Y011684D01*
X002465Y011651D01*
X002407Y011621D01*
X002348Y011595D01*
X002287Y011573D01*
X002225Y011555D01*
X002161Y011540D01*
X002097Y011529D01*
X002033Y011522D01*
X001968Y011519D01*
X001903Y011520D01*
X001839Y011525D01*
X001775Y011534D01*
X001711Y011547D01*
X001648Y011563D01*
X001587Y011584D01*
X001527Y011608D01*
X001468Y011636D01*
X001411Y011667D01*
X001356Y011702D01*
X001304Y011739D01*
X001254Y011781D01*
X001206Y011825D01*
X001161Y011872D01*
X001119Y011921D01*
X001081Y011973D01*
X001045Y012027D01*
X001013Y012084D01*
X000984Y012142D01*
X000959Y012202D01*
X000938Y012263D01*
X000920Y012325D01*
X000907Y012389D01*
X000897Y012453D01*
X000891Y012517D01*
X000889Y012582D01*
X000889Y001952D02*
X000891Y002017D01*
X000897Y002081D01*
X000907Y002145D01*
X000920Y002209D01*
X000938Y002271D01*
X000959Y002332D01*
X000984Y002392D01*
X001013Y002450D01*
X001045Y002507D01*
X001081Y002561D01*
X001119Y002613D01*
X001161Y002662D01*
X001206Y002709D01*
X001254Y002753D01*
X001304Y002795D01*
X001356Y002832D01*
X001411Y002867D01*
X001468Y002898D01*
X001527Y002926D01*
X001587Y002950D01*
X001648Y002971D01*
X001711Y002987D01*
X001775Y003000D01*
X001839Y003009D01*
X001903Y003014D01*
X001968Y003015D01*
X002033Y003012D01*
X002097Y003005D01*
X002161Y002994D01*
X002225Y002979D01*
X002287Y002961D01*
X002348Y002939D01*
X002407Y002913D01*
X002465Y002883D01*
X002520Y002850D01*
X002574Y002814D01*
X002626Y002774D01*
X002674Y002732D01*
X002721Y002686D01*
X002764Y002638D01*
X002804Y002587D01*
X002841Y002534D01*
X002875Y002479D01*
X002906Y002422D01*
X002933Y002363D01*
X002956Y002302D01*
X002975Y002240D01*
X002991Y002177D01*
X003003Y002113D01*
X003011Y002049D01*
X003015Y001984D01*
X003015Y001920D01*
X003011Y001855D01*
X003003Y001791D01*
X002991Y001727D01*
X002975Y001664D01*
X002956Y001602D01*
X002933Y001541D01*
X002906Y001482D01*
X002875Y001425D01*
X002841Y001370D01*
X002804Y001317D01*
X002764Y001266D01*
X002721Y001218D01*
X002674Y001172D01*
X002626Y001130D01*
X002574Y001090D01*
X002520Y001054D01*
X002465Y001021D01*
X002407Y000991D01*
X002348Y000965D01*
X002287Y000943D01*
X002225Y000925D01*
X002161Y000910D01*
X002097Y000899D01*
X002033Y000892D01*
X001968Y000889D01*
X001903Y000890D01*
X001839Y000895D01*
X001775Y000904D01*
X001711Y000917D01*
X001648Y000933D01*
X001587Y000954D01*
X001527Y000978D01*
X001468Y001006D01*
X001411Y001037D01*
X001356Y001072D01*
X001304Y001109D01*
X001254Y001151D01*
X001206Y001195D01*
X001161Y001242D01*
X001119Y001291D01*
X001081Y001343D01*
X001045Y001397D01*
X001013Y001454D01*
X000984Y001512D01*
X000959Y001572D01*
X000938Y001633D01*
X000920Y001695D01*
X000907Y001759D01*
X000897Y001823D01*
X000891Y001887D01*
X000889Y001952D01*
D13*
X003834Y001323D02*
X004294Y001323D01*
X004294Y001170D02*
X004294Y001477D01*
X003987Y001170D02*
X003834Y001323D01*
X003911Y001016D02*
X004064Y001016D01*
X004141Y000940D01*
X004141Y000709D01*
X004294Y000709D02*
X003834Y000709D01*
X003834Y000940D01*
X003911Y001016D01*
X004141Y000863D02*
X004294Y001016D01*
X006718Y000988D02*
X006872Y001141D01*
X007179Y001141D01*
X006949Y001141D02*
X006949Y000834D01*
X006872Y000834D02*
X006718Y000988D01*
X006872Y000834D02*
X007179Y000834D01*
X007490Y000631D02*
X007490Y001497D01*
X007569Y001497D01*
X007569Y000631D02*
X007490Y000631D01*
X008829Y000631D02*
X008907Y000631D01*
X008907Y001497D01*
X008829Y001497D01*
X009218Y001065D02*
X009218Y000911D01*
X009295Y000834D01*
X009602Y000834D01*
X009679Y000911D01*
X009679Y001065D01*
X009602Y001141D01*
X009295Y001141D02*
X009218Y001065D01*
X004344Y013101D02*
X004037Y013101D01*
X003960Y013177D01*
X003960Y013331D01*
X004037Y013408D01*
X004114Y013561D02*
X003960Y013714D01*
X004421Y013714D01*
X004421Y013561D02*
X004421Y013868D01*
X004344Y013408D02*
X004421Y013331D01*
X004421Y013177D01*
X004344Y013101D01*
X005190Y013241D02*
X005481Y013241D01*
X005481Y013760D02*
X005181Y013760D01*
D14*
X005048Y013501D03*
X005618Y013501D03*
D15*
X004747Y012660D02*
X011361Y012660D01*
X012877Y012660D01*
X013841Y012660D01*
X013841Y011578D01*
X011105Y011578D01*
X011105Y010613D01*
X009924Y010613D01*
X009924Y009570D01*
X010141Y009570D01*
X010141Y008586D01*
X010416Y008586D01*
X010416Y006637D01*
X010141Y006637D01*
X010141Y002975D01*
X013841Y002975D01*
X013841Y001952D01*
X012857Y001952D01*
X011381Y001952D01*
X005259Y001952D01*
X004747Y001952D01*
X004747Y003586D01*
X004747Y012660D01*
X007569Y001616D02*
X007569Y000513D01*
X008612Y000513D01*
X008829Y000730D01*
X008829Y001497D01*
X008829Y001616D01*
X007569Y001616D01*
X007766Y001064D02*
X007768Y001105D01*
X007774Y001146D01*
X007784Y001186D01*
X007797Y001225D01*
X007814Y001262D01*
X007835Y001298D01*
X007859Y001332D01*
X007886Y001363D01*
X007915Y001391D01*
X007948Y001417D01*
X007982Y001439D01*
X008019Y001458D01*
X008057Y001473D01*
X008097Y001485D01*
X008137Y001493D01*
X008178Y001497D01*
X008220Y001497D01*
X008261Y001493D01*
X008301Y001485D01*
X008341Y001473D01*
X008379Y001458D01*
X008415Y001439D01*
X008450Y001417D01*
X008483Y001391D01*
X008512Y001363D01*
X008539Y001332D01*
X008563Y001298D01*
X008584Y001262D01*
X008601Y001225D01*
X008614Y001186D01*
X008624Y001146D01*
X008630Y001105D01*
X008632Y001064D01*
X008630Y001023D01*
X008624Y000982D01*
X008614Y000942D01*
X008601Y000903D01*
X008584Y000866D01*
X008563Y000830D01*
X008539Y000796D01*
X008512Y000765D01*
X008483Y000737D01*
X008450Y000711D01*
X008416Y000689D01*
X008379Y000670D01*
X008341Y000655D01*
X008301Y000643D01*
X008261Y000635D01*
X008220Y000631D01*
X008178Y000631D01*
X008137Y000635D01*
X008097Y000643D01*
X008057Y000655D01*
X008019Y000670D01*
X007983Y000689D01*
X007948Y000711D01*
X007915Y000737D01*
X007886Y000765D01*
X007859Y000796D01*
X007835Y000830D01*
X007814Y000866D01*
X007797Y000903D01*
X007784Y000942D01*
X007774Y000982D01*
X007768Y001023D01*
X007766Y001064D01*
X008612Y000513D02*
X008829Y000513D01*
X008829Y000631D01*
X008829Y000730D01*
D16*
X002452Y005267D03*
X002452Y006267D03*
X002452Y007267D03*
X002452Y008267D03*
X002452Y009267D03*
X001452Y009267D03*
X001452Y008267D03*
X001452Y007267D03*
X001452Y006267D03*
X001452Y005267D03*
D17*
X005022Y001065D03*
X005602Y001065D03*
D18*
X008199Y001064D03*
M02*
