G75*
G70*
%OFA0B0*%
%FSLAX24Y24*%
%IPPOS*%
%LPD*%
%AMOC8*
5,1,8,0,0,1.08239X$1,22.5*
%
%ADD10C,0.0000*%
%ADD11OC8,0.0600*%
%ADD12C,0.0160*%
D10*
X000377Y000377D02*
X014156Y000377D01*
X014156Y014156D01*
X000377Y014156D01*
X000377Y000377D01*
X001322Y001952D02*
X001324Y002002D01*
X001330Y002052D01*
X001340Y002101D01*
X001354Y002149D01*
X001371Y002196D01*
X001392Y002241D01*
X001417Y002285D01*
X001445Y002326D01*
X001477Y002365D01*
X001511Y002402D01*
X001548Y002436D01*
X001588Y002466D01*
X001630Y002493D01*
X001674Y002517D01*
X001720Y002538D01*
X001767Y002554D01*
X001815Y002567D01*
X001865Y002576D01*
X001914Y002581D01*
X001965Y002582D01*
X002015Y002579D01*
X002064Y002572D01*
X002113Y002561D01*
X002161Y002546D01*
X002207Y002528D01*
X002252Y002506D01*
X002295Y002480D01*
X002336Y002451D01*
X002375Y002419D01*
X002411Y002384D01*
X002443Y002346D01*
X002473Y002306D01*
X002500Y002263D01*
X002523Y002219D01*
X002542Y002173D01*
X002558Y002125D01*
X002570Y002076D01*
X002578Y002027D01*
X002582Y001977D01*
X002582Y001927D01*
X002578Y001877D01*
X002570Y001828D01*
X002558Y001779D01*
X002542Y001731D01*
X002523Y001685D01*
X002500Y001641D01*
X002473Y001598D01*
X002443Y001558D01*
X002411Y001520D01*
X002375Y001485D01*
X002336Y001453D01*
X002295Y001424D01*
X002252Y001398D01*
X002207Y001376D01*
X002161Y001358D01*
X002113Y001343D01*
X002064Y001332D01*
X002015Y001325D01*
X001965Y001322D01*
X001914Y001323D01*
X001865Y001328D01*
X001815Y001337D01*
X001767Y001350D01*
X001720Y001366D01*
X001674Y001387D01*
X001630Y001411D01*
X001588Y001438D01*
X001548Y001468D01*
X001511Y001502D01*
X001477Y001539D01*
X001445Y001578D01*
X001417Y001619D01*
X001392Y001663D01*
X001371Y001708D01*
X001354Y001755D01*
X001340Y001803D01*
X001330Y001852D01*
X001324Y001902D01*
X001322Y001952D01*
X010790Y002424D02*
X010792Y002453D01*
X010798Y002481D01*
X010807Y002509D01*
X010820Y002535D01*
X010837Y002558D01*
X010856Y002580D01*
X010878Y002599D01*
X010903Y002614D01*
X010929Y002627D01*
X010957Y002635D01*
X010985Y002640D01*
X011014Y002641D01*
X011043Y002638D01*
X011071Y002631D01*
X011098Y002621D01*
X011124Y002607D01*
X011147Y002590D01*
X011168Y002570D01*
X011186Y002547D01*
X011201Y002522D01*
X011212Y002495D01*
X011220Y002467D01*
X011224Y002438D01*
X011224Y002410D01*
X011220Y002381D01*
X011212Y002353D01*
X011201Y002326D01*
X011186Y002301D01*
X011168Y002278D01*
X011147Y002258D01*
X011124Y002241D01*
X011098Y002227D01*
X011071Y002217D01*
X011043Y002210D01*
X011014Y002207D01*
X010985Y002208D01*
X010957Y002213D01*
X010929Y002221D01*
X010903Y002234D01*
X010878Y002249D01*
X010856Y002268D01*
X010837Y002290D01*
X010820Y002313D01*
X010807Y002339D01*
X010798Y002367D01*
X010792Y002395D01*
X010790Y002424D01*
X010692Y012188D02*
X010694Y012223D01*
X010700Y012258D01*
X010710Y012292D01*
X010723Y012325D01*
X010740Y012356D01*
X010761Y012384D01*
X010784Y012411D01*
X010811Y012434D01*
X010839Y012455D01*
X010870Y012472D01*
X010903Y012485D01*
X010937Y012495D01*
X010972Y012501D01*
X011007Y012503D01*
X011042Y012501D01*
X011077Y012495D01*
X011111Y012485D01*
X011144Y012472D01*
X011175Y012455D01*
X011203Y012434D01*
X011230Y012411D01*
X011253Y012384D01*
X011274Y012356D01*
X011291Y012325D01*
X011304Y012292D01*
X011314Y012258D01*
X011320Y012223D01*
X011322Y012188D01*
X011320Y012153D01*
X011314Y012118D01*
X011304Y012084D01*
X011291Y012051D01*
X011274Y012020D01*
X011253Y011992D01*
X011230Y011965D01*
X011203Y011942D01*
X011175Y011921D01*
X011144Y011904D01*
X011111Y011891D01*
X011077Y011881D01*
X011042Y011875D01*
X011007Y011873D01*
X010972Y011875D01*
X010937Y011881D01*
X010903Y011891D01*
X010870Y011904D01*
X010839Y011921D01*
X010811Y011942D01*
X010784Y011965D01*
X010761Y011992D01*
X010740Y012020D01*
X010723Y012051D01*
X010710Y012084D01*
X010700Y012118D01*
X010694Y012153D01*
X010692Y012188D01*
X001322Y012582D02*
X001324Y012632D01*
X001330Y012682D01*
X001340Y012731D01*
X001354Y012779D01*
X001371Y012826D01*
X001392Y012871D01*
X001417Y012915D01*
X001445Y012956D01*
X001477Y012995D01*
X001511Y013032D01*
X001548Y013066D01*
X001588Y013096D01*
X001630Y013123D01*
X001674Y013147D01*
X001720Y013168D01*
X001767Y013184D01*
X001815Y013197D01*
X001865Y013206D01*
X001914Y013211D01*
X001965Y013212D01*
X002015Y013209D01*
X002064Y013202D01*
X002113Y013191D01*
X002161Y013176D01*
X002207Y013158D01*
X002252Y013136D01*
X002295Y013110D01*
X002336Y013081D01*
X002375Y013049D01*
X002411Y013014D01*
X002443Y012976D01*
X002473Y012936D01*
X002500Y012893D01*
X002523Y012849D01*
X002542Y012803D01*
X002558Y012755D01*
X002570Y012706D01*
X002578Y012657D01*
X002582Y012607D01*
X002582Y012557D01*
X002578Y012507D01*
X002570Y012458D01*
X002558Y012409D01*
X002542Y012361D01*
X002523Y012315D01*
X002500Y012271D01*
X002473Y012228D01*
X002443Y012188D01*
X002411Y012150D01*
X002375Y012115D01*
X002336Y012083D01*
X002295Y012054D01*
X002252Y012028D01*
X002207Y012006D01*
X002161Y011988D01*
X002113Y011973D01*
X002064Y011962D01*
X002015Y011955D01*
X001965Y011952D01*
X001914Y011953D01*
X001865Y011958D01*
X001815Y011967D01*
X001767Y011980D01*
X001720Y011996D01*
X001674Y012017D01*
X001630Y012041D01*
X001588Y012068D01*
X001548Y012098D01*
X001511Y012132D01*
X001477Y012169D01*
X001445Y012208D01*
X001417Y012249D01*
X001392Y012293D01*
X001371Y012338D01*
X001354Y012385D01*
X001340Y012433D01*
X001330Y012482D01*
X001324Y012532D01*
X001322Y012582D01*
D11*
X001452Y009267D03*
X002452Y009267D03*
X002452Y008267D03*
X002452Y007267D03*
X001452Y007267D03*
X001452Y008267D03*
X001452Y006267D03*
X002452Y006267D03*
X002452Y005267D03*
X001452Y005267D03*
D12*
X001123Y004973D02*
X000557Y004973D01*
X000557Y004815D02*
X002225Y004815D01*
X002253Y004787D02*
X001972Y005068D01*
X001972Y005247D01*
X002432Y005247D01*
X002432Y005287D01*
X002432Y005747D01*
X002253Y005747D01*
X001972Y005465D01*
X001972Y005287D01*
X002432Y005287D01*
X002472Y005287D01*
X002472Y005747D01*
X002650Y005747D01*
X002932Y005465D01*
X002932Y005287D01*
X002472Y005287D01*
X002472Y005247D01*
X002932Y005247D01*
X002932Y005068D01*
X002650Y004787D01*
X002472Y004787D01*
X002472Y005247D01*
X002432Y005247D01*
X002432Y004787D01*
X002253Y004787D01*
X002432Y004815D02*
X002472Y004815D01*
X002472Y004973D02*
X002432Y004973D01*
X002432Y005132D02*
X002472Y005132D01*
X002472Y005290D02*
X002432Y005290D01*
X002432Y005449D02*
X002472Y005449D01*
X002472Y005607D02*
X002432Y005607D01*
X002269Y005827D02*
X002634Y005827D01*
X002892Y006084D01*
X002892Y006449D01*
X002634Y006707D01*
X002269Y006707D01*
X002012Y006449D01*
X002012Y006084D01*
X002269Y005827D01*
X002172Y005924D02*
X001732Y005924D01*
X001634Y005827D02*
X001892Y006084D01*
X001892Y006449D01*
X001634Y006707D01*
X001269Y006707D01*
X001012Y006449D01*
X001012Y006084D01*
X001269Y005827D01*
X001634Y005827D01*
X001634Y005707D02*
X001269Y005707D01*
X001012Y005449D01*
X001012Y005084D01*
X001269Y004827D01*
X001634Y004827D01*
X001892Y005084D01*
X001892Y005449D01*
X001634Y005707D01*
X001733Y005607D02*
X002114Y005607D01*
X001972Y005449D02*
X001892Y005449D01*
X001892Y005290D02*
X001972Y005290D01*
X001972Y005132D02*
X001892Y005132D01*
X001781Y004973D02*
X002066Y004973D01*
X002679Y004815D02*
X013976Y004815D01*
X013976Y004973D02*
X002837Y004973D01*
X002932Y005132D02*
X013976Y005132D01*
X013976Y005290D02*
X002932Y005290D01*
X002932Y005449D02*
X013976Y005449D01*
X013976Y005607D02*
X002790Y005607D01*
X002732Y005924D02*
X013976Y005924D01*
X013976Y005766D02*
X000557Y005766D01*
X000557Y005924D02*
X001172Y005924D01*
X001013Y006083D02*
X000557Y006083D01*
X000557Y006241D02*
X001012Y006241D01*
X001012Y006400D02*
X000557Y006400D01*
X000557Y006558D02*
X001121Y006558D01*
X001269Y006827D02*
X001634Y006827D01*
X001892Y007084D01*
X001892Y007449D01*
X001634Y007707D01*
X001269Y007707D01*
X001012Y007449D01*
X001012Y007084D01*
X001269Y006827D01*
X001221Y006875D02*
X000557Y006875D01*
X000557Y006717D02*
X013976Y006717D01*
X013976Y006875D02*
X002683Y006875D01*
X002634Y006827D02*
X002892Y007084D01*
X002892Y007449D01*
X002634Y007707D01*
X002269Y007707D01*
X002012Y007449D01*
X002012Y007084D01*
X002269Y006827D01*
X002634Y006827D01*
X002782Y006558D02*
X013976Y006558D01*
X013976Y006400D02*
X002892Y006400D01*
X002892Y006241D02*
X013976Y006241D01*
X013976Y006083D02*
X002890Y006083D01*
X002121Y006558D02*
X001782Y006558D01*
X001892Y006400D02*
X002012Y006400D01*
X002012Y006241D02*
X001892Y006241D01*
X001890Y006083D02*
X002013Y006083D01*
X001170Y005607D02*
X000557Y005607D01*
X000557Y005449D02*
X001012Y005449D01*
X001012Y005290D02*
X000557Y005290D01*
X000557Y005132D02*
X001012Y005132D01*
X000557Y004656D02*
X013976Y004656D01*
X013976Y004498D02*
X000557Y004498D01*
X000557Y004339D02*
X013976Y004339D01*
X013976Y004181D02*
X000557Y004181D01*
X000557Y004022D02*
X013976Y004022D01*
X013976Y003864D02*
X000557Y003864D01*
X000557Y003705D02*
X013976Y003705D01*
X013976Y003547D02*
X000557Y003547D01*
X000557Y003388D02*
X013976Y003388D01*
X013976Y003230D02*
X000557Y003230D01*
X000557Y003071D02*
X013976Y003071D01*
X013976Y002913D02*
X000557Y002913D01*
X000557Y002754D02*
X001773Y002754D01*
X001791Y002762D02*
X001493Y002638D01*
X001265Y002410D01*
X001142Y002113D01*
X001142Y001791D01*
X001265Y001493D01*
X001493Y001265D01*
X001791Y001142D01*
X002113Y001142D01*
X002410Y001265D01*
X002638Y001493D01*
X002762Y001791D01*
X002762Y002113D01*
X002638Y002410D01*
X002410Y002638D01*
X002113Y002762D01*
X001791Y002762D01*
X002130Y002754D02*
X010776Y002754D01*
X010782Y002760D02*
X010671Y002649D01*
X010610Y002503D01*
X010610Y002345D01*
X010671Y002199D01*
X010782Y002088D01*
X010928Y002028D01*
X011086Y002028D01*
X011231Y002088D01*
X011343Y002199D01*
X011403Y002345D01*
X011403Y002503D01*
X011343Y002649D01*
X011231Y002760D01*
X011086Y002821D01*
X010928Y002821D01*
X010782Y002760D01*
X010649Y002596D02*
X002453Y002596D01*
X002611Y002437D02*
X010610Y002437D01*
X010638Y002279D02*
X002693Y002279D01*
X002758Y002120D02*
X010750Y002120D01*
X011264Y002120D02*
X013976Y002120D01*
X013976Y001962D02*
X002762Y001962D01*
X002762Y001803D02*
X013976Y001803D01*
X013976Y001645D02*
X002701Y001645D01*
X002632Y001486D02*
X013976Y001486D01*
X013976Y001328D02*
X002473Y001328D01*
X002179Y001169D02*
X013976Y001169D01*
X013976Y001011D02*
X000557Y001011D01*
X000557Y000852D02*
X013976Y000852D01*
X013976Y000694D02*
X000557Y000694D01*
X000557Y000557D02*
X000557Y013976D01*
X013976Y013976D01*
X013976Y000557D01*
X000557Y000557D01*
X000557Y001169D02*
X001724Y001169D01*
X001430Y001328D02*
X000557Y001328D01*
X000557Y001486D02*
X001272Y001486D01*
X001202Y001645D02*
X000557Y001645D01*
X000557Y001803D02*
X001142Y001803D01*
X001142Y001962D02*
X000557Y001962D01*
X000557Y002120D02*
X001145Y002120D01*
X001211Y002279D02*
X000557Y002279D01*
X000557Y002437D02*
X001292Y002437D01*
X001450Y002596D02*
X000557Y002596D01*
X001683Y006875D02*
X002221Y006875D01*
X002062Y007034D02*
X001841Y007034D01*
X001892Y007192D02*
X002012Y007192D01*
X002012Y007351D02*
X001892Y007351D01*
X001831Y007509D02*
X002072Y007509D01*
X002231Y007668D02*
X001673Y007668D01*
X001634Y007827D02*
X001892Y008084D01*
X001892Y008449D01*
X001634Y008707D01*
X001269Y008707D01*
X001012Y008449D01*
X001012Y008084D01*
X001269Y007827D01*
X001634Y007827D01*
X001792Y007985D02*
X002111Y007985D01*
X002012Y008084D02*
X002269Y007827D01*
X002634Y007827D01*
X002892Y008084D01*
X002892Y008449D01*
X002634Y008707D01*
X002269Y008707D01*
X002012Y008449D01*
X002012Y008084D01*
X002012Y008143D02*
X001892Y008143D01*
X001892Y008302D02*
X002012Y008302D01*
X002023Y008460D02*
X001880Y008460D01*
X001722Y008619D02*
X002182Y008619D01*
X002253Y008787D02*
X001972Y009068D01*
X001972Y009247D01*
X002432Y009247D01*
X002432Y009287D01*
X002432Y009747D01*
X002253Y009747D01*
X001972Y009465D01*
X001972Y009287D01*
X002432Y009287D01*
X002472Y009287D01*
X002472Y009747D01*
X002650Y009747D01*
X002932Y009465D01*
X002932Y009287D01*
X002472Y009287D01*
X002472Y009247D01*
X002932Y009247D01*
X002932Y009068D01*
X002650Y008787D01*
X002472Y008787D01*
X002472Y009247D01*
X002432Y009247D01*
X002432Y008787D01*
X002253Y008787D01*
X002104Y008936D02*
X001743Y008936D01*
X001634Y008827D02*
X001892Y009084D01*
X001892Y009449D01*
X001634Y009707D01*
X001269Y009707D01*
X001012Y009449D01*
X001012Y009084D01*
X001269Y008827D01*
X001634Y008827D01*
X001892Y009094D02*
X001972Y009094D01*
X001892Y009253D02*
X002432Y009253D01*
X002472Y009253D02*
X013976Y009253D01*
X013976Y009411D02*
X002932Y009411D01*
X002827Y009570D02*
X013976Y009570D01*
X013976Y009728D02*
X002669Y009728D01*
X002472Y009728D02*
X002432Y009728D01*
X002432Y009570D02*
X002472Y009570D01*
X002472Y009411D02*
X002432Y009411D01*
X002432Y009094D02*
X002472Y009094D01*
X002472Y008936D02*
X002432Y008936D01*
X002722Y008619D02*
X013976Y008619D01*
X013976Y008777D02*
X000557Y008777D01*
X000557Y008619D02*
X001182Y008619D01*
X001023Y008460D02*
X000557Y008460D01*
X000557Y008302D02*
X001012Y008302D01*
X001012Y008143D02*
X000557Y008143D01*
X000557Y007985D02*
X001111Y007985D01*
X001231Y007668D02*
X000557Y007668D01*
X000557Y007826D02*
X013976Y007826D01*
X013976Y007668D02*
X002673Y007668D01*
X002831Y007509D02*
X013976Y007509D01*
X013976Y007351D02*
X002892Y007351D01*
X002892Y007192D02*
X013976Y007192D01*
X013976Y007034D02*
X002841Y007034D01*
X002792Y007985D02*
X013976Y007985D01*
X013976Y008143D02*
X002892Y008143D01*
X002892Y008302D02*
X013976Y008302D01*
X013976Y008460D02*
X002880Y008460D01*
X002800Y008936D02*
X013976Y008936D01*
X013976Y009094D02*
X002932Y009094D01*
X002235Y009728D02*
X000557Y009728D01*
X000557Y009570D02*
X001133Y009570D01*
X001012Y009411D02*
X000557Y009411D01*
X000557Y009253D02*
X001012Y009253D01*
X001012Y009094D02*
X000557Y009094D01*
X000557Y008936D02*
X001160Y008936D01*
X001771Y009570D02*
X002076Y009570D01*
X001972Y009411D02*
X001892Y009411D01*
X000557Y009887D02*
X013976Y009887D01*
X013976Y010045D02*
X000557Y010045D01*
X000557Y010204D02*
X013976Y010204D01*
X013976Y010362D02*
X000557Y010362D01*
X000557Y010521D02*
X013976Y010521D01*
X013976Y010679D02*
X000557Y010679D01*
X000557Y010838D02*
X013976Y010838D01*
X013976Y010996D02*
X000557Y010996D01*
X000557Y011155D02*
X013976Y011155D01*
X013976Y011313D02*
X000557Y011313D01*
X000557Y011472D02*
X013976Y011472D01*
X013976Y011630D02*
X000557Y011630D01*
X000557Y011789D02*
X001749Y011789D01*
X001791Y011772D02*
X002113Y011772D01*
X002410Y011895D01*
X002638Y012123D01*
X002762Y012420D01*
X002762Y012743D01*
X002638Y013040D01*
X002410Y013268D01*
X002113Y013391D01*
X001791Y013391D01*
X001493Y013268D01*
X001265Y013040D01*
X001142Y012743D01*
X001142Y012420D01*
X001265Y012123D01*
X001493Y011895D01*
X001791Y011772D01*
X002154Y011789D02*
X010706Y011789D01*
X010726Y011768D02*
X010908Y011693D01*
X011105Y011693D01*
X011287Y011768D01*
X011426Y011908D01*
X011502Y012089D01*
X011502Y012286D01*
X011426Y012468D01*
X011287Y012607D01*
X011105Y012683D01*
X010908Y012683D01*
X010726Y012607D01*
X010587Y012468D01*
X010512Y012286D01*
X010512Y012089D01*
X010587Y011908D01*
X010726Y011768D01*
X010571Y011947D02*
X002463Y011947D01*
X002621Y012106D02*
X010512Y012106D01*
X010512Y012264D02*
X002697Y012264D01*
X002762Y012423D02*
X010568Y012423D01*
X010700Y012581D02*
X002762Y012581D01*
X002762Y012740D02*
X013976Y012740D01*
X013976Y012898D02*
X002697Y012898D01*
X002622Y013057D02*
X013976Y013057D01*
X013976Y013215D02*
X002463Y013215D01*
X002155Y013374D02*
X013976Y013374D01*
X013976Y013532D02*
X000557Y013532D01*
X000557Y013374D02*
X001748Y013374D01*
X001440Y013215D02*
X000557Y013215D01*
X000557Y013057D02*
X001282Y013057D01*
X001206Y012898D02*
X000557Y012898D01*
X000557Y012740D02*
X001142Y012740D01*
X001142Y012581D02*
X000557Y012581D01*
X000557Y012423D02*
X001142Y012423D01*
X001206Y012264D02*
X000557Y012264D01*
X000557Y012106D02*
X001282Y012106D01*
X001440Y011947D02*
X000557Y011947D01*
X000557Y013691D02*
X013976Y013691D01*
X013976Y013849D02*
X000557Y013849D01*
X000557Y007509D02*
X001072Y007509D01*
X001012Y007351D02*
X000557Y007351D01*
X000557Y007192D02*
X001012Y007192D01*
X001062Y007034D02*
X000557Y007034D01*
X011237Y002754D02*
X013976Y002754D01*
X013976Y002596D02*
X011365Y002596D01*
X011403Y002437D02*
X013976Y002437D01*
X013976Y002279D02*
X011376Y002279D01*
X011308Y011789D02*
X013976Y011789D01*
X013976Y011947D02*
X011443Y011947D01*
X011502Y012106D02*
X013976Y012106D01*
X013976Y012264D02*
X011502Y012264D01*
X011445Y012423D02*
X013976Y012423D01*
X013976Y012581D02*
X011313Y012581D01*
M02*
