  0
SECTION
  2
HEADER
  9
$MEASUREMENT
  70
  1
  9
$INSUNITS
  70
  4
  0
ENDSEC
  0
SECTION
  2
TABLES
  0
TABLE
  2
LTYPE
 70
     1
  0
LTYPE
  2
CONTINUOUS
 70
    64
  3
Ausgezogene Linie
 72
    65
 73
     0
 40
0.0
  0
ENDTAB
  0
TABLE
  2
LAYER
 70
     3
  0
LAYER
  2
Kontur
 70
    64
 62
     7
  6
CONTINUOUS
  0
LAYER
  2
Gravur
 70
    64
 62
     7
  6
CONTINUOUS
  0
LAYER
  2
Bezugspunkte
 70
    64
 62
     1
  6
CONTINUOUS
  0
ENDTAB
  0
TABLE
  2
STYLE
 70
     1
  0
STYLE
  2
TXT
 70
    64
 40
0.0
 41
1.0
 50
0.0
 71
     0
 42
3.500000
  3
TXT
  0
ENDTAB
  0
ENDSEC
  0
SECTION
  2
BLOCKS
  0
ENDSEC
  0
SECTION
  2
ENTITIES
  0
LINE
  8
Kontur
 62
   7
 39
0.100
  6
CONTINUOUS
 10
98.00000
 20
143.00000
 30
 0
 11
3.00000
 21
143.00000
  0
ARC
  8
Kontur
 62
   7
 39
0.100
  6
CONTINUOUS
 10
3.00000
 20
140.00000
 30
 0
 40
3.00000
 50
90.00000
 51
180.00000
  0
LINE
  8
Kontur
 62
   7
 39
0.100
  6
CONTINUOUS
 10
0.00000
 20
140.00000
 30
 0
 11
0.00000
 21
3.00000
  0
ARC
  8
Kontur
 62
   7
 39
0.100
  6
CONTINUOUS
 10
3.00000
 20
3.00000
 30
 0
 40
3.00000
 50
180.00000
 51
270.00000
  0
LINE
  8
Kontur
 62
   7
 39
0.100
  6
CONTINUOUS
 10
3.00000
 20
0.00000
 30
 0
 11
98.00000
 21
0.00000
  0
ARC
  8
Kontur
 62
   7
 39
0.100
  6
CONTINUOUS
 10
98.00000
 20
3.00000
 30
 0
 40
3.00000
 50
-90.00000
 51
0.00000
  0
LINE
  8
Kontur
 62
   7
 39
0.100
  6
CONTINUOUS
 10
101.00000
 20
3.00000
 30
 0
 11
101.00000
 21
140.00000
  0
ARC
  8
Kontur
 62
   7
 39
0.100
  6
CONTINUOUS
 10
98.00000
 20
140.00000
 30
 0
 40
3.00000
 50
0.00000
 51
90.00000
  0
LINE
  8
Kontur
 62
   7
 39
0.100
  6
CONTINUOUS
 10
86.50000
 20
122.50000
 30
 0
 11
86.50000
 21
73.50000
  0
ARC
  8
Kontur
 62
   7
 39
0.100
  6
CONTINUOUS
 10
85.00000
 20
73.50000
 30
 0
 40
1.50000
 50
270.00000
 51
0.00000
  0
LINE
  8
Kontur
 62
   7
 39
0.100
  6
CONTINUOUS
 10
85.00000
 20
72.00000
 30
 0
 11
16.00000
 21
72.00000
  0
ARC
  8
Kontur
 62
   7
 39
0.100
  6
CONTINUOUS
 10
16.00000
 20
73.50000
 30
 0
 40
1.50000
 50
180.00000
 51
-90.00000
  0
LINE
  8
Kontur
 62
   7
 39
0.100
  6
CONTINUOUS
 10
14.50000
 20
73.50000
 30
 0
 11
14.50000
 21
122.50000
  0
ARC
  8
Kontur
 62
   7
 39
0.100
  6
CONTINUOUS
 10
16.00000
 20
122.50000
 30
 0
 40
1.50000
 50
450.00000
 51
180.00000
  0
LINE
  8
Kontur
 62
   7
 39
0.100
  6
CONTINUOUS
 10
16.00000
 20
124.00000
 30
 0
 11
85.00000
 21
124.00000
  0
ARC
  8
Kontur
 62
   7
 39
0.100
  6
CONTINUOUS
 10
85.00000
 20
122.50000
 30
 0
 40
1.50000
 50
360.00000
 51
90.00000
  0
LINE
  8
Kontur
 62
   7
 39
0.100
  6
CONTINUOUS
 10
80.50000
 20
114.00000
 30
 0
 11
80.50000
 21
82.00000
  0
LINE
  8
Kontur
 62
   7
 39
0.100
  6
CONTINUOUS
 10
80.50000
 20
82.00000
 30
 0
 11
80.50000
 21
82.00000
  0
LINE
  8
Kontur
 62
   7
 39
0.100
  6
CONTINUOUS
 10
80.50000
 20
82.00000
 30
 0
 11
20.50000
 21
82.00000
  0
LINE
  8
Kontur
 62
   7
 39
0.100
  6
CONTINUOUS
 10
20.50000
 20
82.00000
 30
 0
 11
20.50000
 21
82.00000
  0
LINE
  8
Kontur
 62
   7
 39
0.100
  6
CONTINUOUS
 10
20.50000
 20
82.00000
 30
 0
 11
20.50000
 21
114.00000
  0
LINE
  8
Kontur
 62
   7
 39
0.100
  6
CONTINUOUS
 10
20.50000
 20
114.00000
 30
 0
 11
20.50000
 21
114.00000
  0
LINE
  8
Kontur
 62
   7
 39
0.100
  6
CONTINUOUS
 10
20.50000
 20
114.00000
 30
 0
 11
80.50000
 21
114.00000
  0
LINE
  8
Kontur
 62
   7
 39
0.100
  6
CONTINUOUS
 10
80.50000
 20
114.00000
 30
 0
 11
80.50000
 21
114.00000
  0
LINE
  8
Gravur
 62
   2
 39
0.200
  6
CONTINUOUS
 10
62.12800
 20
5.22000
 30
 0
 11
62.12800
 21
2.59600
  0
LINE
  8
Gravur
 62
   2
 39
0.200
  6
CONTINUOUS
 10
62.12800
 20
2.59600
 30
 0
 11
62.51200
 21
2.59600
  0
LINE
  8
Gravur
 62
   2
 39
0.200
  6
CONTINUOUS
 10
62.51200
 20
2.59600
 30
 0
 11
62.51200
 21
3.39600
  0
LINE
  8
Gravur
 62
   2
 39
0.200
  6
CONTINUOUS
 10
62.51200
 20
3.39600
 30
 0
 11
64.33600
 21
3.39600
  0
ARC
  8
Gravur
 62
   2
 39
0.200
  6
CONTINUOUS
 10
64.37900
 20
2.73400
 30
 0
 40
0.66300
 50
364.67037
 51
93.71641
  0
LINE
  8
Gravur
 62
   2
 39
0.200
  6
CONTINUOUS
 10
65.04000
 20
2.78800
 30
 0
 11
65.04000
 21
2.62800
  0
LINE
  8
Gravur
 62
   2
 39
0.200
  6
CONTINUOUS
 10
65.04000
 20
2.62800
 30
 0
 11
65.45600
 21
2.62800
  0
LINE
  8
Gravur
 62
   2
 39
0.200
  6
CONTINUOUS
 10
65.45600
 20
2.62800
 30
 0
 11
65.45600
 21
2.85200
  0
ARC
  8
Gravur
 62
   2
 39
0.200
  6
CONTINUOUS
 10
64.72700
 20
2.72800
 30
 0
 40
0.73900
 50
9.65339
 51
59.34192
  0
LINE
  8
Gravur
 62
   2
 39
0.200
  6
CONTINUOUS
 10
65.10400
 20
3.36400
 30
 0
 11
64.88000
 21
3.52400
  0
ARC
  8
Gravur
 62
   2
 39
0.200
  6
CONTINUOUS
 10
64.76300
 20
4.19400
 30
 0
 40
0.68000
 50
-80.09450
 51
-13.44327
  0
LINE
  8
Gravur
 62
   2
 39
0.200
  6
CONTINUOUS
 10
65.42400
 20
4.03600
 30
 0
 11
65.42400
 21
4.80400
  0
ARC
  8
Gravur
 62
   2
 39
0.200
  6
CONTINUOUS
 10
64.85200
 20
4.74400
 30
 0
 40
0.57500
 50
5.98815
 51
84.01185
  0
LINE
  8
Gravur
 62
   2
 39
0.200
  6
CONTINUOUS
 10
64.91200
 20
5.31600
 30
 0
 11
62.09600
 21
5.31600
  0
LINE
  8
Gravur
 62
   2
 39
0.200
  6
CONTINUOUS
 10
62.09600
 20
5.31600
 30
 0
 11
62.28800
 21
5.18800
  0
LINE
  8
Gravur
 62
   2
 39
0.200
  6
CONTINUOUS
 10
62.28800
 20
5.18800
 30
 0
 11
62.28800
 21
2.69200
  0
LINE
  8
Gravur
 62
   2
 39
0.200
  6
CONTINUOUS
 10
62.28800
 20
2.69200
 30
 0
 11
62.38400
 21
2.69200
  0
LINE
  8
Gravur
 62
   2
 39
0.200
  6
CONTINUOUS
 10
62.38400
 20
2.69200
 30
 0
 11
62.38400
 21
3.49200
  0
LINE
  8
Gravur
 62
   2
 39
0.200
  6
CONTINUOUS
 10
62.38400
 20
3.49200
 30
 0
 11
64.40000
 21
3.49200
  0
ARC
  8
Gravur
 62
   2
 39
0.200
  6
CONTINUOUS
 10
64.39600
 20
2.77700
 30
 0
 40
0.71500
 50
399.94925
 51
89.67947
  0
ARC
  8
Gravur
 62
   2
 39
0.200
  6
CONTINUOUS
 10
64.52400
 20
2.74700
 30
 0
 40
0.64500
 50
357.95459
 51
49.34086
  0
LINE
  8
Gravur
 62
   2
 39
0.200
  6
CONTINUOUS
 10
65.16800
 20
2.72400
 30
 0
 11
65.32800
 21
2.72400
  0
LINE
  8
Gravur
 62
   2
 39
0.200
  6
CONTINUOUS
 10
65.32800
 20
2.72400
 30
 0
 11
65.32800
 21
2.85200
  0
ARC
  8
Gravur
 62
   2
 39
0.200
  6
CONTINUOUS
 10
64.23300
 20
2.47900
 30
 0
 40
1.15700
 50
18.81086
 51
68.55720
  0
LINE
  8
Gravur
 62
   2
 39
0.200
  6
CONTINUOUS
 10
64.65600
 20
3.55600
 30
 0
 11
64.91200
 21
3.65200
  0
ARC
  8
Gravur
 62
   2
 39
0.200
  6
CONTINUOUS
 10
64.72200
 20
4.16400
 30
 0
 40
0.54600
 50
-69.64042
 51
6.73437
  0
LINE
  8
Gravur
 62
   2
 39
0.200
  6
CONTINUOUS
 10
65.26400
 20
4.22800
 30
 0
 11
65.26400
 21
4.64400
  0
ARC
  8
Gravur
 62
   2
 39
0.200
  6
CONTINUOUS
 10
64.74400
 20
4.66800
 30
 0
 40
0.52100
 50
-2.64255
 51
92.64255
  0
LINE
  8
Gravur
 62
   2
 39
0.200
  6
CONTINUOUS
 10
64.72000
 20
5.18800
 30
 0
 11
62.48000
 21
5.18800
  0
LINE
  8
Gravur
 62
   2
 39
0.200
  6
CONTINUOUS
 10
62.48000
 20
5.18800
 30
 0
 11
62.48000
 21
3.62000
  0
LINE
  8
Gravur
 62
   2
 39
0.200
  6
CONTINUOUS
 10
62.48000
 20
3.62000
 30
 0
 11
64.49600
 21
3.62000
  0
ARC
  8
Gravur
 62
   2
 39
0.200
  6
CONTINUOUS
 10
64.41000
 20
4.33900
 30
 0
 40
0.72400
 50
-83.17922
 51
-16.60831
  0
LINE
  8
Gravur
 62
   2
 39
0.200
  6
CONTINUOUS
 10
65.10400
 20
4.13200
 30
 0
 11
65.10400
 21
4.67600
  0
ARC
  8
Gravur
 62
   2
 39
0.200
  6
CONTINUOUS
 10
64.53800
 20
4.50700
 30
 0
 40
0.59100
 50
16.62492
 51
81.63693
  0
LINE
  8
Gravur
 62
   2
 39
0.200
  6
CONTINUOUS
 10
64.62400
 20
5.09200
 30
 0
 11
62.64000
 21
5.09200
  0
LINE
  8
Gravur
 62
   2
 39
0.200
  6
CONTINUOUS
 10
62.64000
 20
5.09200
 30
 0
 11
62.64000
 21
4.99600
  0
LINE
  8
Gravur
 62
   2
 39
0.200
  6
CONTINUOUS
 10
62.64000
 20
4.99600
 30
 0
 11
62.64000
 21
3.74800
  0
LINE
  8
Gravur
 62
   2
 39
0.200
  6
CONTINUOUS
 10
62.64000
 20
3.74800
 30
 0
 11
64.43200
 21
3.74800
  0
ARC
  8
Gravur
 62
   2
 39
0.200
  6
CONTINUOUS
 10
64.43500
 20
4.25700
 30
 0
 40
0.50900
 50
-90.33769
 51
0.33769
  0
LINE
  8
Gravur
 62
   2
 39
0.200
  6
CONTINUOUS
 10
64.94400
 20
4.26000
 30
 0
 11
64.94400
 21
4.48400
  0
ARC
  8
Gravur
 62
   2
 39
0.200
  6
CONTINUOUS
 10
64.43500
 20
4.48700
 30
 0
 40
0.50900
 50
-0.33769
 51
90.33769
  0
LINE
  8
Gravur
 62
   2
 39
0.200
  6
CONTINUOUS
 10
64.43200
 20
4.99600
 30
 0
 11
62.64000
 21
4.99600
  0
LINE
  8
Gravur
 62
   2
 39
0.200
  6
CONTINUOUS
 10
62.64000
 20
4.99600
 30
 0
 11
62.64000
 21
3.74800
  0
LINE
  8
Gravur
 62
   2
 39
0.200
  6
CONTINUOUS
 10
62.64000
 20
3.74800
 30
 0
 11
62.64000
 21
3.30000
  0
LINE
  8
Gravur
 62
   2
 39
0.200
  6
CONTINUOUS
 10
62.64000
 20
3.30000
 30
 0
 11
64.43200
 21
3.30000
  0
ARC
  8
Gravur
 62
   2
 39
0.200
  6
CONTINUOUS
 10
64.43500
 20
2.79100
 30
 0
 40
0.50900
 50
359.66231
 51
90.33769
  0
LINE
  8
Gravur
 62
   2
 39
0.200
  6
CONTINUOUS
 10
64.94400
 20
2.78800
 30
 0
 11
64.94400
 21
2.50000
  0
LINE
  8
Gravur
 62
   2
 39
0.200
  6
CONTINUOUS
 10
64.94400
 20
2.50000
 30
 0
 11
65.58400
 21
2.50000
  0
LINE
  8
Gravur
 62
   2
 39
0.200
  6
CONTINUOUS
 10
65.58400
 20
2.50000
 30
 0
 11
65.58400
 21
2.88400
  0
ARC
  8
Gravur
 62
   2
 39
0.200
  6
CONTINUOUS
 10
64.81700
 20
2.77200
 30
 0
 40
0.77500
 50
8.30781
 51
68.26722
  0
ARC
  8
Gravur
 62
   2
 39
0.200
  6
CONTINUOUS
 10
64.95800
 20
4.10100
 30
 0
 40
0.62600
 50
-76.51850
 51
-0.09153
  0
LINE
  8
Gravur
 62
   2
 39
0.200
  6
CONTINUOUS
 10
65.58400
 20
4.10000
 30
 0
 11
65.58400
 21
4.86800
  0
ARC
  8
Gravur
 62
   2
 39
0.200
  6
CONTINUOUS
 10
65.01100
 20
4.87100
 30
 0
 40
0.57300
 50
-0.29998
 51
90.29998
  0
LINE
  8
Gravur
 62
   2
 39
0.200
  6
CONTINUOUS
 10
65.00800
 20
5.44400
 30
 0
 11
62.00000
 21
5.44400
  0
LINE
  8
Gravur
 62
   2
 39
0.200
  6
CONTINUOUS
 10
62.00000
 20
5.44400
 30
 0
 11
62.00000
 21
2.50000
  0
LINE
  8
Gravur
 62
   2
 39
0.200
  6
CONTINUOUS
 10
62.00000
 20
2.50000
 30
 0
 11
62.64000
 21
2.50000
  0
LINE
  8
Gravur
 62
   2
 39
0.200
  6
CONTINUOUS
 10
62.64000
 20
2.50000
 30
 0
 11
62.64000
 21
3.30000
  0
LINE
  8
Gravur
 62
   2
 39
0.200
  6
CONTINUOUS
 10
69.04000
 20
4.35600
 30
 0
 11
69.04000
 21
2.59600
  0
LINE
  8
Gravur
 62
   2
 39
0.200
  6
CONTINUOUS
 10
69.04000
 20
2.59600
 30
 0
 11
69.16800
 21
2.59600
  0
LINE
  8
Gravur
 62
   2
 39
0.200
  6
CONTINUOUS
 10
69.16800
 20
2.59600
 30
 0
 11
69.16800
 21
4.38800
  0
LINE
  8
Gravur
 62
   2
 39
0.200
  6
CONTINUOUS
 10
69.16800
 20
4.38800
 30
 0
 11
68.88000
 21
4.38800
  0
LINE
  8
Gravur
 62
   2
 39
0.200
  6
CONTINUOUS
 10
68.88000
 20
4.38800
 30
 0
 11
68.88000
 21
2.59600
  0
LINE
  8
Gravur
 62
   2
 39
0.200
  6
CONTINUOUS
 10
68.88000
 20
2.59600
 30
 0
 11
68.88000
 21
3.62000
  0
ARC
  8
Gravur
 62
   2
 39
0.200
  6
CONTINUOUS
 10
64.07000
 20
5.07800
 30
 0
 40
5.02600
 50
334.11810
 51
-16.86303
  0
ARC
  8
Gravur
 62
   2
 39
0.200
  6
CONTINUOUS
 10
67.96300
 20
3.33400
 30
 0
 40
0.77300
 50
264.43679
 51
-35.58074
  0
ARC
  8
Gravur
 62
   2
 39
0.200
  6
CONTINUOUS
 10
67.53600
 20
10.01100
 30
 0
 40
7.45500
 50
267.29379
 51
-87.29379
  0
ARC
  8
Gravur
 62
   2
 39
0.200
  6
CONTINUOUS
 10
67.16200
 20
3.05600
 30
 0
 40
0.49200
 50
185.13117
 51
-87.43970
  0
LINE
  8
Gravur
 62
   2
 39
0.200
  6
CONTINUOUS
 10
66.67200
 20
3.01200
 30
 0
 11
66.67200
 21
4.42000
  0
LINE
  8
Gravur
 62
   2
 39
0.200
  6
CONTINUOUS
 10
66.67200
 20
4.42000
 30
 0
 11
66.83200
 21
4.42000
  0
LINE
  8
Gravur
 62
   2
 39
0.200
  6
CONTINUOUS
 10
66.83200
 20
4.42000
 30
 0
 11
66.83200
 21
3.07600
  0
ARC
  8
Gravur
 62
   2
 39
0.200
  6
CONTINUOUS
 10
67.26900
 20
3.09700
 30
 0
 40
0.43800
 50
-177.24877
 51
-92.75123
  0
ARC
  8
Gravur
 62
   2
 39
0.200
  6
CONTINUOUS
 10
67.66400
 20
6.42200
 30
 0
 40
3.78500
 50
-96.31010
 51
-83.68990
  0
ARC
  8
Gravur
 62
   2
 39
0.200
  6
CONTINUOUS
 10
68.07700
 20
3.20900
 30
 0
 40
0.54900
 50
-89.68691
 51
-45.14767
  0
ARC
  8
Gravur
 62
   2
 39
0.200
  6
CONTINUOUS
 10
67.90800
 20
4.36600
 30
 0
 40
1.64300
 50
268.18612
 51
-70.21950
  0
ARC
  8
Gravur
 62
   2
 39
0.200
  6
CONTINUOUS
 10
68.10800
 20
10.86600
 30
 0
 40
8.14600
 50
264.61835
 51
-91.77277
  0
ARC
  8
Gravur
 62
   2
 39
0.200
  6
CONTINUOUS
 10
67.38000
 20
3.14200
 30
 0
 40
0.38800
 50
180.29534
 51
-95.32823
  0
LINE
  8
Gravur
 62
   2
 39
0.200
  6
CONTINUOUS
 10
66.99200
 20
3.14000
 30
 0
 11
66.99200
 21
4.42000
  0
LINE
  8
Gravur
 62
   2
 39
0.200
  6
CONTINUOUS
 10
66.99200
 20
4.42000
 30
 0
 11
67.12000
 21
4.48400
  0
LINE
  8
Gravur
 62
   2
 39
0.200
  6
CONTINUOUS
 10
67.12000
 20
4.48400
 30
 0
 11
66.54400
 21
4.48400
  0
LINE
  8
Gravur
 62
   2
 39
0.200
  6
CONTINUOUS
 10
66.54400
 20
4.48400
 30
 0
 11
66.54400
 21
3.01200
  0
ARC
  8
Gravur
 62
   2
 39
0.200
  6
CONTINUOUS
 10
67.05100
 20
3.00600
 30
 0
 40
0.50700
 50
179.32198
 51
266.94561
  0
ARC
  8
Gravur
 62
   2
 39
0.200
  6
CONTINUOUS
 10
67.53600
 20
13.33100
 30
 0
 40
10.84300
 50
-92.70646
 51
-87.29354
  0
ARC
  8
Gravur
 62
   2
 39
0.200
  6
CONTINUOUS
 10
68.00900
 20
3.21000
 30
 0
 40
0.71100
 50
-86.85593
 51
2.09427
  0
LINE
  8
Gravur
 62
   2
 39
0.200
  6
CONTINUOUS
 10
68.72000
 20
3.23600
 30
 0
 11
68.72000
 21
2.50000
  0
LINE
  8
Gravur
 62
   2
 39
0.200
  6
CONTINUOUS
 10
68.72000
 20
2.50000
 30
 0
 11
69.29600
 21
2.50000
  0
LINE
  8
Gravur
 62
   2
 39
0.200
  6
CONTINUOUS
 10
69.29600
 20
2.50000
 30
 0
 11
69.29600
 21
4.48400
  0
LINE
  8
Gravur
 62
   2
 39
0.200
  6
CONTINUOUS
 10
69.29600
 20
4.48400
 30
 0
 11
68.72000
 21
4.48400
  0
LINE
  8
Gravur
 62
   2
 39
0.200
  6
CONTINUOUS
 10
68.72000
 20
4.48400
 30
 0
 11
68.72000
 21
3.26800
  0
ARC
  8
Gravur
 62
   2
 39
0.200
  6
CONTINUOUS
 10
68.29200
 20
3.27800
 30
 0
 40
0.42800
 50
275.89696
 51
-1.33844
  0
ARC
  8
Gravur
 62
   2
 39
0.200
  6
CONTINUOUS
 10
67.92000
 20
6.61400
 30
 0
 40
3.78500
 50
263.68990
 51
-83.68990
  0
ARC
  8
Gravur
 62
   2
 39
0.200
  6
CONTINUOUS
 10
67.54800
 20
3.27800
 30
 0
 40
0.42800
 50
181.33844
 51
-95.89696
  0
LINE
  8
Gravur
 62
   2
 39
0.200
  6
CONTINUOUS
 10
67.12000
 20
3.26800
 30
 0
 11
67.12000
 21
4.48400
  0
LINE
  8
Gravur
 62
   2
 39
0.200
  6
CONTINUOUS
 10
70.54400
 20
4.35600
 30
 0
 11
70.54400
 21
2.56400
  0
LINE
  8
Gravur
 62
   2
 39
0.200
  6
CONTINUOUS
 10
70.54400
 20
2.56400
 30
 0
 11
70.38400
 21
2.56400
  0
LINE
  8
Gravur
 62
   2
 39
0.200
  6
CONTINUOUS
 10
70.38400
 20
2.56400
 30
 0
 11
70.38400
 21
4.38800
  0
LINE
  8
Gravur
 62
   2
 39
0.200
  6
CONTINUOUS
 10
70.38400
 20
4.38800
 30
 0
 11
70.70400
 21
4.38800
  0
LINE
  8
Gravur
 62
   2
 39
0.200
  6
CONTINUOUS
 10
70.70400
 20
4.38800
 30
 0
 11
70.70400
 21
2.56400
  0
LINE
  8
Gravur
 62
   2
 39
0.200
  6
CONTINUOUS
 10
70.70400
 20
2.56400
 30
 0
 11
70.70400
 21
3.36400
  0
ARC
  8
Gravur
 62
   2
 39
0.200
  6
CONTINUOUS
 10
73.59900
 20
2.83000
 30
 0
 40
2.94400
 50
515.13243
 51
169.54892
  0
ARC
  8
Gravur
 62
   2
 39
0.200
  6
CONTINUOUS
 10
71.43500
 20
3.78000
 30
 0
 40
0.58300
 50
458.97773
 51
150.40137
  0
ARC
  8
Gravur
 62
   2
 39
0.200
  6
CONTINUOUS
 10
71.87600
 20
2.02300
 30
 0
 40
2.39300
 50
441.25020
 51
102.84566
  0
ARC
  8
Gravur
 62
   2
 39
0.200
  6
CONTINUOUS
 10
71.93100
 20
3.62100
 30
 0
 40
0.82700
 50
353.26182
 51
68.05706
  0
ARC
  8
Gravur
 62
   2
 39
0.200
  6
CONTINUOUS
 10
75.01400
 20
2.91100
 30
 0
 40
2.34400
 50
510.41584
 51
164.83708
  0
ARC
  8
Gravur
 62
   2
 39
0.200
  6
CONTINUOUS
 10
73.58400
 20
3.65300
 30
 0
 40
0.73600
 50
452.49294
 51
145.68389
  0
ARC
  8
Gravur
 62
   2
 39
0.200
  6
CONTINUOUS
 10
73.78300
 20
0.14800
 30
 0
 40
4.24600
 50
442.29925
 51
93.11846
  0
ARC
  8
Gravur
 62
   2
 39
0.200
  6
CONTINUOUS
 10
74.30800
 20
3.93000
 30
 0
 40
0.42800
 50
361.33844
 51
84.10304
  0
LINE
  8
Gravur
 62
   2
 39
0.200
  6
CONTINUOUS
 10
74.73600
 20
3.94000
 30
 0
 11
74.73600
 21
2.56400
  0
LINE
  8
Gravur
 62
   2
 39
0.200
  6
CONTINUOUS
 10
74.73600
 20
2.56400
 30
 0
 11
74.57600
 21
2.56400
  0
LINE
  8
Gravur
 62
   2
 39
0.200
  6
CONTINUOUS
 10
74.57600
 20
2.56400
 30
 0
 11
74.57600
 21
3.87600
  0
ARC
  8
Gravur
 62
   2
 39
0.200
  6
CONTINUOUS
 10
74.17600
 20
3.86300
 30
 0
 40
0.40000
 50
1.86146
 51
83.10601
  0
ARC
  8
Gravur
 62
   2
 39
0.200
  6
CONTINUOUS
 10
73.84000
 20
1.22400
 30
 0
 40
3.06000
 50
82.79138
 51
97.20862
  0
ARC
  8
Gravur
 62
   2
 39
0.200
  6
CONTINUOUS
 10
73.44100
 20
3.60200
 30
 0
 40
0.65800
 50
88.69409
 51
134.93846
  0
ARC
  8
Gravur
 62
   2
 39
0.200
  6
CONTINUOUS
 10
73.65300
 20
2.78800
 30
 0
 40
1.44800
 50
428.14716
 51
117.87464
  0
ARC
  8
Gravur
 62
   2
 39
0.200
  6
CONTINUOUS
 10
74.12100
 20
3.84600
 30
 0
 40
0.29500
 50
359.61156
 51
76.05807
  0
LINE
  8
Gravur
 62
   2
 39
0.200
  6
CONTINUOUS
 10
74.41600
 20
3.84400
 30
 0
 11
74.41600
 21
2.56400
  0
LINE
  8
Gravur
 62
   2
 39
0.200
  6
CONTINUOUS
 10
74.41600
 20
2.56400
 30
 0
 11
74.41600
 21
3.84400
  0
ARC
  8
Gravur
 62
   2
 39
0.200
  6
CONTINUOUS
 10
74.12100
 20
3.84600
 30
 0
 40
0.29500
 50
-0.38844
 51
76.05807
  0
ARC
  8
Gravur
 62
   2
 39
0.200
  6
CONTINUOUS
 10
73.65300
 20
2.78800
 30
 0
 40
1.44800
 50
68.14716
 51
117.87464
  0
ARC
  8
Gravur
 62
   2
 39
0.200
  6
CONTINUOUS
 10
75.01400
 20
2.91100
 30
 0
 40
2.34400
 50
150.41584
 51
164.83708
  0
LINE
  8
Gravur
 62
   2
 39
0.200
  6
CONTINUOUS
 10
72.75200
 20
3.52400
 30
 0
 11
72.75200
 21
2.56400
  0
LINE
  8
Gravur
 62
   2
 39
0.200
  6
CONTINUOUS
 10
72.75200
 20
2.56400
 30
 0
 11
72.59200
 21
2.56400
  0
LINE
  8
Gravur
 62
   2
 39
0.200
  6
CONTINUOUS
 10
72.59200
 20
2.56400
 30
 0
 11
72.59200
 21
3.65200
  0
ARC
  8
Gravur
 62
   2
 39
0.200
  6
CONTINUOUS
 10
71.92600
 20
3.67500
 30
 0
 40
0.66600
 50
-1.97790
 51
67.94288
  0
ARC
  8
Gravur
 62
   2
 39
0.200
  6
CONTINUOUS
 10
71.82100
 20
2.38500
 30
 0
 40
1.94000
 50
79.45474
 51
108.17341
  0
ARC
  8
Gravur
 62
   2
 39
0.200
  6
CONTINUOUS
 10
71.26700
 20
3.87900
 30
 0
 40
0.35300
 50
98.31389
 51
141.21338
  0
ARC
  8
Gravur
 62
   2
 39
0.200
  6
CONTINUOUS
 10
71.73500
 20
1.78200
 30
 0
 40
2.43400
 50
442.61223
 51
107.77247
  0
ARC
  8
Gravur
 62
   2
 39
0.200
  6
CONTINUOUS
 10
71.92400
 20
3.70300
 30
 0
 40
0.50800
 50
357.85805
 51
75.88175
  0
LINE
  8
Gravur
 62
   2
 39
0.200
  6
CONTINUOUS
 10
72.43200
 20
3.68400
 30
 0
 11
72.43200
 21
2.56400
  0
LINE
  8
Gravur
 62
   2
 39
0.200
  6
CONTINUOUS
 10
72.43200
 20
2.56400
 30
 0
 11
72.27200
 21
2.50000
  0
LINE
  8
Gravur
 62
   2
 39
0.200
  6
CONTINUOUS
 10
72.27200
 20
2.50000
 30
 0
 11
72.84800
 21
2.50000
  0
LINE
  8
Gravur
 62
   2
 39
0.200
  6
CONTINUOUS
 10
72.84800
 20
2.50000
 30
 0
 11
72.84800
 21
3.71600
  0
ARC
  8
Gravur
 62
   2
 39
0.200
  6
CONTINUOUS
 10
73.22600
 20
3.72600
 30
 0
 40
0.37800
 50
98.81522
 51
-178.48459
  0
ARC
  8
Gravur
 62
   2
 39
0.200
  6
CONTINUOUS
 10
73.56800
 20
0.93700
 30
 0
 40
3.18800
 50
442.79251
 51
97.20749
  0
ARC
  8
Gravur
 62
   2
 39
0.200
  6
CONTINUOUS
 10
73.91000
 20
3.72600
 30
 0
 40
0.37800
 50
358.48459
 51
81.18478
  0
LINE
  8
Gravur
 62
   2
 39
0.200
  6
CONTINUOUS
 10
74.28800
 20
3.71600
 30
 0
 11
74.28800
 21
2.50000
  0
LINE
  8
Gravur
 62
   2
 39
0.200
  6
CONTINUOUS
 10
74.28800
 20
2.50000
 30
 0
 11
74.86400
 21
2.50000
  0
LINE
  8
Gravur
 62
   2
 39
0.200
  6
CONTINUOUS
 10
74.86400
 20
2.50000
 30
 0
 11
74.86400
 21
3.97200
  0
ARC
  8
Gravur
 62
   2
 39
0.200
  6
CONTINUOUS
 10
74.35700
 20
3.97800
 30
 0
 40
0.50700
 50
-0.67802
 51
86.94561
  0
ARC
  8
Gravur
 62
   2
 39
0.200
  6
CONTINUOUS
 10
73.93600
 20
-4.99300
 30
 0
 40
9.48800
 50
87.29351
 51
92.70649
  0
ARC
  8
Gravur
 62
   2
 39
0.200
  6
CONTINUOUS
 10
73.67700
 20
3.68700
 30
 0
 40
0.81900
 50
103.34065
 51
166.65935
  0
ARC
  8
Gravur
 62
   2
 39
0.200
  6
CONTINUOUS
 10
72.04700
 20
3.66300
 30
 0
 40
0.86000
 50
14.34333
 51
72.61816
  0
ARC
  8
Gravur
 62
   2
 39
0.200
  6
CONTINUOUS
 10
71.88800
 20
0.72200
 30
 0
 40
3.78500
 50
83.68990
 51
96.31010
  0
ARC
  8
Gravur
 62
   2
 39
0.200
  6
CONTINUOUS
 10
71.54700
 20
3.76900
 30
 0
 40
0.71900
 50
95.98815
 51
174.01185
  0
LINE
  8
Gravur
 62
   2
 39
0.200
  6
CONTINUOUS
 10
70.83200
 20
3.84400
 30
 0
 11
70.83200
 21
4.48400
  0
LINE
  8
Gravur
 62
   2
 39
0.200
  6
CONTINUOUS
 10
70.83200
 20
4.48400
 30
 0
 11
70.25600
 21
4.48400
  0
LINE
  8
Gravur
 62
   2
 39
0.200
  6
CONTINUOUS
 10
70.25600
 20
4.48400
 30
 0
 11
70.25600
 21
2.50000
  0
LINE
  8
Gravur
 62
   2
 39
0.200
  6
CONTINUOUS
 10
70.25600
 20
2.50000
 30
 0
 11
70.83200
 21
2.50000
  0
LINE
  8
Gravur
 62
   2
 39
0.200
  6
CONTINUOUS
 10
70.83200
 20
2.50000
 30
 0
 11
70.83200
 21
3.71600
  0
ARC
  8
Gravur
 62
   2
 39
0.200
  6
CONTINUOUS
 10
71.21000
 20
3.72600
 30
 0
 40
0.37800
 50
98.81522
 51
-178.48459
  0
ARC
  8
Gravur
 62
   2
 39
0.200
  6
CONTINUOUS
 10
71.55200
 20
0.93700
 30
 0
 40
3.18800
 50
442.79251
 51
97.20749
  0
ARC
  8
Gravur
 62
   2
 39
0.200
  6
CONTINUOUS
 10
71.89400
 20
3.72600
 30
 0
 40
0.37800
 50
358.48459
 51
81.18478
  0
LINE
  8
Gravur
 62
   2
 39
0.200
  6
CONTINUOUS
 10
72.27200
 20
3.71600
 30
 0
 11
72.27200
 21
2.50000
  0
LINE
  8
Gravur
 62
   2
 39
0.200
  6
CONTINUOUS
 10
76.08000
 20
5.31600
 30
 0
 11
76.08000
 21
2.53200
  0
LINE
  8
Gravur
 62
   2
 39
0.200
  6
CONTINUOUS
 10
76.08000
 20
2.53200
 30
 0
 11
75.95200
 21
2.53200
  0
LINE
  8
Gravur
 62
   2
 39
0.200
  6
CONTINUOUS
 10
75.95200
 20
2.53200
 30
 0
 11
75.95200
 21
5.38000
  0
LINE
  8
Gravur
 62
   2
 39
0.200
  6
CONTINUOUS
 10
75.95200
 20
5.38000
 30
 0
 11
76.24000
 21
5.38000
  0
LINE
  8
Gravur
 62
   2
 39
0.200
  6
CONTINUOUS
 10
76.24000
 20
5.38000
 30
 0
 11
76.24000
 21
2.53200
  0
LINE
  8
Gravur
 62
   2
 39
0.200
  6
CONTINUOUS
 10
76.24000
 20
2.53200
 30
 0
 11
76.24000
 21
3.52400
  0
ARC
  8
Gravur
 62
   2
 39
0.200
  6
CONTINUOUS
 10
77.02400
 20
3.47600
 30
 0
 40
0.78500
 50
483.36637
 51
176.49647
  0
ARC
  8
Gravur
 62
   2
 39
0.200
  6
CONTINUOUS
 10
77.43200
 20
0.64000
 30
 0
 40
3.59200
 50
441.93307
 51
103.52552
  0
ARC
  8
Gravur
 62
   2
 39
0.200
  6
CONTINUOUS
 10
77.90600
 20
3.80000
 30
 0
 40
0.39700
 50
375.78679
 51
85.66769
  0
ARC
  8
Gravur
 62
   2
 39
0.200
  6
CONTINUOUS
 10
75.25600
 20
3.47600
 30
 0
 40
3.06300
 50
351.89106
 51
8.10894
  0
ARC
  8
Gravur
 62
   2
 39
0.200
  6
CONTINUOUS
 10
77.88900
 20
3.16700
 30
 0
 40
0.41800
 50
294.78473
 51
-17.13300
  0
ARC
  8
Gravur
 62
   2
 39
0.200
  6
CONTINUOUS
 10
77.61600
 20
5.13000
 30
 0
 40
2.38400
 50
264.60979
 51
-79.17074
  0
ARC
  8
Gravur
 62
   2
 39
0.200
  6
CONTINUOUS
 10
77.34000
 20
6.22000
 30
 0
 40
3.46400
 50
256.44509
 51
-89.13997
  0
ARC
  8
Gravur
 62
   2
 39
0.200
  6
CONTINUOUS
 10
77.20400
 20
4.11500
 30
 0
 40
1.43300
 50
-118.15718
 51
-96.57430
  0
ARC
  8
Gravur
 62
   2
 39
0.200
  6
CONTINUOUS
 10
77.60500
 20
5.60400
 30
 0
 40
2.96600
 50
-100.98037
 51
-82.97082
  0
ARC
  8
Gravur
 62
   2
 39
0.200
  6
CONTINUOUS
 10
77.99100
 20
3.11800
 30
 0
 40
0.45900
 50
-92.87488
 51
-5.25094
  0
ARC
  8
Gravur
 62
   2
 39
0.200
  6
CONTINUOUS
 10
72.61200
 20
3.44400
 30
 0
 40
5.84800
 50
-3.60812
 51
3.60812
  0
ARC
  8
Gravur
 62
   2
 39
0.200
  6
CONTINUOUS
 10
78.03100
 20
3.84200
 30
 0
 40
0.41800
 50
-4.11491
 51
67.35906
  0
ARC
  8
Gravur
 62
   2
 39
0.200
  6
CONTINUOUS
 10
77.55500
 20
2.26100
 30
 0
 40
2.06800
 50
72.05580
 51
100.78819
  0
LINE
  8
Gravur
 62
   2
 39
0.200
  6
CONTINUOUS
 10
77.16800
 20
4.29200
 30
 0
 11
76.65600
 21
4.22800
  0
ARC
  8
Gravur
 62
   2
 39
0.200
  6
CONTINUOUS
 10
77.42700
 20
2.55500
 30
 0
 40
1.84200
 50
462.12734
 51
114.74256
  0
ARC
  8
Gravur
 62
   2
 39
0.200
  6
CONTINUOUS
 10
77.58100
 20
1.80200
 30
 0
 40
2.61100
 50
435.01628
 51
101.95987
  0
ARC
  8
Gravur
 62
   2
 39
0.200
  6
CONTINUOUS
 10
78.14200
 20
3.90300
 30
 0
 40
0.43600
 50
364.87288
 51
74.84857
  0
ARC
  8
Gravur
 62
   2
 39
0.200
  6
CONTINUOUS
 10
72.49000
 20
3.46000
 30
 0
 40
6.10500
 50
355.49044
 51
4.50956
  0
ARC
  8
Gravur
 62
   2
 39
0.200
  6
CONTINUOUS
 10
78.16200
 20
3.01100
 30
 0
 40
0.41500
 50
269.72388
 51
-4.28227
  0
ARC
  8
Gravur
 62
   2
 39
0.200
  6
CONTINUOUS
 10
77.45500
 20
7.64500
 30
 0
 40
5.09800
 50
265.33063
 51
-82.05109
  0
ARC
  8
Gravur
 62
   2
 39
0.200
  6
CONTINUOUS
 10
77.03500
 20
3.20000
 30
 0
 40
0.63600
 50
176.75521
 51
-89.54957
  0
ARC
  8
Gravur
 62
   2
 39
0.200
  6
CONTINUOUS
 10
76.79300
 20
3.27700
 30
 0
 40
0.39500
 50
-174.04412
 51
-95.95588
  0
ARC
  8
Gravur
 62
   2
 39
0.200
  6
CONTINUOUS
 10
77.29600
 20
7.80400
 30
 0
 40
4.95000
 50
-96.30951
 51
-83.69049
  0
ARC
  8
Gravur
 62
   2
 39
0.200
  6
CONTINUOUS
 10
77.79300
 20
3.28300
 30
 0
 40
0.40200
 50
-83.28183
 51
-6.71817
  0
ARC
  8
Gravur
 62
   2
 39
0.200
  6
CONTINUOUS
 10
75.87700
 20
3.49200
 30
 0
 40
2.32900
 50
-6.31031
 51
6.31031
  0
ARC
  8
Gravur
 62
   2
 39
0.200
  6
CONTINUOUS
 10
77.79300
 20
3.70100
 30
 0
 40
0.40200
 50
6.71817
 51
83.28183
  0
ARC
  8
Gravur
 62
   2
 39
0.200
  6
CONTINUOUS
 10
77.29600
 20
-0.82000
 30
 0
 40
4.95000
 50
83.69049
 51
96.30951
  0
ARC
  8
Gravur
 62
   2
 39
0.200
  6
CONTINUOUS
 10
76.79300
 20
3.70700
 30
 0
 40
0.39500
 50
95.95588
 51
174.04412
  0
ARC
  8
Gravur
 62
   2
 39
0.200
  6
CONTINUOUS
 10
78.71500
 20
3.49200
 30
 0
 40
2.32900
 50
173.68969
 51
186.31031
  0
LINE
  8
Gravur
 62
   2
 39
0.200
  6
CONTINUOUS
 10
76.40000
 20
3.23600
 30
 0
 11
76.36800
 21
3.20400
  0
ARC
  8
Gravur
 62
   2
 39
0.200
  6
CONTINUOUS
 10
77.06600
 20
3.19600
 30
 0
 40
0.69800
 50
179.34334
 51
265.23636
  0
ARC
  8
Gravur
 62
   2
 39
0.200
  6
CONTINUOUS
 10
77.63200
 20
7.43400
 30
 0
 40
4.97300
 50
-97.20790
 51
-82.79210
  0
ARC
  8
Gravur
 62
   2
 39
0.200
  6
CONTINUOUS
 10
78.18200
 20
3.05400
 30
 0
 40
0.55900
 50
-82.39181
 51
-7.60819
  0
ARC
  8
Gravur
 62
   2
 39
0.200
  6
CONTINUOUS
 10
74.68800
 20
3.49200
 30
 0
 40
4.08000
 50
-7.20862
 51
7.20862
  0
ARC
  8
Gravur
 62
   2
 39
0.200
  6
CONTINUOUS
 10
78.18200
 20
3.93000
 30
 0
 40
0.55900
 50
7.60819
 51
82.39181
  0
ARC
  8
Gravur
 62
   2
 39
0.200
  6
CONTINUOUS
 10
77.64800
 20
-0.32300
 30
 0
 40
4.84500
 50
82.79138
 51
97.20862
  0
ARC
  8
Gravur
 62
   2
 39
0.200
  6
CONTINUOUS
 10
77.12000
 20
3.66200
 30
 0
 40
0.82600
 50
95.55873
 51
155.54457
  0
LINE
  8
Gravur
 62
   2
 39
0.200
  6
CONTINUOUS
 10
76.36800
 20
4.00400
 30
 0
 11
76.36800
 21
5.44400
  0
LINE
  8
Gravur
 62
   2
 39
0.200
  6
CONTINUOUS
 10
76.36800
 20
5.44400
 30
 0
 11
75.82400
 21
5.44400
  0
LINE
  8
Gravur
 62
   2
 39
0.200
  6
CONTINUOUS
 10
75.82400
 20
5.44400
 30
 0
 11
75.82400
 21
2.50000
  0
LINE
  8
Gravur
 62
   2
 39
0.200
  6
CONTINUOUS
 10
75.82400
 20
2.50000
 30
 0
 11
76.36800
 21
2.50000
  0
LINE
  8
Gravur
 62
   2
 39
0.200
  6
CONTINUOUS
 10
76.36800
 20
2.50000
 30
 0
 11
76.36800
 21
3.20400
  0
LINE
  8
Gravur
 62
   2
 39
0.200
  6
CONTINUOUS
 10
80.01600
 20
5.34800
 30
 0
 11
80.01600
 21
2.59600
  0
LINE
  8
Gravur
 62
   2
 39
0.200
  6
CONTINUOUS
 10
80.01600
 20
2.59600
 30
 0
 11
79.85600
 21
2.59600
  0
LINE
  8
Gravur
 62
   2
 39
0.200
  6
CONTINUOUS
 10
79.85600
 20
2.59600
 30
 0
 11
79.85600
 21
5.34800
  0
LINE
  8
Gravur
 62
   2
 39
0.200
  6
CONTINUOUS
 10
79.85600
 20
5.34800
 30
 0
 11
80.17600
 21
5.34800
  0
LINE
  8
Gravur
 62
   2
 39
0.200
  6
CONTINUOUS
 10
80.17600
 20
5.34800
 30
 0
 11
80.17600
 21
2.59600
  0
LINE
  8
Gravur
 62
   2
 39
0.200
  6
CONTINUOUS
 10
80.17600
 20
2.59600
 30
 0
 11
80.30400
 21
2.50000
  0
LINE
  8
Gravur
 62
   2
 39
0.200
  6
CONTINUOUS
 10
80.30400
 20
2.50000
 30
 0
 11
80.30400
 21
5.44400
  0
LINE
  8
Gravur
 62
   2
 39
0.200
  6
CONTINUOUS
 10
80.30400
 20
5.44400
 30
 0
 11
79.72800
 21
5.44400
  0
LINE
  8
Gravur
 62
   2
 39
0.200
  6
CONTINUOUS
 10
79.72800
 20
5.44400
 30
 0
 11
79.72800
 21
2.50000
  0
LINE
  8
Gravur
 62
   2
 39
0.200
  6
CONTINUOUS
 10
79.72800
 20
2.50000
 30
 0
 11
80.30400
 21
2.50000
  0
LINE
  8
Gravur
 62
   2
 39
0.200
  6
CONTINUOUS
 10
81.77600
 20
3.55600
 30
 0
 11
83.50400
 21
3.55600
  0
LINE
  8
Gravur
 62
   2
 39
0.200
  6
CONTINUOUS
 10
83.50400
 20
3.55600
 30
 0
 11
83.50400
 21
4.00400
  0
ARC
  8
Gravur
 62
   2
 39
0.200
  6
CONTINUOUS
 10
83.09200
 20
3.88000
 30
 0
 40
0.43000
 50
16.75026
 51
73.24974
  0
ARC
  8
Gravur
 62
   2
 39
0.200
  6
CONTINUOUS
 10
82.59200
 20
-0.08900
 30
 0
 40
4.42500
 50
81.89370
 51
98.10630
  0
ARC
  8
Gravur
 62
   2
 39
0.200
  6
CONTINUOUS
 10
81.99800
 20
3.94100
 30
 0
 40
0.35200
 50
94.88520
 51
185.38625
  0
LINE
  8
Gravur
 62
   2
 39
0.200
  6
CONTINUOUS
 10
81.64800
 20
3.90800
 30
 0
 11
81.64800
 21
3.55600
  0
LINE
  8
Gravur
 62
   2
 39
0.200
  6
CONTINUOUS
 10
81.64800
 20
3.55600
 30
 0
 11
81.77600
 21
3.65200
  0
LINE
  8
Gravur
 62
   2
 39
0.200
  6
CONTINUOUS
 10
81.77600
 20
3.65200
 30
 0
 11
83.37600
 21
3.65200
  0
LINE
  8
Gravur
 62
   2
 39
0.200
  6
CONTINUOUS
 10
83.37600
 20
3.65200
 30
 0
 11
83.37600
 21
3.90800
  0
ARC
  8
Gravur
 62
   2
 39
0.200
  6
CONTINUOUS
 10
83.08600
 20
3.91400
 30
 0
 40
0.29000
 50
-1.18526
 51
76.82745
  0
ARC
  8
Gravur
 62
   2
 39
0.200
  6
CONTINUOUS
 10
82.57600
 20
1.61600
 30
 0
 40
2.64400
 50
77.41477
 51
102.58523
  0
ARC
  8
Gravur
 62
   2
 39
0.200
  6
CONTINUOUS
 10
82.08900
 20
3.89200
 30
 0
 40
0.31700
 50
106.31809
 51
171.28135
  0
LINE
  8
Gravur
 62
   2
 39
0.200
  6
CONTINUOUS
 10
81.77600
 20
3.94000
 30
 0
 11
81.77600
 21
3.65200
  0
LINE
  8
Gravur
 62
   2
 39
0.200
  6
CONTINUOUS
 10
81.77600
 20
3.65200
 30
 0
 11
81.64800
 21
3.49200
  0
LINE
  8
Gravur
 62
   2
 39
0.200
  6
CONTINUOUS
 10
81.64800
 20
3.49200
 30
 0
 11
81.64800
 21
3.01200
  0
ARC
  8
Gravur
 62
   2
 39
0.200
  6
CONTINUOUS
 10
81.98300
 20
3.02700
 30
 0
 40
0.33500
 50
-177.43623
 51
-87.09494
  0
ARC
  8
Gravur
 62
   2
 39
0.200
  6
CONTINUOUS
 10
82.57600
 20
14.87700
 30
 0
 40
12.19900
 50
-92.70643
 51
-87.29357
  0
ARC
  8
Gravur
 62
   2
 39
0.200
  6
CONTINUOUS
 10
83.10400
 20
3.15600
 30
 0
 40
0.46600
 50
-84.09386
 51
-30.96376
  0
LINE
  8
Gravur
 62
   2
 39
0.200
  6
CONTINUOUS
 10
83.50400
 20
2.91600
 30
 0
 11
83.82400
 21
2.91600
  0
ARC
  8
Gravur
 62
   2
 39
0.200
  6
CONTINUOUS
 10
83.36400
 20
3.03200
 30
 0
 40
0.47400
 50
279.22392
 51
-14.15341
  0
ARC
  8
Gravur
 62
   2
 39
0.200
  6
CONTINUOUS
 10
82.64000
 20
12.70900
 30
 0
 40
10.17600
 50
265.49118
 51
-85.49118
  0
ARC
  8
Gravur
 62
   2
 39
0.200
  6
CONTINUOUS
 10
81.85400
 20
3.02600
 30
 0
 40
0.46200
 50
177.76883
 51
-91.73570
  0
LINE
  8
Gravur
 62
   2
 39
0.200
  6
CONTINUOUS
 10
81.39200
 20
3.04400
 30
 0
 11
81.39200
 21
3.97200
  0
ARC
  8
Gravur
 62
   2
 39
0.200
  6
CONTINUOUS
 10
81.84400
 20
3.96800
 30
 0
 40
0.45200
 50
450.50703
 51
179.49297
  0
ARC
  8
Gravur
 62
   2
 39
0.200
  6
CONTINUOUS
 10
82.48500
 20
-6.34900
 30
 0
 40
10.78800
 50
444.40937
 51
93.42759
  0
ARC
  8
Gravur
 62
   2
 39
0.200
  6
CONTINUOUS
 10
83.37300
 20
3.96700
 30
 0
 40
0.45100
 50
360.63518
 51
68.83492
  0
LINE
  8
Gravur
 62
   2
 39
0.200
  6
CONTINUOUS
 10
83.82400
 20
3.97200
 30
 0
 11
83.82400
 21
3.52400
  0
LINE
  8
Gravur
 62
   2
 39
0.200
  6
CONTINUOUS
 10
83.82400
 20
3.52400
 30
 0
 11
83.66400
 21
3.52400
  0
LINE
  8
Gravur
 62
   2
 39
0.200
  6
CONTINUOUS
 10
83.66400
 20
3.52400
 30
 0
 11
83.66400
 21
4.03600
  0
ARC
  8
Gravur
 62
   2
 39
0.200
  6
CONTINUOUS
 10
83.28800
 20
3.98000
 30
 0
 40
0.38000
 50
8.47114
 51
81.52886
  0
ARC
  8
Gravur
 62
   2
 39
0.200
  6
CONTINUOUS
 10
82.59200
 20
-2.44500
 30
 0
 40
6.84200
 50
83.69032
 51
96.30968
  0
ARC
  8
Gravur
 62
   2
 39
0.200
  6
CONTINUOUS
 10
81.94900
 20
3.94000
 30
 0
 40
0.43000
 50
104.68253
 51
184.26591
  0
LINE
  8
Gravur
 62
   2
 39
0.200
  6
CONTINUOUS
 10
81.52000
 20
3.90800
 30
 0
 11
81.52000
 21
3.01200
  0
ARC
  8
Gravur
 62
   2
 39
0.200
  6
CONTINUOUS
 10
81.92400
 20
3.03200
 30
 0
 40
0.40400
 50
-177.16589
 51
-92.83411
  0
ARC
  8
Gravur
 62
   2
 39
0.200
  6
CONTINUOUS
 10
82.62400
 20
14.04600
 30
 0
 40
11.44100
 50
-93.60820
 51
-86.39180
  0
ARC
  8
Gravur
 62
   2
 39
0.200
  6
CONTINUOUS
 10
83.27100
 20
3.03100
 30
 0
 40
0.41000
 50
-79.73269
 51
-16.31058
  0
LINE
  8
Gravur
 62
   2
 39
0.200
  6
CONTINUOUS
 10
83.66400
 20
2.91600
 30
 0
 11
83.40800
 21
2.98000
  0
LINE
  8
Gravur
 62
   2
 39
0.200
  6
CONTINUOUS
 10
83.40800
 20
2.98000
 30
 0
 11
83.95200
 21
2.98000
  0
LINE
  8
Gravur
 62
   2
 39
0.200
  6
CONTINUOUS
 10
83.95200
 20
2.98000
 30
 0
 11
83.95200
 21
2.94800
  0
ARC
  8
Gravur
 62
   2
 39
0.200
  6
CONTINUOUS
 10
83.48100
 20
2.97100
 30
 0
 40
0.47200
 50
272.79566
 51
-2.79566
  0
ARC
  8
Gravur
 62
   2
 39
0.200
  6
CONTINUOUS
 10
82.60800
 20
21.45500
 30
 0
 40
18.97600
 50
267.29365
 51
-87.29365
  0
ARC
  8
Gravur
 62
   2
 39
0.200
  6
CONTINUOUS
 10
81.73500
 20
2.97100
 30
 0
 40
0.47200
 50
182.79566
 51
-92.79566
  0
ARC
  8
Gravur
 62
   2
 39
0.200
  6
CONTINUOUS
 10
92.77200
 20
3.49200
 30
 0
 40
11.52100
 50
177.29356
 51
-177.29356
  0
ARC
  8
Gravur
 62
   2
 39
0.200
  6
CONTINUOUS
 10
81.73500
 20
4.01300
 30
 0
 40
0.47200
 50
452.79566
 51
177.20434
  0
ARC
  8
Gravur
 62
   2
 39
0.200
  6
CONTINUOUS
 10
82.60800
 20
-6.87800
 30
 0
 40
11.39700
 50
445.49102
 51
94.50898
  0
ARC
  8
Gravur
 62
   2
 39
0.200
  6
CONTINUOUS
 10
83.48100
 20
4.01300
 30
 0
 40
0.47200
 50
362.79566
 51
87.20434
  0
LINE
  8
Gravur
 62
   2
 39
0.200
  6
CONTINUOUS
 10
83.95200
 20
4.03600
 30
 0
 11
83.95200
 21
3.46000
  0
LINE
  8
Gravur
 62
   2
 39
0.200
  6
CONTINUOUS
 10
83.95200
 20
3.46000
 30
 0
 11
81.77600
 21
3.46000
  0
LINE
  8
Gravur
 62
   2
 39
0.200
  6
CONTINUOUS
 10
81.77600
 20
3.46000
 30
 0
 11
81.77600
 21
3.10800
  0
ARC
  8
Gravur
 62
   2
 39
0.200
  6
CONTINUOUS
 10
82.12300
 20
3.13500
 30
 0
 40
0.34800
 50
-175.55079
 51
-94.44921
  0
ARC
  8
Gravur
 62
   2
 39
0.200
  6
CONTINUOUS
 10
82.59200
 20
10.65400
 30
 0
 40
7.88200
 50
-93.60808
 51
-86.39192
  0
ARC
  8
Gravur
 62
   2
 39
0.200
  6
CONTINUOUS
 10
83.06300
 20
3.19200
 30
 0
 40
0.40500
 50
-86.45898
 51
-31.57042
  0
LINE
  8
Gravur
 62
   2
 39
0.200
  6
CONTINUOUS
 10
85.04000
 20
5.22000
 30
 0
 11
85.04000
 21
2.59600
  0
LINE
  8
Gravur
 62
   2
 39
0.200
  6
CONTINUOUS
 10
85.04000
 20
2.59600
 30
 0
 11
85.42400
 21
2.59600
  0
LINE
  8
Gravur
 62
   2
 39
0.200
  6
CONTINUOUS
 10
85.42400
 20
2.59600
 30
 0
 11
85.42400
 21
3.39600
  0
LINE
  8
Gravur
 62
   2
 39
0.200
  6
CONTINUOUS
 10
85.42400
 20
3.39600
 30
 0
 11
87.24800
 21
3.39600
  0
ARC
  8
Gravur
 62
   2
 39
0.200
  6
CONTINUOUS
 10
87.29100
 20
2.73400
 30
 0
 40
0.66300
 50
364.67037
 51
93.71641
  0
LINE
  8
Gravur
 62
   2
 39
0.200
  6
CONTINUOUS
 10
87.95200
 20
2.78800
 30
 0
 11
87.95200
 21
2.62800
  0
LINE
  8
Gravur
 62
   2
 39
0.200
  6
CONTINUOUS
 10
87.95200
 20
2.62800
 30
 0
 11
88.36800
 21
2.62800
  0
LINE
  8
Gravur
 62
   2
 39
0.200
  6
CONTINUOUS
 10
88.36800
 20
2.62800
 30
 0
 11
88.36800
 21
2.85200
  0
ARC
  8
Gravur
 62
   2
 39
0.200
  6
CONTINUOUS
 10
87.63900
 20
2.72800
 30
 0
 40
0.73900
 50
9.65339
 51
59.34192
  0
LINE
  8
Gravur
 62
   2
 39
0.200
  6
CONTINUOUS
 10
88.01600
 20
3.36400
 30
 0
 11
87.79200
 21
3.52400
  0
ARC
  8
Gravur
 62
   2
 39
0.200
  6
CONTINUOUS
 10
87.67500
 20
4.19400
 30
 0
 40
0.68000
 50
-80.09450
 51
-13.44327
  0
LINE
  8
Gravur
 62
   2
 39
0.200
  6
CONTINUOUS
 10
88.33600
 20
4.03600
 30
 0
 11
88.33600
 21
4.80400
  0
ARC
  8
Gravur
 62
   2
 39
0.200
  6
CONTINUOUS
 10
87.76400
 20
4.74400
 30
 0
 40
0.57500
 50
5.98815
 51
84.01185
  0
LINE
  8
Gravur
 62
   2
 39
0.200
  6
CONTINUOUS
 10
87.82400
 20
5.31600
 30
 0
 11
85.00800
 21
5.31600
  0
LINE
  8
Gravur
 62
   2
 39
0.200
  6
CONTINUOUS
 10
85.00800
 20
5.31600
 30
 0
 11
85.20000
 21
5.18800
  0
LINE
  8
Gravur
 62
   2
 39
0.200
  6
CONTINUOUS
 10
85.20000
 20
5.18800
 30
 0
 11
85.20000
 21
2.69200
  0
LINE
  8
Gravur
 62
   2
 39
0.200
  6
CONTINUOUS
 10
85.20000
 20
2.69200
 30
 0
 11
85.29600
 21
2.69200
  0
LINE
  8
Gravur
 62
   2
 39
0.200
  6
CONTINUOUS
 10
85.29600
 20
2.69200
 30
 0
 11
85.29600
 21
3.49200
  0
LINE
  8
Gravur
 62
   2
 39
0.200
  6
CONTINUOUS
 10
85.29600
 20
3.49200
 30
 0
 11
87.31200
 21
3.49200
  0
ARC
  8
Gravur
 62
   2
 39
0.200
  6
CONTINUOUS
 10
87.30800
 20
2.77700
 30
 0
 40
0.71500
 50
399.94925
 51
89.67947
  0
ARC
  8
Gravur
 62
   2
 39
0.200
  6
CONTINUOUS
 10
87.43600
 20
2.74700
 30
 0
 40
0.64500
 50
357.95459
 51
49.34086
  0
LINE
  8
Gravur
 62
   2
 39
0.200
  6
CONTINUOUS
 10
88.08000
 20
2.72400
 30
 0
 11
88.24000
 21
2.72400
  0
LINE
  8
Gravur
 62
   2
 39
0.200
  6
CONTINUOUS
 10
88.24000
 20
2.72400
 30
 0
 11
88.24000
 21
2.85200
  0
ARC
  8
Gravur
 62
   2
 39
0.200
  6
CONTINUOUS
 10
87.14500
 20
2.47900
 30
 0
 40
1.15700
 50
18.81086
 51
68.55720
  0
LINE
  8
Gravur
 62
   2
 39
0.200
  6
CONTINUOUS
 10
87.56800
 20
3.55600
 30
 0
 11
87.82400
 21
3.65200
  0
ARC
  8
Gravur
 62
   2
 39
0.200
  6
CONTINUOUS
 10
87.63400
 20
4.16400
 30
 0
 40
0.54600
 50
-69.64042
 51
6.73437
  0
LINE
  8
Gravur
 62
   2
 39
0.200
  6
CONTINUOUS
 10
88.17600
 20
4.22800
 30
 0
 11
88.17600
 21
4.64400
  0
ARC
  8
Gravur
 62
   2
 39
0.200
  6
CONTINUOUS
 10
87.65600
 20
4.66800
 30
 0
 40
0.52100
 50
-2.64255
 51
92.64255
  0
LINE
  8
Gravur
 62
   2
 39
0.200
  6
CONTINUOUS
 10
87.63200
 20
5.18800
 30
 0
 11
85.39200
 21
5.18800
  0
LINE
  8
Gravur
 62
   2
 39
0.200
  6
CONTINUOUS
 10
85.39200
 20
5.18800
 30
 0
 11
85.39200
 21
3.62000
  0
LINE
  8
Gravur
 62
   2
 39
0.200
  6
CONTINUOUS
 10
85.39200
 20
3.62000
 30
 0
 11
87.40800
 21
3.62000
  0
ARC
  8
Gravur
 62
   2
 39
0.200
  6
CONTINUOUS
 10
87.32200
 20
4.33900
 30
 0
 40
0.72400
 50
-83.17922
 51
-16.60831
  0
LINE
  8
Gravur
 62
   2
 39
0.200
  6
CONTINUOUS
 10
88.01600
 20
4.13200
 30
 0
 11
88.01600
 21
4.67600
  0
ARC
  8
Gravur
 62
   2
 39
0.200
  6
CONTINUOUS
 10
87.45000
 20
4.50700
 30
 0
 40
0.59100
 50
16.62492
 51
81.63693
  0
LINE
  8
Gravur
 62
   2
 39
0.200
  6
CONTINUOUS
 10
87.53600
 20
5.09200
 30
 0
 11
85.55200
 21
5.09200
  0
LINE
  8
Gravur
 62
   2
 39
0.200
  6
CONTINUOUS
 10
85.55200
 20
5.09200
 30
 0
 11
85.55200
 21
4.99600
  0
LINE
  8
Gravur
 62
   2
 39
0.200
  6
CONTINUOUS
 10
85.55200
 20
4.99600
 30
 0
 11
85.55200
 21
3.74800
  0
LINE
  8
Gravur
 62
   2
 39
0.200
  6
CONTINUOUS
 10
85.55200
 20
3.74800
 30
 0
 11
87.34400
 21
3.74800
  0
ARC
  8
Gravur
 62
   2
 39
0.200
  6
CONTINUOUS
 10
87.34700
 20
4.25700
 30
 0
 40
0.50900
 50
-90.33769
 51
0.33769
  0
LINE
  8
Gravur
 62
   2
 39
0.200
  6
CONTINUOUS
 10
87.85600
 20
4.26000
 30
 0
 11
87.85600
 21
4.48400
  0
ARC
  8
Gravur
 62
   2
 39
0.200
  6
CONTINUOUS
 10
87.34700
 20
4.48700
 30
 0
 40
0.50900
 50
-0.33769
 51
90.33769
  0
LINE
  8
Gravur
 62
   2
 39
0.200
  6
CONTINUOUS
 10
87.34400
 20
4.99600
 30
 0
 11
85.55200
 21
4.99600
  0
LINE
  8
Gravur
 62
   2
 39
0.200
  6
CONTINUOUS
 10
85.55200
 20
4.99600
 30
 0
 11
85.55200
 21
3.74800
  0
LINE
  8
Gravur
 62
   2
 39
0.200
  6
CONTINUOUS
 10
85.55200
 20
3.74800
 30
 0
 11
85.55200
 21
3.30000
  0
LINE
  8
Gravur
 62
   2
 39
0.200
  6
CONTINUOUS
 10
85.55200
 20
3.30000
 30
 0
 11
87.34400
 21
3.30000
  0
ARC
  8
Gravur
 62
   2
 39
0.200
  6
CONTINUOUS
 10
87.34700
 20
2.79100
 30
 0
 40
0.50900
 50
359.66231
 51
90.33769
  0
LINE
  8
Gravur
 62
   2
 39
0.200
  6
CONTINUOUS
 10
87.85600
 20
2.78800
 30
 0
 11
87.85600
 21
2.50000
  0
LINE
  8
Gravur
 62
   2
 39
0.200
  6
CONTINUOUS
 10
87.85600
 20
2.50000
 30
 0
 11
88.49600
 21
2.50000
  0
LINE
  8
Gravur
 62
   2
 39
0.200
  6
CONTINUOUS
 10
88.49600
 20
2.50000
 30
 0
 11
88.49600
 21
2.88400
  0
ARC
  8
Gravur
 62
   2
 39
0.200
  6
CONTINUOUS
 10
87.72900
 20
2.77200
 30
 0
 40
0.77500
 50
8.30781
 51
68.26722
  0
ARC
  8
Gravur
 62
   2
 39
0.200
  6
CONTINUOUS
 10
87.87000
 20
4.10100
 30
 0
 40
0.62600
 50
-76.51850
 51
-0.09153
  0
LINE
  8
Gravur
 62
   2
 39
0.200
  6
CONTINUOUS
 10
88.49600
 20
4.10000
 30
 0
 11
88.49600
 21
4.86800
  0
ARC
  8
Gravur
 62
   2
 39
0.200
  6
CONTINUOUS
 10
87.92300
 20
4.87100
 30
 0
 40
0.57300
 50
-0.29998
 51
90.29998
  0
LINE
  8
Gravur
 62
   2
 39
0.200
  6
CONTINUOUS
 10
87.92000
 20
5.44400
 30
 0
 11
84.91200
 21
5.44400
  0
LINE
  8
Gravur
 62
   2
 39
0.200
  6
CONTINUOUS
 10
84.91200
 20
5.44400
 30
 0
 11
84.91200
 21
2.50000
  0
LINE
  8
Gravur
 62
   2
 39
0.200
  6
CONTINUOUS
 10
84.91200
 20
2.50000
 30
 0
 11
85.55200
 21
2.50000
  0
LINE
  8
Gravur
 62
   2
 39
0.200
  6
CONTINUOUS
 10
85.55200
 20
2.50000
 30
 0
 11
85.55200
 21
3.30000
  0
ARC
  8
Gravur
 62
   2
 39
0.200
  6
CONTINUOUS
 10
90.19300
 20
3.89400
 30
 0
 40
0.44100
 50
102.71209
 51
136.74684
  0
LINE
  8
Gravur
 62
   2
 39
0.200
  6
CONTINUOUS
 10
89.87200
 20
4.19600
 30
 0
 11
89.61600
 21
4.19600
  0
ARC
  8
Gravur
 62
   2
 39
0.200
  6
CONTINUOUS
 10
89.93600
 20
4.03600
 30
 0
 40
0.35800
 50
460.30485
 51
153.43495
  0
ARC
  8
Gravur
 62
   2
 39
0.200
  6
CONTINUOUS
 10
90.78400
 20
-14.90500
 30
 0
 40
19.31500
 50
447.29358
 51
92.70642
  0
ARC
  8
Gravur
 62
   2
 39
0.200
  6
CONTINUOUS
 10
91.54300
 20
3.97000
 30
 0
 40
0.44500
 50
351.99726
 51
69.89592
  0
LINE
  8
Gravur
 62
   2
 39
0.200
  6
CONTINUOUS
 10
91.98400
 20
3.90800
 30
 0
 11
91.98400
 21
2.59600
  0
LINE
  8
Gravur
 62
   2
 39
0.200
  6
CONTINUOUS
 10
91.98400
 20
2.59600
 30
 0
 11
91.82400
 21
2.59600
  0
LINE
  8
Gravur
 62
   2
 39
0.200
  6
CONTINUOUS
 10
91.82400
 20
2.59600
 30
 0
 11
91.82400
 21
3.97200
  0
ARC
  8
Gravur
 62
   2
 39
0.200
  6
CONTINUOUS
 10
91.50600
 20
3.97400
 30
 0
 40
0.31800
 50
-0.36035
 51
90.36035
  0
ARC
  8
Gravur
 62
   2
 39
0.200
  6
CONTINUOUS
 10
91.40900
 20
4.01700
 30
 0
 40
0.29100
 50
351.08889
 51
70.94230
  0
LINE
  8
Gravur
 62
   2
 39
0.200
  6
CONTINUOUS
 10
91.69600
 20
3.97200
 30
 0
 11
91.69600
 21
2.59600
  0
LINE
  8
Gravur
 62
   2
 39
0.200
  6
CONTINUOUS
 10
91.69600
 20
2.59600
 30
 0
 11
91.69600
 21
3.07600
  0
LINE
  8
Gravur
 62
   2
 39
0.200
  6
CONTINUOUS
 10
91.69600
 20
3.07600
 30
 0
 11
91.56800
 21
3.07600
  0
ARC
  8
Gravur
 62
   2
 39
0.200
  6
CONTINUOUS
 10
90.93200
 20
3.21600
 30
 0
 40
0.65100
 50
326.01711
 51
-12.41429
  0
ARC
  8
Gravur
 62
   2
 39
0.200
  6
CONTINUOUS
 10
90.93000
 20
3.25800
 30
 0
 40
0.67700
 50
298.00282
 51
-36.83605
  0
LINE
  8
Gravur
 62
   2
 39
0.200
  6
CONTINUOUS
 10
91.24800
 20
2.66000
 30
 0
 11
91.12000
 21
2.59600
  0
LINE
  8
Gravur
 62
   2
 39
0.200
  6
CONTINUOUS
 10
91.12000
 20
2.59600
 30
 0
 11
90.96000
 21
2.53200
  0
LINE
  8
Gravur
 62
   2
 39
0.200
  6
CONTINUOUS
 10
90.96000
 20
2.53200
 30
 0
 11
89.96800
 21
2.53200
  0
ARC
  8
Gravur
 62
   2
 39
0.200
  6
CONTINUOUS
 10
90.04400
 20
3.02100
 30
 0
 40
0.49500
 50
173.62147
 51
-98.83419
  0
LINE
  8
Gravur
 62
   2
 39
0.200
  6
CONTINUOUS
 10
89.55200
 20
3.07600
 30
 0
 11
89.55200
 21
3.23600
  0
ARC
  8
Gravur
 62
   2
 39
0.200
  6
CONTINUOUS
 10
90.01700
 20
3.20000
 30
 0
 40
0.46600
 50
464.03624
 51
175.57303
  0
LINE
  8
Gravur
 62
   2
 39
0.200
  6
CONTINUOUS
 10
89.90400
 20
3.65200
 30
 0
 11
90.96000
 21
3.65200
  0
ARC
  8
Gravur
 62
   2
 39
0.200
  6
CONTINUOUS
 10
90.92000
 20
2.94900
 30
 0
 40
0.70400
 50
425.14531
 51
86.74344
  0
LINE
  8
Gravur
 62
   2
 39
0.200
  6
CONTINUOUS
 10
91.21600
 20
3.58800
 30
 0
 11
91.05600
 21
3.58800
  0
LINE
  8
Gravur
 62
   2
 39
0.200
  6
CONTINUOUS
 10
91.05600
 20
3.58800
 30
 0
 11
90.03200
 21
3.58800
  0
ARC
  8
Gravur
 62
   2
 39
0.200
  6
CONTINUOUS
 10
90.15200
 20
3.11400
 30
 0
 40
0.48900
 50
104.20677
 51
263.42701
  0
LINE
  8
Gravur
 62
   2
 39
0.200
  6
CONTINUOUS
 10
90.09600
 20
2.62800
 30
 0
 11
90.96000
 21
2.62800
  0
ARC
  8
Gravur
 62
   2
 39
0.200
  6
CONTINUOUS
 10
90.96100
 20
3.04700
 30
 0
 40
0.41900
 50
-90.13674
 51
-57.86423
  0
LINE
  8
Gravur
 62
   2
 39
0.200
  6
CONTINUOUS
 10
91.18400
 20
2.69200
 30
 0
 11
90.09600
 21
2.69200
  0
ARC
  8
Gravur
 62
   2
 39
0.200
  6
CONTINUOUS
 10
90.25700
 20
3.10800
 30
 0
 40
0.44600
 50
111.15740
 51
-111.15740
  0
LINE
  8
Gravur
 62
   2
 39
0.200
  6
CONTINUOUS
 10
90.09600
 20
3.52400
 30
 0
 11
91.37600
 21
3.52400
  0
LINE
  8
Gravur
 62
   2
 39
0.200
  6
CONTINUOUS
 10
91.37600
 20
3.52400
 30
 0
 11
91.18400
 21
3.49200
  0
LINE
  8
Gravur
 62
   2
 39
0.200
  6
CONTINUOUS
 10
91.18400
 20
3.49200
 30
 0
 11
90.35200
 21
3.49200
  0
ARC
  8
Gravur
 62
   2
 39
0.200
  6
CONTINUOUS
 10
90.35200
 20
3.12400
 30
 0
 40
0.36800
 50
90.00000
 51
270.00000
  0
LINE
  8
Gravur
 62
   2
 39
0.200
  6
CONTINUOUS
 10
90.35200
 20
2.75600
 30
 0
 11
91.18400
 21
2.75600
  0
ARC
  8
Gravur
 62
   2
 39
0.200
  6
CONTINUOUS
 10
91.18400
 20
3.12400
 30
 0
 40
0.36800
 50
-90.00000
 51
90.00000
  0
LINE
  8
Gravur
 62
   2
 39
0.200
  6
CONTINUOUS
 10
91.18400
 20
3.49200
 30
 0
 11
90.99200
 21
3.71600
  0
ARC
  8
Gravur
 62
   2
 39
0.200
  6
CONTINUOUS
 10
90.43200
 20
-14.05900
 30
 0
 40
17.78400
 50
88.19550
 51
91.80450
  0
ARC
  8
Gravur
 62
   2
 39
0.200
  6
CONTINUOUS
 10
89.89200
 20
3.28000
 30
 0
 40
0.43600
 50
92.62641
 51
181.57655
  0
LINE
  8
Gravur
 62
   2
 39
0.200
  6
CONTINUOUS
 10
89.45600
 20
3.26800
 30
 0
 11
89.45600
 21
2.94800
  0
ARC
  8
Gravur
 62
   2
 39
0.200
  6
CONTINUOUS
 10
89.89200
 20
2.93600
 30
 0
 40
0.43600
 50
178.42345
 51
267.37359
  0
ARC
  8
Gravur
 62
   2
 39
0.200
  6
CONTINUOUS
 10
90.43200
 20
20.27500
 30
 0
 40
17.78400
 50
-91.80450
 51
-88.19550
  0
ARC
  8
Gravur
 62
   2
 39
0.200
  6
CONTINUOUS
 10
90.97100
 20
3.09700
 30
 0
 40
0.59700
 50
-87.98540
 51
-2.01460
  0
LINE
  8
Gravur
 62
   2
 39
0.200
  6
CONTINUOUS
 10
91.56800
 20
3.07600
 30
 0
 11
91.56800
 21
2.50000
  0
LINE
  8
Gravur
 62
   2
 39
0.200
  6
CONTINUOUS
 10
91.56800
 20
2.50000
 30
 0
 11
92.14400
 21
2.50000
  0
LINE
  8
Gravur
 62
   2
 39
0.200
  6
CONTINUOUS
 10
92.14400
 20
2.50000
 30
 0
 11
92.14400
 21
3.97200
  0
ARC
  8
Gravur
 62
   2
 39
0.200
  6
CONTINUOUS
 10
91.63700
 20
3.97800
 30
 0
 40
0.50700
 50
-0.67802
 51
86.94561
  0
ARC
  8
Gravur
 62
   2
 39
0.200
  6
CONTINUOUS
 10
90.80000
 20
-13.79400
 30
 0
 40
18.29800
 50
87.29365
 51
92.70635
  0
ARC
  8
Gravur
 62
   2
 39
0.200
  6
CONTINUOUS
 10
89.89600
 20
4.04200
 30
 0
 40
0.44400
 50
84.82895
 51
172.49067
  0
LINE
  8
Gravur
 62
   2
 39
0.200
  6
CONTINUOUS
 10
89.45600
 20
4.10000
 30
 0
 11
90.03200
 21
4.10000
  0
ARC
  8
Gravur
 62
   2
 39
0.200
  6
CONTINUOUS
 10
90.35300
 20
3.92800
 30
 0
 40
0.36400
 50
450.15741
 51
151.81646
  0
LINE
  8
Gravur
 62
   2
 39
0.200
  6
CONTINUOUS
 10
90.35200
 20
4.29200
 30
 0
 11
91.24800
 21
4.29200
  0
ARC
  8
Gravur
 62
   2
 39
0.200
  6
CONTINUOUS
 10
91.25000
 20
3.97400
 30
 0
 40
0.31800
 50
359.63965
 51
90.36035
  0
LINE
  8
Gravur
 62
   2
 39
0.200
  6
CONTINUOUS
 10
91.56800
 20
3.97200
 30
 0
 11
91.56800
 21
3.14000
  0
ARC
  8
Gravur
 62
   2
 39
0.200
  6
CONTINUOUS
 10
90.97100
 20
3.11900
 30
 0
 40
0.59700
 50
2.01460
 51
87.98540
  0
LINE
  8
Gravur
 62
   2
 39
0.200
  6
CONTINUOUS
 10
93.26400
 20
5.15600
 30
 0
 11
93.55200
 21
5.15600
  0
LINE
  8
Gravur
 62
   2
 39
0.200
  6
CONTINUOUS
 10
93.55200
 20
5.15600
 30
 0
 11
93.55200
 21
5.31600
  0
LINE
  8
Gravur
 62
   2
 39
0.200
  6
CONTINUOUS
 10
93.55200
 20
5.31600
 30
 0
 11
93.26400
 21
5.31600
  0
LINE
  8
Gravur
 62
   2
 39
0.200
  6
CONTINUOUS
 10
93.26400
 20
5.31600
 30
 0
 11
93.26400
 21
5.15600
  0
LINE
  8
Gravur
 62
   2
 39
0.200
  6
CONTINUOUS
 10
93.26400
 20
5.15600
 30
 0
 11
93.10400
 21
5.06000
  0
LINE
  8
Gravur
 62
   2
 39
0.200
  6
CONTINUOUS
 10
93.10400
 20
5.06000
 30
 0
 11
93.68000
 21
5.06000
  0
LINE
  8
Gravur
 62
   2
 39
0.200
  6
CONTINUOUS
 10
93.68000
 20
5.06000
 30
 0
 11
93.68000
 21
5.44400
  0
LINE
  8
Gravur
 62
   2
 39
0.200
  6
CONTINUOUS
 10
93.68000
 20
5.44400
 30
 0
 11
93.10400
 21
5.44400
  0
LINE
  8
Gravur
 62
   2
 39
0.200
  6
CONTINUOUS
 10
93.10400
 20
5.44400
 30
 0
 11
93.10400
 21
5.06000
  0
LINE
  8
Gravur
 62
   2
 39
0.200
  6
CONTINUOUS
 10
93.39200
 20
4.32400
 30
 0
 11
93.39200
 21
2.56400
  0
LINE
  8
Gravur
 62
   2
 39
0.200
  6
CONTINUOUS
 10
93.39200
 20
2.56400
 30
 0
 11
93.23200
 21
2.56400
  0
LINE
  8
Gravur
 62
   2
 39
0.200
  6
CONTINUOUS
 10
93.23200
 20
2.56400
 30
 0
 11
93.23200
 21
4.42000
  0
LINE
  8
Gravur
 62
   2
 39
0.200
  6
CONTINUOUS
 10
93.23200
 20
4.42000
 30
 0
 11
93.55200
 21
4.42000
  0
LINE
  8
Gravur
 62
   2
 39
0.200
  6
CONTINUOUS
 10
93.55200
 20
4.42000
 30
 0
 11
93.55200
 21
2.56400
  0
LINE
  8
Gravur
 62
   2
 39
0.200
  6
CONTINUOUS
 10
93.55200
 20
2.56400
 30
 0
 11
93.68000
 21
2.50000
  0
LINE
  8
Gravur
 62
   2
 39
0.200
  6
CONTINUOUS
 10
93.68000
 20
2.50000
 30
 0
 11
93.10400
 21
2.50000
  0
LINE
  8
Gravur
 62
   2
 39
0.200
  6
CONTINUOUS
 10
93.10400
 20
2.50000
 30
 0
 11
93.10400
 21
4.48400
  0
LINE
  8
Gravur
 62
   2
 39
0.200
  6
CONTINUOUS
 10
93.10400
 20
4.48400
 30
 0
 11
93.68000
 21
4.48400
  0
LINE
  8
Gravur
 62
   2
 39
0.200
  6
CONTINUOUS
 10
93.68000
 20
4.48400
 30
 0
 11
93.68000
 21
2.50000
  0
LINE
  8
Gravur
 62
   2
 39
0.200
  6
CONTINUOUS
 10
94.92800
 20
5.34800
 30
 0
 11
94.92800
 21
2.59600
  0
LINE
  8
Gravur
 62
   2
 39
0.200
  6
CONTINUOUS
 10
94.92800
 20
2.59600
 30
 0
 11
94.76800
 21
2.59600
  0
LINE
  8
Gravur
 62
   2
 39
0.200
  6
CONTINUOUS
 10
94.76800
 20
2.59600
 30
 0
 11
94.76800
 21
5.34800
  0
LINE
  8
Gravur
 62
   2
 39
0.200
  6
CONTINUOUS
 10
94.76800
 20
5.34800
 30
 0
 11
95.08800
 21
5.34800
  0
LINE
  8
Gravur
 62
   2
 39
0.200
  6
CONTINUOUS
 10
95.08800
 20
5.34800
 30
 0
 11
95.08800
 21
2.59600
  0
LINE
  8
Gravur
 62
   2
 39
0.200
  6
CONTINUOUS
 10
95.08800
 20
2.59600
 30
 0
 11
95.21600
 21
2.50000
  0
LINE
  8
Gravur
 62
   2
 39
0.200
  6
CONTINUOUS
 10
95.21600
 20
2.50000
 30
 0
 11
95.21600
 21
5.44400
  0
LINE
  8
Gravur
 62
   2
 39
0.200
  6
CONTINUOUS
 10
95.21600
 20
5.44400
 30
 0
 11
94.64000
 21
5.44400
  0
LINE
  8
Gravur
 62
   2
 39
0.200
  6
CONTINUOUS
 10
94.64000
 20
5.44400
 30
 0
 11
94.64000
 21
2.50000
  0
LINE
  8
Gravur
 62
   2
 39
0.200
  6
CONTINUOUS
 10
94.64000
 20
2.50000
 30
 0
 11
95.21600
 21
2.50000
  0
CIRCLE
  8
Kontur
 62
   7
 39
0.100
  6
CONTINUOUS
 10
8.00000
 20
85.00000
 30
 0
 40
3.50000
  0
CIRCLE
  8
Kontur
 62
   7
 39
0.100
  6
CONTINUOUS
 10
8.00000
 20
85.00000
 30
 0
 40
2.50000
  0
CIRCLE
  8
Kontur
 62
   7
 39
0.100
  6
CONTINUOUS
 10
8.00000
 20
85.00000
 30
 0
 40
1.50000
  0
LINE
  8
Kontur
 62
   7
 39
0.100
  6
CONTINUOUS
 10
82.50000
 20
115.00000
 30
 0
 11
82.50000
 21
81.00000
  0
ARC
  8
Kontur
 62
   7
 39
0.100
  6
CONTINUOUS
 10
81.50000
 20
81.00000
 30
 0
 40
1.00000
 50
270.00000
 51
0.00000
  0
LINE
  8
Kontur
 62
   7
 39
0.100
  6
CONTINUOUS
 10
81.50000
 20
80.00000
 30
 0
 11
19.50000
 21
80.00000
  0
ARC
  8
Kontur
 62
   7
 39
0.100
  6
CONTINUOUS
 10
19.50000
 20
81.00000
 30
 0
 40
1.00000
 50
180.00000
 51
-90.00000
  0
LINE
  8
Kontur
 62
   7
 39
0.100
  6
CONTINUOUS
 10
18.50000
 20
81.00000
 30
 0
 11
18.50000
 21
115.00000
  0
ARC
  8
Kontur
 62
   7
 39
0.100
  6
CONTINUOUS
 10
19.50000
 20
115.00000
 30
 0
 40
1.00000
 50
450.00000
 51
180.00000
  0
LINE
  8
Kontur
 62
   7
 39
0.100
  6
CONTINUOUS
 10
19.50000
 20
116.00000
 30
 0
 11
81.50000
 21
116.00000
  0
ARC
  8
Kontur
 62
   7
 39
0.100
  6
CONTINUOUS
 10
81.50000
 20
115.00000
 30
 0
 40
1.00000
 50
360.00000
 51
90.00000
  0
CIRCLE
  8
Kontur
 62
   7
 39
0.100
  6
CONTINUOUS
 10
93.00000
 20
111.00000
 30
 0
 40
3.50000
  0
CIRCLE
  8
Kontur
 62
   7
 39
0.100
  6
CONTINUOUS
 10
93.00000
 20
111.00000
 30
 0
 40
2.50000
  0
CIRCLE
  8
Kontur
 62
   7
 39
0.100
  6
CONTINUOUS
 10
93.00000
 20
111.00000
 30
 0
 40
1.50000
  0
CIRCLE
  8
Kontur
 62
   7
 39
0.100
  6
CONTINUOUS
 10
93.00000
 20
85.00000
 30
 0
 40
3.50000
  0
CIRCLE
  8
Kontur
 62
   7
 39
0.100
  6
CONTINUOUS
 10
93.00000
 20
85.00000
 30
 0
 40
2.50000
  0
CIRCLE
  8
Kontur
 62
   7
 39
0.100
  6
CONTINUOUS
 10
93.00000
 20
85.00000
 30
 0
 40
1.50000
  0
CIRCLE
  8
Kontur
 62
   7
 39
0.100
  6
CONTINUOUS
 10
8.00000
 20
111.00000
 30
 0
 40
3.50000
  0
CIRCLE
  8
Kontur
 62
   7
 39
0.100
  6
CONTINUOUS
 10
8.00000
 20
111.00000
 30
 0
 40
2.50000
  0
CIRCLE
  8
Kontur
 62
   7
 39
0.100
  6
CONTINUOUS
 10
8.00000
 20
111.00000
 30
 0
 40
1.50000
  0
CIRCLE
  8
Kontur
 62
   7
 39
0.100
  6
CONTINUOUS
 10
50.50000
 20
39.00000
 30
 0
 40
3.55000
  0
CIRCLE
  8
Kontur
 62
   7
 39
0.100
  6
CONTINUOUS
 10
12.00000
 20
131.00000
 30
 0
 40
3.50000
  0
CIRCLE
  8
Kontur
 62
   7
 39
0.100
  6
CONTINUOUS
 10
12.00000
 20
131.00000
 30
 0
 40
2.50000
  0
CIRCLE
  8
Kontur
 62
   7
 39
0.100
  6
CONTINUOUS
 10
12.00000
 20
131.00000
 30
 0
 40
1.50000
  0
CIRCLE
  8
Kontur
 62
   7
 39
0.100
  6
CONTINUOUS
 10
89.00000
 20
131.00000
 30
 0
 40
3.50000
  0
CIRCLE
  8
Kontur
 62
   7
 39
0.100
  6
CONTINUOUS
 10
89.00000
 20
131.00000
 30
 0
 40
2.50000
  0
CIRCLE
  8
Kontur
 62
   7
 39
0.100
  6
CONTINUOUS
 10
89.00000
 20
131.00000
 30
 0
 40
1.50000
  0
CIRCLE
  8
Kontur
 62
   7
 39
0.100
  6
CONTINUOUS
 10
12.00000
 20
12.00000
 30
 0
 40
3.50000
  0
CIRCLE
  8
Kontur
 62
   7
 39
0.100
  6
CONTINUOUS
 10
12.00000
 20
12.00000
 30
 0
 40
2.50000
  0
CIRCLE
  8
Kontur
 62
   7
 39
0.100
  6
CONTINUOUS
 10
12.00000
 20
12.00000
 30
 0
 40
1.50000
  0
CIRCLE
  8
Kontur
 62
   7
 39
0.100
  6
CONTINUOUS
 10
89.00000
 20
12.00000
 30
 0
 40
3.50000
  0
CIRCLE
  8
Kontur
 62
   7
 39
0.100
  6
CONTINUOUS
 10
89.00000
 20
12.00000
 30
 0
 40
2.50000
  0
CIRCLE
  8
Kontur
 62
   7
 39
0.100
  6
CONTINUOUS
 10
89.00000
 20
12.00000
 30
 0
 40
1.50000
  0
LINE
  8
Bezugspunkte
 62
   1
 39
0.100
  6
CONTINUOUS
 10
-1.00000
 20
0.00000
 30
 0
 11
1.00000
 21
0.00000
  0
LINE
  8
Bezugspunkte
 62
   1
 39
0.100
  6
CONTINUOUS
 10
0.00000
 20
-1.00000
 30
 0
 11
0.00000
 21
1.00000
  0
LINE
  8
Bezugspunkte
 62
   1
 39
0.100
  6
CONTINUOUS
 10
7.00000
 20
85.00000
 30
 0
 11
9.00000
 21
85.00000
  0
LINE
  8
Bezugspunkte
 62
   1
 39
0.100
  6
CONTINUOUS
 10
8.00000
 20
84.00000
 30
 0
 11
8.00000
 21
86.00000
  0
LINE
  8
Bezugspunkte
 62
   1
 39
0.100
  6
CONTINUOUS
 10
49.50000
 20
98.00000
 30
 0
 11
51.50000
 21
98.00000
  0
LINE
  8
Bezugspunkte
 62
   1
 39
0.100
  6
CONTINUOUS
 10
50.50000
 20
97.00000
 30
 0
 11
50.50000
 21
99.00000
  0
LINE
  8
Bezugspunkte
 62
   1
 39
0.100
  6
CONTINUOUS
 10
49.50000
 20
98.00000
 30
 0
 11
51.50000
 21
98.00000
  0
LINE
  8
Bezugspunkte
 62
   1
 39
0.100
  6
CONTINUOUS
 10
50.50000
 20
97.00000
 30
 0
 11
50.50000
 21
99.00000
  0
LINE
  8
Bezugspunkte
 62
   1
 39
0.100
  6
CONTINUOUS
 10
92.00000
 20
111.00000
 30
 0
 11
94.00000
 21
111.00000
  0
LINE
  8
Bezugspunkte
 62
   1
 39
0.100
  6
CONTINUOUS
 10
93.00000
 20
110.00000
 30
 0
 11
93.00000
 21
112.00000
  0
LINE
  8
Bezugspunkte
 62
   1
 39
0.100
  6
CONTINUOUS
 10
92.00000
 20
85.00000
 30
 0
 11
94.00000
 21
85.00000
  0
LINE
  8
Bezugspunkte
 62
   1
 39
0.100
  6
CONTINUOUS
 10
93.00000
 20
84.00000
 30
 0
 11
93.00000
 21
86.00000
  0
LINE
  8
Bezugspunkte
 62
   1
 39
0.100
  6
CONTINUOUS
 10
7.00000
 20
111.00000
 30
 0
 11
9.00000
 21
111.00000
  0
LINE
  8
Bezugspunkte
 62
   1
 39
0.100
  6
CONTINUOUS
 10
8.00000
 20
110.00000
 30
 0
 11
8.00000
 21
112.00000
  0
LINE
  8
Bezugspunkte
 62
   1
 39
0.100
  6
CONTINUOUS
 10
49.50000
 20
39.00000
 30
 0
 11
51.50000
 21
39.00000
  0
LINE
  8
Bezugspunkte
 62
   1
 39
0.100
  6
CONTINUOUS
 10
50.50000
 20
38.00000
 30
 0
 11
50.50000
 21
40.00000
  0
LINE
  8
Bezugspunkte
 62
   1
 39
0.100
  6
CONTINUOUS
 10
11.00000
 20
131.00000
 30
 0
 11
13.00000
 21
131.00000
  0
LINE
  8
Bezugspunkte
 62
   1
 39
0.100
  6
CONTINUOUS
 10
12.00000
 20
130.00000
 30
 0
 11
12.00000
 21
132.00000
  0
LINE
  8
Bezugspunkte
 62
   1
 39
0.100
  6
CONTINUOUS
 10
88.00000
 20
131.00000
 30
 0
 11
90.00000
 21
131.00000
  0
LINE
  8
Bezugspunkte
 62
   1
 39
0.100
  6
CONTINUOUS
 10
89.00000
 20
130.00000
 30
 0
 11
89.00000
 21
132.00000
  0
LINE
  8
Bezugspunkte
 62
   1
 39
0.100
  6
CONTINUOUS
 10
11.00000
 20
12.00000
 30
 0
 11
13.00000
 21
12.00000
  0
LINE
  8
Bezugspunkte
 62
   1
 39
0.100
  6
CONTINUOUS
 10
12.00000
 20
11.00000
 30
 0
 11
12.00000
 21
13.00000
  0
LINE
  8
Bezugspunkte
 62
   1
 39
0.100
  6
CONTINUOUS
 10
88.00000
 20
12.00000
 30
 0
 11
90.00000
 21
12.00000
  0
LINE
  8
Bezugspunkte
 62
   1
 39
0.100
  6
CONTINUOUS
 10
89.00000
 20
11.00000
 30
 0
 11
89.00000
 21
13.00000
  0
LINE
  8
Bezugspunkte
 62
   1
 39
0.100
  6
CONTINUOUS
 10
61.00000
 20
4.00000
 30
 0
 11
63.00000
 21
4.00000
  0
LINE
  8
Bezugspunkte
 62
   1
 39
0.100
  6
CONTINUOUS
 10
62.00000
 20
3.00000
 30
 0
 11
62.00000
 21
5.00000
  0
ENDSEC
  0
EOF
