  0
SECTION
  2
HEADER
  9
$MEASUREMENT
  70
  1
  9
$INSUNITS
  70
  4
  0
ENDSEC
  0
SECTION
  2
TABLES
  0
TABLE
  2
LTYPE
 70
     1
  0
LTYPE
  2
CONTINUOUS
 70
    64
  3
Ausgezogene Linie
 72
    65
 73
     0
 40
0.0
  0
ENDTAB
  0
TABLE
  2
LAYER
 70
     3
  0
LAYER
  2
Kontur
 70
    64
 62
     7
  6
CONTINUOUS
  0
LAYER
  2
Gravur
 70
    64
 62
     7
  6
CONTINUOUS
  0
LAYER
  2
Bezugspunkte
 70
    64
 62
     1
  6
CONTINUOUS
  0
ENDTAB
  0
TABLE
  2
STYLE
 70
     1
  0
STYLE
  2
TXT
 70
    64
 40
0.0
 41
1.0
 50
0.0
 71
     0
 42
3.500000
  3
TXT
  0
ENDTAB
  0
ENDSEC
  0
SECTION
  2
BLOCKS
  0
ENDSEC
  0
SECTION
  2
ENTITIES
  0
LINE
  8
Kontur
 62
   7
 39
0.100
  6
CONTINUOUS
 10
1023.00000
 20
174.00000
 30
 0
 11
4.00000
 21
174.00000
  0
ARC
  8
Kontur
 62
   7
 39
0.100
  6
CONTINUOUS
 10
4.00000
 20
170.00000
 30
 0
 40
4.00000
 50
90.00000
 51
180.00000
  0
LINE
  8
Kontur
 62
   7
 39
0.100
  6
CONTINUOUS
 10
0.00000
 20
170.00000
 30
 0
 11
0.00000
 21
4.00000
  0
ARC
  8
Kontur
 62
   7
 39
0.100
  6
CONTINUOUS
 10
4.00000
 20
4.00000
 30
 0
 40
4.00000
 50
180.00000
 51
270.00000
  0
LINE
  8
Kontur
 62
   7
 39
0.100
  6
CONTINUOUS
 10
4.00000
 20
0.00000
 30
 0
 11
1023.00000
 21
0.00000
  0
ARC
  8
Kontur
 62
   7
 39
0.100
  6
CONTINUOUS
 10
1023.00000
 20
4.00000
 30
 0
 40
4.00000
 50
-90.00000
 51
0.00000
  0
LINE
  8
Kontur
 62
   7
 39
0.100
  6
CONTINUOUS
 10
1027.00000
 20
4.00000
 30
 0
 11
1027.00000
 21
170.00000
  0
ARC
  8
Kontur
 62
   7
 39
0.100
  6
CONTINUOUS
 10
1023.00000
 20
170.00000
 30
 0
 40
4.00000
 50
0.00000
 51
90.00000
  0
LINE
  8
Gravur
 62
   7
 39
0.400
  6
CONTINUOUS
 10
117.00000
 20
159.00000
 30
 0
 11
117.00000
 21
15.00000
  0
LINE
  8
Gravur
 62
   7
 39
0.400
  6
CONTINUOUS
 10
117.00000
 20
15.00000
 30
 0
 11
117.00000
 21
15.00000
  0
LINE
  8
Gravur
 62
   7
 39
0.400
  6
CONTINUOUS
 10
117.00000
 20
15.00000
 30
 0
 11
15.00000
 21
15.00000
  0
LINE
  8
Gravur
 62
   7
 39
0.400
  6
CONTINUOUS
 10
15.00000
 20
15.00000
 30
 0
 11
15.00000
 21
15.00000
  0
LINE
  8
Gravur
 62
   7
 39
0.400
  6
CONTINUOUS
 10
15.00000
 20
15.00000
 30
 0
 11
15.00000
 21
159.00000
  0
LINE
  8
Gravur
 62
   7
 39
0.400
  6
CONTINUOUS
 10
15.00000
 20
159.00000
 30
 0
 11
15.00000
 21
159.00000
  0
LINE
  8
Gravur
 62
   7
 39
0.400
  6
CONTINUOUS
 10
15.00000
 20
159.00000
 30
 0
 11
117.00000
 21
159.00000
  0
LINE
  8
Gravur
 62
   7
 39
0.400
  6
CONTINUOUS
 10
117.00000
 20
159.00000
 30
 0
 11
117.00000
 21
159.00000
  0
LINE
  8
Gravur
 62
   7
 39
0.400
  6
CONTINUOUS
 10
113.00000
 20
88.00000
 30
 0
 11
113.00000
 21
38.00000
  0
LINE
  8
Gravur
 62
   7
 39
0.400
  6
CONTINUOUS
 10
113.00000
 20
38.00000
 30
 0
 11
113.00000
 21
38.00000
  0
LINE
  8
Gravur
 62
   7
 39
0.400
  6
CONTINUOUS
 10
113.00000
 20
38.00000
 30
 0
 11
63.00000
 21
38.00000
  0
LINE
  8
Gravur
 62
   7
 39
0.400
  6
CONTINUOUS
 10
63.00000
 20
38.00000
 30
 0
 11
63.00000
 21
38.00000
  0
LINE
  8
Gravur
 62
   7
 39
0.400
  6
CONTINUOUS
 10
63.00000
 20
38.00000
 30
 0
 11
63.00000
 21
88.00000
  0
LINE
  8
Gravur
 62
   7
 39
0.400
  6
CONTINUOUS
 10
63.00000
 20
88.00000
 30
 0
 11
63.00000
 21
88.00000
  0
LINE
  8
Gravur
 62
   7
 39
0.400
  6
CONTINUOUS
 10
63.00000
 20
88.00000
 30
 0
 11
113.00000
 21
88.00000
  0
LINE
  8
Gravur
 62
   7
 39
0.400
  6
CONTINUOUS
 10
113.00000
 20
88.00000
 30
 0
 11
113.00000
 21
88.00000
  0
LINE
  8
Gravur
 62
   7
 39
0.400
  6
CONTINUOUS
 10
229.00000
 20
159.00000
 30
 0
 11
229.00000
 21
15.00000
  0
LINE
  8
Gravur
 62
   7
 39
0.400
  6
CONTINUOUS
 10
229.00000
 20
15.00000
 30
 0
 11
229.00000
 21
15.00000
  0
LINE
  8
Gravur
 62
   7
 39
0.400
  6
CONTINUOUS
 10
229.00000
 20
15.00000
 30
 0
 11
127.00000
 21
15.00000
  0
LINE
  8
Gravur
 62
   7
 39
0.400
  6
CONTINUOUS
 10
127.00000
 20
15.00000
 30
 0
 11
127.00000
 21
15.00000
  0
LINE
  8
Gravur
 62
   7
 39
0.400
  6
CONTINUOUS
 10
127.00000
 20
15.00000
 30
 0
 11
127.00000
 21
159.00000
  0
LINE
  8
Gravur
 62
   7
 39
0.400
  6
CONTINUOUS
 10
127.00000
 20
159.00000
 30
 0
 11
127.00000
 21
159.00000
  0
LINE
  8
Gravur
 62
   7
 39
0.400
  6
CONTINUOUS
 10
127.00000
 20
159.00000
 30
 0
 11
229.00000
 21
159.00000
  0
LINE
  8
Gravur
 62
   7
 39
0.400
  6
CONTINUOUS
 10
229.00000
 20
159.00000
 30
 0
 11
229.00000
 21
159.00000
  0
LINE
  8
Gravur
 62
   7
 39
0.400
  6
CONTINUOUS
 10
225.00000
 20
88.00000
 30
 0
 11
225.00000
 21
38.00000
  0
LINE
  8
Gravur
 62
   7
 39
0.400
  6
CONTINUOUS
 10
225.00000
 20
38.00000
 30
 0
 11
225.00000
 21
38.00000
  0
LINE
  8
Gravur
 62
   7
 39
0.400
  6
CONTINUOUS
 10
225.00000
 20
38.00000
 30
 0
 11
175.00000
 21
38.00000
  0
LINE
  8
Gravur
 62
   7
 39
0.400
  6
CONTINUOUS
 10
175.00000
 20
38.00000
 30
 0
 11
175.00000
 21
38.00000
  0
LINE
  8
Gravur
 62
   7
 39
0.400
  6
CONTINUOUS
 10
175.00000
 20
38.00000
 30
 0
 11
175.00000
 21
88.00000
  0
LINE
  8
Gravur
 62
   7
 39
0.400
  6
CONTINUOUS
 10
175.00000
 20
88.00000
 30
 0
 11
175.00000
 21
88.00000
  0
LINE
  8
Gravur
 62
   7
 39
0.400
  6
CONTINUOUS
 10
175.00000
 20
88.00000
 30
 0
 11
225.00000
 21
88.00000
  0
LINE
  8
Gravur
 62
   7
 39
0.400
  6
CONTINUOUS
 10
225.00000
 20
88.00000
 30
 0
 11
225.00000
 21
88.00000
  0
LINE
  8
Gravur
 62
   7
 39
0.400
  6
CONTINUOUS
 10
341.00000
 20
159.00000
 30
 0
 11
341.00000
 21
15.00000
  0
LINE
  8
Gravur
 62
   7
 39
0.400
  6
CONTINUOUS
 10
341.00000
 20
15.00000
 30
 0
 11
341.00000
 21
15.00000
  0
LINE
  8
Gravur
 62
   7
 39
0.400
  6
CONTINUOUS
 10
341.00000
 20
15.00000
 30
 0
 11
239.00000
 21
15.00000
  0
LINE
  8
Gravur
 62
   7
 39
0.400
  6
CONTINUOUS
 10
239.00000
 20
15.00000
 30
 0
 11
239.00000
 21
15.00000
  0
LINE
  8
Gravur
 62
   7
 39
0.400
  6
CONTINUOUS
 10
239.00000
 20
15.00000
 30
 0
 11
239.00000
 21
159.00000
  0
LINE
  8
Gravur
 62
   7
 39
0.400
  6
CONTINUOUS
 10
239.00000
 20
159.00000
 30
 0
 11
239.00000
 21
159.00000
  0
LINE
  8
Gravur
 62
   7
 39
0.400
  6
CONTINUOUS
 10
239.00000
 20
159.00000
 30
 0
 11
341.00000
 21
159.00000
  0
LINE
  8
Gravur
 62
   7
 39
0.400
  6
CONTINUOUS
 10
341.00000
 20
159.00000
 30
 0
 11
341.00000
 21
159.00000
  0
LINE
  8
Gravur
 62
   7
 39
0.400
  6
CONTINUOUS
 10
337.00000
 20
88.00000
 30
 0
 11
337.00000
 21
38.00000
  0
LINE
  8
Gravur
 62
   7
 39
0.400
  6
CONTINUOUS
 10
337.00000
 20
38.00000
 30
 0
 11
337.00000
 21
38.00000
  0
LINE
  8
Gravur
 62
   7
 39
0.400
  6
CONTINUOUS
 10
337.00000
 20
38.00000
 30
 0
 11
287.00000
 21
38.00000
  0
LINE
  8
Gravur
 62
   7
 39
0.400
  6
CONTINUOUS
 10
287.00000
 20
38.00000
 30
 0
 11
287.00000
 21
38.00000
  0
LINE
  8
Gravur
 62
   7
 39
0.400
  6
CONTINUOUS
 10
287.00000
 20
38.00000
 30
 0
 11
287.00000
 21
88.00000
  0
LINE
  8
Gravur
 62
   7
 39
0.400
  6
CONTINUOUS
 10
287.00000
 20
88.00000
 30
 0
 11
287.00000
 21
88.00000
  0
LINE
  8
Gravur
 62
   7
 39
0.400
  6
CONTINUOUS
 10
287.00000
 20
88.00000
 30
 0
 11
337.00000
 21
88.00000
  0
LINE
  8
Gravur
 62
   7
 39
0.400
  6
CONTINUOUS
 10
337.00000
 20
88.00000
 30
 0
 11
337.00000
 21
88.00000
  0
LINE
  8
Gravur
 62
   7
 39
0.400
  6
CONTINUOUS
 10
453.00000
 20
159.00000
 30
 0
 11
453.00000
 21
15.00000
  0
LINE
  8
Gravur
 62
   7
 39
0.400
  6
CONTINUOUS
 10
453.00000
 20
15.00000
 30
 0
 11
453.00000
 21
15.00000
  0
LINE
  8
Gravur
 62
   7
 39
0.400
  6
CONTINUOUS
 10
453.00000
 20
15.00000
 30
 0
 11
351.00000
 21
15.00000
  0
LINE
  8
Gravur
 62
   7
 39
0.400
  6
CONTINUOUS
 10
351.00000
 20
15.00000
 30
 0
 11
351.00000
 21
15.00000
  0
LINE
  8
Gravur
 62
   7
 39
0.400
  6
CONTINUOUS
 10
351.00000
 20
15.00000
 30
 0
 11
351.00000
 21
159.00000
  0
LINE
  8
Gravur
 62
   7
 39
0.400
  6
CONTINUOUS
 10
351.00000
 20
159.00000
 30
 0
 11
351.00000
 21
159.00000
  0
LINE
  8
Gravur
 62
   7
 39
0.400
  6
CONTINUOUS
 10
351.00000
 20
159.00000
 30
 0
 11
453.00000
 21
159.00000
  0
LINE
  8
Gravur
 62
   7
 39
0.400
  6
CONTINUOUS
 10
453.00000
 20
159.00000
 30
 0
 11
453.00000
 21
159.00000
  0
LINE
  8
Gravur
 62
   7
 39
0.400
  6
CONTINUOUS
 10
449.00000
 20
88.00000
 30
 0
 11
449.00000
 21
38.00000
  0
LINE
  8
Gravur
 62
   7
 39
0.400
  6
CONTINUOUS
 10
449.00000
 20
38.00000
 30
 0
 11
449.00000
 21
38.00000
  0
LINE
  8
Gravur
 62
   7
 39
0.400
  6
CONTINUOUS
 10
449.00000
 20
38.00000
 30
 0
 11
399.00000
 21
38.00000
  0
LINE
  8
Gravur
 62
   7
 39
0.400
  6
CONTINUOUS
 10
399.00000
 20
38.00000
 30
 0
 11
399.00000
 21
38.00000
  0
LINE
  8
Gravur
 62
   7
 39
0.400
  6
CONTINUOUS
 10
399.00000
 20
38.00000
 30
 0
 11
399.00000
 21
88.00000
  0
LINE
  8
Gravur
 62
   7
 39
0.400
  6
CONTINUOUS
 10
399.00000
 20
88.00000
 30
 0
 11
399.00000
 21
88.00000
  0
LINE
  8
Gravur
 62
   7
 39
0.400
  6
CONTINUOUS
 10
399.00000
 20
88.00000
 30
 0
 11
449.00000
 21
88.00000
  0
LINE
  8
Gravur
 62
   7
 39
0.400
  6
CONTINUOUS
 10
449.00000
 20
88.00000
 30
 0
 11
449.00000
 21
88.00000
  0
LINE
  8
Gravur
 62
   7
 39
0.400
  6
CONTINUOUS
 10
676.00000
 20
159.00000
 30
 0
 11
676.00000
 21
15.00000
  0
LINE
  8
Gravur
 62
   7
 39
0.400
  6
CONTINUOUS
 10
676.00000
 20
15.00000
 30
 0
 11
676.00000
 21
15.00000
  0
LINE
  8
Gravur
 62
   7
 39
0.400
  6
CONTINUOUS
 10
676.00000
 20
15.00000
 30
 0
 11
574.00000
 21
15.00000
  0
LINE
  8
Gravur
 62
   7
 39
0.400
  6
CONTINUOUS
 10
574.00000
 20
15.00000
 30
 0
 11
574.00000
 21
15.00000
  0
LINE
  8
Gravur
 62
   7
 39
0.400
  6
CONTINUOUS
 10
574.00000
 20
15.00000
 30
 0
 11
574.00000
 21
159.00000
  0
LINE
  8
Gravur
 62
   7
 39
0.400
  6
CONTINUOUS
 10
574.00000
 20
159.00000
 30
 0
 11
574.00000
 21
159.00000
  0
LINE
  8
Gravur
 62
   7
 39
0.400
  6
CONTINUOUS
 10
574.00000
 20
159.00000
 30
 0
 11
676.00000
 21
159.00000
  0
LINE
  8
Gravur
 62
   7
 39
0.400
  6
CONTINUOUS
 10
676.00000
 20
159.00000
 30
 0
 11
676.00000
 21
159.00000
  0
LINE
  8
Gravur
 62
   7
 39
0.400
  6
CONTINUOUS
 10
672.00000
 20
88.00000
 30
 0
 11
672.00000
 21
38.00000
  0
LINE
  8
Gravur
 62
   7
 39
0.400
  6
CONTINUOUS
 10
672.00000
 20
38.00000
 30
 0
 11
672.00000
 21
38.00000
  0
LINE
  8
Gravur
 62
   7
 39
0.400
  6
CONTINUOUS
 10
672.00000
 20
38.00000
 30
 0
 11
622.00000
 21
38.00000
  0
LINE
  8
Gravur
 62
   7
 39
0.400
  6
CONTINUOUS
 10
622.00000
 20
38.00000
 30
 0
 11
622.00000
 21
38.00000
  0
LINE
  8
Gravur
 62
   7
 39
0.400
  6
CONTINUOUS
 10
622.00000
 20
38.00000
 30
 0
 11
622.00000
 21
88.00000
  0
LINE
  8
Gravur
 62
   7
 39
0.400
  6
CONTINUOUS
 10
622.00000
 20
88.00000
 30
 0
 11
622.00000
 21
88.00000
  0
LINE
  8
Gravur
 62
   7
 39
0.400
  6
CONTINUOUS
 10
622.00000
 20
88.00000
 30
 0
 11
672.00000
 21
88.00000
  0
LINE
  8
Gravur
 62
   7
 39
0.400
  6
CONTINUOUS
 10
672.00000
 20
88.00000
 30
 0
 11
672.00000
 21
88.00000
  0
LINE
  8
Gravur
 62
   7
 39
0.400
  6
CONTINUOUS
 10
788.00000
 20
159.00000
 30
 0
 11
788.00000
 21
15.00000
  0
LINE
  8
Gravur
 62
   7
 39
0.400
  6
CONTINUOUS
 10
788.00000
 20
15.00000
 30
 0
 11
788.00000
 21
15.00000
  0
LINE
  8
Gravur
 62
   7
 39
0.400
  6
CONTINUOUS
 10
788.00000
 20
15.00000
 30
 0
 11
686.00000
 21
15.00000
  0
LINE
  8
Gravur
 62
   7
 39
0.400
  6
CONTINUOUS
 10
686.00000
 20
15.00000
 30
 0
 11
686.00000
 21
15.00000
  0
LINE
  8
Gravur
 62
   7
 39
0.400
  6
CONTINUOUS
 10
686.00000
 20
15.00000
 30
 0
 11
686.00000
 21
159.00000
  0
LINE
  8
Gravur
 62
   7
 39
0.400
  6
CONTINUOUS
 10
686.00000
 20
159.00000
 30
 0
 11
686.00000
 21
159.00000
  0
LINE
  8
Gravur
 62
   7
 39
0.400
  6
CONTINUOUS
 10
686.00000
 20
159.00000
 30
 0
 11
788.00000
 21
159.00000
  0
LINE
  8
Gravur
 62
   7
 39
0.400
  6
CONTINUOUS
 10
788.00000
 20
159.00000
 30
 0
 11
788.00000
 21
159.00000
  0
LINE
  8
Gravur
 62
   7
 39
0.400
  6
CONTINUOUS
 10
784.00000
 20
88.00000
 30
 0
 11
784.00000
 21
38.00000
  0
LINE
  8
Gravur
 62
   7
 39
0.400
  6
CONTINUOUS
 10
784.00000
 20
38.00000
 30
 0
 11
784.00000
 21
38.00000
  0
LINE
  8
Gravur
 62
   7
 39
0.400
  6
CONTINUOUS
 10
784.00000
 20
38.00000
 30
 0
 11
734.00000
 21
38.00000
  0
LINE
  8
Gravur
 62
   7
 39
0.400
  6
CONTINUOUS
 10
734.00000
 20
38.00000
 30
 0
 11
734.00000
 21
38.00000
  0
LINE
  8
Gravur
 62
   7
 39
0.400
  6
CONTINUOUS
 10
734.00000
 20
38.00000
 30
 0
 11
734.00000
 21
88.00000
  0
LINE
  8
Gravur
 62
   7
 39
0.400
  6
CONTINUOUS
 10
734.00000
 20
88.00000
 30
 0
 11
734.00000
 21
88.00000
  0
LINE
  8
Gravur
 62
   7
 39
0.400
  6
CONTINUOUS
 10
734.00000
 20
88.00000
 30
 0
 11
784.00000
 21
88.00000
  0
LINE
  8
Gravur
 62
   7
 39
0.400
  6
CONTINUOUS
 10
784.00000
 20
88.00000
 30
 0
 11
784.00000
 21
88.00000
  0
LINE
  8
Gravur
 62
   7
 39
0.400
  6
CONTINUOUS
 10
900.00000
 20
159.00000
 30
 0
 11
900.00000
 21
15.00000
  0
LINE
  8
Gravur
 62
   7
 39
0.400
  6
CONTINUOUS
 10
900.00000
 20
15.00000
 30
 0
 11
900.00000
 21
15.00000
  0
LINE
  8
Gravur
 62
   7
 39
0.400
  6
CONTINUOUS
 10
900.00000
 20
15.00000
 30
 0
 11
798.00000
 21
15.00000
  0
LINE
  8
Gravur
 62
   7
 39
0.400
  6
CONTINUOUS
 10
798.00000
 20
15.00000
 30
 0
 11
798.00000
 21
15.00000
  0
LINE
  8
Gravur
 62
   7
 39
0.400
  6
CONTINUOUS
 10
798.00000
 20
15.00000
 30
 0
 11
798.00000
 21
159.00000
  0
LINE
  8
Gravur
 62
   7
 39
0.400
  6
CONTINUOUS
 10
798.00000
 20
159.00000
 30
 0
 11
798.00000
 21
159.00000
  0
LINE
  8
Gravur
 62
   7
 39
0.400
  6
CONTINUOUS
 10
798.00000
 20
159.00000
 30
 0
 11
900.00000
 21
159.00000
  0
LINE
  8
Gravur
 62
   7
 39
0.400
  6
CONTINUOUS
 10
900.00000
 20
159.00000
 30
 0
 11
900.00000
 21
159.00000
  0
LINE
  8
Gravur
 62
   7
 39
0.400
  6
CONTINUOUS
 10
896.00000
 20
88.00000
 30
 0
 11
896.00000
 21
38.00000
  0
LINE
  8
Gravur
 62
   7
 39
0.400
  6
CONTINUOUS
 10
896.00000
 20
38.00000
 30
 0
 11
896.00000
 21
38.00000
  0
LINE
  8
Gravur
 62
   7
 39
0.400
  6
CONTINUOUS
 10
896.00000
 20
38.00000
 30
 0
 11
846.00000
 21
38.00000
  0
LINE
  8
Gravur
 62
   7
 39
0.400
  6
CONTINUOUS
 10
846.00000
 20
38.00000
 30
 0
 11
846.00000
 21
38.00000
  0
LINE
  8
Gravur
 62
   7
 39
0.400
  6
CONTINUOUS
 10
846.00000
 20
38.00000
 30
 0
 11
846.00000
 21
88.00000
  0
LINE
  8
Gravur
 62
   7
 39
0.400
  6
CONTINUOUS
 10
846.00000
 20
88.00000
 30
 0
 11
846.00000
 21
88.00000
  0
LINE
  8
Gravur
 62
   7
 39
0.400
  6
CONTINUOUS
 10
846.00000
 20
88.00000
 30
 0
 11
896.00000
 21
88.00000
  0
LINE
  8
Gravur
 62
   7
 39
0.400
  6
CONTINUOUS
 10
896.00000
 20
88.00000
 30
 0
 11
896.00000
 21
88.00000
  0
LINE
  8
Gravur
 62
   7
 39
0.400
  6
CONTINUOUS
 10
1012.00000
 20
159.00000
 30
 0
 11
1012.00000
 21
15.00000
  0
LINE
  8
Gravur
 62
   7
 39
0.400
  6
CONTINUOUS
 10
1012.00000
 20
15.00000
 30
 0
 11
1012.00000
 21
15.00000
  0
LINE
  8
Gravur
 62
   7
 39
0.400
  6
CONTINUOUS
 10
1012.00000
 20
15.00000
 30
 0
 11
910.00000
 21
15.00000
  0
LINE
  8
Gravur
 62
   7
 39
0.400
  6
CONTINUOUS
 10
910.00000
 20
15.00000
 30
 0
 11
910.00000
 21
15.00000
  0
LINE
  8
Gravur
 62
   7
 39
0.400
  6
CONTINUOUS
 10
910.00000
 20
15.00000
 30
 0
 11
910.00000
 21
159.00000
  0
LINE
  8
Gravur
 62
   7
 39
0.400
  6
CONTINUOUS
 10
910.00000
 20
159.00000
 30
 0
 11
910.00000
 21
159.00000
  0
LINE
  8
Gravur
 62
   7
 39
0.400
  6
CONTINUOUS
 10
910.00000
 20
159.00000
 30
 0
 11
1012.00000
 21
159.00000
  0
LINE
  8
Gravur
 62
   7
 39
0.400
  6
CONTINUOUS
 10
1012.00000
 20
159.00000
 30
 0
 11
1012.00000
 21
159.00000
  0
LINE
  8
Gravur
 62
   7
 39
0.400
  6
CONTINUOUS
 10
1008.00000
 20
88.00000
 30
 0
 11
1008.00000
 21
38.00000
  0
LINE
  8
Gravur
 62
   7
 39
0.400
  6
CONTINUOUS
 10
1008.00000
 20
38.00000
 30
 0
 11
1008.00000
 21
38.00000
  0
LINE
  8
Gravur
 62
   7
 39
0.400
  6
CONTINUOUS
 10
1008.00000
 20
38.00000
 30
 0
 11
958.00000
 21
38.00000
  0
LINE
  8
Gravur
 62
   7
 39
0.400
  6
CONTINUOUS
 10
958.00000
 20
38.00000
 30
 0
 11
958.00000
 21
38.00000
  0
LINE
  8
Gravur
 62
   7
 39
0.400
  6
CONTINUOUS
 10
958.00000
 20
38.00000
 30
 0
 11
958.00000
 21
88.00000
  0
LINE
  8
Gravur
 62
   7
 39
0.400
  6
CONTINUOUS
 10
958.00000
 20
88.00000
 30
 0
 11
958.00000
 21
88.00000
  0
LINE
  8
Gravur
 62
   7
 39
0.400
  6
CONTINUOUS
 10
958.00000
 20
88.00000
 30
 0
 11
1008.00000
 21
88.00000
  0
LINE
  8
Gravur
 62
   7
 39
0.400
  6
CONTINUOUS
 10
1008.00000
 20
88.00000
 30
 0
 11
1008.00000
 21
88.00000
  0
LINE
  8
Gravur
 62
   7
 39
0.400
  6
CONTINUOUS
 10
564.00000
 20
158.50000
 30
 0
 11
564.00000
 21
15.50000
  0
LINE
  8
Gravur
 62
   7
 39
0.400
  6
CONTINUOUS
 10
564.00000
 20
15.50000
 30
 0
 11
564.00000
 21
15.50000
  0
LINE
  8
Gravur
 62
   7
 39
0.400
  6
CONTINUOUS
 10
564.00000
 20
15.50000
 30
 0
 11
463.00000
 21
15.50000
  0
LINE
  8
Gravur
 62
   7
 39
0.400
  6
CONTINUOUS
 10
463.00000
 20
15.50000
 30
 0
 11
463.00000
 21
15.50000
  0
LINE
  8
Gravur
 62
   7
 39
0.400
  6
CONTINUOUS
 10
463.00000
 20
15.50000
 30
 0
 11
463.00000
 21
158.50000
  0
LINE
  8
Gravur
 62
   7
 39
0.400
  6
CONTINUOUS
 10
463.00000
 20
158.50000
 30
 0
 11
463.00000
 21
158.50000
  0
LINE
  8
Gravur
 62
   7
 39
0.400
  6
CONTINUOUS
 10
463.00000
 20
158.50000
 30
 0
 11
564.00000
 21
158.50000
  0
LINE
  8
Gravur
 62
   7
 39
0.400
  6
CONTINUOUS
 10
564.00000
 20
158.50000
 30
 0
 11
564.00000
 21
158.50000
  0
LINE
  8
Gravur
 62
   7
 39
0.400
  6
CONTINUOUS
 10
531.00000
 20
12.00000
 30
 0
 11
496.00000
 21
12.00000
  0
LINE
  8
Gravur
 62
   7
 39
0.400
  6
CONTINUOUS
 10
496.00000
 20
12.00000
 30
 0
 11
496.00000
 21
12.00000
  0
LINE
  8
Gravur
 62
   7
 39
0.400
  6
CONTINUOUS
 10
496.00000
 20
12.00000
 30
 0
 11
496.00000
 21
47.00000
  0
LINE
  8
Gravur
 62
   7
 39
0.400
  6
CONTINUOUS
 10
496.00000
 20
47.00000
 30
 0
 11
496.00000
 21
47.00000
  0
LINE
  8
Gravur
 62
   7
 39
0.400
  6
CONTINUOUS
 10
496.00000
 20
47.00000
 30
 0
 11
531.00000
 21
47.00000
  0
LINE
  8
Gravur
 62
   7
 39
0.400
  6
CONTINUOUS
 10
531.00000
 20
47.00000
 30
 0
 11
531.00000
 21
47.00000
  0
LINE
  8
Gravur
 62
   7
 39
0.400
  6
CONTINUOUS
 10
531.00000
 20
47.00000
 30
 0
 11
531.00000
 21
12.00000
  0
LINE
  8
Gravur
 62
   7
 39
0.400
  6
CONTINUOUS
 10
531.00000
 20
12.00000
 30
 0
 11
531.00000
 21
12.00000
  0
LINE
  8
Gravur
 62
   7
 39
0.400
  6
CONTINUOUS
 10
526.00000
 20
2.00000
 30
 0
 11
502.00000
 21
2.00000
  0
LINE
  8
Gravur
 62
   7
 39
0.400
  6
CONTINUOUS
 10
502.00000
 20
2.00000
 30
 0
 11
502.00000
 21
2.00000
  0
LINE
  8
Gravur
 62
   7
 39
0.400
  6
CONTINUOUS
 10
502.00000
 20
2.00000
 30
 0
 11
502.00000
 21
12.00000
  0
LINE
  8
Gravur
 62
   7
 39
0.400
  6
CONTINUOUS
 10
502.00000
 20
12.00000
 30
 0
 11
502.00000
 21
12.00000
  0
LINE
  8
Gravur
 62
   7
 39
0.400
  6
CONTINUOUS
 10
502.00000
 20
12.00000
 30
 0
 11
526.00000
 21
12.00000
  0
LINE
  8
Gravur
 62
   7
 39
0.400
  6
CONTINUOUS
 10
526.00000
 20
12.00000
 30
 0
 11
526.00000
 21
12.00000
  0
LINE
  8
Gravur
 62
   7
 39
0.400
  6
CONTINUOUS
 10
526.00000
 20
12.00000
 30
 0
 11
526.00000
 21
2.00000
  0
LINE
  8
Gravur
 62
   7
 39
0.400
  6
CONTINUOUS
 10
526.00000
 20
2.00000
 30
 0
 11
526.00000
 21
2.00000
  0
LINE
  8
Gravur
 62
   7
 39
0.400
  6
CONTINUOUS
 10
1015.00000
 20
159.00000
 30
 0
 11
1015.00000
 21
124.00000
  0
LINE
  8
Gravur
 62
   7
 39
0.400
  6
CONTINUOUS
 10
1015.00000
 20
124.00000
 30
 0
 11
1015.00000
 21
124.00000
  0
LINE
  8
Gravur
 62
   7
 39
0.400
  6
CONTINUOUS
 10
1015.00000
 20
124.00000
 30
 0
 11
980.00000
 21
124.00000
  0
LINE
  8
Gravur
 62
   7
 39
0.400
  6
CONTINUOUS
 10
980.00000
 20
124.00000
 30
 0
 11
980.00000
 21
124.00000
  0
LINE
  8
Gravur
 62
   7
 39
0.400
  6
CONTINUOUS
 10
980.00000
 20
124.00000
 30
 0
 11
980.00000
 21
159.00000
  0
LINE
  8
Gravur
 62
   7
 39
0.400
  6
CONTINUOUS
 10
980.00000
 20
159.00000
 30
 0
 11
980.00000
 21
159.00000
  0
LINE
  8
Gravur
 62
   7
 39
0.400
  6
CONTINUOUS
 10
980.00000
 20
159.00000
 30
 0
 11
1015.00000
 21
159.00000
  0
LINE
  8
Gravur
 62
   7
 39
0.400
  6
CONTINUOUS
 10
1015.00000
 20
159.00000
 30
 0
 11
1015.00000
 21
159.00000
  0
LINE
  8
Gravur
 62
   7
 39
0.400
  6
CONTINUOUS
 10
1025.00000
 20
154.00000
 30
 0
 11
1025.00000
 21
130.00000
  0
LINE
  8
Gravur
 62
   7
 39
0.400
  6
CONTINUOUS
 10
1025.00000
 20
130.00000
 30
 0
 11
1025.00000
 21
130.00000
  0
LINE
  8
Gravur
 62
   7
 39
0.400
  6
CONTINUOUS
 10
1025.00000
 20
130.00000
 30
 0
 11
1015.00000
 21
130.00000
  0
LINE
  8
Gravur
 62
   7
 39
0.400
  6
CONTINUOUS
 10
1015.00000
 20
130.00000
 30
 0
 11
1015.00000
 21
130.00000
  0
LINE
  8
Gravur
 62
   7
 39
0.400
  6
CONTINUOUS
 10
1015.00000
 20
130.00000
 30
 0
 11
1015.00000
 21
154.00000
  0
LINE
  8
Gravur
 62
   7
 39
0.400
  6
CONTINUOUS
 10
1015.00000
 20
154.00000
 30
 0
 11
1015.00000
 21
154.00000
  0
LINE
  8
Gravur
 62
   7
 39
0.400
  6
CONTINUOUS
 10
1015.00000
 20
154.00000
 30
 0
 11
1025.00000
 21
154.00000
  0
LINE
  8
Gravur
 62
   7
 39
0.400
  6
CONTINUOUS
 10
1025.00000
 20
154.00000
 30
 0
 11
1025.00000
 21
154.00000
  0
LINE
  8
Gravur
 62
   7
 39
0.400
  6
CONTINUOUS
 10
418.00000
 20
162.00000
 30
 0
 11
453.00000
 21
162.00000
  0
LINE
  8
Gravur
 62
   7
 39
0.400
  6
CONTINUOUS
 10
453.00000
 20
162.00000
 30
 0
 11
453.00000
 21
162.00000
  0
LINE
  8
Gravur
 62
   7
 39
0.400
  6
CONTINUOUS
 10
453.00000
 20
162.00000
 30
 0
 11
453.00000
 21
127.00000
  0
LINE
  8
Gravur
 62
   7
 39
0.400
  6
CONTINUOUS
 10
453.00000
 20
127.00000
 30
 0
 11
453.00000
 21
127.00000
  0
LINE
  8
Gravur
 62
   7
 39
0.400
  6
CONTINUOUS
 10
453.00000
 20
127.00000
 30
 0
 11
418.00000
 21
127.00000
  0
LINE
  8
Gravur
 62
   7
 39
0.400
  6
CONTINUOUS
 10
418.00000
 20
127.00000
 30
 0
 11
418.00000
 21
127.00000
  0
LINE
  8
Gravur
 62
   7
 39
0.400
  6
CONTINUOUS
 10
418.00000
 20
127.00000
 30
 0
 11
418.00000
 21
162.00000
  0
LINE
  8
Gravur
 62
   7
 39
0.400
  6
CONTINUOUS
 10
418.00000
 20
162.00000
 30
 0
 11
418.00000
 21
162.00000
  0
LINE
  8
Gravur
 62
   7
 39
0.400
  6
CONTINUOUS
 10
423.00000
 20
172.00000
 30
 0
 11
447.00000
 21
172.00000
  0
LINE
  8
Gravur
 62
   7
 39
0.400
  6
CONTINUOUS
 10
447.00000
 20
172.00000
 30
 0
 11
447.00000
 21
172.00000
  0
LINE
  8
Gravur
 62
   7
 39
0.400
  6
CONTINUOUS
 10
447.00000
 20
172.00000
 30
 0
 11
447.00000
 21
162.00000
  0
LINE
  8
Gravur
 62
   7
 39
0.400
  6
CONTINUOUS
 10
447.00000
 20
162.00000
 30
 0
 11
447.00000
 21
162.00000
  0
LINE
  8
Gravur
 62
   7
 39
0.400
  6
CONTINUOUS
 10
447.00000
 20
162.00000
 30
 0
 11
423.00000
 21
162.00000
  0
LINE
  8
Gravur
 62
   7
 39
0.400
  6
CONTINUOUS
 10
423.00000
 20
162.00000
 30
 0
 11
423.00000
 21
162.00000
  0
LINE
  8
Gravur
 62
   7
 39
0.400
  6
CONTINUOUS
 10
423.00000
 20
162.00000
 30
 0
 11
423.00000
 21
172.00000
  0
LINE
  8
Gravur
 62
   7
 39
0.400
  6
CONTINUOUS
 10
423.00000
 20
172.00000
 30
 0
 11
423.00000
 21
172.00000
  0
LINE
  8
Kontur
 62
   7
 39
0.100
  6
CONTINUOUS
 10
38.00000
 20
30.00000
 30
 0
 11
38.00000
 21
22.00000
  0
ARC
  8
Kontur
 62
   7
 39
0.100
  6
CONTINUOUS
 10
37.00000
 20
22.00000
 30
 0
 40
1.00000
 50
270.00000
 51
0.00000
  0
LINE
  8
Kontur
 62
   7
 39
0.100
  6
CONTINUOUS
 10
37.00000
 20
21.00000
 30
 0
 11
23.00000
 21
21.00000
  0
ARC
  8
Kontur
 62
   7
 39
0.100
  6
CONTINUOUS
 10
23.00000
 20
22.00000
 30
 0
 40
1.00000
 50
180.00000
 51
-90.00000
  0
LINE
  8
Kontur
 62
   7
 39
0.100
  6
CONTINUOUS
 10
22.00000
 20
22.00000
 30
 0
 11
22.00000
 21
30.00000
  0
ARC
  8
Kontur
 62
   7
 39
0.100
  6
CONTINUOUS
 10
23.00000
 20
30.00000
 30
 0
 40
1.00000
 50
450.00000
 51
180.00000
  0
LINE
  8
Kontur
 62
   7
 39
0.100
  6
CONTINUOUS
 10
23.00000
 20
31.00000
 30
 0
 11
37.00000
 21
31.00000
  0
ARC
  8
Kontur
 62
   7
 39
0.100
  6
CONTINUOUS
 10
37.00000
 20
30.00000
 30
 0
 40
1.00000
 50
360.00000
 51
90.00000
  0
LINE
  8
Kontur
 62
   7
 39
0.100
  6
CONTINUOUS
 10
114.00000
 20
32.50000
 30
 0
 11
114.00000
 21
19.50000
  0
ARC
  8
Kontur
 62
   7
 39
0.100
  6
CONTINUOUS
 10
113.00000
 20
19.50000
 30
 0
 40
1.00000
 50
270.00000
 51
0.00000
  0
LINE
  8
Kontur
 62
   7
 39
0.100
  6
CONTINUOUS
 10
113.00000
 20
18.50000
 30
 0
 11
63.00000
 21
18.50000
  0
ARC
  8
Kontur
 62
   7
 39
0.100
  6
CONTINUOUS
 10
63.00000
 20
19.50000
 30
 0
 40
1.00000
 50
180.00000
 51
-90.00000
  0
LINE
  8
Kontur
 62
   7
 39
0.100
  6
CONTINUOUS
 10
62.00000
 20
19.50000
 30
 0
 11
62.00000
 21
32.50000
  0
ARC
  8
Kontur
 62
   7
 39
0.100
  6
CONTINUOUS
 10
63.00000
 20
32.50000
 30
 0
 40
1.00000
 50
450.00000
 51
180.00000
  0
LINE
  8
Kontur
 62
   7
 39
0.100
  6
CONTINUOUS
 10
63.00000
 20
33.50000
 30
 0
 11
113.00000
 21
33.50000
  0
ARC
  8
Kontur
 62
   7
 39
0.100
  6
CONTINUOUS
 10
113.00000
 20
32.50000
 30
 0
 40
1.00000
 50
360.00000
 51
90.00000
  0
CIRCLE
  8
Kontur
 62
   7
 39
0.100
  6
CONTINUOUS
 10
113.00000
 20
50.00000
 30
 0
 40
1.60000
  0
CIRCLE
  8
Kontur
 62
   7
 39
0.100
  6
CONTINUOUS
 10
19.00000
 20
50.00000
 30
 0
 40
1.60000
  0
CIRCLE
  8
Kontur
 62
   7
 39
0.100
  6
CONTINUOUS
 10
19.00000
 20
120.00000
 30
 0
 40
1.60000
  0
CIRCLE
  8
Kontur
 62
   7
 39
0.100
  6
CONTINUOUS
 10
113.00000
 20
120.00000
 30
 0
 40
1.60000
  0
CIRCLE
  8
Kontur
 62
   7
 39
0.100
  6
CONTINUOUS
 10
66.00000
 20
85.00000
 30
 0
 40
1.60000
  0
CIRCLE
  8
Kontur
 62
   7
 39
0.100
  6
CONTINUOUS
 10
77.00000
 20
50.00000
 30
 0
 40
1.60000
  0
CIRCLE
  8
Kontur
 62
   7
 39
0.100
  6
CONTINUOUS
 10
99.00000
 20
50.00000
 30
 0
 40
1.60000
  0
CIRCLE
  8
Kontur
 62
   7
 39
0.100
  6
CONTINUOUS
 10
110.00000
 20
85.00000
 30
 0
 40
1.60000
  0
LINE
  8
Kontur
 62
   7
 39
0.100
  6
CONTINUOUS
 10
150.00000
 20
30.00000
 30
 0
 11
150.00000
 21
22.00000
  0
ARC
  8
Kontur
 62
   7
 39
0.100
  6
CONTINUOUS
 10
149.00000
 20
22.00000
 30
 0
 40
1.00000
 50
270.00000
 51
0.00000
  0
LINE
  8
Kontur
 62
   7
 39
0.100
  6
CONTINUOUS
 10
149.00000
 20
21.00000
 30
 0
 11
135.00000
 21
21.00000
  0
ARC
  8
Kontur
 62
   7
 39
0.100
  6
CONTINUOUS
 10
135.00000
 20
22.00000
 30
 0
 40
1.00000
 50
180.00000
 51
-90.00000
  0
LINE
  8
Kontur
 62
   7
 39
0.100
  6
CONTINUOUS
 10
134.00000
 20
22.00000
 30
 0
 11
134.00000
 21
30.00000
  0
ARC
  8
Kontur
 62
   7
 39
0.100
  6
CONTINUOUS
 10
135.00000
 20
30.00000
 30
 0
 40
1.00000
 50
450.00000
 51
180.00000
  0
LINE
  8
Kontur
 62
   7
 39
0.100
  6
CONTINUOUS
 10
135.00000
 20
31.00000
 30
 0
 11
149.00000
 21
31.00000
  0
ARC
  8
Kontur
 62
   7
 39
0.100
  6
CONTINUOUS
 10
149.00000
 20
30.00000
 30
 0
 40
1.00000
 50
360.00000
 51
90.00000
  0
LINE
  8
Kontur
 62
   7
 39
0.100
  6
CONTINUOUS
 10
226.00000
 20
32.50000
 30
 0
 11
226.00000
 21
19.50000
  0
ARC
  8
Kontur
 62
   7
 39
0.100
  6
CONTINUOUS
 10
225.00000
 20
19.50000
 30
 0
 40
1.00000
 50
270.00000
 51
0.00000
  0
LINE
  8
Kontur
 62
   7
 39
0.100
  6
CONTINUOUS
 10
225.00000
 20
18.50000
 30
 0
 11
175.00000
 21
18.50000
  0
ARC
  8
Kontur
 62
   7
 39
0.100
  6
CONTINUOUS
 10
175.00000
 20
19.50000
 30
 0
 40
1.00000
 50
180.00000
 51
-90.00000
  0
LINE
  8
Kontur
 62
   7
 39
0.100
  6
CONTINUOUS
 10
174.00000
 20
19.50000
 30
 0
 11
174.00000
 21
32.50000
  0
ARC
  8
Kontur
 62
   7
 39
0.100
  6
CONTINUOUS
 10
175.00000
 20
32.50000
 30
 0
 40
1.00000
 50
450.00000
 51
180.00000
  0
LINE
  8
Kontur
 62
   7
 39
0.100
  6
CONTINUOUS
 10
175.00000
 20
33.50000
 30
 0
 11
225.00000
 21
33.50000
  0
ARC
  8
Kontur
 62
   7
 39
0.100
  6
CONTINUOUS
 10
225.00000
 20
32.50000
 30
 0
 40
1.00000
 50
360.00000
 51
90.00000
  0
CIRCLE
  8
Kontur
 62
   7
 39
0.100
  6
CONTINUOUS
 10
225.00000
 20
50.00000
 30
 0
 40
1.60000
  0
CIRCLE
  8
Kontur
 62
   7
 39
0.100
  6
CONTINUOUS
 10
131.00000
 20
50.00000
 30
 0
 40
1.60000
  0
CIRCLE
  8
Kontur
 62
   7
 39
0.100
  6
CONTINUOUS
 10
131.00000
 20
120.00000
 30
 0
 40
1.60000
  0
CIRCLE
  8
Kontur
 62
   7
 39
0.100
  6
CONTINUOUS
 10
225.00000
 20
120.00000
 30
 0
 40
1.60000
  0
CIRCLE
  8
Kontur
 62
   7
 39
0.100
  6
CONTINUOUS
 10
178.00000
 20
85.00000
 30
 0
 40
1.60000
  0
CIRCLE
  8
Kontur
 62
   7
 39
0.100
  6
CONTINUOUS
 10
189.00000
 20
50.00000
 30
 0
 40
1.60000
  0
CIRCLE
  8
Kontur
 62
   7
 39
0.100
  6
CONTINUOUS
 10
211.00000
 20
50.00000
 30
 0
 40
1.60000
  0
CIRCLE
  8
Kontur
 62
   7
 39
0.100
  6
CONTINUOUS
 10
222.00000
 20
85.00000
 30
 0
 40
1.60000
  0
LINE
  8
Kontur
 62
   7
 39
0.100
  6
CONTINUOUS
 10
262.00000
 20
30.00000
 30
 0
 11
262.00000
 21
22.00000
  0
ARC
  8
Kontur
 62
   7
 39
0.100
  6
CONTINUOUS
 10
261.00000
 20
22.00000
 30
 0
 40
1.00000
 50
270.00000
 51
0.00000
  0
LINE
  8
Kontur
 62
   7
 39
0.100
  6
CONTINUOUS
 10
261.00000
 20
21.00000
 30
 0
 11
247.00000
 21
21.00000
  0
ARC
  8
Kontur
 62
   7
 39
0.100
  6
CONTINUOUS
 10
247.00000
 20
22.00000
 30
 0
 40
1.00000
 50
180.00000
 51
-90.00000
  0
LINE
  8
Kontur
 62
   7
 39
0.100
  6
CONTINUOUS
 10
246.00000
 20
22.00000
 30
 0
 11
246.00000
 21
30.00000
  0
ARC
  8
Kontur
 62
   7
 39
0.100
  6
CONTINUOUS
 10
247.00000
 20
30.00000
 30
 0
 40
1.00000
 50
450.00000
 51
180.00000
  0
LINE
  8
Kontur
 62
   7
 39
0.100
  6
CONTINUOUS
 10
247.00000
 20
31.00000
 30
 0
 11
261.00000
 21
31.00000
  0
ARC
  8
Kontur
 62
   7
 39
0.100
  6
CONTINUOUS
 10
261.00000
 20
30.00000
 30
 0
 40
1.00000
 50
360.00000
 51
90.00000
  0
LINE
  8
Kontur
 62
   7
 39
0.100
  6
CONTINUOUS
 10
338.00000
 20
32.50000
 30
 0
 11
338.00000
 21
19.50000
  0
ARC
  8
Kontur
 62
   7
 39
0.100
  6
CONTINUOUS
 10
337.00000
 20
19.50000
 30
 0
 40
1.00000
 50
270.00000
 51
0.00000
  0
LINE
  8
Kontur
 62
   7
 39
0.100
  6
CONTINUOUS
 10
337.00000
 20
18.50000
 30
 0
 11
287.00000
 21
18.50000
  0
ARC
  8
Kontur
 62
   7
 39
0.100
  6
CONTINUOUS
 10
287.00000
 20
19.50000
 30
 0
 40
1.00000
 50
180.00000
 51
-90.00000
  0
LINE
  8
Kontur
 62
   7
 39
0.100
  6
CONTINUOUS
 10
286.00000
 20
19.50000
 30
 0
 11
286.00000
 21
32.50000
  0
ARC
  8
Kontur
 62
   7
 39
0.100
  6
CONTINUOUS
 10
287.00000
 20
32.50000
 30
 0
 40
1.00000
 50
450.00000
 51
180.00000
  0
LINE
  8
Kontur
 62
   7
 39
0.100
  6
CONTINUOUS
 10
287.00000
 20
33.50000
 30
 0
 11
337.00000
 21
33.50000
  0
ARC
  8
Kontur
 62
   7
 39
0.100
  6
CONTINUOUS
 10
337.00000
 20
32.50000
 30
 0
 40
1.00000
 50
360.00000
 51
90.00000
  0
CIRCLE
  8
Kontur
 62
   7
 39
0.100
  6
CONTINUOUS
 10
337.00000
 20
50.00000
 30
 0
 40
1.60000
  0
CIRCLE
  8
Kontur
 62
   7
 39
0.100
  6
CONTINUOUS
 10
243.00000
 20
50.00000
 30
 0
 40
1.60000
  0
CIRCLE
  8
Kontur
 62
   7
 39
0.100
  6
CONTINUOUS
 10
243.00000
 20
120.00000
 30
 0
 40
1.60000
  0
CIRCLE
  8
Kontur
 62
   7
 39
0.100
  6
CONTINUOUS
 10
337.00000
 20
120.00000
 30
 0
 40
1.60000
  0
CIRCLE
  8
Kontur
 62
   7
 39
0.100
  6
CONTINUOUS
 10
290.00000
 20
85.00000
 30
 0
 40
1.60000
  0
CIRCLE
  8
Kontur
 62
   7
 39
0.100
  6
CONTINUOUS
 10
301.00000
 20
50.00000
 30
 0
 40
1.60000
  0
CIRCLE
  8
Kontur
 62
   7
 39
0.100
  6
CONTINUOUS
 10
323.00000
 20
50.00000
 30
 0
 40
1.60000
  0
CIRCLE
  8
Kontur
 62
   7
 39
0.100
  6
CONTINUOUS
 10
334.00000
 20
85.00000
 30
 0
 40
1.60000
  0
LINE
  8
Kontur
 62
   7
 39
0.100
  6
CONTINUOUS
 10
374.00000
 20
30.00000
 30
 0
 11
374.00000
 21
22.00000
  0
ARC
  8
Kontur
 62
   7
 39
0.100
  6
CONTINUOUS
 10
373.00000
 20
22.00000
 30
 0
 40
1.00000
 50
270.00000
 51
0.00000
  0
LINE
  8
Kontur
 62
   7
 39
0.100
  6
CONTINUOUS
 10
373.00000
 20
21.00000
 30
 0
 11
359.00000
 21
21.00000
  0
ARC
  8
Kontur
 62
   7
 39
0.100
  6
CONTINUOUS
 10
359.00000
 20
22.00000
 30
 0
 40
1.00000
 50
180.00000
 51
-90.00000
  0
LINE
  8
Kontur
 62
   7
 39
0.100
  6
CONTINUOUS
 10
358.00000
 20
22.00000
 30
 0
 11
358.00000
 21
30.00000
  0
ARC
  8
Kontur
 62
   7
 39
0.100
  6
CONTINUOUS
 10
359.00000
 20
30.00000
 30
 0
 40
1.00000
 50
450.00000
 51
180.00000
  0
LINE
  8
Kontur
 62
   7
 39
0.100
  6
CONTINUOUS
 10
359.00000
 20
31.00000
 30
 0
 11
373.00000
 21
31.00000
  0
ARC
  8
Kontur
 62
   7
 39
0.100
  6
CONTINUOUS
 10
373.00000
 20
30.00000
 30
 0
 40
1.00000
 50
360.00000
 51
90.00000
  0
LINE
  8
Kontur
 62
   7
 39
0.100
  6
CONTINUOUS
 10
450.00000
 20
32.50000
 30
 0
 11
450.00000
 21
19.50000
  0
ARC
  8
Kontur
 62
   7
 39
0.100
  6
CONTINUOUS
 10
449.00000
 20
19.50000
 30
 0
 40
1.00000
 50
270.00000
 51
0.00000
  0
LINE
  8
Kontur
 62
   7
 39
0.100
  6
CONTINUOUS
 10
449.00000
 20
18.50000
 30
 0
 11
399.00000
 21
18.50000
  0
ARC
  8
Kontur
 62
   7
 39
0.100
  6
CONTINUOUS
 10
399.00000
 20
19.50000
 30
 0
 40
1.00000
 50
180.00000
 51
-90.00000
  0
LINE
  8
Kontur
 62
   7
 39
0.100
  6
CONTINUOUS
 10
398.00000
 20
19.50000
 30
 0
 11
398.00000
 21
32.50000
  0
ARC
  8
Kontur
 62
   7
 39
0.100
  6
CONTINUOUS
 10
399.00000
 20
32.50000
 30
 0
 40
1.00000
 50
450.00000
 51
180.00000
  0
LINE
  8
Kontur
 62
   7
 39
0.100
  6
CONTINUOUS
 10
399.00000
 20
33.50000
 30
 0
 11
449.00000
 21
33.50000
  0
ARC
  8
Kontur
 62
   7
 39
0.100
  6
CONTINUOUS
 10
449.00000
 20
32.50000
 30
 0
 40
1.00000
 50
360.00000
 51
90.00000
  0
CIRCLE
  8
Kontur
 62
   7
 39
0.100
  6
CONTINUOUS
 10
449.00000
 20
50.00000
 30
 0
 40
1.60000
  0
CIRCLE
  8
Kontur
 62
   7
 39
0.100
  6
CONTINUOUS
 10
355.00000
 20
50.00000
 30
 0
 40
1.60000
  0
CIRCLE
  8
Kontur
 62
   7
 39
0.100
  6
CONTINUOUS
 10
355.00000
 20
120.00000
 30
 0
 40
1.60000
  0
CIRCLE
  8
Kontur
 62
   7
 39
0.100
  6
CONTINUOUS
 10
449.00000
 20
120.00000
 30
 0
 40
1.60000
  0
CIRCLE
  8
Kontur
 62
   7
 39
0.100
  6
CONTINUOUS
 10
402.00000
 20
85.00000
 30
 0
 40
1.60000
  0
CIRCLE
  8
Kontur
 62
   7
 39
0.100
  6
CONTINUOUS
 10
413.00000
 20
50.00000
 30
 0
 40
1.60000
  0
CIRCLE
  8
Kontur
 62
   7
 39
0.100
  6
CONTINUOUS
 10
435.00000
 20
50.00000
 30
 0
 40
1.60000
  0
CIRCLE
  8
Kontur
 62
   7
 39
0.100
  6
CONTINUOUS
 10
446.00000
 20
85.00000
 30
 0
 40
1.60000
  0
LINE
  8
Kontur
 62
   7
 39
0.100
  6
CONTINUOUS
 10
597.00000
 20
30.00000
 30
 0
 11
597.00000
 21
22.00000
  0
ARC
  8
Kontur
 62
   7
 39
0.100
  6
CONTINUOUS
 10
596.00000
 20
22.00000
 30
 0
 40
1.00000
 50
270.00000
 51
0.00000
  0
LINE
  8
Kontur
 62
   7
 39
0.100
  6
CONTINUOUS
 10
596.00000
 20
21.00000
 30
 0
 11
582.00000
 21
21.00000
  0
ARC
  8
Kontur
 62
   7
 39
0.100
  6
CONTINUOUS
 10
582.00000
 20
22.00000
 30
 0
 40
1.00000
 50
180.00000
 51
-90.00000
  0
LINE
  8
Kontur
 62
   7
 39
0.100
  6
CONTINUOUS
 10
581.00000
 20
22.00000
 30
 0
 11
581.00000
 21
30.00000
  0
ARC
  8
Kontur
 62
   7
 39
0.100
  6
CONTINUOUS
 10
582.00000
 20
30.00000
 30
 0
 40
1.00000
 50
450.00000
 51
180.00000
  0
LINE
  8
Kontur
 62
   7
 39
0.100
  6
CONTINUOUS
 10
582.00000
 20
31.00000
 30
 0
 11
596.00000
 21
31.00000
  0
ARC
  8
Kontur
 62
   7
 39
0.100
  6
CONTINUOUS
 10
596.00000
 20
30.00000
 30
 0
 40
1.00000
 50
360.00000
 51
90.00000
  0
LINE
  8
Kontur
 62
   7
 39
0.100
  6
CONTINUOUS
 10
673.00000
 20
32.50000
 30
 0
 11
673.00000
 21
19.50000
  0
ARC
  8
Kontur
 62
   7
 39
0.100
  6
CONTINUOUS
 10
672.00000
 20
19.50000
 30
 0
 40
1.00000
 50
270.00000
 51
0.00000
  0
LINE
  8
Kontur
 62
   7
 39
0.100
  6
CONTINUOUS
 10
672.00000
 20
18.50000
 30
 0
 11
622.00000
 21
18.50000
  0
ARC
  8
Kontur
 62
   7
 39
0.100
  6
CONTINUOUS
 10
622.00000
 20
19.50000
 30
 0
 40
1.00000
 50
180.00000
 51
-90.00000
  0
LINE
  8
Kontur
 62
   7
 39
0.100
  6
CONTINUOUS
 10
621.00000
 20
19.50000
 30
 0
 11
621.00000
 21
32.50000
  0
ARC
  8
Kontur
 62
   7
 39
0.100
  6
CONTINUOUS
 10
622.00000
 20
32.50000
 30
 0
 40
1.00000
 50
450.00000
 51
180.00000
  0
LINE
  8
Kontur
 62
   7
 39
0.100
  6
CONTINUOUS
 10
622.00000
 20
33.50000
 30
 0
 11
672.00000
 21
33.50000
  0
ARC
  8
Kontur
 62
   7
 39
0.100
  6
CONTINUOUS
 10
672.00000
 20
32.50000
 30
 0
 40
1.00000
 50
360.00000
 51
90.00000
  0
CIRCLE
  8
Kontur
 62
   7
 39
0.100
  6
CONTINUOUS
 10
672.00000
 20
50.00000
 30
 0
 40
1.60000
  0
CIRCLE
  8
Kontur
 62
   7
 39
0.100
  6
CONTINUOUS
 10
578.00000
 20
50.00000
 30
 0
 40
1.60000
  0
CIRCLE
  8
Kontur
 62
   7
 39
0.100
  6
CONTINUOUS
 10
578.00000
 20
120.00000
 30
 0
 40
1.60000
  0
CIRCLE
  8
Kontur
 62
   7
 39
0.100
  6
CONTINUOUS
 10
672.00000
 20
120.00000
 30
 0
 40
1.60000
  0
CIRCLE
  8
Kontur
 62
   7
 39
0.100
  6
CONTINUOUS
 10
625.00000
 20
85.00000
 30
 0
 40
1.60000
  0
CIRCLE
  8
Kontur
 62
   7
 39
0.100
  6
CONTINUOUS
 10
636.00000
 20
50.00000
 30
 0
 40
1.60000
  0
CIRCLE
  8
Kontur
 62
   7
 39
0.100
  6
CONTINUOUS
 10
658.00000
 20
50.00000
 30
 0
 40
1.60000
  0
CIRCLE
  8
Kontur
 62
   7
 39
0.100
  6
CONTINUOUS
 10
669.00000
 20
85.00000
 30
 0
 40
1.60000
  0
LINE
  8
Kontur
 62
   7
 39
0.100
  6
CONTINUOUS
 10
709.00000
 20
30.00000
 30
 0
 11
709.00000
 21
22.00000
  0
ARC
  8
Kontur
 62
   7
 39
0.100
  6
CONTINUOUS
 10
708.00000
 20
22.00000
 30
 0
 40
1.00000
 50
270.00000
 51
0.00000
  0
LINE
  8
Kontur
 62
   7
 39
0.100
  6
CONTINUOUS
 10
708.00000
 20
21.00000
 30
 0
 11
694.00000
 21
21.00000
  0
ARC
  8
Kontur
 62
   7
 39
0.100
  6
CONTINUOUS
 10
694.00000
 20
22.00000
 30
 0
 40
1.00000
 50
180.00000
 51
-90.00000
  0
LINE
  8
Kontur
 62
   7
 39
0.100
  6
CONTINUOUS
 10
693.00000
 20
22.00000
 30
 0
 11
693.00000
 21
30.00000
  0
ARC
  8
Kontur
 62
   7
 39
0.100
  6
CONTINUOUS
 10
694.00000
 20
30.00000
 30
 0
 40
1.00000
 50
450.00000
 51
180.00000
  0
LINE
  8
Kontur
 62
   7
 39
0.100
  6
CONTINUOUS
 10
694.00000
 20
31.00000
 30
 0
 11
708.00000
 21
31.00000
  0
ARC
  8
Kontur
 62
   7
 39
0.100
  6
CONTINUOUS
 10
708.00000
 20
30.00000
 30
 0
 40
1.00000
 50
360.00000
 51
90.00000
  0
LINE
  8
Kontur
 62
   7
 39
0.100
  6
CONTINUOUS
 10
785.00000
 20
32.50000
 30
 0
 11
785.00000
 21
19.50000
  0
ARC
  8
Kontur
 62
   7
 39
0.100
  6
CONTINUOUS
 10
784.00000
 20
19.50000
 30
 0
 40
1.00000
 50
270.00000
 51
0.00000
  0
LINE
  8
Kontur
 62
   7
 39
0.100
  6
CONTINUOUS
 10
784.00000
 20
18.50000
 30
 0
 11
734.00000
 21
18.50000
  0
ARC
  8
Kontur
 62
   7
 39
0.100
  6
CONTINUOUS
 10
734.00000
 20
19.50000
 30
 0
 40
1.00000
 50
180.00000
 51
-90.00000
  0
LINE
  8
Kontur
 62
   7
 39
0.100
  6
CONTINUOUS
 10
733.00000
 20
19.50000
 30
 0
 11
733.00000
 21
32.50000
  0
ARC
  8
Kontur
 62
   7
 39
0.100
  6
CONTINUOUS
 10
734.00000
 20
32.50000
 30
 0
 40
1.00000
 50
450.00000
 51
180.00000
  0
LINE
  8
Kontur
 62
   7
 39
0.100
  6
CONTINUOUS
 10
734.00000
 20
33.50000
 30
 0
 11
784.00000
 21
33.50000
  0
ARC
  8
Kontur
 62
   7
 39
0.100
  6
CONTINUOUS
 10
784.00000
 20
32.50000
 30
 0
 40
1.00000
 50
360.00000
 51
90.00000
  0
CIRCLE
  8
Kontur
 62
   7
 39
0.100
  6
CONTINUOUS
 10
784.00000
 20
50.00000
 30
 0
 40
1.60000
  0
CIRCLE
  8
Kontur
 62
   7
 39
0.100
  6
CONTINUOUS
 10
690.00000
 20
50.00000
 30
 0
 40
1.60000
  0
CIRCLE
  8
Kontur
 62
   7
 39
0.100
  6
CONTINUOUS
 10
690.00000
 20
120.00000
 30
 0
 40
1.60000
  0
CIRCLE
  8
Kontur
 62
   7
 39
0.100
  6
CONTINUOUS
 10
784.00000
 20
120.00000
 30
 0
 40
1.60000
  0
CIRCLE
  8
Kontur
 62
   7
 39
0.100
  6
CONTINUOUS
 10
737.00000
 20
85.00000
 30
 0
 40
1.60000
  0
CIRCLE
  8
Kontur
 62
   7
 39
0.100
  6
CONTINUOUS
 10
748.00000
 20
50.00000
 30
 0
 40
1.60000
  0
CIRCLE
  8
Kontur
 62
   7
 39
0.100
  6
CONTINUOUS
 10
770.00000
 20
50.00000
 30
 0
 40
1.60000
  0
CIRCLE
  8
Kontur
 62
   7
 39
0.100
  6
CONTINUOUS
 10
781.00000
 20
85.00000
 30
 0
 40
1.60000
  0
LINE
  8
Kontur
 62
   7
 39
0.100
  6
CONTINUOUS
 10
821.00000
 20
30.00000
 30
 0
 11
821.00000
 21
22.00000
  0
ARC
  8
Kontur
 62
   7
 39
0.100
  6
CONTINUOUS
 10
820.00000
 20
22.00000
 30
 0
 40
1.00000
 50
270.00000
 51
0.00000
  0
LINE
  8
Kontur
 62
   7
 39
0.100
  6
CONTINUOUS
 10
820.00000
 20
21.00000
 30
 0
 11
806.00000
 21
21.00000
  0
ARC
  8
Kontur
 62
   7
 39
0.100
  6
CONTINUOUS
 10
806.00000
 20
22.00000
 30
 0
 40
1.00000
 50
180.00000
 51
-90.00000
  0
LINE
  8
Kontur
 62
   7
 39
0.100
  6
CONTINUOUS
 10
805.00000
 20
22.00000
 30
 0
 11
805.00000
 21
30.00000
  0
ARC
  8
Kontur
 62
   7
 39
0.100
  6
CONTINUOUS
 10
806.00000
 20
30.00000
 30
 0
 40
1.00000
 50
450.00000
 51
180.00000
  0
LINE
  8
Kontur
 62
   7
 39
0.100
  6
CONTINUOUS
 10
806.00000
 20
31.00000
 30
 0
 11
820.00000
 21
31.00000
  0
ARC
  8
Kontur
 62
   7
 39
0.100
  6
CONTINUOUS
 10
820.00000
 20
30.00000
 30
 0
 40
1.00000
 50
360.00000
 51
90.00000
  0
LINE
  8
Kontur
 62
   7
 39
0.100
  6
CONTINUOUS
 10
897.00000
 20
32.50000
 30
 0
 11
897.00000
 21
19.50000
  0
ARC
  8
Kontur
 62
   7
 39
0.100
  6
CONTINUOUS
 10
896.00000
 20
19.50000
 30
 0
 40
1.00000
 50
270.00000
 51
0.00000
  0
LINE
  8
Kontur
 62
   7
 39
0.100
  6
CONTINUOUS
 10
896.00000
 20
18.50000
 30
 0
 11
846.00000
 21
18.50000
  0
ARC
  8
Kontur
 62
   7
 39
0.100
  6
CONTINUOUS
 10
846.00000
 20
19.50000
 30
 0
 40
1.00000
 50
180.00000
 51
-90.00000
  0
LINE
  8
Kontur
 62
   7
 39
0.100
  6
CONTINUOUS
 10
845.00000
 20
19.50000
 30
 0
 11
845.00000
 21
32.50000
  0
ARC
  8
Kontur
 62
   7
 39
0.100
  6
CONTINUOUS
 10
846.00000
 20
32.50000
 30
 0
 40
1.00000
 50
450.00000
 51
180.00000
  0
LINE
  8
Kontur
 62
   7
 39
0.100
  6
CONTINUOUS
 10
846.00000
 20
33.50000
 30
 0
 11
896.00000
 21
33.50000
  0
ARC
  8
Kontur
 62
   7
 39
0.100
  6
CONTINUOUS
 10
896.00000
 20
32.50000
 30
 0
 40
1.00000
 50
360.00000
 51
90.00000
  0
CIRCLE
  8
Kontur
 62
   7
 39
0.100
  6
CONTINUOUS
 10
896.00000
 20
50.00000
 30
 0
 40
1.60000
  0
CIRCLE
  8
Kontur
 62
   7
 39
0.100
  6
CONTINUOUS
 10
802.00000
 20
50.00000
 30
 0
 40
1.60000
  0
CIRCLE
  8
Kontur
 62
   7
 39
0.100
  6
CONTINUOUS
 10
802.00000
 20
120.00000
 30
 0
 40
1.60000
  0
CIRCLE
  8
Kontur
 62
   7
 39
0.100
  6
CONTINUOUS
 10
896.00000
 20
120.00000
 30
 0
 40
1.60000
  0
CIRCLE
  8
Kontur
 62
   7
 39
0.100
  6
CONTINUOUS
 10
849.00000
 20
85.00000
 30
 0
 40
1.60000
  0
CIRCLE
  8
Kontur
 62
   7
 39
0.100
  6
CONTINUOUS
 10
860.00000
 20
50.00000
 30
 0
 40
1.60000
  0
CIRCLE
  8
Kontur
 62
   7
 39
0.100
  6
CONTINUOUS
 10
882.00000
 20
50.00000
 30
 0
 40
1.60000
  0
CIRCLE
  8
Kontur
 62
   7
 39
0.100
  6
CONTINUOUS
 10
893.00000
 20
85.00000
 30
 0
 40
1.60000
  0
LINE
  8
Kontur
 62
   7
 39
0.100
  6
CONTINUOUS
 10
933.00000
 20
30.00000
 30
 0
 11
933.00000
 21
22.00000
  0
ARC
  8
Kontur
 62
   7
 39
0.100
  6
CONTINUOUS
 10
932.00000
 20
22.00000
 30
 0
 40
1.00000
 50
270.00000
 51
0.00000
  0
LINE
  8
Kontur
 62
   7
 39
0.100
  6
CONTINUOUS
 10
932.00000
 20
21.00000
 30
 0
 11
918.00000
 21
21.00000
  0
ARC
  8
Kontur
 62
   7
 39
0.100
  6
CONTINUOUS
 10
918.00000
 20
22.00000
 30
 0
 40
1.00000
 50
180.00000
 51
-90.00000
  0
LINE
  8
Kontur
 62
   7
 39
0.100
  6
CONTINUOUS
 10
917.00000
 20
22.00000
 30
 0
 11
917.00000
 21
30.00000
  0
ARC
  8
Kontur
 62
   7
 39
0.100
  6
CONTINUOUS
 10
918.00000
 20
30.00000
 30
 0
 40
1.00000
 50
450.00000
 51
180.00000
  0
LINE
  8
Kontur
 62
   7
 39
0.100
  6
CONTINUOUS
 10
918.00000
 20
31.00000
 30
 0
 11
932.00000
 21
31.00000
  0
ARC
  8
Kontur
 62
   7
 39
0.100
  6
CONTINUOUS
 10
932.00000
 20
30.00000
 30
 0
 40
1.00000
 50
360.00000
 51
90.00000
  0
LINE
  8
Kontur
 62
   7
 39
0.100
  6
CONTINUOUS
 10
1009.00000
 20
32.50000
 30
 0
 11
1009.00000
 21
19.50000
  0
ARC
  8
Kontur
 62
   7
 39
0.100
  6
CONTINUOUS
 10
1008.00000
 20
19.50000
 30
 0
 40
1.00000
 50
270.00000
 51
0.00000
  0
LINE
  8
Kontur
 62
   7
 39
0.100
  6
CONTINUOUS
 10
1008.00000
 20
18.50000
 30
 0
 11
958.00000
 21
18.50000
  0
ARC
  8
Kontur
 62
   7
 39
0.100
  6
CONTINUOUS
 10
958.00000
 20
19.50000
 30
 0
 40
1.00000
 50
180.00000
 51
-90.00000
  0
LINE
  8
Kontur
 62
   7
 39
0.100
  6
CONTINUOUS
 10
957.00000
 20
19.50000
 30
 0
 11
957.00000
 21
32.50000
  0
ARC
  8
Kontur
 62
   7
 39
0.100
  6
CONTINUOUS
 10
958.00000
 20
32.50000
 30
 0
 40
1.00000
 50
450.00000
 51
180.00000
  0
LINE
  8
Kontur
 62
   7
 39
0.100
  6
CONTINUOUS
 10
958.00000
 20
33.50000
 30
 0
 11
1008.00000
 21
33.50000
  0
ARC
  8
Kontur
 62
   7
 39
0.100
  6
CONTINUOUS
 10
1008.00000
 20
32.50000
 30
 0
 40
1.00000
 50
360.00000
 51
90.00000
  0
CIRCLE
  8
Kontur
 62
   7
 39
0.100
  6
CONTINUOUS
 10
1008.00000
 20
50.00000
 30
 0
 40
1.60000
  0
CIRCLE
  8
Kontur
 62
   7
 39
0.100
  6
CONTINUOUS
 10
914.00000
 20
50.00000
 30
 0
 40
1.60000
  0
CIRCLE
  8
Kontur
 62
   7
 39
0.100
  6
CONTINUOUS
 10
914.00000
 20
120.00000
 30
 0
 40
1.60000
  0
CIRCLE
  8
Kontur
 62
   7
 39
0.100
  6
CONTINUOUS
 10
1008.00000
 20
120.00000
 30
 0
 40
1.60000
  0
CIRCLE
  8
Kontur
 62
   7
 39
0.100
  6
CONTINUOUS
 10
961.00000
 20
85.00000
 30
 0
 40
1.60000
  0
CIRCLE
  8
Kontur
 62
   7
 39
0.100
  6
CONTINUOUS
 10
972.00000
 20
50.00000
 30
 0
 40
1.60000
  0
CIRCLE
  8
Kontur
 62
   7
 39
0.100
  6
CONTINUOUS
 10
994.00000
 20
50.00000
 30
 0
 40
1.60000
  0
CIRCLE
  8
Kontur
 62
   7
 39
0.100
  6
CONTINUOUS
 10
1005.00000
 20
85.00000
 30
 0
 40
1.60000
  0
CIRCLE
  8
Kontur
 62
   7
 39
0.100
  6
CONTINUOUS
 10
475.00000
 20
146.50000
 30
 0
 40
1.60000
  0
CIRCLE
  8
Kontur
 62
   7
 39
0.100
  6
CONTINUOUS
 10
552.00000
 20
146.50000
 30
 0
 40
1.60000
  0
CIRCLE
  8
Kontur
 62
   7
 39
0.100
  6
CONTINUOUS
 10
552.00000
 20
27.50000
 30
 0
 40
1.60000
  0
CIRCLE
  8
Kontur
 62
   7
 39
0.100
  6
CONTINUOUS
 10
475.00000
 20
27.50000
 30
 0
 40
1.60000
  0
LINE
  8
Kontur
 62
   7
 39
0.100
  6
CONTINUOUS
 10
521.00000
 20
61.50000
 30
 0
 11
521.00000
 21
37.50000
  0
ARC
  8
Kontur
 62
   7
 39
0.100
  6
CONTINUOUS
 10
518.00000
 20
37.50000
 30
 0
 40
3.00000
 50
270.00000
 51
0.00000
  0
LINE
  8
Kontur
 62
   7
 39
0.100
  6
CONTINUOUS
 10
518.00000
 20
34.50000
 30
 0
 11
509.00000
 21
34.50000
  0
ARC
  8
Kontur
 62
   7
 39
0.100
  6
CONTINUOUS
 10
509.00000
 20
37.50000
 30
 0
 40
3.00000
 50
180.00000
 51
-90.00000
  0
LINE
  8
Kontur
 62
   7
 39
0.100
  6
CONTINUOUS
 10
506.00000
 20
37.50000
 30
 0
 11
506.00000
 21
61.50000
  0
ARC
  8
Kontur
 62
   7
 39
0.100
  6
CONTINUOUS
 10
509.00000
 20
61.50000
 30
 0
 40
3.00000
 50
450.00000
 51
180.00000
  0
LINE
  8
Kontur
 62
   7
 39
0.100
  6
CONTINUOUS
 10
509.00000
 20
64.50000
 30
 0
 11
518.00000
 21
64.50000
  0
ARC
  8
Kontur
 62
   7
 39
0.100
  6
CONTINUOUS
 10
518.00000
 20
61.50000
 30
 0
 40
3.00000
 50
360.00000
 51
90.00000
  0
LINE
  8
Kontur
 62
   7
 39
0.100
  6
CONTINUOUS
 10
560.50000
 20
139.50000
 30
 0
 11
560.50000
 21
87.50000
  0
ARC
  8
Kontur
 62
   7
 39
0.100
  6
CONTINUOUS
 10
557.50000
 20
87.50000
 30
 0
 40
3.00000
 50
270.00000
 51
0.00000
  0
LINE
  8
Kontur
 62
   7
 39
0.100
  6
CONTINUOUS
 10
557.50000
 20
84.50000
 30
 0
 11
469.50000
 21
84.50000
  0
ARC
  8
Kontur
 62
   7
 39
0.100
  6
CONTINUOUS
 10
469.50000
 20
87.50000
 30
 0
 40
3.00000
 50
180.00000
 51
-90.00000
  0
LINE
  8
Kontur
 62
   7
 39
0.100
  6
CONTINUOUS
 10
466.50000
 20
87.50000
 30
 0
 11
466.50000
 21
139.50000
  0
ARC
  8
Kontur
 62
   7
 39
0.100
  6
CONTINUOUS
 10
469.50000
 20
139.50000
 30
 0
 40
3.00000
 50
450.00000
 51
180.00000
  0
LINE
  8
Kontur
 62
   7
 39
0.100
  6
CONTINUOUS
 10
469.50000
 20
142.50000
 30
 0
 11
557.50000
 21
142.50000
  0
ARC
  8
Kontur
 62
   7
 39
0.100
  6
CONTINUOUS
 10
557.50000
 20
139.50000
 30
 0
 40
3.00000
 50
360.00000
 51
90.00000
  0
CIRCLE
  8
Kontur
 62
   7
 39
0.100
  6
CONTINUOUS
 10
500.00000
 20
43.00000
 30
 0
 40
1.60000
  0
CIRCLE
  8
Kontur
 62
   7
 39
0.100
  6
CONTINUOUS
 10
527.00000
 20
43.00000
 30
 0
 40
1.60000
  0
CIRCLE
  8
Kontur
 62
   7
 39
0.100
  6
CONTINUOUS
 10
984.00000
 20
128.00000
 30
 0
 40
1.60000
  0
CIRCLE
  8
Kontur
 62
   7
 39
0.100
  6
CONTINUOUS
 10
984.00000
 20
155.00000
 30
 0
 40
1.60000
  0
CIRCLE
  8
Kontur
 62
   7
 39
0.100
  6
CONTINUOUS
 10
449.00000
 20
131.00000
 30
 0
 40
1.60000
  0
CIRCLE
  8
Kontur
 62
   7
 39
0.100
  6
CONTINUOUS
 10
422.00000
 20
131.00000
 30
 0
 40
1.60000
  0
CIRCLE
  8
Kontur
 62
   7
 39
0.100
  6
CONTINUOUS
 10
178.00000
 20
152.50000
 30
 0
 40
2.10000
  0
CIRCLE
  8
Kontur
 62
   7
 39
0.100
  6
CONTINUOUS
 10
178.00000
 20
102.50000
 30
 0
 40
2.10000
  0
CIRCLE
  8
Kontur
 62
   7
 39
0.100
  6
CONTINUOUS
 10
849.00000
 20
102.50000
 30
 0
 40
2.10000
  0
CIRCLE
  8
Kontur
 62
   7
 39
0.100
  6
CONTINUOUS
 10
849.00000
 20
152.50000
 30
 0
 40
2.10000
  0
LINE
  8
Kontur
 62
   7
 39
0.100
  6
CONTINUOUS
 10
519.00000
 20
76.50000
 30
 0
 11
519.00000
 21
71.50000
  0
ARC
  8
Kontur
 62
   7
 39
0.100
  6
CONTINUOUS
 10
518.50000
 20
71.50000
 30
 0
 40
0.50000
 50
270.00000
 51
0.00000
  0
LINE
  8
Kontur
 62
   7
 39
0.100
  6
CONTINUOUS
 10
518.50000
 20
71.00000
 30
 0
 11
515.50000
 21
71.00000
  0
ARC
  8
Kontur
 62
   7
 39
0.100
  6
CONTINUOUS
 10
515.50000
 20
71.50000
 30
 0
 40
0.50000
 50
180.00000
 51
-90.00000
  0
LINE
  8
Kontur
 62
   7
 39
0.100
  6
CONTINUOUS
 10
515.00000
 20
71.50000
 30
 0
 11
515.00000
 21
76.50000
  0
ARC
  8
Kontur
 62
   7
 39
0.100
  6
CONTINUOUS
 10
515.50000
 20
76.50000
 30
 0
 40
0.50000
 50
450.00000
 51
180.00000
  0
LINE
  8
Kontur
 62
   7
 39
0.100
  6
CONTINUOUS
 10
515.50000
 20
77.00000
 30
 0
 11
518.50000
 21
77.00000
  0
ARC
  8
Kontur
 62
   7
 39
0.100
  6
CONTINUOUS
 10
518.50000
 20
76.50000
 30
 0
 40
0.50000
 50
360.00000
 51
90.00000
  0
LINE
  8
Kontur
 62
   7
 39
0.100
  6
CONTINUOUS
 10
512.00000
 20
76.50000
 30
 0
 11
512.00000
 21
71.50000
  0
ARC
  8
Kontur
 62
   7
 39
0.100
  6
CONTINUOUS
 10
511.50000
 20
71.50000
 30
 0
 40
0.50000
 50
270.00000
 51
0.00000
  0
LINE
  8
Kontur
 62
   7
 39
0.100
  6
CONTINUOUS
 10
511.50000
 20
71.00000
 30
 0
 11
508.50000
 21
71.00000
  0
ARC
  8
Kontur
 62
   7
 39
0.100
  6
CONTINUOUS
 10
508.50000
 20
71.50000
 30
 0
 40
0.50000
 50
180.00000
 51
-90.00000
  0
LINE
  8
Kontur
 62
   7
 39
0.100
  6
CONTINUOUS
 10
508.00000
 20
71.50000
 30
 0
 11
508.00000
 21
76.50000
  0
ARC
  8
Kontur
 62
   7
 39
0.100
  6
CONTINUOUS
 10
508.50000
 20
76.50000
 30
 0
 40
0.50000
 50
450.00000
 51
180.00000
  0
LINE
  8
Kontur
 62
   7
 39
0.100
  6
CONTINUOUS
 10
508.50000
 20
77.00000
 30
 0
 11
511.50000
 21
77.00000
  0
ARC
  8
Kontur
 62
   7
 39
0.100
  6
CONTINUOUS
 10
511.50000
 20
76.50000
 30
 0
 40
0.50000
 50
360.00000
 51
90.00000
  0
LINE
  8
Kontur
 62
   7
 39
0.100
  6
CONTINUOUS
 10
918.50000
 20
134.50000
 30
 0
 11
923.50000
 21
134.50000
  0
ARC
  8
Kontur
 62
   7
 39
0.100
  6
CONTINUOUS
 10
923.50000
 20
134.00000
 30
 0
 40
0.50000
 50
360.00000
 51
90.00000
  0
LINE
  8
Kontur
 62
   7
 39
0.100
  6
CONTINUOUS
 10
924.00000
 20
134.00000
 30
 0
 11
924.00000
 21
131.00000
  0
ARC
  8
Kontur
 62
   7
 39
0.100
  6
CONTINUOUS
 10
923.50000
 20
131.00000
 30
 0
 40
0.50000
 50
270.00000
 51
0.00000
  0
LINE
  8
Kontur
 62
   7
 39
0.100
  6
CONTINUOUS
 10
923.50000
 20
130.50000
 30
 0
 11
918.50000
 21
130.50000
  0
ARC
  8
Kontur
 62
   7
 39
0.100
  6
CONTINUOUS
 10
918.50000
 20
131.00000
 30
 0
 40
0.50000
 50
180.00000
 51
-90.00000
  0
LINE
  8
Kontur
 62
   7
 39
0.100
  6
CONTINUOUS
 10
918.00000
 20
131.00000
 30
 0
 11
918.00000
 21
134.00000
  0
ARC
  8
Kontur
 62
   7
 39
0.100
  6
CONTINUOUS
 10
918.50000
 20
134.00000
 30
 0
 40
0.50000
 50
450.00000
 51
180.00000
  0
LINE
  8
Kontur
 62
   7
 39
0.100
  6
CONTINUOUS
 10
918.50000
 20
152.50000
 30
 0
 11
923.50000
 21
152.50000
  0
ARC
  8
Kontur
 62
   7
 39
0.100
  6
CONTINUOUS
 10
923.50000
 20
152.00000
 30
 0
 40
0.50000
 50
360.00000
 51
90.00000
  0
LINE
  8
Kontur
 62
   7
 39
0.100
  6
CONTINUOUS
 10
924.00000
 20
152.00000
 30
 0
 11
924.00000
 21
149.00000
  0
ARC
  8
Kontur
 62
   7
 39
0.100
  6
CONTINUOUS
 10
923.50000
 20
149.00000
 30
 0
 40
0.50000
 50
270.00000
 51
0.00000
  0
LINE
  8
Kontur
 62
   7
 39
0.100
  6
CONTINUOUS
 10
923.50000
 20
148.50000
 30
 0
 11
918.50000
 21
148.50000
  0
ARC
  8
Kontur
 62
   7
 39
0.100
  6
CONTINUOUS
 10
918.50000
 20
149.00000
 30
 0
 40
0.50000
 50
180.00000
 51
-90.00000
  0
LINE
  8
Kontur
 62
   7
 39
0.100
  6
CONTINUOUS
 10
918.00000
 20
149.00000
 30
 0
 11
918.00000
 21
152.00000
  0
ARC
  8
Kontur
 62
   7
 39
0.100
  6
CONTINUOUS
 10
918.50000
 20
152.00000
 30
 0
 40
0.50000
 50
450.00000
 51
180.00000
  0
LINE
  8
Kontur
 62
   7
 39
0.100
  6
CONTINUOUS
 10
806.50000
 20
134.50000
 30
 0
 11
811.50000
 21
134.50000
  0
ARC
  8
Kontur
 62
   7
 39
0.100
  6
CONTINUOUS
 10
811.50000
 20
134.00000
 30
 0
 40
0.50000
 50
360.00000
 51
90.00000
  0
LINE
  8
Kontur
 62
   7
 39
0.100
  6
CONTINUOUS
 10
812.00000
 20
134.00000
 30
 0
 11
812.00000
 21
131.00000
  0
ARC
  8
Kontur
 62
   7
 39
0.100
  6
CONTINUOUS
 10
811.50000
 20
131.00000
 30
 0
 40
0.50000
 50
270.00000
 51
0.00000
  0
LINE
  8
Kontur
 62
   7
 39
0.100
  6
CONTINUOUS
 10
811.50000
 20
130.50000
 30
 0
 11
806.50000
 21
130.50000
  0
ARC
  8
Kontur
 62
   7
 39
0.100
  6
CONTINUOUS
 10
806.50000
 20
131.00000
 30
 0
 40
0.50000
 50
180.00000
 51
-90.00000
  0
LINE
  8
Kontur
 62
   7
 39
0.100
  6
CONTINUOUS
 10
806.00000
 20
131.00000
 30
 0
 11
806.00000
 21
134.00000
  0
ARC
  8
Kontur
 62
   7
 39
0.100
  6
CONTINUOUS
 10
806.50000
 20
134.00000
 30
 0
 40
0.50000
 50
450.00000
 51
180.00000
  0
LINE
  8
Kontur
 62
   7
 39
0.100
  6
CONTINUOUS
 10
806.50000
 20
152.50000
 30
 0
 11
811.50000
 21
152.50000
  0
ARC
  8
Kontur
 62
   7
 39
0.100
  6
CONTINUOUS
 10
811.50000
 20
152.00000
 30
 0
 40
0.50000
 50
360.00000
 51
90.00000
  0
LINE
  8
Kontur
 62
   7
 39
0.100
  6
CONTINUOUS
 10
812.00000
 20
152.00000
 30
 0
 11
812.00000
 21
149.00000
  0
ARC
  8
Kontur
 62
   7
 39
0.100
  6
CONTINUOUS
 10
811.50000
 20
149.00000
 30
 0
 40
0.50000
 50
270.00000
 51
0.00000
  0
LINE
  8
Kontur
 62
   7
 39
0.100
  6
CONTINUOUS
 10
811.50000
 20
148.50000
 30
 0
 11
806.50000
 21
148.50000
  0
ARC
  8
Kontur
 62
   7
 39
0.100
  6
CONTINUOUS
 10
806.50000
 20
149.00000
 30
 0
 40
0.50000
 50
180.00000
 51
-90.00000
  0
LINE
  8
Kontur
 62
   7
 39
0.100
  6
CONTINUOUS
 10
806.00000
 20
149.00000
 30
 0
 11
806.00000
 21
152.00000
  0
ARC
  8
Kontur
 62
   7
 39
0.100
  6
CONTINUOUS
 10
806.50000
 20
152.00000
 30
 0
 40
0.50000
 50
450.00000
 51
180.00000
  0
LINE
  8
Kontur
 62
   7
 39
0.100
  6
CONTINUOUS
 10
694.50000
 20
134.50000
 30
 0
 11
699.50000
 21
134.50000
  0
ARC
  8
Kontur
 62
   7
 39
0.100
  6
CONTINUOUS
 10
699.50000
 20
134.00000
 30
 0
 40
0.50000
 50
360.00000
 51
90.00000
  0
LINE
  8
Kontur
 62
   7
 39
0.100
  6
CONTINUOUS
 10
700.00000
 20
134.00000
 30
 0
 11
700.00000
 21
131.00000
  0
ARC
  8
Kontur
 62
   7
 39
0.100
  6
CONTINUOUS
 10
699.50000
 20
131.00000
 30
 0
 40
0.50000
 50
270.00000
 51
0.00000
  0
LINE
  8
Kontur
 62
   7
 39
0.100
  6
CONTINUOUS
 10
699.50000
 20
130.50000
 30
 0
 11
694.50000
 21
130.50000
  0
ARC
  8
Kontur
 62
   7
 39
0.100
  6
CONTINUOUS
 10
694.50000
 20
131.00000
 30
 0
 40
0.50000
 50
180.00000
 51
-90.00000
  0
LINE
  8
Kontur
 62
   7
 39
0.100
  6
CONTINUOUS
 10
694.00000
 20
131.00000
 30
 0
 11
694.00000
 21
134.00000
  0
ARC
  8
Kontur
 62
   7
 39
0.100
  6
CONTINUOUS
 10
694.50000
 20
134.00000
 30
 0
 40
0.50000
 50
450.00000
 51
180.00000
  0
LINE
  8
Kontur
 62
   7
 39
0.100
  6
CONTINUOUS
 10
694.50000
 20
152.50000
 30
 0
 11
699.50000
 21
152.50000
  0
ARC
  8
Kontur
 62
   7
 39
0.100
  6
CONTINUOUS
 10
699.50000
 20
152.00000
 30
 0
 40
0.50000
 50
360.00000
 51
90.00000
  0
LINE
  8
Kontur
 62
   7
 39
0.100
  6
CONTINUOUS
 10
700.00000
 20
152.00000
 30
 0
 11
700.00000
 21
149.00000
  0
ARC
  8
Kontur
 62
   7
 39
0.100
  6
CONTINUOUS
 10
699.50000
 20
149.00000
 30
 0
 40
0.50000
 50
270.00000
 51
0.00000
  0
LINE
  8
Kontur
 62
   7
 39
0.100
  6
CONTINUOUS
 10
699.50000
 20
148.50000
 30
 0
 11
694.50000
 21
148.50000
  0
ARC
  8
Kontur
 62
   7
 39
0.100
  6
CONTINUOUS
 10
694.50000
 20
149.00000
 30
 0
 40
0.50000
 50
180.00000
 51
-90.00000
  0
LINE
  8
Kontur
 62
   7
 39
0.100
  6
CONTINUOUS
 10
694.00000
 20
149.00000
 30
 0
 11
694.00000
 21
152.00000
  0
ARC
  8
Kontur
 62
   7
 39
0.100
  6
CONTINUOUS
 10
694.50000
 20
152.00000
 30
 0
 40
0.50000
 50
450.00000
 51
180.00000
  0
LINE
  8
Kontur
 62
   7
 39
0.100
  6
CONTINUOUS
 10
582.50000
 20
134.50000
 30
 0
 11
587.50000
 21
134.50000
  0
ARC
  8
Kontur
 62
   7
 39
0.100
  6
CONTINUOUS
 10
587.50000
 20
134.00000
 30
 0
 40
0.50000
 50
360.00000
 51
90.00000
  0
LINE
  8
Kontur
 62
   7
 39
0.100
  6
CONTINUOUS
 10
588.00000
 20
134.00000
 30
 0
 11
588.00000
 21
131.00000
  0
ARC
  8
Kontur
 62
   7
 39
0.100
  6
CONTINUOUS
 10
587.50000
 20
131.00000
 30
 0
 40
0.50000
 50
270.00000
 51
0.00000
  0
LINE
  8
Kontur
 62
   7
 39
0.100
  6
CONTINUOUS
 10
587.50000
 20
130.50000
 30
 0
 11
582.50000
 21
130.50000
  0
ARC
  8
Kontur
 62
   7
 39
0.100
  6
CONTINUOUS
 10
582.50000
 20
131.00000
 30
 0
 40
0.50000
 50
180.00000
 51
-90.00000
  0
LINE
  8
Kontur
 62
   7
 39
0.100
  6
CONTINUOUS
 10
582.00000
 20
131.00000
 30
 0
 11
582.00000
 21
134.00000
  0
ARC
  8
Kontur
 62
   7
 39
0.100
  6
CONTINUOUS
 10
582.50000
 20
134.00000
 30
 0
 40
0.50000
 50
450.00000
 51
180.00000
  0
LINE
  8
Kontur
 62
   7
 39
0.100
  6
CONTINUOUS
 10
582.50000
 20
152.50000
 30
 0
 11
587.50000
 21
152.50000
  0
ARC
  8
Kontur
 62
   7
 39
0.100
  6
CONTINUOUS
 10
587.50000
 20
152.00000
 30
 0
 40
0.50000
 50
360.00000
 51
90.00000
  0
LINE
  8
Kontur
 62
   7
 39
0.100
  6
CONTINUOUS
 10
588.00000
 20
152.00000
 30
 0
 11
588.00000
 21
149.00000
  0
ARC
  8
Kontur
 62
   7
 39
0.100
  6
CONTINUOUS
 10
587.50000
 20
149.00000
 30
 0
 40
0.50000
 50
270.00000
 51
0.00000
  0
LINE
  8
Kontur
 62
   7
 39
0.100
  6
CONTINUOUS
 10
587.50000
 20
148.50000
 30
 0
 11
582.50000
 21
148.50000
  0
ARC
  8
Kontur
 62
   7
 39
0.100
  6
CONTINUOUS
 10
582.50000
 20
149.00000
 30
 0
 40
0.50000
 50
180.00000
 51
-90.00000
  0
LINE
  8
Kontur
 62
   7
 39
0.100
  6
CONTINUOUS
 10
582.00000
 20
149.00000
 30
 0
 11
582.00000
 21
152.00000
  0
ARC
  8
Kontur
 62
   7
 39
0.100
  6
CONTINUOUS
 10
582.50000
 20
152.00000
 30
 0
 40
0.50000
 50
450.00000
 51
180.00000
  0
ARC
  8
Kontur
 62
   7
 39
0.100
  6
CONTINUOUS
 10
750.03800
 20
110.00000
 30
 0
 40
1.50000
 50
270.00000
 51
-15.02736
  0
LINE
  8
Kontur
 62
   7
 39
0.100
  6
CONTINUOUS
 10
750.03800
 20
108.50000
 30
 0
 11
723.96200
 21
108.50000
  0
ARC
  8
Kontur
 62
   7
 39
0.100
  6
CONTINUOUS
 10
723.96200
 20
110.00000
 30
 0
 40
1.50000
 50
195.02736
 51
-90.00000
  0
ARC
  8
Kontur
 62
   7
 39
0.100
  6
CONTINUOUS
 10
737.00000
 20
113.50000
 30
 0
 40
15.00000
 50
-15.02664
 51
-164.97336
  0
ARC
  8
Kontur
 62
   7
 39
0.100
  6
CONTINUOUS
 10
303.03800
 20
110.00000
 30
 0
 40
1.50000
 50
270.00000
 51
-15.02736
  0
LINE
  8
Kontur
 62
   7
 39
0.100
  6
CONTINUOUS
 10
303.03800
 20
108.50000
 30
 0
 11
276.96200
 21
108.50000
  0
ARC
  8
Kontur
 62
   7
 39
0.100
  6
CONTINUOUS
 10
276.96200
 20
110.00000
 30
 0
 40
1.50000
 50
195.02736
 51
-90.00000
  0
ARC
  8
Kontur
 62
   7
 39
0.100
  6
CONTINUOUS
 10
290.00000
 20
113.50000
 30
 0
 40
15.00000
 50
-15.02664
 51
-164.97336
  0
CIRCLE
  8
Kontur
 62
   7
 39
0.100
  6
CONTINUOUS
 10
274.00000
 20
26.00000
 30
 0
 40
2.60000
  0
CIRCLE
  8
Kontur
 62
   7
 39
0.100
  6
CONTINUOUS
 10
386.00000
 20
26.00000
 30
 0
 40
2.60000
  0
CIRCLE
  8
Kontur
 62
   7
 39
0.100
  6
CONTINUOUS
 10
609.00000
 20
26.00000
 30
 0
 40
2.60000
  0
CIRCLE
  8
Kontur
 62
   7
 39
0.100
  6
CONTINUOUS
 10
721.00000
 20
26.00000
 30
 0
 40
2.60000
  0
CIRCLE
  8
Kontur
 62
   7
 39
0.100
  6
CONTINUOUS
 10
274.00000
 20
151.00000
 30
 0
 40
2.60000
  0
CIRCLE
  8
Kontur
 62
   7
 39
0.100
  6
CONTINUOUS
 10
386.00000
 20
151.00000
 30
 0
 40
2.60000
  0
CIRCLE
  8
Kontur
 62
   7
 39
0.100
  6
CONTINUOUS
 10
609.00000
 20
151.00000
 30
 0
 40
2.60000
  0
CIRCLE
  8
Kontur
 62
   7
 39
0.100
  6
CONTINUOUS
 10
721.00000
 20
151.00000
 30
 0
 40
2.60000
  0
LINE
  8
Bezugspunkte
 62
   1
 39
0.100
  6
CONTINUOUS
 10
-1.00000
 20
0.00000
 30
 0
 11
1.00000
 21
0.00000
  0
LINE
  8
Bezugspunkte
 62
   1
 39
0.100
  6
CONTINUOUS
 10
0.00000
 20
-1.00000
 30
 0
 11
0.00000
 21
1.00000
  0
LINE
  8
Bezugspunkte
 62
   1
 39
0.100
  6
CONTINUOUS
 10
65.00000
 20
87.00000
 30
 0
 11
67.00000
 21
87.00000
  0
LINE
  8
Bezugspunkte
 62
   1
 39
0.100
  6
CONTINUOUS
 10
66.00000
 20
86.00000
 30
 0
 11
66.00000
 21
88.00000
  0
LINE
  8
Bezugspunkte
 62
   1
 39
0.100
  6
CONTINUOUS
 10
29.00000
 20
26.00000
 30
 0
 11
31.00000
 21
26.00000
  0
LINE
  8
Bezugspunkte
 62
   1
 39
0.100
  6
CONTINUOUS
 10
30.00000
 20
25.00000
 30
 0
 11
30.00000
 21
27.00000
  0
LINE
  8
Bezugspunkte
 62
   1
 39
0.100
  6
CONTINUOUS
 10
87.00000
 20
26.00000
 30
 0
 11
89.00000
 21
26.00000
  0
LINE
  8
Bezugspunkte
 62
   1
 39
0.100
  6
CONTINUOUS
 10
88.00000
 20
25.00000
 30
 0
 11
88.00000
 21
27.00000
  0
LINE
  8
Bezugspunkte
 62
   1
 39
0.100
  6
CONTINUOUS
 10
112.00000
 20
50.00000
 30
 0
 11
114.00000
 21
50.00000
  0
LINE
  8
Bezugspunkte
 62
   1
 39
0.100
  6
CONTINUOUS
 10
113.00000
 20
49.00000
 30
 0
 11
113.00000
 21
51.00000
  0
LINE
  8
Bezugspunkte
 62
   1
 39
0.100
  6
CONTINUOUS
 10
18.00000
 20
50.00000
 30
 0
 11
20.00000
 21
50.00000
  0
LINE
  8
Bezugspunkte
 62
   1
 39
0.100
  6
CONTINUOUS
 10
19.00000
 20
49.00000
 30
 0
 11
19.00000
 21
51.00000
  0
LINE
  8
Bezugspunkte
 62
   1
 39
0.100
  6
CONTINUOUS
 10
18.00000
 20
120.00000
 30
 0
 11
20.00000
 21
120.00000
  0
LINE
  8
Bezugspunkte
 62
   1
 39
0.100
  6
CONTINUOUS
 10
19.00000
 20
119.00000
 30
 0
 11
19.00000
 21
121.00000
  0
LINE
  8
Bezugspunkte
 62
   1
 39
0.100
  6
CONTINUOUS
 10
112.00000
 20
120.00000
 30
 0
 11
114.00000
 21
120.00000
  0
LINE
  8
Bezugspunkte
 62
   1
 39
0.100
  6
CONTINUOUS
 10
113.00000
 20
119.00000
 30
 0
 11
113.00000
 21
121.00000
  0
LINE
  8
Bezugspunkte
 62
   1
 39
0.100
  6
CONTINUOUS
 10
65.00000
 20
85.00000
 30
 0
 11
67.00000
 21
85.00000
  0
LINE
  8
Bezugspunkte
 62
   1
 39
0.100
  6
CONTINUOUS
 10
66.00000
 20
84.00000
 30
 0
 11
66.00000
 21
86.00000
  0
LINE
  8
Bezugspunkte
 62
   1
 39
0.100
  6
CONTINUOUS
 10
87.00000
 20
63.00000
 30
 0
 11
89.00000
 21
63.00000
  0
LINE
  8
Bezugspunkte
 62
   1
 39
0.100
  6
CONTINUOUS
 10
88.00000
 20
62.00000
 30
 0
 11
88.00000
 21
64.00000
  0
LINE
  8
Bezugspunkte
 62
   1
 39
0.100
  6
CONTINUOUS
 10
76.00000
 20
50.00000
 30
 0
 11
78.00000
 21
50.00000
  0
LINE
  8
Bezugspunkte
 62
   1
 39
0.100
  6
CONTINUOUS
 10
77.00000
 20
49.00000
 30
 0
 11
77.00000
 21
51.00000
  0
LINE
  8
Bezugspunkte
 62
   1
 39
0.100
  6
CONTINUOUS
 10
98.00000
 20
50.00000
 30
 0
 11
100.00000
 21
50.00000
  0
LINE
  8
Bezugspunkte
 62
   1
 39
0.100
  6
CONTINUOUS
 10
99.00000
 20
49.00000
 30
 0
 11
99.00000
 21
51.00000
  0
LINE
  8
Bezugspunkte
 62
   1
 39
0.100
  6
CONTINUOUS
 10
109.00000
 20
85.00000
 30
 0
 11
111.00000
 21
85.00000
  0
LINE
  8
Bezugspunkte
 62
   1
 39
0.100
  6
CONTINUOUS
 10
110.00000
 20
84.00000
 30
 0
 11
110.00000
 21
86.00000
  0
LINE
  8
Bezugspunkte
 62
   1
 39
0.100
  6
CONTINUOUS
 10
65.00000
 20
87.00000
 30
 0
 11
67.00000
 21
87.00000
  0
LINE
  8
Bezugspunkte
 62
   1
 39
0.100
  6
CONTINUOUS
 10
66.00000
 20
86.00000
 30
 0
 11
66.00000
 21
88.00000
  0
LINE
  8
Bezugspunkte
 62
   1
 39
0.100
  6
CONTINUOUS
 10
177.00000
 20
87.00000
 30
 0
 11
179.00000
 21
87.00000
  0
LINE
  8
Bezugspunkte
 62
   1
 39
0.100
  6
CONTINUOUS
 10
178.00000
 20
86.00000
 30
 0
 11
178.00000
 21
88.00000
  0
LINE
  8
Bezugspunkte
 62
   1
 39
0.100
  6
CONTINUOUS
 10
141.00000
 20
26.00000
 30
 0
 11
143.00000
 21
26.00000
  0
LINE
  8
Bezugspunkte
 62
   1
 39
0.100
  6
CONTINUOUS
 10
142.00000
 20
25.00000
 30
 0
 11
142.00000
 21
27.00000
  0
LINE
  8
Bezugspunkte
 62
   1
 39
0.100
  6
CONTINUOUS
 10
199.00000
 20
26.00000
 30
 0
 11
201.00000
 21
26.00000
  0
LINE
  8
Bezugspunkte
 62
   1
 39
0.100
  6
CONTINUOUS
 10
200.00000
 20
25.00000
 30
 0
 11
200.00000
 21
27.00000
  0
LINE
  8
Bezugspunkte
 62
   1
 39
0.100
  6
CONTINUOUS
 10
224.00000
 20
50.00000
 30
 0
 11
226.00000
 21
50.00000
  0
LINE
  8
Bezugspunkte
 62
   1
 39
0.100
  6
CONTINUOUS
 10
225.00000
 20
49.00000
 30
 0
 11
225.00000
 21
51.00000
  0
LINE
  8
Bezugspunkte
 62
   1
 39
0.100
  6
CONTINUOUS
 10
130.00000
 20
50.00000
 30
 0
 11
132.00000
 21
50.00000
  0
LINE
  8
Bezugspunkte
 62
   1
 39
0.100
  6
CONTINUOUS
 10
131.00000
 20
49.00000
 30
 0
 11
131.00000
 21
51.00000
  0
LINE
  8
Bezugspunkte
 62
   1
 39
0.100
  6
CONTINUOUS
 10
130.00000
 20
120.00000
 30
 0
 11
132.00000
 21
120.00000
  0
LINE
  8
Bezugspunkte
 62
   1
 39
0.100
  6
CONTINUOUS
 10
131.00000
 20
119.00000
 30
 0
 11
131.00000
 21
121.00000
  0
LINE
  8
Bezugspunkte
 62
   1
 39
0.100
  6
CONTINUOUS
 10
224.00000
 20
120.00000
 30
 0
 11
226.00000
 21
120.00000
  0
LINE
  8
Bezugspunkte
 62
   1
 39
0.100
  6
CONTINUOUS
 10
225.00000
 20
119.00000
 30
 0
 11
225.00000
 21
121.00000
  0
LINE
  8
Bezugspunkte
 62
   1
 39
0.100
  6
CONTINUOUS
 10
177.00000
 20
85.00000
 30
 0
 11
179.00000
 21
85.00000
  0
LINE
  8
Bezugspunkte
 62
   1
 39
0.100
  6
CONTINUOUS
 10
178.00000
 20
84.00000
 30
 0
 11
178.00000
 21
86.00000
  0
LINE
  8
Bezugspunkte
 62
   1
 39
0.100
  6
CONTINUOUS
 10
199.00000
 20
63.00000
 30
 0
 11
201.00000
 21
63.00000
  0
LINE
  8
Bezugspunkte
 62
   1
 39
0.100
  6
CONTINUOUS
 10
200.00000
 20
62.00000
 30
 0
 11
200.00000
 21
64.00000
  0
LINE
  8
Bezugspunkte
 62
   1
 39
0.100
  6
CONTINUOUS
 10
188.00000
 20
50.00000
 30
 0
 11
190.00000
 21
50.00000
  0
LINE
  8
Bezugspunkte
 62
   1
 39
0.100
  6
CONTINUOUS
 10
189.00000
 20
49.00000
 30
 0
 11
189.00000
 21
51.00000
  0
LINE
  8
Bezugspunkte
 62
   1
 39
0.100
  6
CONTINUOUS
 10
210.00000
 20
50.00000
 30
 0
 11
212.00000
 21
50.00000
  0
LINE
  8
Bezugspunkte
 62
   1
 39
0.100
  6
CONTINUOUS
 10
211.00000
 20
49.00000
 30
 0
 11
211.00000
 21
51.00000
  0
LINE
  8
Bezugspunkte
 62
   1
 39
0.100
  6
CONTINUOUS
 10
221.00000
 20
85.00000
 30
 0
 11
223.00000
 21
85.00000
  0
LINE
  8
Bezugspunkte
 62
   1
 39
0.100
  6
CONTINUOUS
 10
222.00000
 20
84.00000
 30
 0
 11
222.00000
 21
86.00000
  0
LINE
  8
Bezugspunkte
 62
   1
 39
0.100
  6
CONTINUOUS
 10
177.00000
 20
87.00000
 30
 0
 11
179.00000
 21
87.00000
  0
LINE
  8
Bezugspunkte
 62
   1
 39
0.100
  6
CONTINUOUS
 10
178.00000
 20
86.00000
 30
 0
 11
178.00000
 21
88.00000
  0
LINE
  8
Bezugspunkte
 62
   1
 39
0.100
  6
CONTINUOUS
 10
289.00000
 20
87.00000
 30
 0
 11
291.00000
 21
87.00000
  0
LINE
  8
Bezugspunkte
 62
   1
 39
0.100
  6
CONTINUOUS
 10
290.00000
 20
86.00000
 30
 0
 11
290.00000
 21
88.00000
  0
LINE
  8
Bezugspunkte
 62
   1
 39
0.100
  6
CONTINUOUS
 10
253.00000
 20
26.00000
 30
 0
 11
255.00000
 21
26.00000
  0
LINE
  8
Bezugspunkte
 62
   1
 39
0.100
  6
CONTINUOUS
 10
254.00000
 20
25.00000
 30
 0
 11
254.00000
 21
27.00000
  0
LINE
  8
Bezugspunkte
 62
   1
 39
0.100
  6
CONTINUOUS
 10
311.00000
 20
26.00000
 30
 0
 11
313.00000
 21
26.00000
  0
LINE
  8
Bezugspunkte
 62
   1
 39
0.100
  6
CONTINUOUS
 10
312.00000
 20
25.00000
 30
 0
 11
312.00000
 21
27.00000
  0
LINE
  8
Bezugspunkte
 62
   1
 39
0.100
  6
CONTINUOUS
 10
336.00000
 20
50.00000
 30
 0
 11
338.00000
 21
50.00000
  0
LINE
  8
Bezugspunkte
 62
   1
 39
0.100
  6
CONTINUOUS
 10
337.00000
 20
49.00000
 30
 0
 11
337.00000
 21
51.00000
  0
LINE
  8
Bezugspunkte
 62
   1
 39
0.100
  6
CONTINUOUS
 10
242.00000
 20
50.00000
 30
 0
 11
244.00000
 21
50.00000
  0
LINE
  8
Bezugspunkte
 62
   1
 39
0.100
  6
CONTINUOUS
 10
243.00000
 20
49.00000
 30
 0
 11
243.00000
 21
51.00000
  0
LINE
  8
Bezugspunkte
 62
   1
 39
0.100
  6
CONTINUOUS
 10
242.00000
 20
120.00000
 30
 0
 11
244.00000
 21
120.00000
  0
LINE
  8
Bezugspunkte
 62
   1
 39
0.100
  6
CONTINUOUS
 10
243.00000
 20
119.00000
 30
 0
 11
243.00000
 21
121.00000
  0
LINE
  8
Bezugspunkte
 62
   1
 39
0.100
  6
CONTINUOUS
 10
336.00000
 20
120.00000
 30
 0
 11
338.00000
 21
120.00000
  0
LINE
  8
Bezugspunkte
 62
   1
 39
0.100
  6
CONTINUOUS
 10
337.00000
 20
119.00000
 30
 0
 11
337.00000
 21
121.00000
  0
LINE
  8
Bezugspunkte
 62
   1
 39
0.100
  6
CONTINUOUS
 10
289.00000
 20
85.00000
 30
 0
 11
291.00000
 21
85.00000
  0
LINE
  8
Bezugspunkte
 62
   1
 39
0.100
  6
CONTINUOUS
 10
290.00000
 20
84.00000
 30
 0
 11
290.00000
 21
86.00000
  0
LINE
  8
Bezugspunkte
 62
   1
 39
0.100
  6
CONTINUOUS
 10
311.00000
 20
63.00000
 30
 0
 11
313.00000
 21
63.00000
  0
LINE
  8
Bezugspunkte
 62
   1
 39
0.100
  6
CONTINUOUS
 10
312.00000
 20
62.00000
 30
 0
 11
312.00000
 21
64.00000
  0
LINE
  8
Bezugspunkte
 62
   1
 39
0.100
  6
CONTINUOUS
 10
300.00000
 20
50.00000
 30
 0
 11
302.00000
 21
50.00000
  0
LINE
  8
Bezugspunkte
 62
   1
 39
0.100
  6
CONTINUOUS
 10
301.00000
 20
49.00000
 30
 0
 11
301.00000
 21
51.00000
  0
LINE
  8
Bezugspunkte
 62
   1
 39
0.100
  6
CONTINUOUS
 10
322.00000
 20
50.00000
 30
 0
 11
324.00000
 21
50.00000
  0
LINE
  8
Bezugspunkte
 62
   1
 39
0.100
  6
CONTINUOUS
 10
323.00000
 20
49.00000
 30
 0
 11
323.00000
 21
51.00000
  0
LINE
  8
Bezugspunkte
 62
   1
 39
0.100
  6
CONTINUOUS
 10
333.00000
 20
85.00000
 30
 0
 11
335.00000
 21
85.00000
  0
LINE
  8
Bezugspunkte
 62
   1
 39
0.100
  6
CONTINUOUS
 10
334.00000
 20
84.00000
 30
 0
 11
334.00000
 21
86.00000
  0
LINE
  8
Bezugspunkte
 62
   1
 39
0.100
  6
CONTINUOUS
 10
289.00000
 20
87.00000
 30
 0
 11
291.00000
 21
87.00000
  0
LINE
  8
Bezugspunkte
 62
   1
 39
0.100
  6
CONTINUOUS
 10
290.00000
 20
86.00000
 30
 0
 11
290.00000
 21
88.00000
  0
LINE
  8
Bezugspunkte
 62
   1
 39
0.100
  6
CONTINUOUS
 10
401.00000
 20
87.00000
 30
 0
 11
403.00000
 21
87.00000
  0
LINE
  8
Bezugspunkte
 62
   1
 39
0.100
  6
CONTINUOUS
 10
402.00000
 20
86.00000
 30
 0
 11
402.00000
 21
88.00000
  0
LINE
  8
Bezugspunkte
 62
   1
 39
0.100
  6
CONTINUOUS
 10
365.00000
 20
26.00000
 30
 0
 11
367.00000
 21
26.00000
  0
LINE
  8
Bezugspunkte
 62
   1
 39
0.100
  6
CONTINUOUS
 10
366.00000
 20
25.00000
 30
 0
 11
366.00000
 21
27.00000
  0
LINE
  8
Bezugspunkte
 62
   1
 39
0.100
  6
CONTINUOUS
 10
423.00000
 20
26.00000
 30
 0
 11
425.00000
 21
26.00000
  0
LINE
  8
Bezugspunkte
 62
   1
 39
0.100
  6
CONTINUOUS
 10
424.00000
 20
25.00000
 30
 0
 11
424.00000
 21
27.00000
  0
LINE
  8
Bezugspunkte
 62
   1
 39
0.100
  6
CONTINUOUS
 10
448.00000
 20
50.00000
 30
 0
 11
450.00000
 21
50.00000
  0
LINE
  8
Bezugspunkte
 62
   1
 39
0.100
  6
CONTINUOUS
 10
449.00000
 20
49.00000
 30
 0
 11
449.00000
 21
51.00000
  0
LINE
  8
Bezugspunkte
 62
   1
 39
0.100
  6
CONTINUOUS
 10
354.00000
 20
50.00000
 30
 0
 11
356.00000
 21
50.00000
  0
LINE
  8
Bezugspunkte
 62
   1
 39
0.100
  6
CONTINUOUS
 10
355.00000
 20
49.00000
 30
 0
 11
355.00000
 21
51.00000
  0
LINE
  8
Bezugspunkte
 62
   1
 39
0.100
  6
CONTINUOUS
 10
354.00000
 20
120.00000
 30
 0
 11
356.00000
 21
120.00000
  0
LINE
  8
Bezugspunkte
 62
   1
 39
0.100
  6
CONTINUOUS
 10
355.00000
 20
119.00000
 30
 0
 11
355.00000
 21
121.00000
  0
LINE
  8
Bezugspunkte
 62
   1
 39
0.100
  6
CONTINUOUS
 10
448.00000
 20
120.00000
 30
 0
 11
450.00000
 21
120.00000
  0
LINE
  8
Bezugspunkte
 62
   1
 39
0.100
  6
CONTINUOUS
 10
449.00000
 20
119.00000
 30
 0
 11
449.00000
 21
121.00000
  0
LINE
  8
Bezugspunkte
 62
   1
 39
0.100
  6
CONTINUOUS
 10
401.00000
 20
85.00000
 30
 0
 11
403.00000
 21
85.00000
  0
LINE
  8
Bezugspunkte
 62
   1
 39
0.100
  6
CONTINUOUS
 10
402.00000
 20
84.00000
 30
 0
 11
402.00000
 21
86.00000
  0
LINE
  8
Bezugspunkte
 62
   1
 39
0.100
  6
CONTINUOUS
 10
423.00000
 20
63.00000
 30
 0
 11
425.00000
 21
63.00000
  0
LINE
  8
Bezugspunkte
 62
   1
 39
0.100
  6
CONTINUOUS
 10
424.00000
 20
62.00000
 30
 0
 11
424.00000
 21
64.00000
  0
LINE
  8
Bezugspunkte
 62
   1
 39
0.100
  6
CONTINUOUS
 10
412.00000
 20
50.00000
 30
 0
 11
414.00000
 21
50.00000
  0
LINE
  8
Bezugspunkte
 62
   1
 39
0.100
  6
CONTINUOUS
 10
413.00000
 20
49.00000
 30
 0
 11
413.00000
 21
51.00000
  0
LINE
  8
Bezugspunkte
 62
   1
 39
0.100
  6
CONTINUOUS
 10
434.00000
 20
50.00000
 30
 0
 11
436.00000
 21
50.00000
  0
LINE
  8
Bezugspunkte
 62
   1
 39
0.100
  6
CONTINUOUS
 10
435.00000
 20
49.00000
 30
 0
 11
435.00000
 21
51.00000
  0
LINE
  8
Bezugspunkte
 62
   1
 39
0.100
  6
CONTINUOUS
 10
445.00000
 20
85.00000
 30
 0
 11
447.00000
 21
85.00000
  0
LINE
  8
Bezugspunkte
 62
   1
 39
0.100
  6
CONTINUOUS
 10
446.00000
 20
84.00000
 30
 0
 11
446.00000
 21
86.00000
  0
LINE
  8
Bezugspunkte
 62
   1
 39
0.100
  6
CONTINUOUS
 10
401.00000
 20
87.00000
 30
 0
 11
403.00000
 21
87.00000
  0
LINE
  8
Bezugspunkte
 62
   1
 39
0.100
  6
CONTINUOUS
 10
402.00000
 20
86.00000
 30
 0
 11
402.00000
 21
88.00000
  0
LINE
  8
Bezugspunkte
 62
   1
 39
0.100
  6
CONTINUOUS
 10
624.00000
 20
87.00000
 30
 0
 11
626.00000
 21
87.00000
  0
LINE
  8
Bezugspunkte
 62
   1
 39
0.100
  6
CONTINUOUS
 10
625.00000
 20
86.00000
 30
 0
 11
625.00000
 21
88.00000
  0
LINE
  8
Bezugspunkte
 62
   1
 39
0.100
  6
CONTINUOUS
 10
588.00000
 20
26.00000
 30
 0
 11
590.00000
 21
26.00000
  0
LINE
  8
Bezugspunkte
 62
   1
 39
0.100
  6
CONTINUOUS
 10
589.00000
 20
25.00000
 30
 0
 11
589.00000
 21
27.00000
  0
LINE
  8
Bezugspunkte
 62
   1
 39
0.100
  6
CONTINUOUS
 10
646.00000
 20
26.00000
 30
 0
 11
648.00000
 21
26.00000
  0
LINE
  8
Bezugspunkte
 62
   1
 39
0.100
  6
CONTINUOUS
 10
647.00000
 20
25.00000
 30
 0
 11
647.00000
 21
27.00000
  0
LINE
  8
Bezugspunkte
 62
   1
 39
0.100
  6
CONTINUOUS
 10
671.00000
 20
50.00000
 30
 0
 11
673.00000
 21
50.00000
  0
LINE
  8
Bezugspunkte
 62
   1
 39
0.100
  6
CONTINUOUS
 10
672.00000
 20
49.00000
 30
 0
 11
672.00000
 21
51.00000
  0
LINE
  8
Bezugspunkte
 62
   1
 39
0.100
  6
CONTINUOUS
 10
577.00000
 20
50.00000
 30
 0
 11
579.00000
 21
50.00000
  0
LINE
  8
Bezugspunkte
 62
   1
 39
0.100
  6
CONTINUOUS
 10
578.00000
 20
49.00000
 30
 0
 11
578.00000
 21
51.00000
  0
LINE
  8
Bezugspunkte
 62
   1
 39
0.100
  6
CONTINUOUS
 10
577.00000
 20
120.00000
 30
 0
 11
579.00000
 21
120.00000
  0
LINE
  8
Bezugspunkte
 62
   1
 39
0.100
  6
CONTINUOUS
 10
578.00000
 20
119.00000
 30
 0
 11
578.00000
 21
121.00000
  0
LINE
  8
Bezugspunkte
 62
   1
 39
0.100
  6
CONTINUOUS
 10
671.00000
 20
120.00000
 30
 0
 11
673.00000
 21
120.00000
  0
LINE
  8
Bezugspunkte
 62
   1
 39
0.100
  6
CONTINUOUS
 10
672.00000
 20
119.00000
 30
 0
 11
672.00000
 21
121.00000
  0
LINE
  8
Bezugspunkte
 62
   1
 39
0.100
  6
CONTINUOUS
 10
624.00000
 20
85.00000
 30
 0
 11
626.00000
 21
85.00000
  0
LINE
  8
Bezugspunkte
 62
   1
 39
0.100
  6
CONTINUOUS
 10
625.00000
 20
84.00000
 30
 0
 11
625.00000
 21
86.00000
  0
LINE
  8
Bezugspunkte
 62
   1
 39
0.100
  6
CONTINUOUS
 10
646.00000
 20
63.00000
 30
 0
 11
648.00000
 21
63.00000
  0
LINE
  8
Bezugspunkte
 62
   1
 39
0.100
  6
CONTINUOUS
 10
647.00000
 20
62.00000
 30
 0
 11
647.00000
 21
64.00000
  0
LINE
  8
Bezugspunkte
 62
   1
 39
0.100
  6
CONTINUOUS
 10
635.00000
 20
50.00000
 30
 0
 11
637.00000
 21
50.00000
  0
LINE
  8
Bezugspunkte
 62
   1
 39
0.100
  6
CONTINUOUS
 10
636.00000
 20
49.00000
 30
 0
 11
636.00000
 21
51.00000
  0
LINE
  8
Bezugspunkte
 62
   1
 39
0.100
  6
CONTINUOUS
 10
657.00000
 20
50.00000
 30
 0
 11
659.00000
 21
50.00000
  0
LINE
  8
Bezugspunkte
 62
   1
 39
0.100
  6
CONTINUOUS
 10
658.00000
 20
49.00000
 30
 0
 11
658.00000
 21
51.00000
  0
LINE
  8
Bezugspunkte
 62
   1
 39
0.100
  6
CONTINUOUS
 10
668.00000
 20
85.00000
 30
 0
 11
670.00000
 21
85.00000
  0
LINE
  8
Bezugspunkte
 62
   1
 39
0.100
  6
CONTINUOUS
 10
669.00000
 20
84.00000
 30
 0
 11
669.00000
 21
86.00000
  0
LINE
  8
Bezugspunkte
 62
   1
 39
0.100
  6
CONTINUOUS
 10
624.00000
 20
87.00000
 30
 0
 11
626.00000
 21
87.00000
  0
LINE
  8
Bezugspunkte
 62
   1
 39
0.100
  6
CONTINUOUS
 10
625.00000
 20
86.00000
 30
 0
 11
625.00000
 21
88.00000
  0
LINE
  8
Bezugspunkte
 62
   1
 39
0.100
  6
CONTINUOUS
 10
736.00000
 20
87.00000
 30
 0
 11
738.00000
 21
87.00000
  0
LINE
  8
Bezugspunkte
 62
   1
 39
0.100
  6
CONTINUOUS
 10
737.00000
 20
86.00000
 30
 0
 11
737.00000
 21
88.00000
  0
LINE
  8
Bezugspunkte
 62
   1
 39
0.100
  6
CONTINUOUS
 10
700.00000
 20
26.00000
 30
 0
 11
702.00000
 21
26.00000
  0
LINE
  8
Bezugspunkte
 62
   1
 39
0.100
  6
CONTINUOUS
 10
701.00000
 20
25.00000
 30
 0
 11
701.00000
 21
27.00000
  0
LINE
  8
Bezugspunkte
 62
   1
 39
0.100
  6
CONTINUOUS
 10
758.00000
 20
26.00000
 30
 0
 11
760.00000
 21
26.00000
  0
LINE
  8
Bezugspunkte
 62
   1
 39
0.100
  6
CONTINUOUS
 10
759.00000
 20
25.00000
 30
 0
 11
759.00000
 21
27.00000
  0
LINE
  8
Bezugspunkte
 62
   1
 39
0.100
  6
CONTINUOUS
 10
783.00000
 20
50.00000
 30
 0
 11
785.00000
 21
50.00000
  0
LINE
  8
Bezugspunkte
 62
   1
 39
0.100
  6
CONTINUOUS
 10
784.00000
 20
49.00000
 30
 0
 11
784.00000
 21
51.00000
  0
LINE
  8
Bezugspunkte
 62
   1
 39
0.100
  6
CONTINUOUS
 10
689.00000
 20
50.00000
 30
 0
 11
691.00000
 21
50.00000
  0
LINE
  8
Bezugspunkte
 62
   1
 39
0.100
  6
CONTINUOUS
 10
690.00000
 20
49.00000
 30
 0
 11
690.00000
 21
51.00000
  0
LINE
  8
Bezugspunkte
 62
   1
 39
0.100
  6
CONTINUOUS
 10
689.00000
 20
120.00000
 30
 0
 11
691.00000
 21
120.00000
  0
LINE
  8
Bezugspunkte
 62
   1
 39
0.100
  6
CONTINUOUS
 10
690.00000
 20
119.00000
 30
 0
 11
690.00000
 21
121.00000
  0
LINE
  8
Bezugspunkte
 62
   1
 39
0.100
  6
CONTINUOUS
 10
783.00000
 20
120.00000
 30
 0
 11
785.00000
 21
120.00000
  0
LINE
  8
Bezugspunkte
 62
   1
 39
0.100
  6
CONTINUOUS
 10
784.00000
 20
119.00000
 30
 0
 11
784.00000
 21
121.00000
  0
LINE
  8
Bezugspunkte
 62
   1
 39
0.100
  6
CONTINUOUS
 10
736.00000
 20
85.00000
 30
 0
 11
738.00000
 21
85.00000
  0
LINE
  8
Bezugspunkte
 62
   1
 39
0.100
  6
CONTINUOUS
 10
737.00000
 20
84.00000
 30
 0
 11
737.00000
 21
86.00000
  0
LINE
  8
Bezugspunkte
 62
   1
 39
0.100
  6
CONTINUOUS
 10
758.00000
 20
63.00000
 30
 0
 11
760.00000
 21
63.00000
  0
LINE
  8
Bezugspunkte
 62
   1
 39
0.100
  6
CONTINUOUS
 10
759.00000
 20
62.00000
 30
 0
 11
759.00000
 21
64.00000
  0
LINE
  8
Bezugspunkte
 62
   1
 39
0.100
  6
CONTINUOUS
 10
747.00000
 20
50.00000
 30
 0
 11
749.00000
 21
50.00000
  0
LINE
  8
Bezugspunkte
 62
   1
 39
0.100
  6
CONTINUOUS
 10
748.00000
 20
49.00000
 30
 0
 11
748.00000
 21
51.00000
  0
LINE
  8
Bezugspunkte
 62
   1
 39
0.100
  6
CONTINUOUS
 10
769.00000
 20
50.00000
 30
 0
 11
771.00000
 21
50.00000
  0
LINE
  8
Bezugspunkte
 62
   1
 39
0.100
  6
CONTINUOUS
 10
770.00000
 20
49.00000
 30
 0
 11
770.00000
 21
51.00000
  0
LINE
  8
Bezugspunkte
 62
   1
 39
0.100
  6
CONTINUOUS
 10
780.00000
 20
85.00000
 30
 0
 11
782.00000
 21
85.00000
  0
LINE
  8
Bezugspunkte
 62
   1
 39
0.100
  6
CONTINUOUS
 10
781.00000
 20
84.00000
 30
 0
 11
781.00000
 21
86.00000
  0
LINE
  8
Bezugspunkte
 62
   1
 39
0.100
  6
CONTINUOUS
 10
736.00000
 20
87.00000
 30
 0
 11
738.00000
 21
87.00000
  0
LINE
  8
Bezugspunkte
 62
   1
 39
0.100
  6
CONTINUOUS
 10
737.00000
 20
86.00000
 30
 0
 11
737.00000
 21
88.00000
  0
LINE
  8
Bezugspunkte
 62
   1
 39
0.100
  6
CONTINUOUS
 10
848.00000
 20
87.00000
 30
 0
 11
850.00000
 21
87.00000
  0
LINE
  8
Bezugspunkte
 62
   1
 39
0.100
  6
CONTINUOUS
 10
849.00000
 20
86.00000
 30
 0
 11
849.00000
 21
88.00000
  0
LINE
  8
Bezugspunkte
 62
   1
 39
0.100
  6
CONTINUOUS
 10
812.00000
 20
26.00000
 30
 0
 11
814.00000
 21
26.00000
  0
LINE
  8
Bezugspunkte
 62
   1
 39
0.100
  6
CONTINUOUS
 10
813.00000
 20
25.00000
 30
 0
 11
813.00000
 21
27.00000
  0
LINE
  8
Bezugspunkte
 62
   1
 39
0.100
  6
CONTINUOUS
 10
870.00000
 20
26.00000
 30
 0
 11
872.00000
 21
26.00000
  0
LINE
  8
Bezugspunkte
 62
   1
 39
0.100
  6
CONTINUOUS
 10
871.00000
 20
25.00000
 30
 0
 11
871.00000
 21
27.00000
  0
LINE
  8
Bezugspunkte
 62
   1
 39
0.100
  6
CONTINUOUS
 10
895.00000
 20
50.00000
 30
 0
 11
897.00000
 21
50.00000
  0
LINE
  8
Bezugspunkte
 62
   1
 39
0.100
  6
CONTINUOUS
 10
896.00000
 20
49.00000
 30
 0
 11
896.00000
 21
51.00000
  0
LINE
  8
Bezugspunkte
 62
   1
 39
0.100
  6
CONTINUOUS
 10
801.00000
 20
50.00000
 30
 0
 11
803.00000
 21
50.00000
  0
LINE
  8
Bezugspunkte
 62
   1
 39
0.100
  6
CONTINUOUS
 10
802.00000
 20
49.00000
 30
 0
 11
802.00000
 21
51.00000
  0
LINE
  8
Bezugspunkte
 62
   1
 39
0.100
  6
CONTINUOUS
 10
801.00000
 20
120.00000
 30
 0
 11
803.00000
 21
120.00000
  0
LINE
  8
Bezugspunkte
 62
   1
 39
0.100
  6
CONTINUOUS
 10
802.00000
 20
119.00000
 30
 0
 11
802.00000
 21
121.00000
  0
LINE
  8
Bezugspunkte
 62
   1
 39
0.100
  6
CONTINUOUS
 10
895.00000
 20
120.00000
 30
 0
 11
897.00000
 21
120.00000
  0
LINE
  8
Bezugspunkte
 62
   1
 39
0.100
  6
CONTINUOUS
 10
896.00000
 20
119.00000
 30
 0
 11
896.00000
 21
121.00000
  0
LINE
  8
Bezugspunkte
 62
   1
 39
0.100
  6
CONTINUOUS
 10
848.00000
 20
85.00000
 30
 0
 11
850.00000
 21
85.00000
  0
LINE
  8
Bezugspunkte
 62
   1
 39
0.100
  6
CONTINUOUS
 10
849.00000
 20
84.00000
 30
 0
 11
849.00000
 21
86.00000
  0
LINE
  8
Bezugspunkte
 62
   1
 39
0.100
  6
CONTINUOUS
 10
870.00000
 20
63.00000
 30
 0
 11
872.00000
 21
63.00000
  0
LINE
  8
Bezugspunkte
 62
   1
 39
0.100
  6
CONTINUOUS
 10
871.00000
 20
62.00000
 30
 0
 11
871.00000
 21
64.00000
  0
LINE
  8
Bezugspunkte
 62
   1
 39
0.100
  6
CONTINUOUS
 10
859.00000
 20
50.00000
 30
 0
 11
861.00000
 21
50.00000
  0
LINE
  8
Bezugspunkte
 62
   1
 39
0.100
  6
CONTINUOUS
 10
860.00000
 20
49.00000
 30
 0
 11
860.00000
 21
51.00000
  0
LINE
  8
Bezugspunkte
 62
   1
 39
0.100
  6
CONTINUOUS
 10
881.00000
 20
50.00000
 30
 0
 11
883.00000
 21
50.00000
  0
LINE
  8
Bezugspunkte
 62
   1
 39
0.100
  6
CONTINUOUS
 10
882.00000
 20
49.00000
 30
 0
 11
882.00000
 21
51.00000
  0
LINE
  8
Bezugspunkte
 62
   1
 39
0.100
  6
CONTINUOUS
 10
892.00000
 20
85.00000
 30
 0
 11
894.00000
 21
85.00000
  0
LINE
  8
Bezugspunkte
 62
   1
 39
0.100
  6
CONTINUOUS
 10
893.00000
 20
84.00000
 30
 0
 11
893.00000
 21
86.00000
  0
LINE
  8
Bezugspunkte
 62
   1
 39
0.100
  6
CONTINUOUS
 10
848.00000
 20
87.00000
 30
 0
 11
850.00000
 21
87.00000
  0
LINE
  8
Bezugspunkte
 62
   1
 39
0.100
  6
CONTINUOUS
 10
849.00000
 20
86.00000
 30
 0
 11
849.00000
 21
88.00000
  0
LINE
  8
Bezugspunkte
 62
   1
 39
0.100
  6
CONTINUOUS
 10
960.00000
 20
87.00000
 30
 0
 11
962.00000
 21
87.00000
  0
LINE
  8
Bezugspunkte
 62
   1
 39
0.100
  6
CONTINUOUS
 10
961.00000
 20
86.00000
 30
 0
 11
961.00000
 21
88.00000
  0
LINE
  8
Bezugspunkte
 62
   1
 39
0.100
  6
CONTINUOUS
 10
924.00000
 20
26.00000
 30
 0
 11
926.00000
 21
26.00000
  0
LINE
  8
Bezugspunkte
 62
   1
 39
0.100
  6
CONTINUOUS
 10
925.00000
 20
25.00000
 30
 0
 11
925.00000
 21
27.00000
  0
LINE
  8
Bezugspunkte
 62
   1
 39
0.100
  6
CONTINUOUS
 10
982.00000
 20
26.00000
 30
 0
 11
984.00000
 21
26.00000
  0
LINE
  8
Bezugspunkte
 62
   1
 39
0.100
  6
CONTINUOUS
 10
983.00000
 20
25.00000
 30
 0
 11
983.00000
 21
27.00000
  0
LINE
  8
Bezugspunkte
 62
   1
 39
0.100
  6
CONTINUOUS
 10
1007.00000
 20
50.00000
 30
 0
 11
1009.00000
 21
50.00000
  0
LINE
  8
Bezugspunkte
 62
   1
 39
0.100
  6
CONTINUOUS
 10
1008.00000
 20
49.00000
 30
 0
 11
1008.00000
 21
51.00000
  0
LINE
  8
Bezugspunkte
 62
   1
 39
0.100
  6
CONTINUOUS
 10
913.00000
 20
50.00000
 30
 0
 11
915.00000
 21
50.00000
  0
LINE
  8
Bezugspunkte
 62
   1
 39
0.100
  6
CONTINUOUS
 10
914.00000
 20
49.00000
 30
 0
 11
914.00000
 21
51.00000
  0
LINE
  8
Bezugspunkte
 62
   1
 39
0.100
  6
CONTINUOUS
 10
913.00000
 20
120.00000
 30
 0
 11
915.00000
 21
120.00000
  0
LINE
  8
Bezugspunkte
 62
   1
 39
0.100
  6
CONTINUOUS
 10
914.00000
 20
119.00000
 30
 0
 11
914.00000
 21
121.00000
  0
LINE
  8
Bezugspunkte
 62
   1
 39
0.100
  6
CONTINUOUS
 10
1007.00000
 20
120.00000
 30
 0
 11
1009.00000
 21
120.00000
  0
LINE
  8
Bezugspunkte
 62
   1
 39
0.100
  6
CONTINUOUS
 10
1008.00000
 20
119.00000
 30
 0
 11
1008.00000
 21
121.00000
  0
LINE
  8
Bezugspunkte
 62
   1
 39
0.100
  6
CONTINUOUS
 10
960.00000
 20
85.00000
 30
 0
 11
962.00000
 21
85.00000
  0
LINE
  8
Bezugspunkte
 62
   1
 39
0.100
  6
CONTINUOUS
 10
961.00000
 20
84.00000
 30
 0
 11
961.00000
 21
86.00000
  0
LINE
  8
Bezugspunkte
 62
   1
 39
0.100
  6
CONTINUOUS
 10
982.00000
 20
63.00000
 30
 0
 11
984.00000
 21
63.00000
  0
LINE
  8
Bezugspunkte
 62
   1
 39
0.100
  6
CONTINUOUS
 10
983.00000
 20
62.00000
 30
 0
 11
983.00000
 21
64.00000
  0
LINE
  8
Bezugspunkte
 62
   1
 39
0.100
  6
CONTINUOUS
 10
971.00000
 20
50.00000
 30
 0
 11
973.00000
 21
50.00000
  0
LINE
  8
Bezugspunkte
 62
   1
 39
0.100
  6
CONTINUOUS
 10
972.00000
 20
49.00000
 30
 0
 11
972.00000
 21
51.00000
  0
LINE
  8
Bezugspunkte
 62
   1
 39
0.100
  6
CONTINUOUS
 10
993.00000
 20
50.00000
 30
 0
 11
995.00000
 21
50.00000
  0
LINE
  8
Bezugspunkte
 62
   1
 39
0.100
  6
CONTINUOUS
 10
994.00000
 20
49.00000
 30
 0
 11
994.00000
 21
51.00000
  0
LINE
  8
Bezugspunkte
 62
   1
 39
0.100
  6
CONTINUOUS
 10
1004.00000
 20
85.00000
 30
 0
 11
1006.00000
 21
85.00000
  0
LINE
  8
Bezugspunkte
 62
   1
 39
0.100
  6
CONTINUOUS
 10
1005.00000
 20
84.00000
 30
 0
 11
1005.00000
 21
86.00000
  0
LINE
  8
Bezugspunkte
 62
   1
 39
0.100
  6
CONTINUOUS
 10
960.00000
 20
87.00000
 30
 0
 11
962.00000
 21
87.00000
  0
LINE
  8
Bezugspunkte
 62
   1
 39
0.100
  6
CONTINUOUS
 10
961.00000
 20
86.00000
 30
 0
 11
961.00000
 21
88.00000
  0
LINE
  8
Bezugspunkte
 62
   1
 39
0.100
  6
CONTINUOUS
 10
512.50000
 20
87.00000
 30
 0
 11
514.50000
 21
87.00000
  0
LINE
  8
Bezugspunkte
 62
   1
 39
0.100
  6
CONTINUOUS
 10
513.50000
 20
86.00000
 30
 0
 11
513.50000
 21
88.00000
  0
LINE
  8
Bezugspunkte
 62
   1
 39
0.100
  6
CONTINUOUS
 10
474.00000
 20
146.50000
 30
 0
 11
476.00000
 21
146.50000
  0
LINE
  8
Bezugspunkte
 62
   1
 39
0.100
  6
CONTINUOUS
 10
475.00000
 20
145.50000
 30
 0
 11
475.00000
 21
147.50000
  0
LINE
  8
Bezugspunkte
 62
   1
 39
0.100
  6
CONTINUOUS
 10
551.00000
 20
146.50000
 30
 0
 11
553.00000
 21
146.50000
  0
LINE
  8
Bezugspunkte
 62
   1
 39
0.100
  6
CONTINUOUS
 10
552.00000
 20
145.50000
 30
 0
 11
552.00000
 21
147.50000
  0
LINE
  8
Bezugspunkte
 62
   1
 39
0.100
  6
CONTINUOUS
 10
551.00000
 20
27.50000
 30
 0
 11
553.00000
 21
27.50000
  0
LINE
  8
Bezugspunkte
 62
   1
 39
0.100
  6
CONTINUOUS
 10
552.00000
 20
26.50000
 30
 0
 11
552.00000
 21
28.50000
  0
LINE
  8
Bezugspunkte
 62
   1
 39
0.100
  6
CONTINUOUS
 10
474.00000
 20
27.50000
 30
 0
 11
476.00000
 21
27.50000
  0
LINE
  8
Bezugspunkte
 62
   1
 39
0.100
  6
CONTINUOUS
 10
475.00000
 20
26.50000
 30
 0
 11
475.00000
 21
28.50000
  0
LINE
  8
Bezugspunkte
 62
   1
 39
0.100
  6
CONTINUOUS
 10
512.50000
 20
49.50000
 30
 0
 11
514.50000
 21
49.50000
  0
LINE
  8
Bezugspunkte
 62
   1
 39
0.100
  6
CONTINUOUS
 10
513.50000
 20
48.50000
 30
 0
 11
513.50000
 21
50.50000
  0
LINE
  8
Bezugspunkte
 62
   1
 39
0.100
  6
CONTINUOUS
 10
512.50000
 20
113.50000
 30
 0
 11
514.50000
 21
113.50000
  0
LINE
  8
Bezugspunkte
 62
   1
 39
0.100
  6
CONTINUOUS
 10
513.50000
 20
112.50000
 30
 0
 11
513.50000
 21
114.50000
  0
LINE
  8
Bezugspunkte
 62
   1
 39
0.100
  6
CONTINUOUS
 10
512.50000
 20
87.00000
 30
 0
 11
514.50000
 21
87.00000
  0
LINE
  8
Bezugspunkte
 62
   1
 39
0.100
  6
CONTINUOUS
 10
513.50000
 20
86.00000
 30
 0
 11
513.50000
 21
88.00000
  0
LINE
  8
Bezugspunkte
 62
   1
 39
0.100
  6
CONTINUOUS
 10
512.50000
 20
29.50000
 30
 0
 11
514.50000
 21
29.50000
  0
LINE
  8
Bezugspunkte
 62
   1
 39
0.100
  6
CONTINUOUS
 10
513.50000
 20
28.50000
 30
 0
 11
513.50000
 21
30.50000
  0
LINE
  8
Bezugspunkte
 62
   1
 39
0.100
  6
CONTINUOUS
 10
499.00000
 20
43.00000
 30
 0
 11
501.00000
 21
43.00000
  0
LINE
  8
Bezugspunkte
 62
   1
 39
0.100
  6
CONTINUOUS
 10
500.00000
 20
42.00000
 30
 0
 11
500.00000
 21
44.00000
  0
LINE
  8
Bezugspunkte
 62
   1
 39
0.100
  6
CONTINUOUS
 10
526.00000
 20
43.00000
 30
 0
 11
528.00000
 21
43.00000
  0
LINE
  8
Bezugspunkte
 62
   1
 39
0.100
  6
CONTINUOUS
 10
527.00000
 20
42.00000
 30
 0
 11
527.00000
 21
44.00000
  0
LINE
  8
Bezugspunkte
 62
   1
 39
0.100
  6
CONTINUOUS
 10
513.00000
 20
7.00000
 30
 0
 11
515.00000
 21
7.00000
  0
LINE
  8
Bezugspunkte
 62
   1
 39
0.100
  6
CONTINUOUS
 10
514.00000
 20
6.00000
 30
 0
 11
514.00000
 21
8.00000
  0
LINE
  8
Bezugspunkte
 62
   1
 39
0.100
  6
CONTINUOUS
 10
512.50000
 20
24.50000
 30
 0
 11
514.50000
 21
24.50000
  0
LINE
  8
Bezugspunkte
 62
   1
 39
0.100
  6
CONTINUOUS
 10
513.50000
 20
23.50000
 30
 0
 11
513.50000
 21
25.50000
  0
LINE
  8
Bezugspunkte
 62
   1
 39
0.100
  6
CONTINUOUS
 10
996.50000
 20
141.50000
 30
 0
 11
998.50000
 21
141.50000
  0
LINE
  8
Bezugspunkte
 62
   1
 39
0.100
  6
CONTINUOUS
 10
997.50000
 20
140.50000
 30
 0
 11
997.50000
 21
142.50000
  0
LINE
  8
Bezugspunkte
 62
   1
 39
0.100
  6
CONTINUOUS
 10
983.00000
 20
128.00000
 30
 0
 11
985.00000
 21
128.00000
  0
LINE
  8
Bezugspunkte
 62
   1
 39
0.100
  6
CONTINUOUS
 10
984.00000
 20
127.00000
 30
 0
 11
984.00000
 21
129.00000
  0
LINE
  8
Bezugspunkte
 62
   1
 39
0.100
  6
CONTINUOUS
 10
983.00000
 20
155.00000
 30
 0
 11
985.00000
 21
155.00000
  0
LINE
  8
Bezugspunkte
 62
   1
 39
0.100
  6
CONTINUOUS
 10
984.00000
 20
154.00000
 30
 0
 11
984.00000
 21
156.00000
  0
LINE
  8
Bezugspunkte
 62
   1
 39
0.100
  6
CONTINUOUS
 10
1019.00000
 20
142.00000
 30
 0
 11
1021.00000
 21
142.00000
  0
LINE
  8
Bezugspunkte
 62
   1
 39
0.100
  6
CONTINUOUS
 10
1020.00000
 20
141.00000
 30
 0
 11
1020.00000
 21
143.00000
  0
LINE
  8
Bezugspunkte
 62
   1
 39
0.100
  6
CONTINUOUS
 10
1001.50000
 20
141.50000
 30
 0
 11
1003.50000
 21
141.50000
  0
LINE
  8
Bezugspunkte
 62
   1
 39
0.100
  6
CONTINUOUS
 10
1002.50000
 20
140.50000
 30
 0
 11
1002.50000
 21
142.50000
  0
LINE
  8
Bezugspunkte
 62
   1
 39
0.100
  6
CONTINUOUS
 10
434.50000
 20
144.50000
 30
 0
 11
436.50000
 21
144.50000
  0
LINE
  8
Bezugspunkte
 62
   1
 39
0.100
  6
CONTINUOUS
 10
435.50000
 20
143.50000
 30
 0
 11
435.50000
 21
145.50000
  0
LINE
  8
Bezugspunkte
 62
   1
 39
0.100
  6
CONTINUOUS
 10
448.00000
 20
131.00000
 30
 0
 11
450.00000
 21
131.00000
  0
LINE
  8
Bezugspunkte
 62
   1
 39
0.100
  6
CONTINUOUS
 10
449.00000
 20
130.00000
 30
 0
 11
449.00000
 21
132.00000
  0
LINE
  8
Bezugspunkte
 62
   1
 39
0.100
  6
CONTINUOUS
 10
421.00000
 20
131.00000
 30
 0
 11
423.00000
 21
131.00000
  0
LINE
  8
Bezugspunkte
 62
   1
 39
0.100
  6
CONTINUOUS
 10
422.00000
 20
130.00000
 30
 0
 11
422.00000
 21
132.00000
  0
LINE
  8
Bezugspunkte
 62
   1
 39
0.100
  6
CONTINUOUS
 10
434.00000
 20
167.00000
 30
 0
 11
436.00000
 21
167.00000
  0
LINE
  8
Bezugspunkte
 62
   1
 39
0.100
  6
CONTINUOUS
 10
435.00000
 20
166.00000
 30
 0
 11
435.00000
 21
168.00000
  0
LINE
  8
Bezugspunkte
 62
   1
 39
0.100
  6
CONTINUOUS
 10
434.50000
 20
149.50000
 30
 0
 11
436.50000
 21
149.50000
  0
LINE
  8
Bezugspunkte
 62
   1
 39
0.100
  6
CONTINUOUS
 10
435.50000
 20
148.50000
 30
 0
 11
435.50000
 21
150.50000
  0
LINE
  8
Bezugspunkte
 62
   1
 39
0.100
  6
CONTINUOUS
 10
177.00000
 20
152.50000
 30
 0
 11
179.00000
 21
152.50000
  0
LINE
  8
Bezugspunkte
 62
   1
 39
0.100
  6
CONTINUOUS
 10
178.00000
 20
151.50000
 30
 0
 11
178.00000
 21
153.50000
  0
LINE
  8
Bezugspunkte
 62
   1
 39
0.100
  6
CONTINUOUS
 10
177.00000
 20
102.50000
 30
 0
 11
179.00000
 21
102.50000
  0
LINE
  8
Bezugspunkte
 62
   1
 39
0.100
  6
CONTINUOUS
 10
178.00000
 20
101.50000
 30
 0
 11
178.00000
 21
103.50000
  0
LINE
  8
Bezugspunkte
 62
   1
 39
0.100
  6
CONTINUOUS
 10
848.00000
 20
102.50000
 30
 0
 11
850.00000
 21
102.50000
  0
LINE
  8
Bezugspunkte
 62
   1
 39
0.100
  6
CONTINUOUS
 10
849.00000
 20
101.50000
 30
 0
 11
849.00000
 21
103.50000
  0
LINE
  8
Bezugspunkte
 62
   1
 39
0.100
  6
CONTINUOUS
 10
848.00000
 20
152.50000
 30
 0
 11
850.00000
 21
152.50000
  0
LINE
  8
Bezugspunkte
 62
   1
 39
0.100
  6
CONTINUOUS
 10
849.00000
 20
151.50000
 30
 0
 11
849.00000
 21
153.50000
  0
LINE
  8
Bezugspunkte
 62
   1
 39
0.100
  6
CONTINUOUS
 10
177.00000
 20
102.50000
 30
 0
 11
179.00000
 21
102.50000
  0
LINE
  8
Bezugspunkte
 62
   1
 39
0.100
  6
CONTINUOUS
 10
178.00000
 20
101.50000
 30
 0
 11
178.00000
 21
103.50000
  0
LINE
  8
Bezugspunkte
 62
   1
 39
0.100
  6
CONTINUOUS
 10
516.00000
 20
74.00000
 30
 0
 11
518.00000
 21
74.00000
  0
LINE
  8
Bezugspunkte
 62
   1
 39
0.100
  6
CONTINUOUS
 10
517.00000
 20
73.00000
 30
 0
 11
517.00000
 21
75.00000
  0
LINE
  8
Bezugspunkte
 62
   1
 39
0.100
  6
CONTINUOUS
 10
509.00000
 20
74.00000
 30
 0
 11
511.00000
 21
74.00000
  0
LINE
  8
Bezugspunkte
 62
   1
 39
0.100
  6
CONTINUOUS
 10
510.00000
 20
73.00000
 30
 0
 11
510.00000
 21
75.00000
  0
LINE
  8
Bezugspunkte
 62
   1
 39
0.100
  6
CONTINUOUS
 10
512.50000
 20
74.00000
 30
 0
 11
514.50000
 21
74.00000
  0
LINE
  8
Bezugspunkte
 62
   1
 39
0.100
  6
CONTINUOUS
 10
513.50000
 20
73.00000
 30
 0
 11
513.50000
 21
75.00000
  0
LINE
  8
Bezugspunkte
 62
   1
 39
0.100
  6
CONTINUOUS
 10
920.00000
 20
132.50000
 30
 0
 11
922.00000
 21
132.50000
  0
LINE
  8
Bezugspunkte
 62
   1
 39
0.100
  6
CONTINUOUS
 10
921.00000
 20
131.50000
 30
 0
 11
921.00000
 21
133.50000
  0
LINE
  8
Bezugspunkte
 62
   1
 39
0.100
  6
CONTINUOUS
 10
920.00000
 20
150.50000
 30
 0
 11
922.00000
 21
150.50000
  0
LINE
  8
Bezugspunkte
 62
   1
 39
0.100
  6
CONTINUOUS
 10
921.00000
 20
149.50000
 30
 0
 11
921.00000
 21
151.50000
  0
LINE
  8
Bezugspunkte
 62
   1
 39
0.100
  6
CONTINUOUS
 10
920.00000
 20
141.50000
 30
 0
 11
922.00000
 21
141.50000
  0
LINE
  8
Bezugspunkte
 62
   1
 39
0.100
  6
CONTINUOUS
 10
921.00000
 20
140.50000
 30
 0
 11
921.00000
 21
142.50000
  0
LINE
  8
Bezugspunkte
 62
   1
 39
0.100
  6
CONTINUOUS
 10
808.00000
 20
132.50000
 30
 0
 11
810.00000
 21
132.50000
  0
LINE
  8
Bezugspunkte
 62
   1
 39
0.100
  6
CONTINUOUS
 10
809.00000
 20
131.50000
 30
 0
 11
809.00000
 21
133.50000
  0
LINE
  8
Bezugspunkte
 62
   1
 39
0.100
  6
CONTINUOUS
 10
808.00000
 20
150.50000
 30
 0
 11
810.00000
 21
150.50000
  0
LINE
  8
Bezugspunkte
 62
   1
 39
0.100
  6
CONTINUOUS
 10
809.00000
 20
149.50000
 30
 0
 11
809.00000
 21
151.50000
  0
LINE
  8
Bezugspunkte
 62
   1
 39
0.100
  6
CONTINUOUS
 10
808.00000
 20
141.50000
 30
 0
 11
810.00000
 21
141.50000
  0
LINE
  8
Bezugspunkte
 62
   1
 39
0.100
  6
CONTINUOUS
 10
809.00000
 20
140.50000
 30
 0
 11
809.00000
 21
142.50000
  0
LINE
  8
Bezugspunkte
 62
   1
 39
0.100
  6
CONTINUOUS
 10
696.00000
 20
132.50000
 30
 0
 11
698.00000
 21
132.50000
  0
LINE
  8
Bezugspunkte
 62
   1
 39
0.100
  6
CONTINUOUS
 10
697.00000
 20
131.50000
 30
 0
 11
697.00000
 21
133.50000
  0
LINE
  8
Bezugspunkte
 62
   1
 39
0.100
  6
CONTINUOUS
 10
696.00000
 20
150.50000
 30
 0
 11
698.00000
 21
150.50000
  0
LINE
  8
Bezugspunkte
 62
   1
 39
0.100
  6
CONTINUOUS
 10
697.00000
 20
149.50000
 30
 0
 11
697.00000
 21
151.50000
  0
LINE
  8
Bezugspunkte
 62
   1
 39
0.100
  6
CONTINUOUS
 10
696.00000
 20
141.50000
 30
 0
 11
698.00000
 21
141.50000
  0
LINE
  8
Bezugspunkte
 62
   1
 39
0.100
  6
CONTINUOUS
 10
697.00000
 20
140.50000
 30
 0
 11
697.00000
 21
142.50000
  0
LINE
  8
Bezugspunkte
 62
   1
 39
0.100
  6
CONTINUOUS
 10
584.00000
 20
132.50000
 30
 0
 11
586.00000
 21
132.50000
  0
LINE
  8
Bezugspunkte
 62
   1
 39
0.100
  6
CONTINUOUS
 10
585.00000
 20
131.50000
 30
 0
 11
585.00000
 21
133.50000
  0
LINE
  8
Bezugspunkte
 62
   1
 39
0.100
  6
CONTINUOUS
 10
584.00000
 20
150.50000
 30
 0
 11
586.00000
 21
150.50000
  0
LINE
  8
Bezugspunkte
 62
   1
 39
0.100
  6
CONTINUOUS
 10
585.00000
 20
149.50000
 30
 0
 11
585.00000
 21
151.50000
  0
LINE
  8
Bezugspunkte
 62
   1
 39
0.100
  6
CONTINUOUS
 10
584.00000
 20
141.50000
 30
 0
 11
586.00000
 21
141.50000
  0
LINE
  8
Bezugspunkte
 62
   1
 39
0.100
  6
CONTINUOUS
 10
585.00000
 20
140.50000
 30
 0
 11
585.00000
 21
142.50000
  0
LINE
  8
Bezugspunkte
 62
   1
 39
0.100
  6
CONTINUOUS
 10
736.00000
 20
113.50000
 30
 0
 11
738.00000
 21
113.50000
  0
LINE
  8
Bezugspunkte
 62
   1
 39
0.100
  6
CONTINUOUS
 10
737.00000
 20
112.50000
 30
 0
 11
737.00000
 21
114.50000
  0
LINE
  8
Bezugspunkte
 62
   1
 39
0.100
  6
CONTINUOUS
 10
289.00000
 20
113.50000
 30
 0
 11
291.00000
 21
113.50000
  0
LINE
  8
Bezugspunkte
 62
   1
 39
0.100
  6
CONTINUOUS
 10
290.00000
 20
112.50000
 30
 0
 11
290.00000
 21
114.50000
  0
LINE
  8
Bezugspunkte
 62
   1
 39
0.100
  6
CONTINUOUS
 10
512.49900
 20
118.49900
 30
 0
 11
514.49900
 21
118.49900
  0
LINE
  8
Bezugspunkte
 62
   1
 39
0.100
  6
CONTINUOUS
 10
513.49900
 20
117.49900
 30
 0
 11
513.49900
 21
119.49900
  0
LINE
  8
Bezugspunkte
 62
   1
 39
0.100
  6
CONTINUOUS
 10
273.00000
 20
26.00000
 30
 0
 11
275.00000
 21
26.00000
  0
LINE
  8
Bezugspunkte
 62
   1
 39
0.100
  6
CONTINUOUS
 10
274.00000
 20
25.00000
 30
 0
 11
274.00000
 21
27.00000
  0
LINE
  8
Bezugspunkte
 62
   1
 39
0.100
  6
CONTINUOUS
 10
385.00000
 20
26.00000
 30
 0
 11
387.00000
 21
26.00000
  0
LINE
  8
Bezugspunkte
 62
   1
 39
0.100
  6
CONTINUOUS
 10
386.00000
 20
25.00000
 30
 0
 11
386.00000
 21
27.00000
  0
LINE
  8
Bezugspunkte
 62
   1
 39
0.100
  6
CONTINUOUS
 10
608.00000
 20
26.00000
 30
 0
 11
610.00000
 21
26.00000
  0
LINE
  8
Bezugspunkte
 62
   1
 39
0.100
  6
CONTINUOUS
 10
609.00000
 20
25.00000
 30
 0
 11
609.00000
 21
27.00000
  0
LINE
  8
Bezugspunkte
 62
   1
 39
0.100
  6
CONTINUOUS
 10
720.00000
 20
26.00000
 30
 0
 11
722.00000
 21
26.00000
  0
LINE
  8
Bezugspunkte
 62
   1
 39
0.100
  6
CONTINUOUS
 10
721.00000
 20
25.00000
 30
 0
 11
721.00000
 21
27.00000
  0
LINE
  8
Bezugspunkte
 62
   1
 39
0.100
  6
CONTINUOUS
 10
496.50000
 20
26.00000
 30
 0
 11
498.50000
 21
26.00000
  0
LINE
  8
Bezugspunkte
 62
   1
 39
0.100
  6
CONTINUOUS
 10
497.50000
 20
25.00000
 30
 0
 11
497.50000
 21
27.00000
  0
LINE
  8
Bezugspunkte
 62
   1
 39
0.100
  6
CONTINUOUS
 10
273.00000
 20
151.00000
 30
 0
 11
275.00000
 21
151.00000
  0
LINE
  8
Bezugspunkte
 62
   1
 39
0.100
  6
CONTINUOUS
 10
274.00000
 20
150.00000
 30
 0
 11
274.00000
 21
152.00000
  0
LINE
  8
Bezugspunkte
 62
   1
 39
0.100
  6
CONTINUOUS
 10
385.00000
 20
151.00000
 30
 0
 11
387.00000
 21
151.00000
  0
LINE
  8
Bezugspunkte
 62
   1
 39
0.100
  6
CONTINUOUS
 10
386.00000
 20
150.00000
 30
 0
 11
386.00000
 21
152.00000
  0
LINE
  8
Bezugspunkte
 62
   1
 39
0.100
  6
CONTINUOUS
 10
608.00000
 20
151.00000
 30
 0
 11
610.00000
 21
151.00000
  0
LINE
  8
Bezugspunkte
 62
   1
 39
0.100
  6
CONTINUOUS
 10
609.00000
 20
150.00000
 30
 0
 11
609.00000
 21
152.00000
  0
LINE
  8
Bezugspunkte
 62
   1
 39
0.100
  6
CONTINUOUS
 10
720.00000
 20
151.00000
 30
 0
 11
722.00000
 21
151.00000
  0
LINE
  8
Bezugspunkte
 62
   1
 39
0.100
  6
CONTINUOUS
 10
721.00000
 20
150.00000
 30
 0
 11
721.00000
 21
152.00000
  0
LINE
  8
Bezugspunkte
 62
   1
 39
0.100
  6
CONTINUOUS
 10
496.50000
 20
151.00000
 30
 0
 11
498.50000
 21
151.00000
  0
LINE
  8
Bezugspunkte
 62
   1
 39
0.100
  6
CONTINUOUS
 10
497.50000
 20
150.00000
 30
 0
 11
497.50000
 21
152.00000
  0
ENDSEC
  0
EOF
