G75*
G70*
%OFA0B0*%
%FSLAX24Y24*%
%IPPOS*%
%LPD*%
%AMOC8*
5,1,8,0,0,1.08239X$1,22.5*
%
%ADD10C,0.0000*%
%ADD11C,0.0600*%
%ADD12C,0.0100*%
%ADD13C,0.0160*%
%ADD14OC8,0.0356*%
D10*
X000347Y000347D02*
X016095Y000347D01*
X016095Y005071D01*
X000347Y005071D01*
X000347Y000347D01*
D11*
X014811Y001209D02*
X015411Y001209D01*
X015411Y002209D02*
X014811Y002209D01*
X014811Y003209D02*
X015411Y003209D01*
X015411Y004209D02*
X014811Y004209D01*
D12*
X014416Y004090D02*
X008434Y004090D01*
X008438Y004094D02*
X014415Y004094D01*
X014463Y003977D01*
X014578Y003861D01*
X014729Y003799D01*
X015492Y003799D01*
X015643Y003861D01*
X015758Y003977D01*
X015821Y004128D01*
X015821Y004291D01*
X015758Y004441D01*
X015643Y004557D01*
X015492Y004619D01*
X014729Y004619D01*
X014578Y004557D01*
X014496Y004474D01*
X008438Y004474D01*
X008340Y004572D01*
X008102Y004572D01*
X007933Y004403D01*
X007933Y004165D01*
X008102Y003996D01*
X008340Y003996D01*
X008438Y004094D01*
X008007Y004090D02*
X000497Y004090D01*
X000497Y004188D02*
X007933Y004188D01*
X007933Y004287D02*
X000497Y004287D01*
X000497Y004385D02*
X007933Y004385D01*
X008013Y004484D02*
X000497Y004484D01*
X000497Y004582D02*
X014640Y004582D01*
X014506Y004484D02*
X008428Y004484D01*
X008340Y003588D02*
X008102Y003588D01*
X008003Y003490D01*
X003123Y003490D01*
X003025Y003588D01*
X002787Y003588D01*
X002618Y003419D01*
X002618Y003180D01*
X002787Y003011D01*
X003025Y003011D01*
X003123Y003110D01*
X008003Y003110D01*
X008102Y003011D01*
X008340Y003011D01*
X008509Y003180D01*
X008509Y003419D01*
X008340Y003588D01*
X008429Y003499D02*
X014521Y003499D01*
X014578Y003557D02*
X014463Y003441D01*
X014401Y003291D01*
X014401Y003128D01*
X014463Y002977D01*
X014578Y002861D01*
X014729Y002799D01*
X015492Y002799D01*
X015643Y002861D01*
X015758Y002977D01*
X015821Y003128D01*
X015821Y003291D01*
X015758Y003441D01*
X015643Y003557D01*
X015492Y003619D01*
X014729Y003619D01*
X014578Y003557D01*
X014677Y003597D02*
X000497Y003597D01*
X000497Y003499D02*
X002698Y003499D01*
X002618Y003400D02*
X000497Y003400D01*
X000497Y003302D02*
X002618Y003302D01*
X002618Y003203D02*
X000497Y003203D01*
X000497Y003105D02*
X002693Y003105D01*
X003119Y003105D02*
X008008Y003105D01*
X008102Y002997D02*
X007933Y002828D01*
X007933Y002590D01*
X008102Y002421D01*
X008340Y002421D01*
X008438Y002519D01*
X013851Y002519D01*
X014351Y002019D01*
X014446Y002019D01*
X014463Y001977D01*
X014578Y001861D01*
X014729Y001799D01*
X015492Y001799D01*
X015643Y001861D01*
X015758Y001977D01*
X015821Y002128D01*
X015821Y002291D01*
X015758Y002441D01*
X015643Y002557D01*
X015492Y002619D01*
X014729Y002619D01*
X014578Y002557D01*
X014465Y002443D01*
X014008Y002899D01*
X008438Y002899D01*
X008340Y002997D01*
X008102Y002997D01*
X008012Y002908D02*
X000497Y002908D01*
X000497Y003006D02*
X014451Y003006D01*
X014410Y003105D02*
X008434Y003105D01*
X008509Y003203D02*
X014401Y003203D01*
X014405Y003302D02*
X008509Y003302D01*
X008509Y003400D02*
X014446Y003400D01*
X015545Y003597D02*
X015945Y003597D01*
X015945Y003499D02*
X015701Y003499D01*
X015775Y003400D02*
X015945Y003400D01*
X015945Y003302D02*
X015816Y003302D01*
X015821Y003203D02*
X015945Y003203D01*
X015945Y003105D02*
X015811Y003105D01*
X015770Y003006D02*
X015945Y003006D01*
X015945Y002908D02*
X015689Y002908D01*
X015517Y002809D02*
X015945Y002809D01*
X015945Y002711D02*
X014196Y002711D01*
X014098Y002809D02*
X014704Y002809D01*
X014532Y002908D02*
X008430Y002908D01*
X007933Y002809D02*
X000497Y002809D01*
X000497Y002711D02*
X007933Y002711D01*
X007933Y002612D02*
X000497Y002612D01*
X000497Y002514D02*
X008009Y002514D01*
X008433Y002514D02*
X013856Y002514D01*
X013955Y002415D02*
X000497Y002415D01*
X000497Y002317D02*
X014053Y002317D01*
X014152Y002218D02*
X000497Y002218D01*
X000497Y002120D02*
X014250Y002120D01*
X014349Y002021D02*
X000497Y002021D01*
X000497Y001923D02*
X011352Y001923D01*
X011369Y001938D02*
X011290Y001868D01*
X011252Y001910D01*
X011246Y001910D01*
X011242Y001914D01*
X011181Y001914D01*
X011120Y001917D01*
X011116Y001913D01*
X010915Y001911D01*
X010854Y001915D01*
X010850Y001911D01*
X010844Y001911D01*
X010812Y001878D01*
X010792Y001901D01*
X010615Y001911D01*
X010602Y001912D01*
X010592Y001920D01*
X010538Y001915D01*
X010483Y001919D01*
X010473Y001910D01*
X010336Y001898D01*
X010313Y001871D01*
X010286Y001898D01*
X009923Y001898D01*
X009862Y001901D01*
X009858Y001898D01*
X009852Y001898D01*
X009809Y001854D01*
X009763Y001813D01*
X009763Y001808D01*
X009759Y001804D01*
X009759Y001742D01*
X009755Y001681D01*
X009759Y001677D01*
X009759Y001671D01*
X009803Y001628D01*
X010158Y001229D01*
X010081Y001230D01*
X009987Y001137D01*
X009985Y001005D01*
X010078Y000910D01*
X010451Y000906D01*
X010513Y000906D01*
X010575Y000902D01*
X010578Y000905D01*
X010582Y000905D01*
X010583Y000906D01*
X012054Y000905D01*
X012115Y000902D01*
X012119Y000905D01*
X012124Y000905D01*
X012168Y000949D01*
X012214Y000990D01*
X012214Y000995D01*
X012218Y000999D01*
X012218Y001061D01*
X012222Y001122D01*
X012218Y001126D01*
X012218Y001132D01*
X012175Y001175D01*
X011996Y001375D01*
X012103Y001376D01*
X012315Y001138D01*
X012447Y001131D01*
X012546Y001219D01*
X012554Y001351D01*
X012500Y001411D01*
X012613Y001404D01*
X012813Y001180D01*
X012945Y001173D01*
X013044Y001261D01*
X013052Y001393D01*
X012764Y001716D01*
X012649Y001845D01*
X012649Y001851D01*
X012605Y001894D01*
X012565Y001940D01*
X012559Y001940D01*
X012555Y001944D01*
X012494Y001944D01*
X012432Y001948D01*
X012428Y001944D01*
X012131Y001944D01*
X012075Y001888D01*
X012074Y001890D01*
X012033Y001935D01*
X012027Y001936D01*
X012022Y001940D01*
X011962Y001940D01*
X011901Y001943D01*
X011896Y001939D01*
X011696Y001937D01*
X011635Y001941D01*
X011630Y001937D01*
X011624Y001937D01*
X011582Y001893D01*
X011556Y001870D01*
X011502Y001931D01*
X011369Y001938D01*
X011508Y001923D02*
X011611Y001923D01*
X011692Y001777D02*
X011958Y001779D01*
X012174Y001537D01*
X011908Y001534D01*
X011692Y001777D01*
X011426Y001775D02*
X012058Y001065D01*
X010518Y001066D01*
X010146Y001069D01*
X009986Y001036D02*
X008509Y001036D01*
X008509Y001015D02*
X008340Y000846D01*
X008102Y000846D01*
X008003Y000944D01*
X005289Y000944D01*
X005191Y000846D01*
X004952Y000846D01*
X004783Y001015D01*
X004783Y001254D01*
X004952Y001422D01*
X005191Y001422D01*
X005289Y001324D01*
X008003Y001324D01*
X008102Y001422D01*
X008340Y001422D01*
X008509Y001254D01*
X008509Y001015D01*
X008432Y000938D02*
X010051Y000938D01*
X010451Y000906D02*
X010451Y000906D01*
X010518Y001066D02*
X009919Y001738D01*
X010220Y001738D01*
X010415Y001744D02*
X010540Y001755D01*
X010972Y001270D01*
X011273Y001270D02*
X011609Y001268D01*
X011393Y001511D01*
X011128Y001509D01*
X010911Y001751D01*
X011177Y001754D01*
X011393Y001511D01*
X012035Y001332D02*
X012142Y001332D01*
X012123Y001233D02*
X012230Y001233D01*
X012390Y001294D02*
X012174Y001537D01*
X012406Y001577D02*
X012689Y001560D01*
X012888Y001336D01*
X013048Y001332D02*
X014377Y001332D01*
X014372Y001314D02*
X014363Y001259D01*
X015061Y001259D01*
X015061Y001659D01*
X014775Y001659D01*
X014705Y001648D01*
X014638Y001626D01*
X014575Y001594D01*
X014517Y001552D01*
X014467Y001502D01*
X014426Y001445D01*
X014394Y001382D01*
X014372Y001314D01*
X014418Y001430D02*
X013019Y001430D01*
X012931Y001529D02*
X014494Y001529D01*
X014642Y001627D02*
X012843Y001627D01*
X012764Y001716D02*
X012764Y001716D01*
X012755Y001726D02*
X015945Y001726D01*
X015945Y001627D02*
X015579Y001627D01*
X015583Y001626D02*
X015516Y001648D01*
X015446Y001659D01*
X015161Y001659D01*
X015161Y001259D01*
X015858Y001259D01*
X015850Y001314D01*
X015828Y001382D01*
X015796Y001445D01*
X015754Y001502D01*
X015704Y001552D01*
X015646Y001594D01*
X015583Y001626D01*
X015727Y001529D02*
X015945Y001529D01*
X015945Y001430D02*
X015803Y001430D01*
X015844Y001332D02*
X015945Y001332D01*
X015945Y001233D02*
X015161Y001233D01*
X015161Y001259D02*
X015161Y001159D01*
X015858Y001159D01*
X015850Y001104D01*
X015828Y001036D01*
X015796Y000973D01*
X015754Y000916D01*
X015704Y000866D01*
X015646Y000824D01*
X015583Y000792D01*
X015516Y000770D01*
X015446Y000759D01*
X015161Y000759D01*
X015161Y001159D01*
X015061Y001159D01*
X015061Y000759D01*
X014775Y000759D01*
X014705Y000770D01*
X014638Y000792D01*
X014575Y000824D01*
X014517Y000866D01*
X014467Y000916D01*
X014426Y000973D01*
X014394Y001036D01*
X014372Y001104D01*
X014363Y001159D01*
X015061Y001159D01*
X015061Y001259D01*
X015161Y001259D01*
X015161Y001332D02*
X015061Y001332D01*
X015061Y001430D02*
X015161Y001430D01*
X015161Y001529D02*
X015061Y001529D01*
X015061Y001627D02*
X015161Y001627D01*
X015553Y001824D02*
X015945Y001824D01*
X015945Y001923D02*
X015704Y001923D01*
X015777Y002021D02*
X015945Y002021D01*
X015945Y002120D02*
X015817Y002120D01*
X015821Y002218D02*
X015945Y002218D01*
X015945Y002317D02*
X015810Y002317D01*
X015769Y002415D02*
X015945Y002415D01*
X015945Y002514D02*
X015686Y002514D01*
X015508Y002612D02*
X015945Y002612D01*
X014713Y002612D02*
X014295Y002612D01*
X014393Y002514D02*
X014536Y002514D01*
X014517Y001923D02*
X012580Y001923D01*
X012668Y001824D02*
X014668Y001824D01*
X015061Y001233D02*
X013013Y001233D01*
X012766Y001233D02*
X012547Y001233D01*
X012552Y001332D02*
X012678Y001332D01*
X012689Y001560D02*
X012489Y001784D01*
X012197Y001784D01*
X012110Y001923D02*
X012044Y001923D01*
X010716Y001745D02*
X010540Y001755D01*
X010615Y001911D02*
X010615Y001911D01*
X009776Y001824D02*
X000497Y001824D01*
X000497Y001726D02*
X009758Y001726D01*
X009803Y001627D02*
X000497Y001627D01*
X000497Y001529D02*
X009891Y001529D01*
X009978Y001430D02*
X000497Y001430D01*
X000497Y001332D02*
X004861Y001332D01*
X004783Y001233D02*
X000497Y001233D01*
X000497Y001135D02*
X004783Y001135D01*
X004783Y001036D02*
X000497Y001036D01*
X000497Y000938D02*
X004860Y000938D01*
X005282Y000938D02*
X008010Y000938D01*
X008509Y001135D02*
X009987Y001135D01*
X010154Y001233D02*
X008509Y001233D01*
X008431Y001332D02*
X010066Y001332D01*
X012157Y000938D02*
X014451Y000938D01*
X014394Y001036D02*
X012218Y001036D01*
X012215Y001135D02*
X012374Y001135D01*
X012452Y001135D02*
X014367Y001135D01*
X015061Y001135D02*
X015161Y001135D01*
X015161Y001036D02*
X015061Y001036D01*
X015061Y000938D02*
X015161Y000938D01*
X015161Y000839D02*
X015061Y000839D01*
X014554Y000839D02*
X000497Y000839D01*
X000497Y000741D02*
X015945Y000741D01*
X015945Y000839D02*
X015667Y000839D01*
X015770Y000938D02*
X015945Y000938D01*
X015945Y001036D02*
X015828Y001036D01*
X015854Y001135D02*
X015945Y001135D01*
X015945Y000642D02*
X000497Y000642D01*
X000497Y000544D02*
X015945Y000544D01*
X015945Y000497D02*
X000497Y000497D01*
X000497Y004921D01*
X015945Y004921D01*
X015945Y000497D01*
X008011Y001332D02*
X005281Y001332D01*
X003114Y003499D02*
X008013Y003499D01*
X014457Y003991D02*
X000497Y003991D01*
X000497Y003893D02*
X014547Y003893D01*
X015674Y003893D02*
X015945Y003893D01*
X015945Y003794D02*
X000497Y003794D01*
X000497Y003696D02*
X015945Y003696D01*
X015945Y003991D02*
X015764Y003991D01*
X015805Y004090D02*
X015945Y004090D01*
X015945Y004188D02*
X015821Y004188D01*
X015821Y004287D02*
X015945Y004287D01*
X015945Y004385D02*
X015781Y004385D01*
X015716Y004484D02*
X015945Y004484D01*
X015945Y004582D02*
X015581Y004582D01*
X015945Y004681D02*
X000497Y004681D01*
X000497Y004779D02*
X015945Y004779D01*
X015945Y004878D02*
X000497Y004878D01*
D13*
X002906Y003300D02*
X008221Y003300D01*
X008221Y002709D02*
X013930Y002709D01*
X014430Y002209D01*
X015111Y002209D01*
X015111Y001209D02*
X014445Y000544D01*
X001430Y000544D01*
X000937Y001036D01*
X000937Y002709D01*
X005071Y001134D02*
X008221Y001134D01*
X015036Y004284D02*
X015111Y004209D01*
X015036Y004284D02*
X008221Y004284D01*
D14*
X008221Y004284D03*
X008221Y003300D03*
X008221Y002709D03*
X008221Y001134D03*
X005071Y001134D03*
X000937Y002709D03*
X002906Y003300D03*
M02*
