#define boot_width 124
#define boot_height 60
static unsigned char boot_bits[] = {
   0x00, 0x00, 0x00, 0x00, 0x00, 0x00, 0x00, 0x00, 0x00, 0x00, 0x00, 0x00,
   0x00, 0x00, 0x00, 0x00, 0x00, 0x00, 0x00, 0x00, 0x00, 0x00, 0x00, 0x00,
   0x00, 0x00, 0x00, 0x00, 0x00, 0x00, 0x00, 0x00, 0x00, 0x00, 0x00, 0x00,
   0x00, 0x00, 0x70, 0x00, 0x0e, 0x00, 0x00, 0x00, 0x00, 0xe0, 0x38, 0x00,
   0xc0, 0x3f, 0x00, 0x00, 0x00, 0x00, 0x70, 0x00, 0x0e, 0x00, 0xf8, 0x07,
   0x00, 0xe0, 0x38, 0x00, 0xc0, 0x7f, 0x00, 0x00, 0x00, 0x00, 0x70, 0x00,
   0x0e, 0x00, 0xf8, 0x0f, 0x00, 0xe0, 0x38, 0x00, 0xc0, 0xf1, 0x00, 0x00,
   0x00, 0x00, 0x70, 0x00, 0x0e, 0x00, 0x38, 0x1e, 0x00, 0x00, 0x38, 0x00,
   0xc0, 0xf1, 0x78, 0x1c, 0xee, 0x79, 0x70, 0x0f, 0x0e, 0x3f, 0x38, 0x1e,
   0xfe, 0xe0, 0x38, 0x00, 0xc0, 0xf1, 0x78, 0x1c, 0xfe, 0xfd, 0xf0, 0x1f,
   0x8e, 0x7f, 0x38, 0x1e, 0xfe, 0xe1, 0x38, 0x00, 0xc0, 0x71, 0x78, 0x1c,
   0xde, 0xe7, 0xf0, 0x3c, 0xce, 0xe3, 0x38, 0x0e, 0xc0, 0xe1, 0x38, 0x00,
   0xc0, 0x3f, 0x78, 0x1c, 0x8e, 0xe3, 0x70, 0x38, 0xce, 0xe1, 0xf8, 0x07,
   0x80, 0xe3, 0x38, 0x00, 0xc0, 0x3f, 0x78, 0x1c, 0x8e, 0xe3, 0x70, 0x38,
   0xce, 0xff, 0xf8, 0x07, 0xfe, 0xe3, 0x38, 0x00, 0xc0, 0x79, 0x78, 0x1c,
   0x8e, 0xe3, 0x70, 0x38, 0xce, 0xff, 0x38, 0x0f, 0xff, 0xe3, 0x38, 0x00,
   0xc0, 0xf1, 0x78, 0x1c, 0x8e, 0xe3, 0x70, 0x38, 0xce, 0x01, 0x38, 0x1e,
   0x87, 0xe3, 0x38, 0x00, 0xc0, 0xe1, 0x70, 0x1e, 0x8e, 0xe3, 0x70, 0x3c,
   0xce, 0x83, 0x38, 0x1c, 0xc7, 0xe3, 0x38, 0x00, 0xc0, 0xe1, 0xf1, 0x1f,
   0x8e, 0xe3, 0xf0, 0x1f, 0x8e, 0xff, 0x38, 0x3c, 0xff, 0xe3, 0x38, 0x00,
   0xc0, 0xc1, 0xe1, 0x1d, 0x8e, 0xe3, 0x70, 0x0f, 0x0e, 0xff, 0x38, 0x38,
   0xbe, 0xe3, 0x38, 0x00, 0x00, 0x00, 0x00, 0x00, 0x00, 0x00, 0x00, 0x00,
   0x00, 0x00, 0x00, 0x00, 0x00, 0x00, 0x00, 0x00, 0x00, 0x00, 0x00, 0x00,
   0x00, 0x00, 0x00, 0x00, 0x00, 0x00, 0x00, 0x00, 0x00, 0x00, 0x00, 0x00,
   0x00, 0x00, 0x00, 0x00, 0x00, 0xf8, 0xff, 0xff, 0xff, 0xff, 0x07, 0x00,
   0x00, 0x00, 0x00, 0x00, 0x00, 0x00, 0x00, 0x00, 0x00, 0x08, 0x02, 0x00,
   0x00, 0x10, 0x04, 0x00, 0x00, 0x00, 0x00, 0x00, 0x00, 0x00, 0x00, 0x00,
   0x00, 0x08, 0x02, 0x00, 0x00, 0x10, 0x04, 0x00, 0x00, 0x00, 0x00, 0x00,
   0x00, 0x00, 0x00, 0x00, 0x00, 0x08, 0x02, 0x00, 0x0c, 0x10, 0x04, 0x00,
   0x00, 0x00, 0x00, 0x00, 0x00, 0x00, 0x00, 0x00, 0x00, 0x08, 0x02, 0x00,
   0x0f, 0x10, 0x04, 0x00, 0x00, 0x00, 0x00, 0x00, 0x00, 0x00, 0x00, 0x00,
   0x00, 0x08, 0x02, 0xe0, 0x0f, 0x10, 0x04, 0x00, 0x00, 0x00, 0x00, 0x00,
   0x00, 0x00, 0x00, 0x00, 0x00, 0x08, 0x02, 0xf0, 0x0f, 0x10, 0x04, 0x00,
   0x00, 0x00, 0x00, 0x00, 0x00, 0x00, 0x00, 0x00, 0x00, 0x08, 0x02, 0x70,
   0x08, 0x10, 0x04, 0x00, 0x00, 0x00, 0x00, 0x00, 0x00, 0x00, 0x00, 0x00,
   0x00, 0x08, 0x02, 0x10, 0x08, 0x10, 0x04, 0x00, 0x00, 0x00, 0x00, 0x00,
   0x00, 0x00, 0x00, 0x00, 0x00, 0x08, 0x02, 0x10, 0x08, 0x10, 0x04, 0x00,
   0x00, 0x00, 0x00, 0x00, 0x00, 0x00, 0x00, 0x00, 0x00, 0x08, 0x02, 0x10,
   0x08, 0x10, 0x04, 0x00, 0x00, 0x00, 0x00, 0x00, 0x00, 0x00, 0x00, 0x00,
   0x00, 0x08, 0x02, 0x10, 0x0e, 0x10, 0x04, 0x00, 0x00, 0x00, 0x00, 0x00,
   0x00, 0x00, 0x00, 0x00, 0x00, 0x08, 0x02, 0x90, 0x0f, 0x10, 0x04, 0x00,
   0x00, 0x00, 0x00, 0x00, 0x00, 0x00, 0x00, 0x00, 0x00, 0x08, 0x02, 0x90,
   0x0f, 0x10, 0x04, 0x00, 0x00, 0x00, 0x00, 0x00, 0x00, 0x00, 0x00, 0x00,
   0x00, 0x08, 0x02, 0x9e, 0x0f, 0x10, 0x04, 0x00, 0x00, 0x00, 0x00, 0x00,
   0x00, 0x00, 0x00, 0x00, 0x00, 0x08, 0x02, 0x1f, 0x07, 0x10, 0x04, 0x00,
   0x00, 0x00, 0x00, 0x00, 0x00, 0x00, 0x00, 0x00, 0x00, 0x08, 0x02, 0x1f,
   0x00, 0x10, 0x04, 0x00, 0x00, 0x00, 0x00, 0x00, 0x00, 0x00, 0x00, 0x00,
   0x00, 0x08, 0x02, 0x0f, 0x00, 0x10, 0x04, 0x00, 0x00, 0x00, 0x00, 0x00,
   0x00, 0x00, 0x00, 0x00, 0x00, 0x08, 0x02, 0x06, 0x00, 0x10, 0x04, 0x00,
   0x00, 0x00, 0x00, 0x00, 0x00, 0x00, 0x00, 0x00, 0x00, 0x08, 0x02, 0x00,
   0x00, 0x10, 0x04, 0x00, 0x00, 0x00, 0x00, 0x00, 0x00, 0x00, 0x00, 0x00,
   0x00, 0x08, 0xfe, 0xff, 0xff, 0x1f, 0x04, 0x00, 0x00, 0x00, 0x00, 0x00,
   0x00, 0x00, 0x00, 0x00, 0x00, 0x08, 0x00, 0x00, 0x00, 0x00, 0x04, 0x00,
   0x00, 0x00, 0x00, 0x00, 0x00, 0x00, 0x00, 0x00, 0x00, 0x08, 0x00, 0x00,
   0x00, 0x00, 0x04, 0x00, 0x00, 0x00, 0x00, 0x00, 0x00, 0x00, 0x00, 0x00,
   0x00, 0x08, 0x00, 0x00, 0x00, 0x00, 0x04, 0x00, 0x00, 0x00, 0x00, 0x00,
   0x00, 0x00, 0x00, 0x00, 0x00, 0x08, 0x00, 0x00, 0x00, 0x00, 0x04, 0x00,
   0x00, 0x00, 0x00, 0x00, 0x00, 0x00, 0x00, 0x00, 0x00, 0x08, 0x00, 0x00,
   0x00, 0x00, 0x04, 0x00, 0x00, 0x00, 0x00, 0x00, 0x00, 0x00, 0x00, 0x00,
   0x00, 0x08, 0x00, 0x00, 0x00, 0x00, 0x04, 0x00, 0x00, 0x00, 0x00, 0x00,
   0x00, 0x00, 0x00, 0x00, 0x00, 0x08, 0x00, 0x00, 0x00, 0x00, 0x04, 0x00,
   0x00, 0x00, 0x00, 0x00, 0x00, 0x00, 0x00, 0x00, 0x00, 0x08, 0xe0, 0xff,
   0xff, 0x00, 0x04, 0x00, 0x00, 0x00, 0x00, 0x00, 0x00, 0x00, 0x00, 0x00,
   0x00, 0x08, 0x20, 0x00, 0x84, 0x00, 0x04, 0x00, 0x00, 0x00, 0x00, 0x00,
   0x00, 0x00, 0x00, 0x00, 0x00, 0x08, 0xa0, 0x07, 0x84, 0x00, 0x04, 0x00,
   0x00, 0x00, 0x00, 0x00, 0x00, 0x00, 0x00, 0x00, 0x00, 0x08, 0xa0, 0x07,
   0x84, 0x00, 0x04, 0x00, 0x00, 0x00, 0x00, 0x00, 0x00, 0x00, 0x00, 0x00,
   0x00, 0x08, 0xa0, 0x07, 0x84, 0x00, 0x04, 0x00, 0x00, 0x0c, 0x06, 0x00,
   0x00, 0x00, 0x00, 0x00, 0x00, 0x08, 0xa0, 0x07, 0x84, 0x00, 0x04, 0x00,
   0x00, 0x0c, 0x06, 0x00, 0x00, 0x00, 0x00, 0x00, 0x00, 0x08, 0xa0, 0x07,
   0x84, 0x00, 0x04, 0x00, 0x00, 0x0c, 0x00, 0x00, 0x00, 0x00, 0x00, 0x00,
   0x00, 0x08, 0xa0, 0x07, 0x84, 0x00, 0x04, 0x00, 0x00, 0x6c, 0x36, 0x01,
   0x00, 0x00, 0x00, 0x00, 0x00, 0x08, 0xa0, 0x07, 0x84, 0x00, 0x04, 0x00,
   0x00, 0x3c, 0x36, 0x01, 0x00, 0x00, 0x00, 0x00, 0x00, 0x08, 0x20, 0x00,
   0x84, 0x00, 0x04, 0x00, 0x00, 0x1c, 0x36, 0x01, 0x00, 0x00, 0x00, 0x00,
   0x00, 0x08, 0x20, 0x00, 0x84, 0x00, 0x04, 0x00, 0x00, 0x3c, 0xb6, 0x01,
   0x00, 0x00, 0x00, 0x00, 0x00, 0xf8, 0xff, 0xff, 0xff, 0xff, 0x07, 0x00,
   0x00, 0x6c, 0x76, 0x01, 0x00, 0x00, 0x00, 0x00, 0x00, 0x00, 0x00, 0x00,
   0x00, 0x00, 0x00, 0x00, 0x00, 0x00, 0x00, 0x00, 0x00, 0x00, 0x00, 0x00,
   0x00, 0x00, 0x00, 0x00, 0x00, 0x00, 0x00, 0x00, 0x00, 0x00, 0x00, 0x00 };
