G75*
G70*
%OFA0B0*%
%FSLAX24Y24*%
%IPPOS*%
%LPD*%
%AMOC8*
5,1,8,0,0,1.08239X$1,22.5*
%
%ADD10C,0.0000*%
D10*
X000377Y000377D02*
X020062Y000377D01*
X020062Y020062D01*
X000377Y020062D01*
X000377Y000377D01*
X005259Y005101D02*
X005261Y005151D01*
X005267Y005201D01*
X005277Y005250D01*
X005291Y005298D01*
X005308Y005345D01*
X005329Y005390D01*
X005354Y005434D01*
X005382Y005475D01*
X005414Y005514D01*
X005448Y005551D01*
X005485Y005585D01*
X005525Y005615D01*
X005567Y005642D01*
X005611Y005666D01*
X005657Y005687D01*
X005704Y005703D01*
X005752Y005716D01*
X005802Y005725D01*
X005851Y005730D01*
X005902Y005731D01*
X005952Y005728D01*
X006001Y005721D01*
X006050Y005710D01*
X006098Y005695D01*
X006144Y005677D01*
X006189Y005655D01*
X006232Y005629D01*
X006273Y005600D01*
X006312Y005568D01*
X006348Y005533D01*
X006380Y005495D01*
X006410Y005455D01*
X006437Y005412D01*
X006460Y005368D01*
X006479Y005322D01*
X006495Y005274D01*
X006507Y005225D01*
X006515Y005176D01*
X006519Y005126D01*
X006519Y005076D01*
X006515Y005026D01*
X006507Y004977D01*
X006495Y004928D01*
X006479Y004880D01*
X006460Y004834D01*
X006437Y004790D01*
X006410Y004747D01*
X006380Y004707D01*
X006348Y004669D01*
X006312Y004634D01*
X006273Y004602D01*
X006232Y004573D01*
X006189Y004547D01*
X006144Y004525D01*
X006098Y004507D01*
X006050Y004492D01*
X006001Y004481D01*
X005952Y004474D01*
X005902Y004471D01*
X005851Y004472D01*
X005802Y004477D01*
X005752Y004486D01*
X005704Y004499D01*
X005657Y004515D01*
X005611Y004536D01*
X005567Y004560D01*
X005525Y004587D01*
X005485Y004617D01*
X005448Y004651D01*
X005414Y004688D01*
X005382Y004727D01*
X005354Y004768D01*
X005329Y004812D01*
X005308Y004857D01*
X005291Y004904D01*
X005277Y004952D01*
X005267Y005001D01*
X005261Y005051D01*
X005259Y005101D01*
X013920Y005101D02*
X013922Y005151D01*
X013928Y005201D01*
X013938Y005250D01*
X013952Y005298D01*
X013969Y005345D01*
X013990Y005390D01*
X014015Y005434D01*
X014043Y005475D01*
X014075Y005514D01*
X014109Y005551D01*
X014146Y005585D01*
X014186Y005615D01*
X014228Y005642D01*
X014272Y005666D01*
X014318Y005687D01*
X014365Y005703D01*
X014413Y005716D01*
X014463Y005725D01*
X014512Y005730D01*
X014563Y005731D01*
X014613Y005728D01*
X014662Y005721D01*
X014711Y005710D01*
X014759Y005695D01*
X014805Y005677D01*
X014850Y005655D01*
X014893Y005629D01*
X014934Y005600D01*
X014973Y005568D01*
X015009Y005533D01*
X015041Y005495D01*
X015071Y005455D01*
X015098Y005412D01*
X015121Y005368D01*
X015140Y005322D01*
X015156Y005274D01*
X015168Y005225D01*
X015176Y005176D01*
X015180Y005126D01*
X015180Y005076D01*
X015176Y005026D01*
X015168Y004977D01*
X015156Y004928D01*
X015140Y004880D01*
X015121Y004834D01*
X015098Y004790D01*
X015071Y004747D01*
X015041Y004707D01*
X015009Y004669D01*
X014973Y004634D01*
X014934Y004602D01*
X014893Y004573D01*
X014850Y004547D01*
X014805Y004525D01*
X014759Y004507D01*
X014711Y004492D01*
X014662Y004481D01*
X014613Y004474D01*
X014563Y004471D01*
X014512Y004472D01*
X014463Y004477D01*
X014413Y004486D01*
X014365Y004499D01*
X014318Y004515D01*
X014272Y004536D01*
X014228Y004560D01*
X014186Y004587D01*
X014146Y004617D01*
X014109Y004651D01*
X014075Y004688D01*
X014043Y004727D01*
X014015Y004768D01*
X013990Y004812D01*
X013969Y004857D01*
X013952Y004904D01*
X013938Y004952D01*
X013928Y005001D01*
X013922Y005051D01*
X013920Y005101D01*
X018251Y018881D02*
X018253Y018931D01*
X018259Y018981D01*
X018269Y019030D01*
X018283Y019078D01*
X018300Y019125D01*
X018321Y019170D01*
X018346Y019214D01*
X018374Y019255D01*
X018406Y019294D01*
X018440Y019331D01*
X018477Y019365D01*
X018517Y019395D01*
X018559Y019422D01*
X018603Y019446D01*
X018649Y019467D01*
X018696Y019483D01*
X018744Y019496D01*
X018794Y019505D01*
X018843Y019510D01*
X018894Y019511D01*
X018944Y019508D01*
X018993Y019501D01*
X019042Y019490D01*
X019090Y019475D01*
X019136Y019457D01*
X019181Y019435D01*
X019224Y019409D01*
X019265Y019380D01*
X019304Y019348D01*
X019340Y019313D01*
X019372Y019275D01*
X019402Y019235D01*
X019429Y019192D01*
X019452Y019148D01*
X019471Y019102D01*
X019487Y019054D01*
X019499Y019005D01*
X019507Y018956D01*
X019511Y018906D01*
X019511Y018856D01*
X019507Y018806D01*
X019499Y018757D01*
X019487Y018708D01*
X019471Y018660D01*
X019452Y018614D01*
X019429Y018570D01*
X019402Y018527D01*
X019372Y018487D01*
X019340Y018449D01*
X019304Y018414D01*
X019265Y018382D01*
X019224Y018353D01*
X019181Y018327D01*
X019136Y018305D01*
X019090Y018287D01*
X019042Y018272D01*
X018993Y018261D01*
X018944Y018254D01*
X018894Y018251D01*
X018843Y018252D01*
X018794Y018257D01*
X018744Y018266D01*
X018696Y018279D01*
X018649Y018295D01*
X018603Y018316D01*
X018559Y018340D01*
X018517Y018367D01*
X018477Y018397D01*
X018440Y018431D01*
X018406Y018468D01*
X018374Y018507D01*
X018346Y018548D01*
X018321Y018592D01*
X018300Y018637D01*
X018283Y018684D01*
X018269Y018732D01*
X018259Y018781D01*
X018253Y018831D01*
X018251Y018881D01*
X000928Y018881D02*
X000930Y018931D01*
X000936Y018981D01*
X000946Y019030D01*
X000960Y019078D01*
X000977Y019125D01*
X000998Y019170D01*
X001023Y019214D01*
X001051Y019255D01*
X001083Y019294D01*
X001117Y019331D01*
X001154Y019365D01*
X001194Y019395D01*
X001236Y019422D01*
X001280Y019446D01*
X001326Y019467D01*
X001373Y019483D01*
X001421Y019496D01*
X001471Y019505D01*
X001520Y019510D01*
X001571Y019511D01*
X001621Y019508D01*
X001670Y019501D01*
X001719Y019490D01*
X001767Y019475D01*
X001813Y019457D01*
X001858Y019435D01*
X001901Y019409D01*
X001942Y019380D01*
X001981Y019348D01*
X002017Y019313D01*
X002049Y019275D01*
X002079Y019235D01*
X002106Y019192D01*
X002129Y019148D01*
X002148Y019102D01*
X002164Y019054D01*
X002176Y019005D01*
X002184Y018956D01*
X002188Y018906D01*
X002188Y018856D01*
X002184Y018806D01*
X002176Y018757D01*
X002164Y018708D01*
X002148Y018660D01*
X002129Y018614D01*
X002106Y018570D01*
X002079Y018527D01*
X002049Y018487D01*
X002017Y018449D01*
X001981Y018414D01*
X001942Y018382D01*
X001901Y018353D01*
X001858Y018327D01*
X001813Y018305D01*
X001767Y018287D01*
X001719Y018272D01*
X001670Y018261D01*
X001621Y018254D01*
X001571Y018251D01*
X001520Y018252D01*
X001471Y018257D01*
X001421Y018266D01*
X001373Y018279D01*
X001326Y018295D01*
X001280Y018316D01*
X001236Y018340D01*
X001194Y018367D01*
X001154Y018397D01*
X001117Y018431D01*
X001083Y018468D01*
X001051Y018507D01*
X001023Y018548D01*
X000998Y018592D01*
X000977Y018637D01*
X000960Y018684D01*
X000946Y018732D01*
X000936Y018781D01*
X000930Y018831D01*
X000928Y018881D01*
M02*
