%
M48
M72
T01C0.0320
T02C0.0400
T03C0.0512
T04C0.1260
%
T01
X5719Y16200
X6719Y16200
X7719Y16200
X8719Y16200
X9719Y16200
X10719Y16200
X11719Y16200
X12719Y16200
X13719Y16200
X14719Y16200
X14719Y19200
X13719Y19200
X12719Y19200
X11719Y19200
X10719Y19200
X9719Y19200
X8719Y19200
X7719Y19200
X6719Y19200
X5719Y19200
T02
X2219Y1649
X2219Y2649
X3219Y2649
X3219Y1649
X4219Y1649
X4219Y2649
X5219Y2649
X5219Y1649
X6219Y1649
X6219Y2649
X7219Y2649
X7219Y1649
X8219Y1649
X8219Y2649
X9219Y2649
X9219Y1649
X10219Y1649
X10219Y2649
X11219Y2649
X11219Y1649
X12219Y1649
X12219Y2649
X13219Y2649
X13219Y1649
X14219Y1649
X14219Y2649
X15219Y2649
X15219Y1649
X16219Y1649
X16219Y2649
X17219Y2649
X17219Y1649
X18219Y1649
X18219Y2649
X11219Y6176
X10219Y6176
X9219Y6176
X9219Y7176
X10219Y7176
X11219Y7176
X5526Y7660
X4526Y7660
X3526Y7660
X2526Y7660
X1526Y7660
X2239Y11172
X3239Y11172
X3239Y12172
X2239Y12172
X2239Y13172
X3239Y13172
X3239Y14172
X2239Y14172
X2239Y15172
X3239Y15172
X17200Y15172
X18200Y15172
X18200Y14172
X18200Y13172
X18200Y12172
X18200Y11172
X17200Y11172
X17200Y12172
X17200Y13172
X17200Y14172
T03
X17690Y7668
X17690Y5668
T04
X14550Y5101
X5889Y5101
X1558Y18881
X18881Y18881
M30
