G75*
G70*
%OFA0B0*%
%FSLAX24Y24*%
%IPPOS*%
%LPD*%
%AMOC8*
5,1,8,0,0,1.08239X$1,22.5*
%
%ADD10C,0.0000*%
%ADD11OC8,0.0600*%
%ADD12C,0.0480*%
%ADD13C,0.0600*%
%ADD14C,0.0787*%
%ADD15C,0.0160*%
%ADD16C,0.0240*%
D10*
X000377Y000377D02*
X020062Y000377D01*
X020062Y020062D01*
X000377Y020062D01*
X000377Y000377D01*
X005259Y005101D02*
X005261Y005151D01*
X005267Y005201D01*
X005277Y005250D01*
X005291Y005298D01*
X005308Y005345D01*
X005329Y005390D01*
X005354Y005434D01*
X005382Y005475D01*
X005414Y005514D01*
X005448Y005551D01*
X005485Y005585D01*
X005525Y005615D01*
X005567Y005642D01*
X005611Y005666D01*
X005657Y005687D01*
X005704Y005703D01*
X005752Y005716D01*
X005802Y005725D01*
X005851Y005730D01*
X005902Y005731D01*
X005952Y005728D01*
X006001Y005721D01*
X006050Y005710D01*
X006098Y005695D01*
X006144Y005677D01*
X006189Y005655D01*
X006232Y005629D01*
X006273Y005600D01*
X006312Y005568D01*
X006348Y005533D01*
X006380Y005495D01*
X006410Y005455D01*
X006437Y005412D01*
X006460Y005368D01*
X006479Y005322D01*
X006495Y005274D01*
X006507Y005225D01*
X006515Y005176D01*
X006519Y005126D01*
X006519Y005076D01*
X006515Y005026D01*
X006507Y004977D01*
X006495Y004928D01*
X006479Y004880D01*
X006460Y004834D01*
X006437Y004790D01*
X006410Y004747D01*
X006380Y004707D01*
X006348Y004669D01*
X006312Y004634D01*
X006273Y004602D01*
X006232Y004573D01*
X006189Y004547D01*
X006144Y004525D01*
X006098Y004507D01*
X006050Y004492D01*
X006001Y004481D01*
X005952Y004474D01*
X005902Y004471D01*
X005851Y004472D01*
X005802Y004477D01*
X005752Y004486D01*
X005704Y004499D01*
X005657Y004515D01*
X005611Y004536D01*
X005567Y004560D01*
X005525Y004587D01*
X005485Y004617D01*
X005448Y004651D01*
X005414Y004688D01*
X005382Y004727D01*
X005354Y004768D01*
X005329Y004812D01*
X005308Y004857D01*
X005291Y004904D01*
X005277Y004952D01*
X005267Y005001D01*
X005261Y005051D01*
X005259Y005101D01*
X013920Y005101D02*
X013922Y005151D01*
X013928Y005201D01*
X013938Y005250D01*
X013952Y005298D01*
X013969Y005345D01*
X013990Y005390D01*
X014015Y005434D01*
X014043Y005475D01*
X014075Y005514D01*
X014109Y005551D01*
X014146Y005585D01*
X014186Y005615D01*
X014228Y005642D01*
X014272Y005666D01*
X014318Y005687D01*
X014365Y005703D01*
X014413Y005716D01*
X014463Y005725D01*
X014512Y005730D01*
X014563Y005731D01*
X014613Y005728D01*
X014662Y005721D01*
X014711Y005710D01*
X014759Y005695D01*
X014805Y005677D01*
X014850Y005655D01*
X014893Y005629D01*
X014934Y005600D01*
X014973Y005568D01*
X015009Y005533D01*
X015041Y005495D01*
X015071Y005455D01*
X015098Y005412D01*
X015121Y005368D01*
X015140Y005322D01*
X015156Y005274D01*
X015168Y005225D01*
X015176Y005176D01*
X015180Y005126D01*
X015180Y005076D01*
X015176Y005026D01*
X015168Y004977D01*
X015156Y004928D01*
X015140Y004880D01*
X015121Y004834D01*
X015098Y004790D01*
X015071Y004747D01*
X015041Y004707D01*
X015009Y004669D01*
X014973Y004634D01*
X014934Y004602D01*
X014893Y004573D01*
X014850Y004547D01*
X014805Y004525D01*
X014759Y004507D01*
X014711Y004492D01*
X014662Y004481D01*
X014613Y004474D01*
X014563Y004471D01*
X014512Y004472D01*
X014463Y004477D01*
X014413Y004486D01*
X014365Y004499D01*
X014318Y004515D01*
X014272Y004536D01*
X014228Y004560D01*
X014186Y004587D01*
X014146Y004617D01*
X014109Y004651D01*
X014075Y004688D01*
X014043Y004727D01*
X014015Y004768D01*
X013990Y004812D01*
X013969Y004857D01*
X013952Y004904D01*
X013938Y004952D01*
X013928Y005001D01*
X013922Y005051D01*
X013920Y005101D01*
X018251Y018881D02*
X018253Y018931D01*
X018259Y018981D01*
X018269Y019030D01*
X018283Y019078D01*
X018300Y019125D01*
X018321Y019170D01*
X018346Y019214D01*
X018374Y019255D01*
X018406Y019294D01*
X018440Y019331D01*
X018477Y019365D01*
X018517Y019395D01*
X018559Y019422D01*
X018603Y019446D01*
X018649Y019467D01*
X018696Y019483D01*
X018744Y019496D01*
X018794Y019505D01*
X018843Y019510D01*
X018894Y019511D01*
X018944Y019508D01*
X018993Y019501D01*
X019042Y019490D01*
X019090Y019475D01*
X019136Y019457D01*
X019181Y019435D01*
X019224Y019409D01*
X019265Y019380D01*
X019304Y019348D01*
X019340Y019313D01*
X019372Y019275D01*
X019402Y019235D01*
X019429Y019192D01*
X019452Y019148D01*
X019471Y019102D01*
X019487Y019054D01*
X019499Y019005D01*
X019507Y018956D01*
X019511Y018906D01*
X019511Y018856D01*
X019507Y018806D01*
X019499Y018757D01*
X019487Y018708D01*
X019471Y018660D01*
X019452Y018614D01*
X019429Y018570D01*
X019402Y018527D01*
X019372Y018487D01*
X019340Y018449D01*
X019304Y018414D01*
X019265Y018382D01*
X019224Y018353D01*
X019181Y018327D01*
X019136Y018305D01*
X019090Y018287D01*
X019042Y018272D01*
X018993Y018261D01*
X018944Y018254D01*
X018894Y018251D01*
X018843Y018252D01*
X018794Y018257D01*
X018744Y018266D01*
X018696Y018279D01*
X018649Y018295D01*
X018603Y018316D01*
X018559Y018340D01*
X018517Y018367D01*
X018477Y018397D01*
X018440Y018431D01*
X018406Y018468D01*
X018374Y018507D01*
X018346Y018548D01*
X018321Y018592D01*
X018300Y018637D01*
X018283Y018684D01*
X018269Y018732D01*
X018259Y018781D01*
X018253Y018831D01*
X018251Y018881D01*
X000928Y018881D02*
X000930Y018931D01*
X000936Y018981D01*
X000946Y019030D01*
X000960Y019078D01*
X000977Y019125D01*
X000998Y019170D01*
X001023Y019214D01*
X001051Y019255D01*
X001083Y019294D01*
X001117Y019331D01*
X001154Y019365D01*
X001194Y019395D01*
X001236Y019422D01*
X001280Y019446D01*
X001326Y019467D01*
X001373Y019483D01*
X001421Y019496D01*
X001471Y019505D01*
X001520Y019510D01*
X001571Y019511D01*
X001621Y019508D01*
X001670Y019501D01*
X001719Y019490D01*
X001767Y019475D01*
X001813Y019457D01*
X001858Y019435D01*
X001901Y019409D01*
X001942Y019380D01*
X001981Y019348D01*
X002017Y019313D01*
X002049Y019275D01*
X002079Y019235D01*
X002106Y019192D01*
X002129Y019148D01*
X002148Y019102D01*
X002164Y019054D01*
X002176Y019005D01*
X002184Y018956D01*
X002188Y018906D01*
X002188Y018856D01*
X002184Y018806D01*
X002176Y018757D01*
X002164Y018708D01*
X002148Y018660D01*
X002129Y018614D01*
X002106Y018570D01*
X002079Y018527D01*
X002049Y018487D01*
X002017Y018449D01*
X001981Y018414D01*
X001942Y018382D01*
X001901Y018353D01*
X001858Y018327D01*
X001813Y018305D01*
X001767Y018287D01*
X001719Y018272D01*
X001670Y018261D01*
X001621Y018254D01*
X001571Y018251D01*
X001520Y018252D01*
X001471Y018257D01*
X001421Y018266D01*
X001373Y018279D01*
X001326Y018295D01*
X001280Y018316D01*
X001236Y018340D01*
X001194Y018367D01*
X001154Y018397D01*
X001117Y018431D01*
X001083Y018468D01*
X001051Y018507D01*
X001023Y018548D01*
X000998Y018592D01*
X000977Y018637D01*
X000960Y018684D01*
X000946Y018732D01*
X000936Y018781D01*
X000930Y018831D01*
X000928Y018881D01*
D11*
X002239Y015172D03*
X002239Y014172D03*
X002239Y013172D03*
X002239Y012172D03*
X002239Y011172D03*
X003239Y011172D03*
X003239Y012172D03*
X003239Y013172D03*
X003239Y014172D03*
X003239Y015172D03*
X009219Y007176D03*
X009219Y006176D03*
X010219Y006176D03*
X010219Y007176D03*
X011219Y007176D03*
X011219Y006176D03*
X011219Y002649D03*
X010219Y002649D03*
X009219Y002649D03*
X009219Y001649D03*
X008219Y001649D03*
X008219Y002649D03*
X007219Y002649D03*
X007219Y001649D03*
X006219Y001649D03*
X006219Y002649D03*
X005219Y002649D03*
X005219Y001649D03*
X004219Y001649D03*
X004219Y002649D03*
X003219Y002649D03*
X003219Y001649D03*
X002219Y001649D03*
X002219Y002649D03*
X010219Y001649D03*
X011219Y001649D03*
X012219Y001649D03*
X012219Y002649D03*
X013219Y002649D03*
X013219Y001649D03*
X014219Y001649D03*
X014219Y002649D03*
X015219Y002649D03*
X015219Y001649D03*
X016219Y001649D03*
X016219Y002649D03*
X017219Y002649D03*
X017219Y001649D03*
X018219Y001649D03*
X018219Y002649D03*
X018200Y011172D03*
X018200Y012172D03*
X018200Y013172D03*
X018200Y014172D03*
X018200Y015172D03*
X017200Y015172D03*
X017200Y014172D03*
X017200Y013172D03*
X017200Y012172D03*
X017200Y011172D03*
D12*
X014719Y015960D02*
X014719Y016440D01*
X013719Y016440D02*
X013719Y015960D01*
X012719Y015960D02*
X012719Y016440D01*
X011719Y016440D02*
X011719Y015960D01*
X010719Y015960D02*
X010719Y016440D01*
X009719Y016440D02*
X009719Y015960D01*
X008719Y015960D02*
X008719Y016440D01*
X007719Y016440D02*
X007719Y015960D01*
X006719Y015960D02*
X006719Y016440D01*
X005719Y016440D02*
X005719Y015960D01*
X005719Y018960D02*
X005719Y019440D01*
X006719Y019440D02*
X006719Y018960D01*
X007719Y018960D02*
X007719Y019440D01*
X008719Y019440D02*
X008719Y018960D01*
X009719Y018960D02*
X009719Y019440D01*
X010719Y019440D02*
X010719Y018960D01*
X011719Y018960D02*
X011719Y019440D01*
X012719Y019440D02*
X012719Y018960D01*
X013719Y018960D02*
X013719Y019440D01*
X014719Y019440D02*
X014719Y018960D01*
D13*
X005526Y007960D02*
X005526Y007360D01*
X004526Y007360D02*
X004526Y007960D01*
X003526Y007960D02*
X003526Y007360D01*
X002526Y007360D02*
X002526Y007960D01*
X001526Y007960D02*
X001526Y007360D01*
D14*
X017690Y007668D03*
X017690Y005668D03*
D15*
X017738Y005716D02*
X017642Y005716D01*
X017642Y006241D01*
X017555Y006227D01*
X017470Y006199D01*
X017389Y006158D01*
X017316Y006105D01*
X017252Y006041D01*
X017199Y005968D01*
X017158Y005888D01*
X017130Y005802D01*
X017117Y005716D01*
X017642Y005716D01*
X017642Y005620D01*
X017117Y005620D01*
X017130Y005533D01*
X017158Y005448D01*
X017199Y005367D01*
X017252Y005294D01*
X017316Y005230D01*
X017389Y005177D01*
X017470Y005136D01*
X017555Y005108D01*
X017642Y005094D01*
X017642Y005620D01*
X017738Y005620D01*
X017738Y005716D01*
X017738Y006241D01*
X017824Y006227D01*
X017910Y006199D01*
X017991Y006158D01*
X018064Y006105D01*
X018127Y006041D01*
X018181Y005968D01*
X018222Y005888D01*
X018249Y005802D01*
X018263Y005716D01*
X017738Y005716D01*
X017738Y005766D02*
X017642Y005766D01*
X017642Y005924D02*
X017738Y005924D01*
X017738Y006083D02*
X017642Y006083D01*
X017294Y006083D02*
X011659Y006083D01*
X011659Y005994D02*
X011659Y006248D01*
X012819Y007408D01*
X017220Y007408D01*
X017237Y007365D01*
X017388Y007215D01*
X017584Y007134D01*
X017796Y007134D01*
X017992Y007215D01*
X018142Y007365D01*
X018224Y007562D01*
X018224Y007774D01*
X018206Y007816D01*
X018347Y007957D01*
X018420Y008030D01*
X018460Y008126D01*
X018460Y010810D01*
X018640Y010990D01*
X018640Y011354D01*
X018460Y011534D01*
X018460Y011810D01*
X018640Y011990D01*
X018640Y012354D01*
X018382Y012612D01*
X018017Y012612D01*
X017837Y012432D01*
X017562Y012432D01*
X017382Y012612D01*
X017017Y012612D01*
X016760Y012354D01*
X016760Y011990D01*
X017017Y011732D01*
X017382Y011732D01*
X017562Y011912D01*
X017837Y011912D01*
X017940Y011810D01*
X017940Y011534D01*
X017837Y011432D01*
X017562Y011432D01*
X017382Y011612D01*
X017017Y011612D01*
X016837Y011432D01*
X003601Y011432D01*
X003421Y011612D01*
X003057Y011612D01*
X002877Y011432D01*
X002601Y011432D01*
X002499Y011534D01*
X002499Y011810D01*
X002601Y011912D01*
X002877Y011912D01*
X003057Y011732D01*
X003421Y011732D01*
X003679Y011990D01*
X003679Y012354D01*
X003421Y012612D01*
X003057Y012612D01*
X002877Y012432D01*
X002601Y012432D01*
X002421Y012612D01*
X002057Y012612D01*
X001799Y012354D01*
X001799Y011990D01*
X001979Y011810D01*
X001979Y011534D01*
X001799Y011354D01*
X001799Y010990D01*
X001979Y010810D01*
X001979Y008121D01*
X001971Y008145D01*
X001937Y008212D01*
X001893Y008273D01*
X001839Y008326D01*
X001778Y008371D01*
X001711Y008405D01*
X001639Y008428D01*
X001564Y008440D01*
X001546Y008440D01*
X001546Y007680D01*
X001506Y007680D01*
X001506Y007640D01*
X001046Y007640D01*
X001046Y007323D01*
X001058Y007248D01*
X001082Y007176D01*
X001116Y007109D01*
X001160Y007048D01*
X001214Y006994D01*
X001275Y006950D01*
X001342Y006915D01*
X001414Y006892D01*
X001489Y006880D01*
X001506Y006880D01*
X001506Y007640D01*
X001546Y007640D01*
X001546Y006880D01*
X001564Y006880D01*
X001639Y006892D01*
X001711Y006915D01*
X001778Y006950D01*
X001839Y006994D01*
X001893Y007048D01*
X001937Y007109D01*
X001971Y007176D01*
X001995Y007248D01*
X002006Y007323D01*
X002006Y007640D01*
X001546Y007640D01*
X001546Y007680D01*
X002006Y007680D01*
X002006Y007830D01*
X002019Y007800D01*
X002086Y007733D01*
X002086Y007273D01*
X002153Y007111D01*
X002277Y006987D01*
X002439Y006920D01*
X002614Y006920D01*
X002776Y006987D01*
X002899Y007111D01*
X002966Y007273D01*
X002966Y008048D01*
X002899Y008210D01*
X002776Y008333D01*
X002614Y008400D01*
X002499Y008400D01*
X002499Y010810D01*
X002601Y010912D01*
X002877Y010912D01*
X003057Y010732D01*
X003421Y010732D01*
X003601Y010912D01*
X016837Y010912D01*
X017017Y010732D01*
X017382Y010732D01*
X017562Y010912D01*
X017837Y010912D01*
X017940Y010810D01*
X017940Y008285D01*
X017838Y008184D01*
X017796Y008201D01*
X017584Y008201D01*
X017388Y008120D01*
X017237Y007970D01*
X017220Y007928D01*
X012659Y007928D01*
X012564Y007888D01*
X012491Y007815D01*
X011292Y006616D01*
X011037Y006616D01*
X010779Y006358D01*
X010779Y005994D01*
X011037Y005736D01*
X011402Y005736D01*
X011659Y005994D01*
X011590Y005924D02*
X017177Y005924D01*
X017125Y005766D02*
X015031Y005766D01*
X015009Y005788D02*
X014711Y005911D01*
X014389Y005911D01*
X014091Y005788D01*
X013863Y005560D01*
X013740Y005262D01*
X013740Y004940D01*
X013863Y004642D01*
X014091Y004415D01*
X014389Y004291D01*
X014711Y004291D01*
X015009Y004415D01*
X015237Y004642D01*
X015360Y004940D01*
X015360Y005262D01*
X015237Y005560D01*
X015009Y005788D01*
X015189Y005607D02*
X017119Y005607D01*
X017158Y005449D02*
X015283Y005449D01*
X015348Y005290D02*
X017256Y005290D01*
X017483Y005132D02*
X015360Y005132D01*
X015360Y004973D02*
X019882Y004973D01*
X019882Y004815D02*
X015308Y004815D01*
X015242Y004656D02*
X019882Y004656D01*
X019882Y004498D02*
X015092Y004498D01*
X014827Y004339D02*
X019882Y004339D01*
X019882Y004181D02*
X000557Y004181D01*
X000557Y004339D02*
X005612Y004339D01*
X005728Y004291D02*
X006050Y004291D01*
X006347Y004415D01*
X006575Y004642D01*
X006699Y004940D01*
X006699Y005262D01*
X006575Y005560D01*
X006347Y005788D01*
X006050Y005911D01*
X005728Y005911D01*
X005430Y005788D01*
X005202Y005560D01*
X005079Y005262D01*
X005079Y004940D01*
X005202Y004642D01*
X005430Y004415D01*
X005728Y004291D01*
X005347Y004498D02*
X000557Y004498D01*
X000557Y004656D02*
X005196Y004656D01*
X005131Y004815D02*
X000557Y004815D01*
X000557Y004973D02*
X005079Y004973D01*
X005079Y005132D02*
X000557Y005132D01*
X000557Y005290D02*
X005090Y005290D01*
X005156Y005449D02*
X000557Y005449D01*
X000557Y005607D02*
X005249Y005607D01*
X005408Y005766D02*
X000557Y005766D01*
X000557Y005924D02*
X008792Y005924D01*
X008739Y005977D02*
X009021Y005696D01*
X009199Y005696D01*
X009199Y006156D01*
X008739Y006156D01*
X008739Y005977D01*
X008739Y006083D02*
X000557Y006083D01*
X000557Y006241D02*
X008739Y006241D01*
X008739Y006196D02*
X009199Y006196D01*
X009199Y006156D01*
X009239Y006156D01*
X009239Y005696D01*
X009418Y005696D01*
X009699Y005977D01*
X009699Y006156D01*
X009239Y006156D01*
X009239Y006196D01*
X009199Y006196D01*
X009199Y006656D01*
X009021Y006656D01*
X008739Y006375D01*
X008739Y006196D01*
X008764Y006400D02*
X000557Y006400D01*
X000557Y006558D02*
X008923Y006558D01*
X009037Y006736D02*
X009402Y006736D01*
X009659Y006994D01*
X009659Y007358D01*
X009402Y007616D01*
X009037Y007616D01*
X008779Y007358D01*
X008779Y006994D01*
X009037Y006736D01*
X008898Y006875D02*
X000557Y006875D01*
X000557Y006717D02*
X011392Y006717D01*
X011402Y006736D02*
X011659Y006994D01*
X011659Y007358D01*
X011402Y007616D01*
X011037Y007616D01*
X010779Y007358D01*
X010779Y006994D01*
X011037Y006736D01*
X011402Y006736D01*
X011541Y006875D02*
X011551Y006875D01*
X011659Y007034D02*
X011709Y007034D01*
X011659Y007192D02*
X011868Y007192D01*
X012026Y007351D02*
X011659Y007351D01*
X011508Y007509D02*
X012185Y007509D01*
X012343Y007668D02*
X005966Y007668D01*
X005966Y007826D02*
X012502Y007826D01*
X012762Y007351D02*
X017252Y007351D01*
X017443Y007192D02*
X012603Y007192D01*
X012445Y007034D02*
X019882Y007034D01*
X019882Y007192D02*
X017937Y007192D01*
X018128Y007351D02*
X019882Y007351D01*
X019882Y007509D02*
X018202Y007509D01*
X018224Y007668D02*
X019882Y007668D01*
X019882Y007826D02*
X018216Y007826D01*
X018375Y007985D02*
X019882Y007985D01*
X019882Y008143D02*
X018460Y008143D01*
X018460Y008302D02*
X019882Y008302D01*
X019882Y008460D02*
X018460Y008460D01*
X018460Y008619D02*
X019882Y008619D01*
X019882Y008777D02*
X018460Y008777D01*
X018460Y008936D02*
X019882Y008936D01*
X019882Y009094D02*
X018460Y009094D01*
X018460Y009253D02*
X019882Y009253D01*
X019882Y009411D02*
X018460Y009411D01*
X018460Y009570D02*
X019882Y009570D01*
X019882Y009728D02*
X018460Y009728D01*
X018460Y009887D02*
X019882Y009887D01*
X019882Y010045D02*
X018460Y010045D01*
X018460Y010204D02*
X019882Y010204D01*
X019882Y010362D02*
X018460Y010362D01*
X018460Y010521D02*
X019882Y010521D01*
X019882Y010679D02*
X018460Y010679D01*
X018488Y010838D02*
X019882Y010838D01*
X019882Y010996D02*
X018640Y010996D01*
X018640Y011155D02*
X019882Y011155D01*
X019882Y011313D02*
X018640Y011313D01*
X018522Y011472D02*
X019882Y011472D01*
X019882Y011630D02*
X018460Y011630D01*
X018460Y011789D02*
X019882Y011789D01*
X019882Y011947D02*
X018597Y011947D01*
X018640Y012106D02*
X019882Y012106D01*
X019882Y012264D02*
X018640Y012264D01*
X018571Y012423D02*
X019882Y012423D01*
X019882Y012581D02*
X018413Y012581D01*
X018399Y012692D02*
X018220Y012692D01*
X018220Y013152D01*
X018220Y013192D01*
X018680Y013192D01*
X018680Y013371D01*
X018399Y013652D01*
X018220Y013652D01*
X018220Y013192D01*
X018180Y013192D01*
X018180Y013652D01*
X018001Y013652D01*
X017720Y013371D01*
X017720Y013192D01*
X018180Y013192D01*
X018180Y013152D01*
X018220Y013152D01*
X018680Y013152D01*
X018680Y012973D01*
X018399Y012692D01*
X018446Y012740D02*
X019882Y012740D01*
X019882Y012898D02*
X018605Y012898D01*
X018680Y013057D02*
X019882Y013057D01*
X019882Y013215D02*
X018680Y013215D01*
X018677Y013374D02*
X019882Y013374D01*
X019882Y013532D02*
X018518Y013532D01*
X018399Y013692D02*
X018680Y013973D01*
X018680Y014152D01*
X018220Y014152D01*
X018220Y014192D01*
X018680Y014192D01*
X018680Y014371D01*
X018399Y014652D01*
X018220Y014652D01*
X018220Y014192D01*
X018180Y014192D01*
X018180Y014652D01*
X018001Y014652D01*
X017720Y014371D01*
X017720Y014192D01*
X018180Y014192D01*
X018180Y014152D01*
X018220Y014152D01*
X018220Y013692D01*
X018399Y013692D01*
X018556Y013849D02*
X019882Y013849D01*
X019882Y013691D02*
X000557Y013691D01*
X000557Y013849D02*
X001883Y013849D01*
X001759Y013973D02*
X002040Y013692D01*
X002219Y013692D01*
X002219Y014152D01*
X002259Y014152D01*
X002259Y013692D01*
X002438Y013692D01*
X002719Y013973D01*
X002719Y014152D01*
X002259Y014152D01*
X002259Y014192D01*
X002719Y014192D01*
X002719Y014371D01*
X002438Y014652D01*
X002259Y014652D01*
X002259Y014192D01*
X002219Y014192D01*
X002219Y014152D01*
X001759Y014152D01*
X001759Y013973D01*
X001759Y014008D02*
X000557Y014008D01*
X000557Y014166D02*
X002219Y014166D01*
X002219Y014192D02*
X001759Y014192D01*
X001759Y014371D01*
X002040Y014652D01*
X002219Y014652D01*
X002219Y014192D01*
X002259Y014166D02*
X003219Y014166D01*
X003219Y014152D02*
X002759Y014152D01*
X002759Y013973D01*
X003040Y013692D01*
X003219Y013692D01*
X003219Y014152D01*
X003259Y014152D01*
X003259Y013692D01*
X003438Y013692D01*
X003719Y013973D01*
X003719Y014152D01*
X003259Y014152D01*
X003259Y014192D01*
X003719Y014192D01*
X003719Y014371D01*
X003438Y014652D01*
X003259Y014652D01*
X003259Y014192D01*
X003219Y014192D01*
X003219Y014152D01*
X003219Y014192D02*
X002759Y014192D01*
X002759Y014371D01*
X003040Y014652D01*
X003219Y014652D01*
X003219Y014192D01*
X003259Y014166D02*
X017180Y014166D01*
X017180Y014152D02*
X016720Y014152D01*
X016720Y013973D01*
X017001Y013692D01*
X017180Y013692D01*
X017180Y014152D01*
X017220Y014152D01*
X017220Y014192D01*
X017680Y014192D01*
X017680Y014371D01*
X017399Y014652D01*
X017220Y014652D01*
X017220Y014192D01*
X017180Y014192D01*
X017180Y014652D01*
X017001Y014652D01*
X016720Y014371D01*
X016720Y014192D01*
X017180Y014192D01*
X017180Y014152D01*
X017220Y014152D02*
X017220Y013692D01*
X017399Y013692D01*
X017680Y013973D01*
X017680Y014152D01*
X017220Y014152D01*
X017220Y014166D02*
X018180Y014166D01*
X018180Y014152D02*
X017720Y014152D01*
X017720Y013973D01*
X018001Y013692D01*
X018180Y013692D01*
X018180Y014152D01*
X018220Y014166D02*
X019882Y014166D01*
X019882Y014008D02*
X018680Y014008D01*
X018680Y014325D02*
X019882Y014325D01*
X019882Y014483D02*
X018567Y014483D01*
X018409Y014642D02*
X019882Y014642D01*
X019882Y014800D02*
X018450Y014800D01*
X018382Y014732D02*
X018640Y014990D01*
X018640Y015354D01*
X018420Y015574D01*
X018420Y016307D01*
X017397Y017329D01*
X006191Y017329D01*
X005682Y016820D01*
X005644Y016820D01*
X005504Y016762D01*
X005397Y016655D01*
X005339Y016515D01*
X005339Y015884D01*
X005397Y015744D01*
X005504Y015638D01*
X005644Y015580D01*
X005795Y015580D01*
X005935Y015638D01*
X006042Y015744D01*
X006099Y015884D01*
X006099Y016515D01*
X006070Y016586D01*
X006373Y016889D01*
X017215Y016889D01*
X017980Y016124D01*
X017980Y015574D01*
X017760Y015354D01*
X017760Y014990D01*
X018017Y014732D01*
X018382Y014732D01*
X018220Y014642D02*
X018180Y014642D01*
X018180Y014483D02*
X018220Y014483D01*
X018220Y014325D02*
X018180Y014325D01*
X017991Y014642D02*
X017409Y014642D01*
X017382Y014732D02*
X017640Y014990D01*
X017640Y015354D01*
X017382Y015612D01*
X017017Y015612D01*
X016797Y015391D01*
X007161Y015377D01*
X006939Y015598D01*
X006939Y015642D01*
X007042Y015744D01*
X007099Y015884D01*
X007099Y016515D01*
X007042Y016655D01*
X006935Y016762D01*
X006795Y016820D01*
X006644Y016820D01*
X006504Y016762D01*
X006397Y016655D01*
X006339Y016515D01*
X006339Y015884D01*
X006397Y015744D01*
X006499Y015642D01*
X006499Y015416D01*
X006539Y015376D01*
X005373Y015376D01*
X004928Y015822D01*
X004928Y015822D01*
X004799Y015951D01*
X002451Y015951D01*
X002322Y015822D01*
X002112Y015612D01*
X002057Y015612D01*
X001799Y015354D01*
X001799Y014990D01*
X002057Y014732D01*
X002421Y014732D01*
X002679Y014990D01*
X002679Y015354D01*
X002578Y015456D01*
X002633Y015511D01*
X002956Y015511D01*
X002799Y015354D01*
X002799Y014990D01*
X003057Y014732D01*
X003421Y014732D01*
X003679Y014990D01*
X003679Y015354D01*
X003522Y015511D01*
X004616Y015511D01*
X005191Y014936D01*
X006979Y014936D01*
X007070Y014936D01*
X007161Y014936D01*
X007161Y014937D01*
X016798Y014952D01*
X017017Y014732D01*
X017382Y014732D01*
X017450Y014800D02*
X017949Y014800D01*
X017791Y014959D02*
X017609Y014959D01*
X017640Y015117D02*
X017760Y015117D01*
X017760Y015276D02*
X017640Y015276D01*
X017560Y015434D02*
X017840Y015434D01*
X017980Y015593D02*
X017401Y015593D01*
X016998Y015593D02*
X014827Y015593D01*
X014795Y015580D02*
X014935Y015638D01*
X015042Y015744D01*
X015099Y015884D01*
X015099Y016515D01*
X015042Y016655D01*
X014935Y016762D01*
X014795Y016820D01*
X014644Y016820D01*
X014504Y016762D01*
X014397Y016655D01*
X014339Y016515D01*
X014339Y015884D01*
X014397Y015744D01*
X014504Y015638D01*
X014644Y015580D01*
X014795Y015580D01*
X014612Y015593D02*
X013827Y015593D01*
X013795Y015580D02*
X013935Y015638D01*
X014042Y015744D01*
X014099Y015884D01*
X014099Y016515D01*
X014042Y016655D01*
X013935Y016762D01*
X013795Y016820D01*
X013644Y016820D01*
X013504Y016762D01*
X013397Y016655D01*
X013339Y016515D01*
X013339Y015884D01*
X013397Y015744D01*
X013504Y015638D01*
X013644Y015580D01*
X013795Y015580D01*
X013612Y015593D02*
X012827Y015593D01*
X012795Y015580D02*
X012935Y015638D01*
X013042Y015744D01*
X013099Y015884D01*
X013099Y016515D01*
X013042Y016655D01*
X012935Y016762D01*
X012795Y016820D01*
X012644Y016820D01*
X012504Y016762D01*
X012397Y016655D01*
X012339Y016515D01*
X012339Y015884D01*
X012397Y015744D01*
X012504Y015638D01*
X012644Y015580D01*
X012795Y015580D01*
X012612Y015593D02*
X011827Y015593D01*
X011795Y015580D02*
X011935Y015638D01*
X012042Y015744D01*
X012099Y015884D01*
X012099Y016515D01*
X012042Y016655D01*
X011935Y016762D01*
X011795Y016820D01*
X011644Y016820D01*
X011504Y016762D01*
X011397Y016655D01*
X011339Y016515D01*
X011339Y015884D01*
X011397Y015744D01*
X011504Y015638D01*
X011644Y015580D01*
X011795Y015580D01*
X011612Y015593D02*
X010827Y015593D01*
X010795Y015580D02*
X010935Y015638D01*
X011042Y015744D01*
X011099Y015884D01*
X011099Y016515D01*
X011042Y016655D01*
X010935Y016762D01*
X010795Y016820D01*
X010644Y016820D01*
X010504Y016762D01*
X010397Y016655D01*
X010339Y016515D01*
X010339Y015884D01*
X010397Y015744D01*
X010504Y015638D01*
X010644Y015580D01*
X010795Y015580D01*
X010612Y015593D02*
X009827Y015593D01*
X009795Y015580D02*
X009935Y015638D01*
X010042Y015744D01*
X010099Y015884D01*
X010099Y016515D01*
X010042Y016655D01*
X009935Y016762D01*
X009795Y016820D01*
X009644Y016820D01*
X009504Y016762D01*
X009397Y016655D01*
X009339Y016515D01*
X009339Y015884D01*
X009397Y015744D01*
X009504Y015638D01*
X009644Y015580D01*
X009795Y015580D01*
X009612Y015593D02*
X008827Y015593D01*
X008795Y015580D02*
X008935Y015638D01*
X009042Y015744D01*
X009099Y015884D01*
X009099Y016515D01*
X009042Y016655D01*
X008935Y016762D01*
X008795Y016820D01*
X008644Y016820D01*
X008504Y016762D01*
X008397Y016655D01*
X008339Y016515D01*
X008339Y015884D01*
X008397Y015744D01*
X008504Y015638D01*
X008644Y015580D01*
X008795Y015580D01*
X008612Y015593D02*
X007925Y015593D01*
X007939Y015600D02*
X007993Y015639D01*
X008040Y015686D01*
X008079Y015740D01*
X008109Y015798D01*
X008129Y015861D01*
X008139Y015927D01*
X008139Y016200D01*
X008139Y016473D01*
X008129Y016538D01*
X008109Y016601D01*
X008079Y016660D01*
X008040Y016713D01*
X007993Y016760D01*
X007939Y016799D01*
X007881Y016829D01*
X007818Y016849D01*
X007752Y016860D01*
X007719Y016860D01*
X007686Y016860D01*
X007621Y016849D01*
X007558Y016829D01*
X007499Y016799D01*
X007446Y016760D01*
X007399Y016713D01*
X007360Y016660D01*
X007330Y016601D01*
X007310Y016538D01*
X007299Y016473D01*
X007299Y016200D01*
X007719Y016200D01*
X007719Y016200D01*
X007719Y016860D01*
X007719Y016200D01*
X007719Y016200D01*
X007299Y016200D01*
X007299Y015927D01*
X007310Y015861D01*
X007330Y015798D01*
X007360Y015740D01*
X007399Y015686D01*
X007446Y015639D01*
X007499Y015600D01*
X007558Y015570D01*
X007621Y015550D01*
X007686Y015540D01*
X007719Y015540D01*
X007719Y016200D01*
X007719Y016200D01*
X008139Y016200D01*
X007719Y016200D01*
X007719Y016200D01*
X007719Y015540D01*
X007752Y015540D01*
X007818Y015550D01*
X007881Y015570D01*
X007939Y015600D01*
X008085Y015751D02*
X008394Y015751D01*
X008339Y015910D02*
X008137Y015910D01*
X008139Y016068D02*
X008339Y016068D01*
X008339Y016227D02*
X008139Y016227D01*
X008139Y016385D02*
X008339Y016385D01*
X008351Y016544D02*
X008127Y016544D01*
X008048Y016702D02*
X008445Y016702D01*
X008994Y016702D02*
X009445Y016702D01*
X009351Y016544D02*
X009088Y016544D01*
X009099Y016385D02*
X009339Y016385D01*
X009339Y016227D02*
X009099Y016227D01*
X009099Y016068D02*
X009339Y016068D01*
X009339Y015910D02*
X009099Y015910D01*
X009044Y015751D02*
X009394Y015751D01*
X010044Y015751D02*
X010394Y015751D01*
X010339Y015910D02*
X010099Y015910D01*
X010099Y016068D02*
X010339Y016068D01*
X010339Y016227D02*
X010099Y016227D01*
X010099Y016385D02*
X010339Y016385D01*
X010351Y016544D02*
X010088Y016544D01*
X009994Y016702D02*
X010445Y016702D01*
X010994Y016702D02*
X011445Y016702D01*
X011351Y016544D02*
X011088Y016544D01*
X011099Y016385D02*
X011339Y016385D01*
X011339Y016227D02*
X011099Y016227D01*
X011099Y016068D02*
X011339Y016068D01*
X011339Y015910D02*
X011099Y015910D01*
X011044Y015751D02*
X011394Y015751D01*
X012044Y015751D02*
X012394Y015751D01*
X012339Y015910D02*
X012099Y015910D01*
X012099Y016068D02*
X012339Y016068D01*
X012339Y016227D02*
X012099Y016227D01*
X012099Y016385D02*
X012339Y016385D01*
X012351Y016544D02*
X012088Y016544D01*
X011994Y016702D02*
X012445Y016702D01*
X012994Y016702D02*
X013445Y016702D01*
X013351Y016544D02*
X013088Y016544D01*
X013099Y016385D02*
X013339Y016385D01*
X013339Y016227D02*
X013099Y016227D01*
X013099Y016068D02*
X013339Y016068D01*
X013339Y015910D02*
X013099Y015910D01*
X013044Y015751D02*
X013394Y015751D01*
X014044Y015751D02*
X014394Y015751D01*
X014339Y015910D02*
X014099Y015910D01*
X014099Y016068D02*
X014339Y016068D01*
X014339Y016227D02*
X014099Y016227D01*
X014099Y016385D02*
X014339Y016385D01*
X014351Y016544D02*
X014088Y016544D01*
X013994Y016702D02*
X014445Y016702D01*
X014994Y016702D02*
X017402Y016702D01*
X017560Y016544D02*
X015088Y016544D01*
X015099Y016385D02*
X017719Y016385D01*
X017877Y016227D02*
X015099Y016227D01*
X015099Y016068D02*
X017980Y016068D01*
X017980Y015910D02*
X015099Y015910D01*
X015044Y015751D02*
X017980Y015751D01*
X018200Y016215D02*
X017306Y017109D01*
X006282Y017109D01*
X005719Y016546D01*
X005719Y016200D01*
X005339Y016227D02*
X000557Y016227D01*
X000557Y016385D02*
X005339Y016385D01*
X005351Y016544D02*
X000557Y016544D01*
X000557Y016702D02*
X005445Y016702D01*
X005723Y016861D02*
X000557Y016861D01*
X000557Y017019D02*
X005881Y017019D01*
X006040Y017178D02*
X000557Y017178D01*
X000557Y017336D02*
X019882Y017336D01*
X019882Y017178D02*
X017548Y017178D01*
X017707Y017019D02*
X019882Y017019D01*
X019882Y016861D02*
X017865Y016861D01*
X018024Y016702D02*
X019882Y016702D01*
X019882Y016544D02*
X018182Y016544D01*
X018341Y016385D02*
X019882Y016385D01*
X019882Y016227D02*
X018420Y016227D01*
X018420Y016068D02*
X019882Y016068D01*
X019882Y015910D02*
X018420Y015910D01*
X018420Y015751D02*
X019882Y015751D01*
X019882Y015593D02*
X018420Y015593D01*
X018560Y015434D02*
X019882Y015434D01*
X019882Y015276D02*
X018640Y015276D01*
X018640Y015117D02*
X019882Y015117D01*
X019882Y014959D02*
X018609Y014959D01*
X018200Y015172D02*
X018200Y016215D01*
X017243Y016861D02*
X006345Y016861D01*
X006445Y016702D02*
X006187Y016702D01*
X006088Y016544D02*
X006351Y016544D01*
X006339Y016385D02*
X006099Y016385D01*
X006099Y016227D02*
X006339Y016227D01*
X006339Y016068D02*
X006099Y016068D01*
X006099Y015910D02*
X006339Y015910D01*
X006394Y015751D02*
X006044Y015751D01*
X005827Y015593D02*
X006499Y015593D01*
X006499Y015434D02*
X005315Y015434D01*
X005157Y015593D02*
X005612Y015593D01*
X005394Y015751D02*
X004998Y015751D01*
X004840Y015910D02*
X005339Y015910D01*
X005339Y016068D02*
X000557Y016068D01*
X000557Y015910D02*
X002410Y015910D01*
X002542Y015731D02*
X004708Y015731D01*
X005282Y015156D01*
X007070Y015156D01*
X006719Y015507D01*
X006719Y016200D01*
X007099Y016227D02*
X007299Y016227D01*
X007299Y016385D02*
X007099Y016385D01*
X007088Y016544D02*
X007312Y016544D01*
X007391Y016702D02*
X006994Y016702D01*
X007099Y016068D02*
X007299Y016068D01*
X007302Y015910D02*
X007099Y015910D01*
X007044Y015751D02*
X007354Y015751D01*
X007514Y015593D02*
X006944Y015593D01*
X007103Y015434D02*
X016840Y015434D01*
X017200Y015172D02*
X007070Y015156D01*
X006979Y014936D02*
X006979Y014936D01*
X007719Y015593D02*
X007719Y015593D01*
X007719Y015751D02*
X007719Y015751D01*
X007719Y015910D02*
X007719Y015910D01*
X007719Y016068D02*
X007719Y016068D01*
X007719Y016227D02*
X007719Y016227D01*
X007719Y016385D02*
X007719Y016385D01*
X007719Y016544D02*
X007719Y016544D01*
X007719Y016702D02*
X007719Y016702D01*
X007719Y018540D02*
X007719Y019200D01*
X007719Y019200D01*
X007299Y019200D01*
X007299Y019473D01*
X007310Y019538D01*
X007330Y019601D01*
X007360Y019660D01*
X007399Y019713D01*
X007446Y019760D01*
X007499Y019799D01*
X007558Y019829D01*
X007621Y019849D01*
X007686Y019860D01*
X007719Y019860D01*
X007719Y019200D01*
X007719Y019200D01*
X007299Y019200D01*
X007299Y018927D01*
X007310Y018861D01*
X007330Y018798D01*
X007360Y018740D01*
X007399Y018686D01*
X007446Y018639D01*
X007499Y018600D01*
X007558Y018570D01*
X007621Y018550D01*
X007686Y018540D01*
X007719Y018540D01*
X007752Y018540D01*
X007818Y018550D01*
X007881Y018570D01*
X007939Y018600D01*
X007993Y018639D01*
X008040Y018686D01*
X008079Y018740D01*
X008109Y018798D01*
X008129Y018861D01*
X008139Y018927D01*
X008139Y019200D01*
X008139Y019473D01*
X008129Y019538D01*
X008109Y019601D01*
X008079Y019660D01*
X008040Y019713D01*
X007993Y019760D01*
X007939Y019799D01*
X007881Y019829D01*
X007818Y019849D01*
X007752Y019860D01*
X007719Y019860D01*
X007719Y019200D01*
X007719Y019200D01*
X008139Y019200D01*
X007719Y019200D01*
X007719Y019200D01*
X007719Y018540D01*
X007719Y018604D02*
X007719Y018604D01*
X007719Y018763D02*
X007719Y018763D01*
X007719Y018921D02*
X007719Y018921D01*
X007719Y019080D02*
X007719Y019080D01*
X007719Y019238D02*
X007719Y019238D01*
X007719Y019397D02*
X007719Y019397D01*
X007719Y019555D02*
X007719Y019555D01*
X007719Y019714D02*
X007719Y019714D01*
X007400Y019714D02*
X006983Y019714D01*
X006935Y019762D02*
X007042Y019655D01*
X007099Y019515D01*
X007099Y018884D01*
X007042Y018744D01*
X006935Y018638D01*
X006795Y018580D01*
X006644Y018580D01*
X006504Y018638D01*
X006397Y018744D01*
X006339Y018884D01*
X006339Y019515D01*
X006397Y019655D01*
X006504Y019762D01*
X006644Y019820D01*
X006795Y019820D01*
X006935Y019762D01*
X007083Y019555D02*
X007315Y019555D01*
X007299Y019397D02*
X007099Y019397D01*
X007099Y019238D02*
X007299Y019238D01*
X007299Y019080D02*
X007099Y019080D01*
X007099Y018921D02*
X007300Y018921D01*
X007348Y018763D02*
X007049Y018763D01*
X006855Y018604D02*
X007494Y018604D01*
X007945Y018604D02*
X008494Y018604D01*
X008499Y018600D02*
X008558Y018570D01*
X008621Y018550D01*
X008686Y018540D01*
X008719Y018540D01*
X008719Y019200D01*
X008719Y019200D01*
X008299Y019200D01*
X008299Y019473D01*
X008310Y019538D01*
X008330Y019601D01*
X008360Y019660D01*
X008399Y019713D01*
X008446Y019760D01*
X008499Y019799D01*
X008558Y019829D01*
X008621Y019849D01*
X008686Y019860D01*
X008719Y019860D01*
X008719Y019200D01*
X008719Y019200D01*
X008299Y019200D01*
X008299Y018927D01*
X008310Y018861D01*
X008330Y018798D01*
X008360Y018740D01*
X008399Y018686D01*
X008446Y018639D01*
X008499Y018600D01*
X008719Y018604D02*
X008719Y018604D01*
X008719Y018540D02*
X008752Y018540D01*
X008818Y018550D01*
X008881Y018570D01*
X008939Y018600D01*
X008993Y018639D01*
X009040Y018686D01*
X009079Y018740D01*
X009109Y018798D01*
X009129Y018861D01*
X009139Y018927D01*
X009139Y019200D01*
X009139Y019473D01*
X009129Y019538D01*
X009109Y019601D01*
X009079Y019660D01*
X009040Y019713D01*
X008993Y019760D01*
X008939Y019799D01*
X008881Y019829D01*
X008818Y019849D01*
X008752Y019860D01*
X008719Y019860D01*
X008719Y019200D01*
X008719Y019200D01*
X009139Y019200D01*
X008719Y019200D01*
X008719Y019200D01*
X008719Y018540D01*
X008719Y018763D02*
X008719Y018763D01*
X008719Y018921D02*
X008719Y018921D01*
X008719Y019080D02*
X008719Y019080D01*
X008719Y019238D02*
X008719Y019238D01*
X008719Y019397D02*
X008719Y019397D01*
X008719Y019555D02*
X008719Y019555D01*
X008719Y019714D02*
X008719Y019714D01*
X008400Y019714D02*
X008039Y019714D01*
X008123Y019555D02*
X008315Y019555D01*
X008299Y019397D02*
X008139Y019397D01*
X008139Y019238D02*
X008299Y019238D01*
X008299Y019080D02*
X008139Y019080D01*
X008139Y018921D02*
X008300Y018921D01*
X008348Y018763D02*
X008090Y018763D01*
X008945Y018604D02*
X009494Y018604D01*
X009499Y018600D02*
X009558Y018570D01*
X009621Y018550D01*
X009686Y018540D01*
X009719Y018540D01*
X009719Y019200D01*
X009719Y019200D01*
X009299Y019200D01*
X009299Y019473D01*
X009310Y019538D01*
X009330Y019601D01*
X009360Y019660D01*
X009399Y019713D01*
X009446Y019760D01*
X009499Y019799D01*
X009558Y019829D01*
X009621Y019849D01*
X009686Y019860D01*
X009719Y019860D01*
X009719Y019200D01*
X009719Y019200D01*
X009299Y019200D01*
X009299Y018927D01*
X009310Y018861D01*
X009330Y018798D01*
X009360Y018740D01*
X009399Y018686D01*
X009446Y018639D01*
X009499Y018600D01*
X009719Y018604D02*
X009719Y018604D01*
X009719Y018540D02*
X009752Y018540D01*
X009818Y018550D01*
X009881Y018570D01*
X009939Y018600D01*
X009993Y018639D01*
X010040Y018686D01*
X010079Y018740D01*
X010109Y018798D01*
X010129Y018861D01*
X010139Y018927D01*
X010139Y019200D01*
X010139Y019473D01*
X010129Y019538D01*
X010109Y019601D01*
X010079Y019660D01*
X010040Y019713D01*
X009993Y019760D01*
X009939Y019799D01*
X009881Y019829D01*
X009818Y019849D01*
X009752Y019860D01*
X009719Y019860D01*
X009719Y019200D01*
X009719Y019200D01*
X010139Y019200D01*
X009719Y019200D01*
X009719Y019200D01*
X009719Y018540D01*
X009719Y018763D02*
X009719Y018763D01*
X009719Y018921D02*
X009719Y018921D01*
X009719Y019080D02*
X009719Y019080D01*
X009719Y019238D02*
X009719Y019238D01*
X009719Y019397D02*
X009719Y019397D01*
X009719Y019555D02*
X009719Y019555D01*
X009719Y019714D02*
X009719Y019714D01*
X009400Y019714D02*
X009039Y019714D01*
X009123Y019555D02*
X009315Y019555D01*
X009299Y019397D02*
X009139Y019397D01*
X009139Y019238D02*
X009299Y019238D01*
X009299Y019080D02*
X009139Y019080D01*
X009139Y018921D02*
X009300Y018921D01*
X009348Y018763D02*
X009090Y018763D01*
X009945Y018604D02*
X010494Y018604D01*
X010499Y018600D02*
X010558Y018570D01*
X010621Y018550D01*
X010686Y018540D01*
X010719Y018540D01*
X010719Y019200D01*
X010719Y019200D01*
X010299Y019200D01*
X010299Y019473D01*
X010310Y019538D01*
X010330Y019601D01*
X010360Y019660D01*
X010399Y019713D01*
X010446Y019760D01*
X010499Y019799D01*
X010558Y019829D01*
X010621Y019849D01*
X010686Y019860D01*
X010719Y019860D01*
X010719Y019200D01*
X010719Y019200D01*
X010299Y019200D01*
X010299Y018927D01*
X010310Y018861D01*
X010330Y018798D01*
X010360Y018740D01*
X010399Y018686D01*
X010446Y018639D01*
X010499Y018600D01*
X010719Y018604D02*
X010719Y018604D01*
X010719Y018540D02*
X010752Y018540D01*
X010818Y018550D01*
X010881Y018570D01*
X010939Y018600D01*
X010993Y018639D01*
X011040Y018686D01*
X011079Y018740D01*
X011109Y018798D01*
X011129Y018861D01*
X011139Y018927D01*
X011139Y019200D01*
X011139Y019473D01*
X011129Y019538D01*
X011109Y019601D01*
X011079Y019660D01*
X011040Y019713D01*
X010993Y019760D01*
X010939Y019799D01*
X010881Y019829D01*
X010818Y019849D01*
X010752Y019860D01*
X010719Y019860D01*
X010719Y019200D01*
X010719Y019200D01*
X011139Y019200D01*
X010719Y019200D01*
X010719Y019200D01*
X010719Y018540D01*
X010719Y018763D02*
X010719Y018763D01*
X010719Y018921D02*
X010719Y018921D01*
X010719Y019080D02*
X010719Y019080D01*
X010719Y019238D02*
X010719Y019238D01*
X010719Y019397D02*
X010719Y019397D01*
X010719Y019555D02*
X010719Y019555D01*
X010719Y019714D02*
X010719Y019714D01*
X010400Y019714D02*
X010039Y019714D01*
X010123Y019555D02*
X010315Y019555D01*
X010299Y019397D02*
X010139Y019397D01*
X010139Y019238D02*
X010299Y019238D01*
X010299Y019080D02*
X010139Y019080D01*
X010139Y018921D02*
X010300Y018921D01*
X010348Y018763D02*
X010090Y018763D01*
X010945Y018604D02*
X011494Y018604D01*
X011499Y018600D02*
X011558Y018570D01*
X011621Y018550D01*
X011686Y018540D01*
X011719Y018540D01*
X011719Y019200D01*
X011719Y019200D01*
X011299Y019200D01*
X011299Y019473D01*
X011310Y019538D01*
X011330Y019601D01*
X011360Y019660D01*
X011399Y019713D01*
X011446Y019760D01*
X011499Y019799D01*
X011558Y019829D01*
X011621Y019849D01*
X011686Y019860D01*
X011719Y019860D01*
X011719Y019200D01*
X011719Y019200D01*
X011299Y019200D01*
X011299Y018927D01*
X011310Y018861D01*
X011330Y018798D01*
X011360Y018740D01*
X011399Y018686D01*
X011446Y018639D01*
X011499Y018600D01*
X011719Y018604D02*
X011719Y018604D01*
X011719Y018540D02*
X011752Y018540D01*
X011818Y018550D01*
X011881Y018570D01*
X011939Y018600D01*
X011993Y018639D01*
X012040Y018686D01*
X012079Y018740D01*
X012109Y018798D01*
X012129Y018861D01*
X012139Y018927D01*
X012139Y019200D01*
X012139Y019473D01*
X012129Y019538D01*
X012109Y019601D01*
X012079Y019660D01*
X012040Y019713D01*
X011993Y019760D01*
X011939Y019799D01*
X011881Y019829D01*
X011818Y019849D01*
X011752Y019860D01*
X011719Y019860D01*
X011719Y019200D01*
X011719Y019200D01*
X012139Y019200D01*
X011719Y019200D01*
X011719Y019200D01*
X011719Y018540D01*
X011719Y018763D02*
X011719Y018763D01*
X011719Y018921D02*
X011719Y018921D01*
X011719Y019080D02*
X011719Y019080D01*
X011719Y019238D02*
X011719Y019238D01*
X011719Y019397D02*
X011719Y019397D01*
X011719Y019555D02*
X011719Y019555D01*
X011719Y019714D02*
X011719Y019714D01*
X012039Y019714D02*
X012400Y019714D01*
X012399Y019713D02*
X012360Y019660D01*
X012330Y019601D01*
X012310Y019538D01*
X012299Y019473D01*
X012299Y019200D01*
X012719Y019200D01*
X012719Y019200D01*
X012719Y019860D01*
X012686Y019860D01*
X012621Y019849D01*
X012558Y019829D01*
X012499Y019799D01*
X012446Y019760D01*
X012399Y019713D01*
X012315Y019555D02*
X012123Y019555D01*
X012139Y019397D02*
X012299Y019397D01*
X012299Y019238D02*
X012139Y019238D01*
X012139Y019080D02*
X012299Y019080D01*
X012299Y019200D02*
X012299Y018927D01*
X012310Y018861D01*
X012330Y018798D01*
X012360Y018740D01*
X012399Y018686D01*
X012446Y018639D01*
X012499Y018600D01*
X012558Y018570D01*
X012621Y018550D01*
X012686Y018540D01*
X012719Y018540D01*
X012719Y019200D01*
X012719Y019200D01*
X012299Y019200D01*
X012300Y018921D02*
X012139Y018921D01*
X012090Y018763D02*
X012348Y018763D01*
X012494Y018604D02*
X011945Y018604D01*
X011348Y018763D02*
X011090Y018763D01*
X011139Y018921D02*
X011300Y018921D01*
X011299Y019080D02*
X011139Y019080D01*
X011139Y019238D02*
X011299Y019238D01*
X011299Y019397D02*
X011139Y019397D01*
X011123Y019555D02*
X011315Y019555D01*
X011400Y019714D02*
X011039Y019714D01*
X012719Y019714D02*
X012719Y019714D01*
X012719Y019860D02*
X012719Y019200D01*
X012719Y019200D01*
X013139Y019200D01*
X013139Y019473D01*
X013129Y019538D01*
X013109Y019601D01*
X013079Y019660D01*
X013040Y019713D01*
X012993Y019760D01*
X012939Y019799D01*
X012881Y019829D01*
X012818Y019849D01*
X012752Y019860D01*
X012719Y019860D01*
X013039Y019714D02*
X013400Y019714D01*
X013399Y019713D02*
X013360Y019660D01*
X013330Y019601D01*
X013310Y019538D01*
X013299Y019473D01*
X013299Y019200D01*
X013719Y019200D01*
X013719Y019200D01*
X013719Y019860D01*
X013686Y019860D01*
X013621Y019849D01*
X013558Y019829D01*
X013499Y019799D01*
X013446Y019760D01*
X013399Y019713D01*
X013315Y019555D02*
X013123Y019555D01*
X013139Y019397D02*
X013299Y019397D01*
X013299Y019238D02*
X013139Y019238D01*
X013139Y019200D02*
X012719Y019200D01*
X012719Y019200D01*
X012719Y018540D01*
X012752Y018540D01*
X012818Y018550D01*
X012881Y018570D01*
X012939Y018600D01*
X012993Y018639D01*
X013040Y018686D01*
X013079Y018740D01*
X013109Y018798D01*
X013129Y018861D01*
X013139Y018927D01*
X013139Y019200D01*
X013139Y019080D02*
X013299Y019080D01*
X013299Y019200D02*
X013299Y018927D01*
X013310Y018861D01*
X013330Y018798D01*
X013360Y018740D01*
X013399Y018686D01*
X013446Y018639D01*
X013499Y018600D01*
X013558Y018570D01*
X013621Y018550D01*
X013686Y018540D01*
X013719Y018540D01*
X013719Y019200D01*
X013719Y019200D01*
X013299Y019200D01*
X013300Y018921D02*
X013139Y018921D01*
X013090Y018763D02*
X013348Y018763D01*
X013494Y018604D02*
X012945Y018604D01*
X012719Y018604D02*
X012719Y018604D01*
X012719Y018763D02*
X012719Y018763D01*
X012719Y018921D02*
X012719Y018921D01*
X012719Y019080D02*
X012719Y019080D01*
X012719Y019238D02*
X012719Y019238D01*
X012719Y019397D02*
X012719Y019397D01*
X012719Y019555D02*
X012719Y019555D01*
X013719Y019555D02*
X013719Y019555D01*
X013719Y019397D02*
X013719Y019397D01*
X013719Y019238D02*
X013719Y019238D01*
X013719Y019200D02*
X013719Y019860D01*
X013752Y019860D01*
X013818Y019849D01*
X013881Y019829D01*
X013939Y019799D01*
X013993Y019760D01*
X014040Y019713D01*
X014079Y019660D01*
X014109Y019601D01*
X014129Y019538D01*
X014139Y019473D01*
X014139Y019200D01*
X013719Y019200D01*
X013719Y019200D01*
X013719Y019200D01*
X013719Y018540D01*
X013752Y018540D01*
X013818Y018550D01*
X013881Y018570D01*
X013939Y018600D01*
X013993Y018639D01*
X014040Y018686D01*
X014079Y018740D01*
X014109Y018798D01*
X014129Y018861D01*
X014139Y018927D01*
X014139Y019200D01*
X013719Y019200D01*
X013719Y019080D02*
X013719Y019080D01*
X013719Y018921D02*
X013719Y018921D01*
X013719Y018763D02*
X013719Y018763D01*
X013719Y018604D02*
X013719Y018604D01*
X013945Y018604D02*
X014494Y018604D01*
X014499Y018600D02*
X014558Y018570D01*
X014621Y018550D01*
X014686Y018540D01*
X014719Y018540D01*
X014719Y019200D01*
X014719Y019200D01*
X014299Y019200D01*
X014299Y019473D01*
X014310Y019538D01*
X014330Y019601D01*
X014360Y019660D01*
X014399Y019713D01*
X014446Y019760D01*
X014499Y019799D01*
X014558Y019829D01*
X014621Y019849D01*
X014686Y019860D01*
X014719Y019860D01*
X014719Y019200D01*
X014719Y019200D01*
X014299Y019200D01*
X014299Y018927D01*
X014310Y018861D01*
X014330Y018798D01*
X014360Y018740D01*
X014399Y018686D01*
X014446Y018639D01*
X014499Y018600D01*
X014348Y018763D02*
X014090Y018763D01*
X014139Y018921D02*
X014300Y018921D01*
X014299Y019080D02*
X014139Y019080D01*
X014139Y019238D02*
X014299Y019238D01*
X014299Y019397D02*
X014139Y019397D01*
X014123Y019555D02*
X014315Y019555D01*
X014400Y019714D02*
X014039Y019714D01*
X013719Y019714D02*
X013719Y019714D01*
X014719Y019714D02*
X014719Y019714D01*
X014719Y019860D02*
X014719Y019200D01*
X014719Y019200D01*
X015139Y019200D01*
X015139Y019473D01*
X015129Y019538D01*
X015109Y019601D01*
X015079Y019660D01*
X015040Y019713D01*
X014993Y019760D01*
X014939Y019799D01*
X014881Y019829D01*
X014818Y019849D01*
X014752Y019860D01*
X014719Y019860D01*
X015039Y019714D02*
X019882Y019714D01*
X019882Y019872D02*
X000557Y019872D01*
X000557Y019882D02*
X000557Y000557D01*
X019882Y000557D01*
X019882Y019882D01*
X000557Y019882D01*
X000557Y019714D02*
X005456Y019714D01*
X005504Y019762D02*
X005397Y019655D01*
X005339Y019515D01*
X005339Y018884D01*
X005397Y018744D01*
X005504Y018638D01*
X005644Y018580D01*
X005795Y018580D01*
X005935Y018638D01*
X006042Y018744D01*
X006099Y018884D01*
X006099Y019515D01*
X006042Y019655D01*
X005935Y019762D01*
X005795Y019820D01*
X005644Y019820D01*
X005504Y019762D01*
X005356Y019555D02*
X002029Y019555D01*
X002017Y019567D02*
X001719Y019691D01*
X001397Y019691D01*
X001099Y019567D01*
X000871Y019340D01*
X000748Y019042D01*
X000748Y018720D01*
X000871Y018422D01*
X001099Y018194D01*
X001397Y018071D01*
X001719Y018071D01*
X002017Y018194D01*
X002245Y018422D01*
X002368Y018720D01*
X002368Y019042D01*
X002245Y019340D01*
X002017Y019567D01*
X002187Y019397D02*
X005339Y019397D01*
X005339Y019238D02*
X002286Y019238D01*
X002352Y019080D02*
X005339Y019080D01*
X005339Y018921D02*
X002368Y018921D01*
X002368Y018763D02*
X005390Y018763D01*
X005584Y018604D02*
X002320Y018604D01*
X002254Y018446D02*
X018184Y018446D01*
X018194Y018422D02*
X018071Y018720D01*
X018071Y019042D01*
X018194Y019340D01*
X018422Y019567D01*
X018720Y019691D01*
X019042Y019691D01*
X019340Y019567D01*
X019567Y019340D01*
X019691Y019042D01*
X019691Y018720D01*
X019567Y018422D01*
X019340Y018194D01*
X019042Y018071D01*
X018720Y018071D01*
X018422Y018194D01*
X018194Y018422D01*
X018329Y018287D02*
X002110Y018287D01*
X001859Y018129D02*
X018580Y018129D01*
X019182Y018129D02*
X019882Y018129D01*
X019882Y018287D02*
X019433Y018287D01*
X019577Y018446D02*
X019882Y018446D01*
X019882Y018604D02*
X019643Y018604D01*
X019691Y018763D02*
X019882Y018763D01*
X019882Y018921D02*
X019691Y018921D01*
X019675Y019080D02*
X019882Y019080D01*
X019882Y019238D02*
X019609Y019238D01*
X019510Y019397D02*
X019882Y019397D01*
X019882Y019555D02*
X019352Y019555D01*
X018410Y019555D02*
X015123Y019555D01*
X015139Y019397D02*
X018251Y019397D01*
X018152Y019238D02*
X015139Y019238D01*
X015139Y019200D02*
X014719Y019200D01*
X014719Y019200D01*
X014719Y018540D01*
X014752Y018540D01*
X014818Y018550D01*
X014881Y018570D01*
X014939Y018600D01*
X014993Y018639D01*
X015040Y018686D01*
X015079Y018740D01*
X015109Y018798D01*
X015129Y018861D01*
X015139Y018927D01*
X015139Y019200D01*
X015139Y019080D02*
X018087Y019080D01*
X018071Y018921D02*
X015139Y018921D01*
X015090Y018763D02*
X018071Y018763D01*
X018119Y018604D02*
X014945Y018604D01*
X014719Y018604D02*
X014719Y018604D01*
X014719Y018763D02*
X014719Y018763D01*
X014719Y018921D02*
X014719Y018921D01*
X014719Y019080D02*
X014719Y019080D01*
X014719Y019238D02*
X014719Y019238D01*
X014719Y019397D02*
X014719Y019397D01*
X014719Y019555D02*
X014719Y019555D01*
X016949Y014800D02*
X003490Y014800D01*
X003448Y014642D02*
X016991Y014642D01*
X017180Y014642D02*
X017220Y014642D01*
X017220Y014483D02*
X017180Y014483D01*
X017180Y014325D02*
X017220Y014325D01*
X017567Y014483D02*
X017832Y014483D01*
X017720Y014325D02*
X017680Y014325D01*
X017680Y014008D02*
X017720Y014008D01*
X017844Y013849D02*
X017556Y013849D01*
X017399Y013652D02*
X017220Y013652D01*
X017220Y013192D01*
X017680Y013192D01*
X017680Y013371D01*
X017399Y013652D01*
X017518Y013532D02*
X017881Y013532D01*
X017723Y013374D02*
X017677Y013374D01*
X017680Y013215D02*
X017720Y013215D01*
X017720Y013152D02*
X017720Y012973D01*
X018001Y012692D01*
X018180Y012692D01*
X018180Y013152D01*
X017720Y013152D01*
X017680Y013152D02*
X017220Y013152D01*
X017220Y013192D01*
X017180Y013192D01*
X017180Y013652D01*
X017001Y013652D01*
X016720Y013371D01*
X016720Y013192D01*
X017180Y013192D01*
X017180Y013152D01*
X017220Y013152D01*
X017220Y012692D01*
X017399Y012692D01*
X017680Y012973D01*
X017680Y013152D01*
X017680Y013057D02*
X017720Y013057D01*
X017795Y012898D02*
X017605Y012898D01*
X017446Y012740D02*
X017953Y012740D01*
X017987Y012581D02*
X017413Y012581D01*
X017220Y012740D02*
X017180Y012740D01*
X017180Y012692D02*
X017180Y013152D01*
X016720Y013152D01*
X016720Y012973D01*
X017001Y012692D01*
X017180Y012692D01*
X017180Y012898D02*
X017220Y012898D01*
X017220Y013057D02*
X017180Y013057D01*
X017180Y013215D02*
X017220Y013215D01*
X017220Y013374D02*
X017180Y013374D01*
X017180Y013532D02*
X017220Y013532D01*
X017220Y013849D02*
X017180Y013849D01*
X017180Y014008D02*
X017220Y014008D01*
X016844Y013849D02*
X003595Y013849D01*
X003719Y014008D02*
X016720Y014008D01*
X016720Y014325D02*
X003719Y014325D01*
X003607Y014483D02*
X016832Y014483D01*
X016881Y013532D02*
X003558Y013532D01*
X003438Y013652D02*
X003719Y013371D01*
X003719Y013192D01*
X003259Y013192D01*
X003259Y013152D01*
X003259Y012692D01*
X003438Y012692D01*
X003719Y012973D01*
X003719Y013152D01*
X003259Y013152D01*
X003219Y013152D01*
X003219Y012692D01*
X003040Y012692D01*
X002759Y012973D01*
X002759Y013152D01*
X003219Y013152D01*
X003219Y013192D01*
X002759Y013192D01*
X002759Y013371D01*
X003040Y013652D01*
X003219Y013652D01*
X003219Y013192D01*
X003259Y013192D01*
X003259Y013652D01*
X003438Y013652D01*
X003259Y013532D02*
X003219Y013532D01*
X003219Y013374D02*
X003259Y013374D01*
X003259Y013215D02*
X003219Y013215D01*
X003219Y013057D02*
X003259Y013057D01*
X003259Y012898D02*
X003219Y012898D01*
X003219Y012740D02*
X003259Y012740D01*
X003452Y012581D02*
X016987Y012581D01*
X016953Y012740D02*
X003486Y012740D01*
X003644Y012898D02*
X016795Y012898D01*
X016720Y013057D02*
X003719Y013057D01*
X003719Y013215D02*
X016720Y013215D01*
X016723Y013374D02*
X003716Y013374D01*
X003259Y013849D02*
X003219Y013849D01*
X003219Y014008D02*
X003259Y014008D01*
X002883Y013849D02*
X002595Y013849D01*
X002719Y014008D02*
X002759Y014008D01*
X002759Y014325D02*
X002719Y014325D01*
X002607Y014483D02*
X002871Y014483D01*
X003030Y014642D02*
X002448Y014642D01*
X002490Y014800D02*
X002989Y014800D01*
X002830Y014959D02*
X002648Y014959D01*
X002679Y015117D02*
X002799Y015117D01*
X002799Y015276D02*
X002679Y015276D01*
X002599Y015434D02*
X002879Y015434D01*
X002542Y015731D02*
X002239Y015428D01*
X002239Y015172D01*
X001879Y015434D02*
X000557Y015434D01*
X000557Y015276D02*
X001799Y015276D01*
X001799Y015117D02*
X000557Y015117D01*
X000557Y014959D02*
X001830Y014959D01*
X001989Y014800D02*
X000557Y014800D01*
X000557Y014642D02*
X002030Y014642D01*
X002219Y014642D02*
X002259Y014642D01*
X002259Y014483D02*
X002219Y014483D01*
X002219Y014325D02*
X002259Y014325D01*
X002259Y014008D02*
X002219Y014008D01*
X002219Y013849D02*
X002259Y013849D01*
X002259Y013652D02*
X002259Y013192D01*
X002719Y013192D01*
X002719Y013371D01*
X002438Y013652D01*
X002259Y013652D01*
X002219Y013652D02*
X002040Y013652D01*
X001759Y013371D01*
X001759Y013192D01*
X002219Y013192D01*
X002219Y013152D01*
X002259Y013152D01*
X002259Y012692D01*
X002438Y012692D01*
X002719Y012973D01*
X002719Y013152D01*
X002259Y013152D01*
X002259Y013192D01*
X002219Y013192D01*
X002219Y013652D01*
X002219Y013532D02*
X002259Y013532D01*
X002259Y013374D02*
X002219Y013374D01*
X002219Y013215D02*
X002259Y013215D01*
X002219Y013152D02*
X001759Y013152D01*
X001759Y012973D01*
X002040Y012692D01*
X002219Y012692D01*
X002219Y013152D01*
X002219Y013057D02*
X002259Y013057D01*
X002259Y012898D02*
X002219Y012898D01*
X002219Y012740D02*
X002259Y012740D01*
X002486Y012740D02*
X002992Y012740D01*
X003026Y012581D02*
X002452Y012581D01*
X002644Y012898D02*
X002834Y012898D01*
X002759Y013057D02*
X002719Y013057D01*
X002719Y013215D02*
X002759Y013215D01*
X002762Y013374D02*
X002716Y013374D01*
X002558Y013532D02*
X002920Y013532D01*
X003219Y014325D02*
X003259Y014325D01*
X003259Y014483D02*
X003219Y014483D01*
X003219Y014642D02*
X003259Y014642D01*
X003648Y014959D02*
X005169Y014959D01*
X005010Y015117D02*
X003679Y015117D01*
X003679Y015276D02*
X004852Y015276D01*
X004693Y015434D02*
X003599Y015434D01*
X002251Y015751D02*
X000557Y015751D01*
X000557Y015593D02*
X002038Y015593D01*
X001871Y014483D02*
X000557Y014483D01*
X000557Y014325D02*
X001759Y014325D01*
X001920Y013532D02*
X000557Y013532D01*
X000557Y013374D02*
X001762Y013374D01*
X001759Y013215D02*
X000557Y013215D01*
X000557Y013057D02*
X001759Y013057D01*
X001834Y012898D02*
X000557Y012898D01*
X000557Y012740D02*
X001992Y012740D01*
X002026Y012581D02*
X000557Y012581D01*
X000557Y012423D02*
X001868Y012423D01*
X001799Y012264D02*
X000557Y012264D01*
X000557Y012106D02*
X001799Y012106D01*
X001842Y011947D02*
X000557Y011947D01*
X000557Y011789D02*
X001979Y011789D01*
X001979Y011630D02*
X000557Y011630D01*
X000557Y011472D02*
X001917Y011472D01*
X001799Y011313D02*
X000557Y011313D01*
X000557Y011155D02*
X001799Y011155D01*
X001799Y010996D02*
X000557Y010996D01*
X000557Y010838D02*
X001951Y010838D01*
X001979Y010679D02*
X000557Y010679D01*
X000557Y010521D02*
X001979Y010521D01*
X001979Y010362D02*
X000557Y010362D01*
X000557Y010204D02*
X001979Y010204D01*
X001979Y010045D02*
X000557Y010045D01*
X000557Y009887D02*
X001979Y009887D01*
X001979Y009728D02*
X000557Y009728D01*
X000557Y009570D02*
X001979Y009570D01*
X001979Y009411D02*
X000557Y009411D01*
X000557Y009253D02*
X001979Y009253D01*
X001979Y009094D02*
X000557Y009094D01*
X000557Y008936D02*
X001979Y008936D01*
X001979Y008777D02*
X000557Y008777D01*
X000557Y008619D02*
X001979Y008619D01*
X001979Y008460D02*
X000557Y008460D01*
X000557Y008302D02*
X001189Y008302D01*
X001214Y008326D02*
X001160Y008273D01*
X001116Y008212D01*
X001082Y008145D01*
X001058Y008073D01*
X001046Y007998D01*
X001046Y007680D01*
X001506Y007680D01*
X001506Y008440D01*
X001489Y008440D01*
X001414Y008428D01*
X001342Y008405D01*
X001275Y008371D01*
X001214Y008326D01*
X001081Y008143D02*
X000557Y008143D01*
X000557Y007985D02*
X001046Y007985D01*
X001046Y007826D02*
X000557Y007826D01*
X000557Y007668D02*
X001506Y007668D01*
X001546Y007668D02*
X002086Y007668D01*
X002086Y007509D02*
X002006Y007509D01*
X002006Y007351D02*
X002086Y007351D01*
X002120Y007192D02*
X001977Y007192D01*
X001879Y007034D02*
X002231Y007034D01*
X002822Y007034D02*
X003231Y007034D01*
X003277Y006987D02*
X003153Y007111D01*
X003086Y007273D01*
X003086Y008048D01*
X003153Y008210D01*
X003277Y008333D01*
X003439Y008400D01*
X003614Y008400D01*
X003776Y008333D01*
X003899Y008210D01*
X003966Y008048D01*
X003966Y007273D01*
X003899Y007111D01*
X003776Y006987D01*
X003614Y006920D01*
X003439Y006920D01*
X003277Y006987D01*
X003120Y007192D02*
X002933Y007192D01*
X002966Y007351D02*
X003086Y007351D01*
X003086Y007509D02*
X002966Y007509D01*
X002966Y007668D02*
X003086Y007668D01*
X003086Y007826D02*
X002966Y007826D01*
X002966Y007985D02*
X003086Y007985D01*
X003126Y008143D02*
X002927Y008143D01*
X002807Y008302D02*
X003246Y008302D01*
X003807Y008302D02*
X004246Y008302D01*
X004277Y008333D02*
X004153Y008210D01*
X004086Y008048D01*
X004086Y007273D01*
X004153Y007111D01*
X004277Y006987D01*
X004439Y006920D01*
X004614Y006920D01*
X004776Y006987D01*
X004899Y007111D01*
X004966Y007273D01*
X004966Y008048D01*
X004899Y008210D01*
X004776Y008333D01*
X004614Y008400D01*
X004439Y008400D01*
X004277Y008333D01*
X004126Y008143D02*
X003927Y008143D01*
X003966Y007985D02*
X004086Y007985D01*
X004086Y007826D02*
X003966Y007826D01*
X003966Y007668D02*
X004086Y007668D01*
X004086Y007509D02*
X003966Y007509D01*
X003966Y007351D02*
X004086Y007351D01*
X004120Y007192D02*
X003933Y007192D01*
X003822Y007034D02*
X004231Y007034D01*
X004822Y007034D02*
X005231Y007034D01*
X005277Y006987D02*
X005439Y006920D01*
X005614Y006920D01*
X005776Y006987D01*
X005899Y007111D01*
X005966Y007273D01*
X005966Y008048D01*
X005899Y008210D01*
X005776Y008333D01*
X005614Y008400D01*
X005439Y008400D01*
X005277Y008333D01*
X005153Y008210D01*
X005086Y008048D01*
X005086Y007273D01*
X005153Y007111D01*
X005277Y006987D01*
X005120Y007192D02*
X004933Y007192D01*
X004966Y007351D02*
X005086Y007351D01*
X005086Y007509D02*
X004966Y007509D01*
X004966Y007668D02*
X005086Y007668D01*
X005086Y007826D02*
X004966Y007826D01*
X004966Y007985D02*
X005086Y007985D01*
X005126Y008143D02*
X004927Y008143D01*
X004807Y008302D02*
X005246Y008302D01*
X005807Y008302D02*
X017940Y008302D01*
X017940Y008460D02*
X002499Y008460D01*
X002499Y008619D02*
X017940Y008619D01*
X017940Y008777D02*
X002499Y008777D01*
X002499Y008936D02*
X017940Y008936D01*
X017940Y009094D02*
X002499Y009094D01*
X002499Y009253D02*
X017940Y009253D01*
X017940Y009411D02*
X002499Y009411D01*
X002499Y009570D02*
X017940Y009570D01*
X017940Y009728D02*
X002499Y009728D01*
X002499Y009887D02*
X017940Y009887D01*
X017940Y010045D02*
X002499Y010045D01*
X002499Y010204D02*
X017940Y010204D01*
X017940Y010362D02*
X002499Y010362D01*
X002499Y010521D02*
X017940Y010521D01*
X017940Y010679D02*
X002499Y010679D01*
X002527Y010838D02*
X002951Y010838D01*
X003527Y010838D02*
X016912Y010838D01*
X017488Y010838D02*
X017912Y010838D01*
X017877Y011472D02*
X017522Y011472D01*
X017439Y011789D02*
X017940Y011789D01*
X017940Y011630D02*
X002499Y011630D01*
X002499Y011789D02*
X003000Y011789D01*
X002917Y011472D02*
X002562Y011472D01*
X003478Y011789D02*
X016961Y011789D01*
X016802Y011947D02*
X003637Y011947D01*
X003679Y012106D02*
X016760Y012106D01*
X016760Y012264D02*
X003679Y012264D01*
X003611Y012423D02*
X016828Y012423D01*
X016877Y011472D02*
X003562Y011472D01*
X001979Y008302D02*
X001864Y008302D01*
X001972Y008143D02*
X001979Y008143D01*
X002006Y007826D02*
X002008Y007826D01*
X001546Y007826D02*
X001506Y007826D01*
X001506Y007985D02*
X001546Y007985D01*
X001546Y008143D02*
X001506Y008143D01*
X001506Y008302D02*
X001546Y008302D01*
X001546Y007509D02*
X001506Y007509D01*
X001506Y007351D02*
X001546Y007351D01*
X001546Y007192D02*
X001506Y007192D01*
X001506Y007034D02*
X001546Y007034D01*
X001174Y007034D02*
X000557Y007034D01*
X000557Y007192D02*
X001076Y007192D01*
X001046Y007351D02*
X000557Y007351D01*
X000557Y007509D02*
X001046Y007509D01*
X000557Y004022D02*
X019882Y004022D01*
X019882Y003864D02*
X000557Y003864D01*
X000557Y003705D02*
X019882Y003705D01*
X019882Y003547D02*
X000557Y003547D01*
X000557Y003388D02*
X019882Y003388D01*
X019882Y003230D02*
X000557Y003230D01*
X000557Y003071D02*
X001963Y003071D01*
X002021Y003129D02*
X001739Y002847D01*
X001739Y002669D01*
X002199Y002669D01*
X002199Y003129D01*
X002021Y003129D01*
X002199Y003071D02*
X002239Y003071D01*
X002239Y003129D02*
X002418Y003129D01*
X002699Y002847D01*
X002699Y002669D01*
X002239Y002669D01*
X002199Y002669D01*
X002199Y002629D01*
X001739Y002629D01*
X001739Y002450D01*
X002021Y002169D01*
X002199Y002169D01*
X002199Y002628D01*
X002239Y002628D01*
X002239Y002169D01*
X002418Y002169D01*
X002699Y002450D01*
X002699Y002629D01*
X002239Y002629D01*
X002239Y002669D01*
X002239Y003129D01*
X002239Y002913D02*
X002199Y002913D01*
X002199Y002754D02*
X002239Y002754D01*
X002239Y002596D02*
X002199Y002596D01*
X002199Y002437D02*
X002239Y002437D01*
X002239Y002279D02*
X002199Y002279D01*
X002037Y002089D02*
X001779Y001831D01*
X001779Y001466D01*
X002037Y001209D01*
X002402Y001209D01*
X002659Y001466D01*
X002659Y001831D01*
X002402Y002089D01*
X002037Y002089D01*
X001910Y001962D02*
X000557Y001962D01*
X000557Y002120D02*
X019882Y002120D01*
X019882Y001962D02*
X018528Y001962D01*
X018402Y002089D02*
X018037Y002089D01*
X017779Y001831D01*
X017779Y001466D01*
X018037Y001209D01*
X018402Y001209D01*
X018659Y001466D01*
X018659Y001831D01*
X018402Y002089D01*
X018418Y002169D02*
X018699Y002450D01*
X018699Y002629D01*
X018239Y002629D01*
X018239Y002669D01*
X018199Y002669D01*
X018199Y003129D01*
X018021Y003129D01*
X017739Y002847D01*
X017739Y002669D01*
X018199Y002669D01*
X018199Y002629D01*
X017739Y002629D01*
X017739Y002450D01*
X018021Y002169D01*
X018199Y002169D01*
X018199Y002628D01*
X018239Y002628D01*
X018239Y002169D01*
X018418Y002169D01*
X018529Y002279D02*
X019882Y002279D01*
X019882Y002437D02*
X018687Y002437D01*
X018699Y002596D02*
X019882Y002596D01*
X019882Y002754D02*
X018699Y002754D01*
X018699Y002669D02*
X018699Y002847D01*
X018418Y003129D01*
X018239Y003129D01*
X018239Y002669D01*
X018699Y002669D01*
X018634Y002913D02*
X019882Y002913D01*
X019882Y003071D02*
X018475Y003071D01*
X018239Y003071D02*
X018199Y003071D01*
X018199Y002913D02*
X018239Y002913D01*
X018239Y002754D02*
X018199Y002754D01*
X018199Y002596D02*
X018239Y002596D01*
X018239Y002437D02*
X018199Y002437D01*
X018199Y002279D02*
X018239Y002279D01*
X017910Y002279D02*
X017529Y002279D01*
X017418Y002169D02*
X017239Y002169D01*
X017239Y002628D01*
X017199Y002628D01*
X017199Y002169D01*
X017021Y002169D01*
X016739Y002450D01*
X016739Y002629D01*
X017199Y002629D01*
X017199Y002669D01*
X017199Y003129D01*
X017021Y003129D01*
X016739Y002847D01*
X016739Y002669D01*
X017199Y002669D01*
X017239Y002669D01*
X017239Y003129D01*
X017418Y003129D01*
X017699Y002847D01*
X017699Y002669D01*
X017239Y002669D01*
X017239Y002629D01*
X017699Y002629D01*
X017699Y002450D01*
X017418Y002169D01*
X017402Y002089D02*
X017037Y002089D01*
X016779Y001831D01*
X016779Y001466D01*
X017037Y001209D01*
X017402Y001209D01*
X017659Y001466D01*
X017659Y001831D01*
X017402Y002089D01*
X017528Y001962D02*
X017910Y001962D01*
X017779Y001803D02*
X017659Y001803D01*
X017659Y001645D02*
X017779Y001645D01*
X017779Y001486D02*
X017659Y001486D01*
X017521Y001328D02*
X017918Y001328D01*
X018521Y001328D02*
X019882Y001328D01*
X019882Y001486D02*
X018659Y001486D01*
X018659Y001645D02*
X019882Y001645D01*
X019882Y001803D02*
X018659Y001803D01*
X017752Y002437D02*
X017687Y002437D01*
X017699Y002596D02*
X017739Y002596D01*
X017739Y002754D02*
X017699Y002754D01*
X017634Y002913D02*
X017805Y002913D01*
X017963Y003071D02*
X017475Y003071D01*
X017239Y003071D02*
X017199Y003071D01*
X017199Y002913D02*
X017239Y002913D01*
X017239Y002754D02*
X017199Y002754D01*
X017199Y002596D02*
X017239Y002596D01*
X017239Y002437D02*
X017199Y002437D01*
X017199Y002279D02*
X017239Y002279D01*
X016910Y002279D02*
X016529Y002279D01*
X016418Y002169D02*
X016239Y002169D01*
X016239Y002628D01*
X016199Y002628D01*
X016199Y002169D01*
X016021Y002169D01*
X015739Y002450D01*
X015739Y002629D01*
X016199Y002629D01*
X016199Y002669D01*
X016199Y003129D01*
X016021Y003129D01*
X015739Y002847D01*
X015739Y002669D01*
X016199Y002669D01*
X016239Y002669D01*
X016239Y003129D01*
X016418Y003129D01*
X016699Y002847D01*
X016699Y002669D01*
X016239Y002669D01*
X016239Y002629D01*
X016699Y002629D01*
X016699Y002450D01*
X016418Y002169D01*
X016402Y002089D02*
X016037Y002089D01*
X015779Y001831D01*
X015779Y001466D01*
X016037Y001209D01*
X016402Y001209D01*
X016659Y001466D01*
X016659Y001831D01*
X016402Y002089D01*
X016528Y001962D02*
X016910Y001962D01*
X016779Y001803D02*
X016659Y001803D01*
X016659Y001645D02*
X016779Y001645D01*
X016779Y001486D02*
X016659Y001486D01*
X016521Y001328D02*
X016918Y001328D01*
X015918Y001328D02*
X015521Y001328D01*
X015402Y001209D02*
X015659Y001466D01*
X015659Y001831D01*
X015402Y002089D01*
X015037Y002089D01*
X014779Y001831D01*
X014779Y001466D01*
X015037Y001209D01*
X015402Y001209D01*
X015659Y001486D02*
X015779Y001486D01*
X015779Y001645D02*
X015659Y001645D01*
X015659Y001803D02*
X015779Y001803D01*
X015910Y001962D02*
X015528Y001962D01*
X015418Y002169D02*
X015239Y002169D01*
X015239Y002628D01*
X015199Y002628D01*
X015199Y002169D01*
X015021Y002169D01*
X014739Y002450D01*
X014739Y002629D01*
X015199Y002629D01*
X015199Y002669D01*
X015199Y003129D01*
X015021Y003129D01*
X014739Y002847D01*
X014739Y002669D01*
X015199Y002669D01*
X015239Y002669D01*
X015239Y003129D01*
X015418Y003129D01*
X015699Y002847D01*
X015699Y002669D01*
X015239Y002669D01*
X015239Y002629D01*
X015699Y002629D01*
X015699Y002450D01*
X015418Y002169D01*
X015529Y002279D02*
X015910Y002279D01*
X015752Y002437D02*
X015687Y002437D01*
X015699Y002596D02*
X015739Y002596D01*
X015739Y002754D02*
X015699Y002754D01*
X015634Y002913D02*
X015805Y002913D01*
X015963Y003071D02*
X015475Y003071D01*
X015239Y003071D02*
X015199Y003071D01*
X015199Y002913D02*
X015239Y002913D01*
X015239Y002754D02*
X015199Y002754D01*
X015199Y002596D02*
X015239Y002596D01*
X015239Y002437D02*
X015199Y002437D01*
X015199Y002279D02*
X015239Y002279D01*
X014910Y002279D02*
X014529Y002279D01*
X014418Y002169D02*
X014699Y002450D01*
X014699Y002629D01*
X014239Y002629D01*
X014239Y002669D01*
X014199Y002669D01*
X014199Y003129D01*
X014021Y003129D01*
X013739Y002847D01*
X013739Y002669D01*
X014199Y002669D01*
X014199Y002629D01*
X013739Y002629D01*
X013739Y002450D01*
X014021Y002169D01*
X014199Y002169D01*
X014199Y002628D01*
X014239Y002628D01*
X014239Y002169D01*
X014418Y002169D01*
X014402Y002089D02*
X014037Y002089D01*
X013779Y001831D01*
X013779Y001466D01*
X014037Y001209D01*
X014402Y001209D01*
X014659Y001466D01*
X014659Y001831D01*
X014402Y002089D01*
X014528Y001962D02*
X014910Y001962D01*
X014779Y001803D02*
X014659Y001803D01*
X014659Y001645D02*
X014779Y001645D01*
X014779Y001486D02*
X014659Y001486D01*
X014521Y001328D02*
X014918Y001328D01*
X013918Y001328D02*
X013521Y001328D01*
X013402Y001209D02*
X013659Y001466D01*
X013659Y001831D01*
X013402Y002089D01*
X013037Y002089D01*
X012779Y001831D01*
X012779Y001466D01*
X013037Y001209D01*
X013402Y001209D01*
X013659Y001486D02*
X013779Y001486D01*
X013779Y001645D02*
X013659Y001645D01*
X013659Y001803D02*
X013779Y001803D01*
X013910Y001962D02*
X013528Y001962D01*
X013418Y002169D02*
X013699Y002450D01*
X013699Y002629D01*
X013239Y002629D01*
X013239Y002669D01*
X013199Y002669D01*
X013199Y003129D01*
X013021Y003129D01*
X012739Y002847D01*
X012739Y002669D01*
X013199Y002669D01*
X013199Y002629D01*
X012739Y002629D01*
X012739Y002450D01*
X013021Y002169D01*
X013199Y002169D01*
X013199Y002628D01*
X013239Y002628D01*
X013239Y002169D01*
X013418Y002169D01*
X013529Y002279D02*
X013910Y002279D01*
X013752Y002437D02*
X013687Y002437D01*
X013699Y002596D02*
X013739Y002596D01*
X013699Y002669D02*
X013699Y002847D01*
X013418Y003129D01*
X013239Y003129D01*
X013239Y002669D01*
X013699Y002669D01*
X013699Y002754D02*
X013739Y002754D01*
X013805Y002913D02*
X013634Y002913D01*
X013475Y003071D02*
X013963Y003071D01*
X014199Y003071D02*
X014239Y003071D01*
X014239Y003129D02*
X014418Y003129D01*
X014699Y002847D01*
X014699Y002669D01*
X014239Y002669D01*
X014239Y003129D01*
X014239Y002913D02*
X014199Y002913D01*
X014199Y002754D02*
X014239Y002754D01*
X014239Y002596D02*
X014199Y002596D01*
X014199Y002437D02*
X014239Y002437D01*
X014239Y002279D02*
X014199Y002279D01*
X014687Y002437D02*
X014752Y002437D01*
X014739Y002596D02*
X014699Y002596D01*
X014699Y002754D02*
X014739Y002754D01*
X014805Y002913D02*
X014634Y002913D01*
X014475Y003071D02*
X014963Y003071D01*
X016199Y003071D02*
X016239Y003071D01*
X016239Y002913D02*
X016199Y002913D01*
X016199Y002754D02*
X016239Y002754D01*
X016239Y002596D02*
X016199Y002596D01*
X016199Y002437D02*
X016239Y002437D01*
X016239Y002279D02*
X016199Y002279D01*
X016687Y002437D02*
X016752Y002437D01*
X016739Y002596D02*
X016699Y002596D01*
X016699Y002754D02*
X016739Y002754D01*
X016805Y002913D02*
X016634Y002913D01*
X016475Y003071D02*
X016963Y003071D01*
X017738Y005094D02*
X017824Y005108D01*
X017910Y005136D01*
X017991Y005177D01*
X018064Y005230D01*
X018127Y005294D01*
X018181Y005367D01*
X018222Y005448D01*
X018249Y005533D01*
X018263Y005620D01*
X017738Y005620D01*
X017738Y005094D01*
X017738Y005132D02*
X017642Y005132D01*
X017642Y005290D02*
X017738Y005290D01*
X017738Y005449D02*
X017642Y005449D01*
X017642Y005607D02*
X017738Y005607D01*
X018124Y005290D02*
X019882Y005290D01*
X019882Y005132D02*
X017897Y005132D01*
X018222Y005449D02*
X019882Y005449D01*
X019882Y005607D02*
X018261Y005607D01*
X018255Y005766D02*
X019882Y005766D01*
X019882Y005924D02*
X018203Y005924D01*
X018086Y006083D02*
X019882Y006083D01*
X019882Y006241D02*
X011659Y006241D01*
X011811Y006400D02*
X019882Y006400D01*
X019882Y006558D02*
X011969Y006558D01*
X012128Y006717D02*
X019882Y006717D01*
X019882Y006875D02*
X012286Y006875D01*
X011431Y005766D02*
X014069Y005766D01*
X013911Y005607D02*
X006528Y005607D01*
X006621Y005449D02*
X013817Y005449D01*
X013752Y005290D02*
X006687Y005290D01*
X006699Y005132D02*
X013740Y005132D01*
X013740Y004973D02*
X006699Y004973D01*
X006647Y004815D02*
X013792Y004815D01*
X013858Y004656D02*
X006581Y004656D01*
X006431Y004498D02*
X014008Y004498D01*
X014273Y004339D02*
X006166Y004339D01*
X006199Y003129D02*
X006021Y003129D01*
X005739Y002847D01*
X005739Y002669D01*
X006199Y002669D01*
X006199Y003129D01*
X006239Y003129D02*
X006418Y003129D01*
X006699Y002847D01*
X006699Y002669D01*
X006239Y002669D01*
X006199Y002669D01*
X006199Y002629D01*
X005739Y002629D01*
X005739Y002450D01*
X006021Y002169D01*
X006199Y002169D01*
X006199Y002628D01*
X006239Y002628D01*
X006239Y002169D01*
X006418Y002169D01*
X006699Y002450D01*
X006699Y002629D01*
X006239Y002629D01*
X006239Y002669D01*
X006239Y003129D01*
X006239Y003071D02*
X006199Y003071D01*
X006199Y002913D02*
X006239Y002913D01*
X006239Y002754D02*
X006199Y002754D01*
X006199Y002596D02*
X006239Y002596D01*
X006239Y002437D02*
X006199Y002437D01*
X006199Y002279D02*
X006239Y002279D01*
X006402Y002089D02*
X006037Y002089D01*
X005779Y001831D01*
X005779Y001466D01*
X006037Y001209D01*
X006402Y001209D01*
X006659Y001466D01*
X006659Y001831D01*
X006402Y002089D01*
X006528Y001962D02*
X006910Y001962D01*
X007037Y002089D02*
X006779Y001831D01*
X006779Y001466D01*
X007037Y001209D01*
X007402Y001209D01*
X007659Y001466D01*
X007659Y001831D01*
X007402Y002089D01*
X007037Y002089D01*
X007021Y002169D02*
X007199Y002169D01*
X007199Y002628D01*
X007239Y002628D01*
X007239Y002169D01*
X007418Y002169D01*
X007699Y002450D01*
X007699Y002629D01*
X007239Y002629D01*
X007239Y002669D01*
X007199Y002669D01*
X007199Y003129D01*
X007021Y003129D01*
X006739Y002847D01*
X006739Y002669D01*
X007199Y002669D01*
X007199Y002629D01*
X006739Y002629D01*
X006739Y002450D01*
X007021Y002169D01*
X006910Y002279D02*
X006529Y002279D01*
X006687Y002437D02*
X006752Y002437D01*
X006739Y002596D02*
X006699Y002596D01*
X006699Y002754D02*
X006739Y002754D01*
X006805Y002913D02*
X006634Y002913D01*
X006475Y003071D02*
X006963Y003071D01*
X007199Y003071D02*
X007239Y003071D01*
X007239Y003129D02*
X007418Y003129D01*
X007699Y002847D01*
X007699Y002669D01*
X007239Y002669D01*
X007239Y003129D01*
X007239Y002913D02*
X007199Y002913D01*
X007199Y002754D02*
X007239Y002754D01*
X007239Y002596D02*
X007199Y002596D01*
X007199Y002437D02*
X007239Y002437D01*
X007239Y002279D02*
X007199Y002279D01*
X007529Y002279D02*
X007910Y002279D01*
X008021Y002169D02*
X008199Y002169D01*
X008199Y002628D01*
X008239Y002628D01*
X008239Y002169D01*
X008418Y002169D01*
X008699Y002450D01*
X008699Y002629D01*
X008239Y002629D01*
X008239Y002669D01*
X008199Y002669D01*
X008199Y003129D01*
X008021Y003129D01*
X007739Y002847D01*
X007739Y002669D01*
X008199Y002669D01*
X008199Y002629D01*
X007739Y002629D01*
X007739Y002450D01*
X008021Y002169D01*
X008037Y002089D02*
X007779Y001831D01*
X007779Y001466D01*
X008037Y001209D01*
X008402Y001209D01*
X008659Y001466D01*
X008659Y001831D01*
X008402Y002089D01*
X008037Y002089D01*
X007910Y001962D02*
X007528Y001962D01*
X007659Y001803D02*
X007779Y001803D01*
X007779Y001645D02*
X007659Y001645D01*
X007659Y001486D02*
X007779Y001486D01*
X007918Y001328D02*
X007521Y001328D01*
X006918Y001328D02*
X006521Y001328D01*
X006659Y001486D02*
X006779Y001486D01*
X006779Y001645D02*
X006659Y001645D01*
X006659Y001803D02*
X006779Y001803D01*
X007687Y002437D02*
X007752Y002437D01*
X007739Y002596D02*
X007699Y002596D01*
X007699Y002754D02*
X007739Y002754D01*
X007805Y002913D02*
X007634Y002913D01*
X007475Y003071D02*
X007963Y003071D01*
X008199Y003071D02*
X008239Y003071D01*
X008239Y003129D02*
X008418Y003129D01*
X008699Y002847D01*
X008699Y002669D01*
X008239Y002669D01*
X008239Y003129D01*
X008239Y002913D02*
X008199Y002913D01*
X008199Y002754D02*
X008239Y002754D01*
X008239Y002596D02*
X008199Y002596D01*
X008199Y002437D02*
X008239Y002437D01*
X008239Y002279D02*
X008199Y002279D01*
X008529Y002279D02*
X008910Y002279D01*
X009021Y002169D02*
X009199Y002169D01*
X009199Y002628D01*
X009239Y002628D01*
X009239Y002169D01*
X009418Y002169D01*
X009699Y002450D01*
X009699Y002629D01*
X009239Y002629D01*
X009239Y002669D01*
X009199Y002669D01*
X009199Y003129D01*
X009021Y003129D01*
X008739Y002847D01*
X008739Y002669D01*
X009199Y002669D01*
X009199Y002629D01*
X008739Y002629D01*
X008739Y002450D01*
X009021Y002169D01*
X009037Y002089D02*
X008779Y001831D01*
X008779Y001466D01*
X009037Y001209D01*
X009402Y001209D01*
X009659Y001466D01*
X009659Y001831D01*
X009402Y002089D01*
X009037Y002089D01*
X008910Y001962D02*
X008528Y001962D01*
X008659Y001803D02*
X008779Y001803D01*
X008779Y001645D02*
X008659Y001645D01*
X008659Y001486D02*
X008779Y001486D01*
X008918Y001328D02*
X008521Y001328D01*
X009521Y001328D02*
X009918Y001328D01*
X010037Y001209D02*
X009779Y001466D01*
X009779Y001831D01*
X010037Y002089D01*
X010402Y002089D01*
X010659Y001831D01*
X010659Y001466D01*
X010402Y001209D01*
X010037Y001209D01*
X009779Y001486D02*
X009659Y001486D01*
X009659Y001645D02*
X009779Y001645D01*
X009779Y001803D02*
X009659Y001803D01*
X009528Y001962D02*
X009910Y001962D01*
X010021Y002169D02*
X010199Y002169D01*
X010199Y002628D01*
X010239Y002628D01*
X010239Y002169D01*
X010418Y002169D01*
X010699Y002450D01*
X010699Y002629D01*
X010239Y002629D01*
X010239Y002669D01*
X010199Y002669D01*
X010199Y003129D01*
X010021Y003129D01*
X009739Y002847D01*
X009739Y002669D01*
X010199Y002669D01*
X010199Y002629D01*
X009739Y002629D01*
X009739Y002450D01*
X010021Y002169D01*
X009910Y002279D02*
X009529Y002279D01*
X009687Y002437D02*
X009752Y002437D01*
X009739Y002596D02*
X009699Y002596D01*
X009699Y002669D02*
X009699Y002847D01*
X009418Y003129D01*
X009239Y003129D01*
X009239Y002669D01*
X009699Y002669D01*
X009699Y002754D02*
X009739Y002754D01*
X009805Y002913D02*
X009634Y002913D01*
X009475Y003071D02*
X009963Y003071D01*
X010199Y003071D02*
X010239Y003071D01*
X010239Y003129D02*
X010418Y003129D01*
X010699Y002847D01*
X010699Y002669D01*
X010239Y002669D01*
X010239Y003129D01*
X010239Y002913D02*
X010199Y002913D01*
X010199Y002754D02*
X010239Y002754D01*
X010239Y002596D02*
X010199Y002596D01*
X010199Y002437D02*
X010239Y002437D01*
X010239Y002279D02*
X010199Y002279D01*
X010529Y002279D02*
X010910Y002279D01*
X011021Y002169D02*
X011199Y002169D01*
X011199Y002628D01*
X011239Y002628D01*
X011239Y002169D01*
X011418Y002169D01*
X011699Y002450D01*
X011699Y002629D01*
X011239Y002629D01*
X011239Y002669D01*
X011199Y002669D01*
X011199Y003129D01*
X011021Y003129D01*
X010739Y002847D01*
X010739Y002669D01*
X011199Y002669D01*
X011199Y002629D01*
X010739Y002629D01*
X010739Y002450D01*
X011021Y002169D01*
X011037Y002089D02*
X010779Y001831D01*
X010779Y001466D01*
X011037Y001209D01*
X011402Y001209D01*
X011659Y001466D01*
X011659Y001831D01*
X011402Y002089D01*
X011037Y002089D01*
X010910Y001962D02*
X010528Y001962D01*
X010659Y001803D02*
X010779Y001803D01*
X010779Y001645D02*
X010659Y001645D01*
X010659Y001486D02*
X010779Y001486D01*
X010918Y001328D02*
X010521Y001328D01*
X011521Y001328D02*
X011918Y001328D01*
X012037Y001209D02*
X011779Y001466D01*
X011779Y001831D01*
X012037Y002089D01*
X012402Y002089D01*
X012659Y001831D01*
X012659Y001466D01*
X012402Y001209D01*
X012037Y001209D01*
X011779Y001486D02*
X011659Y001486D01*
X011659Y001645D02*
X011779Y001645D01*
X011779Y001803D02*
X011659Y001803D01*
X011528Y001962D02*
X011910Y001962D01*
X012021Y002169D02*
X012199Y002169D01*
X012199Y002628D01*
X012239Y002628D01*
X012239Y002169D01*
X012418Y002169D01*
X012699Y002450D01*
X012699Y002629D01*
X012239Y002629D01*
X012239Y002669D01*
X012199Y002669D01*
X012199Y003129D01*
X012021Y003129D01*
X011739Y002847D01*
X011739Y002669D01*
X012199Y002669D01*
X012199Y002629D01*
X011739Y002629D01*
X011739Y002450D01*
X012021Y002169D01*
X011910Y002279D02*
X011529Y002279D01*
X011687Y002437D02*
X011752Y002437D01*
X011739Y002596D02*
X011699Y002596D01*
X011699Y002669D02*
X011699Y002847D01*
X011418Y003129D01*
X011239Y003129D01*
X011239Y002669D01*
X011699Y002669D01*
X011699Y002754D02*
X011739Y002754D01*
X011805Y002913D02*
X011634Y002913D01*
X011475Y003071D02*
X011963Y003071D01*
X012199Y003071D02*
X012239Y003071D01*
X012239Y003129D02*
X012418Y003129D01*
X012699Y002847D01*
X012699Y002669D01*
X012239Y002669D01*
X012239Y003129D01*
X012239Y002913D02*
X012199Y002913D01*
X012199Y002754D02*
X012239Y002754D01*
X012239Y002596D02*
X012199Y002596D01*
X012199Y002437D02*
X012239Y002437D01*
X012239Y002279D02*
X012199Y002279D01*
X012529Y002279D02*
X012910Y002279D01*
X012752Y002437D02*
X012687Y002437D01*
X012699Y002596D02*
X012739Y002596D01*
X012739Y002754D02*
X012699Y002754D01*
X012634Y002913D02*
X012805Y002913D01*
X012963Y003071D02*
X012475Y003071D01*
X013199Y003071D02*
X013239Y003071D01*
X013239Y002913D02*
X013199Y002913D01*
X013199Y002754D02*
X013239Y002754D01*
X013239Y002596D02*
X013199Y002596D01*
X013199Y002437D02*
X013239Y002437D01*
X013239Y002279D02*
X013199Y002279D01*
X012910Y001962D02*
X012528Y001962D01*
X012659Y001803D02*
X012779Y001803D01*
X012779Y001645D02*
X012659Y001645D01*
X012659Y001486D02*
X012779Y001486D01*
X012918Y001328D02*
X012521Y001328D01*
X011239Y002279D02*
X011199Y002279D01*
X011199Y002437D02*
X011239Y002437D01*
X011239Y002596D02*
X011199Y002596D01*
X011199Y002754D02*
X011239Y002754D01*
X011239Y002913D02*
X011199Y002913D01*
X011199Y003071D02*
X011239Y003071D01*
X010963Y003071D02*
X010475Y003071D01*
X010634Y002913D02*
X010805Y002913D01*
X010739Y002754D02*
X010699Y002754D01*
X010699Y002596D02*
X010739Y002596D01*
X010752Y002437D02*
X010687Y002437D01*
X009239Y002437D02*
X009199Y002437D01*
X009199Y002279D02*
X009239Y002279D01*
X009239Y002596D02*
X009199Y002596D01*
X009199Y002754D02*
X009239Y002754D01*
X009239Y002913D02*
X009199Y002913D01*
X009199Y003071D02*
X009239Y003071D01*
X008963Y003071D02*
X008475Y003071D01*
X008634Y002913D02*
X008805Y002913D01*
X008739Y002754D02*
X008699Y002754D01*
X008699Y002596D02*
X008739Y002596D01*
X008752Y002437D02*
X008687Y002437D01*
X005963Y003071D02*
X005475Y003071D01*
X005418Y003129D02*
X005239Y003129D01*
X005239Y002669D01*
X005199Y002669D01*
X005199Y003129D01*
X005021Y003129D01*
X004739Y002847D01*
X004739Y002669D01*
X005199Y002669D01*
X005199Y002629D01*
X004739Y002629D01*
X004739Y002450D01*
X005021Y002169D01*
X005199Y002169D01*
X005199Y002628D01*
X005239Y002628D01*
X005239Y002169D01*
X005418Y002169D01*
X005699Y002450D01*
X005699Y002629D01*
X005239Y002629D01*
X005239Y002669D01*
X005699Y002669D01*
X005699Y002847D01*
X005418Y003129D01*
X005239Y003071D02*
X005199Y003071D01*
X005199Y002913D02*
X005239Y002913D01*
X005239Y002754D02*
X005199Y002754D01*
X005199Y002596D02*
X005239Y002596D01*
X005239Y002437D02*
X005199Y002437D01*
X005199Y002279D02*
X005239Y002279D01*
X005402Y002089D02*
X005037Y002089D01*
X004779Y001831D01*
X004779Y001466D01*
X005037Y001209D01*
X005402Y001209D01*
X005659Y001466D01*
X005659Y001831D01*
X005402Y002089D01*
X005528Y001962D02*
X005910Y001962D01*
X005779Y001803D02*
X005659Y001803D01*
X005659Y001645D02*
X005779Y001645D01*
X005779Y001486D02*
X005659Y001486D01*
X005521Y001328D02*
X005918Y001328D01*
X004918Y001328D02*
X004521Y001328D01*
X004402Y001209D02*
X004659Y001466D01*
X004659Y001831D01*
X004402Y002089D01*
X004037Y002089D01*
X003779Y001831D01*
X003779Y001466D01*
X004037Y001209D01*
X004402Y001209D01*
X004659Y001486D02*
X004779Y001486D01*
X004779Y001645D02*
X004659Y001645D01*
X004659Y001803D02*
X004779Y001803D01*
X004910Y001962D02*
X004528Y001962D01*
X004418Y002169D02*
X004699Y002450D01*
X004699Y002629D01*
X004239Y002629D01*
X004239Y002669D01*
X004199Y002669D01*
X004199Y003129D01*
X004021Y003129D01*
X003739Y002847D01*
X003739Y002669D01*
X004199Y002669D01*
X004199Y002629D01*
X003739Y002629D01*
X003739Y002450D01*
X004021Y002169D01*
X004199Y002169D01*
X004199Y002628D01*
X004239Y002628D01*
X004239Y002169D01*
X004418Y002169D01*
X004529Y002279D02*
X004910Y002279D01*
X004752Y002437D02*
X004687Y002437D01*
X004699Y002596D02*
X004739Y002596D01*
X004699Y002669D02*
X004699Y002847D01*
X004418Y003129D01*
X004239Y003129D01*
X004239Y002669D01*
X004699Y002669D01*
X004699Y002754D02*
X004739Y002754D01*
X004805Y002913D02*
X004634Y002913D01*
X004475Y003071D02*
X004963Y003071D01*
X005634Y002913D02*
X005805Y002913D01*
X005739Y002754D02*
X005699Y002754D01*
X005699Y002596D02*
X005739Y002596D01*
X005752Y002437D02*
X005687Y002437D01*
X005529Y002279D02*
X005910Y002279D01*
X004239Y002279D02*
X004199Y002279D01*
X004199Y002437D02*
X004239Y002437D01*
X004239Y002596D02*
X004199Y002596D01*
X004199Y002754D02*
X004239Y002754D01*
X004239Y002913D02*
X004199Y002913D01*
X004199Y003071D02*
X004239Y003071D01*
X003963Y003071D02*
X003475Y003071D01*
X003418Y003129D02*
X003239Y003129D01*
X003239Y002669D01*
X003199Y002669D01*
X003199Y003129D01*
X003021Y003129D01*
X002739Y002847D01*
X002739Y002669D01*
X003199Y002669D01*
X003199Y002629D01*
X002739Y002629D01*
X002739Y002450D01*
X003021Y002169D01*
X003199Y002169D01*
X003199Y002628D01*
X003239Y002628D01*
X003239Y002169D01*
X003418Y002169D01*
X003699Y002450D01*
X003699Y002629D01*
X003239Y002629D01*
X003239Y002669D01*
X003699Y002669D01*
X003699Y002847D01*
X003418Y003129D01*
X003239Y003071D02*
X003199Y003071D01*
X003199Y002913D02*
X003239Y002913D01*
X003239Y002754D02*
X003199Y002754D01*
X003199Y002596D02*
X003239Y002596D01*
X003239Y002437D02*
X003199Y002437D01*
X003199Y002279D02*
X003239Y002279D01*
X003402Y002089D02*
X003037Y002089D01*
X002779Y001831D01*
X002779Y001466D01*
X003037Y001209D01*
X003402Y001209D01*
X003659Y001466D01*
X003659Y001831D01*
X003402Y002089D01*
X003528Y001962D02*
X003910Y001962D01*
X003779Y001803D02*
X003659Y001803D01*
X003659Y001645D02*
X003779Y001645D01*
X003779Y001486D02*
X003659Y001486D01*
X003521Y001328D02*
X003918Y001328D01*
X003910Y002279D02*
X003529Y002279D01*
X003687Y002437D02*
X003752Y002437D01*
X003739Y002596D02*
X003699Y002596D01*
X003699Y002754D02*
X003739Y002754D01*
X003805Y002913D02*
X003634Y002913D01*
X002963Y003071D02*
X002475Y003071D01*
X002634Y002913D02*
X002805Y002913D01*
X002739Y002754D02*
X002699Y002754D01*
X002699Y002596D02*
X002739Y002596D01*
X002752Y002437D02*
X002687Y002437D01*
X002529Y002279D02*
X002910Y002279D01*
X002910Y001962D02*
X002528Y001962D01*
X002659Y001803D02*
X002779Y001803D01*
X002779Y001645D02*
X002659Y001645D01*
X002659Y001486D02*
X002779Y001486D01*
X002918Y001328D02*
X002521Y001328D01*
X001918Y001328D02*
X000557Y001328D01*
X000557Y001486D02*
X001779Y001486D01*
X001779Y001645D02*
X000557Y001645D01*
X000557Y001803D02*
X001779Y001803D01*
X001910Y002279D02*
X000557Y002279D01*
X000557Y002437D02*
X001752Y002437D01*
X001739Y002596D02*
X000557Y002596D01*
X000557Y002754D02*
X001739Y002754D01*
X001805Y002913D02*
X000557Y002913D01*
X000557Y001169D02*
X019882Y001169D01*
X019882Y001011D02*
X000557Y001011D01*
X000557Y000852D02*
X019882Y000852D01*
X019882Y000694D02*
X000557Y000694D01*
X006369Y005766D02*
X008951Y005766D01*
X009199Y005766D02*
X009239Y005766D01*
X009239Y005924D02*
X009199Y005924D01*
X009199Y006083D02*
X009239Y006083D01*
X009239Y006196D02*
X009699Y006196D01*
X009699Y006375D01*
X009418Y006656D01*
X009239Y006656D01*
X009239Y006196D01*
X009239Y006241D02*
X009199Y006241D01*
X009199Y006400D02*
X009239Y006400D01*
X009239Y006558D02*
X009199Y006558D01*
X009516Y006558D02*
X009979Y006558D01*
X010037Y006616D02*
X009779Y006358D01*
X009779Y005994D01*
X010037Y005736D01*
X010402Y005736D01*
X010659Y005994D01*
X010659Y006358D01*
X010402Y006616D01*
X010037Y006616D01*
X010037Y006736D02*
X010402Y006736D01*
X010659Y006994D01*
X010659Y007358D01*
X010402Y007616D01*
X010037Y007616D01*
X009779Y007358D01*
X009779Y006994D01*
X010037Y006736D01*
X009898Y006875D02*
X009541Y006875D01*
X009659Y007034D02*
X009779Y007034D01*
X009779Y007192D02*
X009659Y007192D01*
X009659Y007351D02*
X009779Y007351D01*
X009930Y007509D02*
X009508Y007509D01*
X008930Y007509D02*
X005966Y007509D01*
X005966Y007351D02*
X008779Y007351D01*
X008779Y007192D02*
X005933Y007192D01*
X005822Y007034D02*
X008779Y007034D01*
X009674Y006400D02*
X009821Y006400D01*
X009779Y006241D02*
X009699Y006241D01*
X009699Y006083D02*
X009779Y006083D01*
X009849Y005924D02*
X009646Y005924D01*
X009488Y005766D02*
X010007Y005766D01*
X010431Y005766D02*
X011007Y005766D01*
X010849Y005924D02*
X010590Y005924D01*
X010659Y006083D02*
X010779Y006083D01*
X010779Y006241D02*
X010659Y006241D01*
X010618Y006400D02*
X010821Y006400D01*
X010979Y006558D02*
X010459Y006558D01*
X010541Y006875D02*
X010898Y006875D01*
X010779Y007034D02*
X010659Y007034D01*
X010659Y007192D02*
X010779Y007192D01*
X010779Y007351D02*
X010659Y007351D01*
X010508Y007509D02*
X010930Y007509D01*
X005966Y007985D02*
X017252Y007985D01*
X017443Y008143D02*
X005927Y008143D01*
X000557Y017495D02*
X019882Y017495D01*
X019882Y017653D02*
X000557Y017653D01*
X000557Y017812D02*
X019882Y017812D01*
X019882Y017970D02*
X000557Y017970D01*
X000557Y018129D02*
X001257Y018129D01*
X001006Y018287D02*
X000557Y018287D01*
X000557Y018446D02*
X000861Y018446D01*
X000796Y018604D02*
X000557Y018604D01*
X000557Y018763D02*
X000748Y018763D01*
X000748Y018921D02*
X000557Y018921D01*
X000557Y019080D02*
X000764Y019080D01*
X000829Y019238D02*
X000557Y019238D01*
X000557Y019397D02*
X000929Y019397D01*
X001087Y019555D02*
X000557Y019555D01*
X005855Y018604D02*
X006584Y018604D01*
X006390Y018763D02*
X006049Y018763D01*
X006099Y018921D02*
X006339Y018921D01*
X006339Y019080D02*
X006099Y019080D01*
X006099Y019238D02*
X006339Y019238D01*
X006339Y019397D02*
X006099Y019397D01*
X006083Y019555D02*
X006356Y019555D01*
X006456Y019714D02*
X005983Y019714D01*
X018180Y014008D02*
X018220Y014008D01*
X018220Y013849D02*
X018180Y013849D01*
X018180Y013532D02*
X018220Y013532D01*
X018220Y013374D02*
X018180Y013374D01*
X018180Y013215D02*
X018220Y013215D01*
X018220Y013057D02*
X018180Y013057D01*
X018180Y012898D02*
X018220Y012898D01*
X018220Y012740D02*
X018180Y012740D01*
D16*
X018200Y012172D02*
X018200Y011172D01*
X017200Y011172D01*
X003239Y011172D01*
X002239Y011172D01*
X002239Y007948D01*
X002526Y007660D01*
X002239Y011172D02*
X002239Y012172D01*
X003239Y012172D01*
X011219Y006176D02*
X012711Y007668D01*
X017690Y007668D01*
X018200Y008178D01*
X018200Y011172D01*
X018200Y012172D02*
X017200Y012172D01*
M02*
