%
M48
M72
T01C0.0236
T02C0.0320
T03C0.0400
T04C0.0512
T05C0.1260
%
T01
X19274Y10023
X21637Y11007
X21046Y11597
X21834Y12385
X25377Y13960
X26361Y13960
X26952Y13566
X25771Y11991
X26164Y11400
X22030Y6086
X19865Y6086
X12582Y13763
X13369Y14550
X15337Y15731
X15141Y16519
X14156Y16912
X13369Y17109
X14550Y17700
X13763Y18290
X12778Y19471
X10023Y19274
X5692Y19668
X9038Y16715
X8448Y15337
X13369Y16125
T02
X13247Y20156
X14247Y20156
X15247Y20156
X16247Y20156
X17247Y20156
X18247Y20156
X19247Y20156
X20247Y20156
X21247Y20156
X22247Y20156
X23247Y20156
X24247Y20156
X25247Y20156
X26247Y20156
X27247Y20156
X28247Y20156
X12247Y20156
X11247Y20156
X10247Y20156
X9247Y20156
X9247Y1156
X10247Y1156
X11247Y1156
X26247Y1156
X27247Y1156
X28247Y1156
T03
X5586Y1920
X6586Y1920
X6586Y2920
X5586Y2920
X5586Y3920
X6586Y3920
X6586Y4920
X5586Y4920
X5586Y5920
X6586Y5920
X12869Y9613
X13869Y9613
X13869Y10613
X12869Y10613
X12869Y11613
X13869Y11613
X30782Y15306
X31782Y15306
X31782Y16306
X30782Y16306
X30782Y17306
X31782Y17306
X31782Y18306
X30782Y18306
X30782Y19306
X31782Y19306
X31282Y12613
X31282Y11613
X31282Y10613
X31282Y9613
X31282Y8613
X30782Y5920
X31782Y5920
X31782Y4920
X30782Y4920
X30782Y3920
X31782Y3920
X31782Y2920
X30782Y2920
X30782Y1920
X31782Y1920
T04
X23826Y2355
X21826Y2355
X15558Y2355
X13558Y2355
T05
X1952Y4314
X1952Y14550
X35416Y14550
X35416Y4314
M30
