G75*
G70*
%OFA0B0*%
%FSLAX24Y24*%
%IPPOS*%
%LPD*%
%AMOC8*
5,1,8,0,0,1.08239X$1,22.5*
%
%ADD10C,0.0000*%
%ADD11OC8,0.0600*%
%ADD12R,0.0512X0.0591*%
%ADD13R,0.0591X0.0512*%
%ADD14R,0.0500X0.1000*%
%ADD15C,0.0787*%
%ADD16R,0.0472X0.0217*%
%ADD17R,0.0480X0.0480*%
%ADD18R,0.0800X0.0260*%
%ADD19R,0.0880X0.0480*%
%ADD20R,0.0866X0.1417*%
%ADD21R,0.0787X0.0472*%
%ADD22R,0.0591X0.0197*%
%ADD23R,0.0197X0.0591*%
%ADD24R,0.0760X0.2100*%
%ADD25C,0.0600*%
%ADD26C,0.0160*%
%ADD27OC8,0.0356*%
%ADD28C,0.0100*%
D10*
X000377Y000377D02*
X036991Y000377D01*
X036991Y020849D01*
X000377Y020849D01*
X000377Y000377D01*
X001322Y004314D02*
X001324Y004364D01*
X001330Y004414D01*
X001340Y004463D01*
X001354Y004511D01*
X001371Y004558D01*
X001392Y004603D01*
X001417Y004647D01*
X001445Y004688D01*
X001477Y004727D01*
X001511Y004764D01*
X001548Y004798D01*
X001588Y004828D01*
X001630Y004855D01*
X001674Y004879D01*
X001720Y004900D01*
X001767Y004916D01*
X001815Y004929D01*
X001865Y004938D01*
X001914Y004943D01*
X001965Y004944D01*
X002015Y004941D01*
X002064Y004934D01*
X002113Y004923D01*
X002161Y004908D01*
X002207Y004890D01*
X002252Y004868D01*
X002295Y004842D01*
X002336Y004813D01*
X002375Y004781D01*
X002411Y004746D01*
X002443Y004708D01*
X002473Y004668D01*
X002500Y004625D01*
X002523Y004581D01*
X002542Y004535D01*
X002558Y004487D01*
X002570Y004438D01*
X002578Y004389D01*
X002582Y004339D01*
X002582Y004289D01*
X002578Y004239D01*
X002570Y004190D01*
X002558Y004141D01*
X002542Y004093D01*
X002523Y004047D01*
X002500Y004003D01*
X002473Y003960D01*
X002443Y003920D01*
X002411Y003882D01*
X002375Y003847D01*
X002336Y003815D01*
X002295Y003786D01*
X002252Y003760D01*
X002207Y003738D01*
X002161Y003720D01*
X002113Y003705D01*
X002064Y003694D01*
X002015Y003687D01*
X001965Y003684D01*
X001914Y003685D01*
X001865Y003690D01*
X001815Y003699D01*
X001767Y003712D01*
X001720Y003728D01*
X001674Y003749D01*
X001630Y003773D01*
X001588Y003800D01*
X001548Y003830D01*
X001511Y003864D01*
X001477Y003901D01*
X001445Y003940D01*
X001417Y003981D01*
X001392Y004025D01*
X001371Y004070D01*
X001354Y004117D01*
X001340Y004165D01*
X001330Y004214D01*
X001324Y004264D01*
X001322Y004314D01*
X001322Y014550D02*
X001324Y014600D01*
X001330Y014650D01*
X001340Y014699D01*
X001354Y014747D01*
X001371Y014794D01*
X001392Y014839D01*
X001417Y014883D01*
X001445Y014924D01*
X001477Y014963D01*
X001511Y015000D01*
X001548Y015034D01*
X001588Y015064D01*
X001630Y015091D01*
X001674Y015115D01*
X001720Y015136D01*
X001767Y015152D01*
X001815Y015165D01*
X001865Y015174D01*
X001914Y015179D01*
X001965Y015180D01*
X002015Y015177D01*
X002064Y015170D01*
X002113Y015159D01*
X002161Y015144D01*
X002207Y015126D01*
X002252Y015104D01*
X002295Y015078D01*
X002336Y015049D01*
X002375Y015017D01*
X002411Y014982D01*
X002443Y014944D01*
X002473Y014904D01*
X002500Y014861D01*
X002523Y014817D01*
X002542Y014771D01*
X002558Y014723D01*
X002570Y014674D01*
X002578Y014625D01*
X002582Y014575D01*
X002582Y014525D01*
X002578Y014475D01*
X002570Y014426D01*
X002558Y014377D01*
X002542Y014329D01*
X002523Y014283D01*
X002500Y014239D01*
X002473Y014196D01*
X002443Y014156D01*
X002411Y014118D01*
X002375Y014083D01*
X002336Y014051D01*
X002295Y014022D01*
X002252Y013996D01*
X002207Y013974D01*
X002161Y013956D01*
X002113Y013941D01*
X002064Y013930D01*
X002015Y013923D01*
X001965Y013920D01*
X001914Y013921D01*
X001865Y013926D01*
X001815Y013935D01*
X001767Y013948D01*
X001720Y013964D01*
X001674Y013985D01*
X001630Y014009D01*
X001588Y014036D01*
X001548Y014066D01*
X001511Y014100D01*
X001477Y014137D01*
X001445Y014176D01*
X001417Y014217D01*
X001392Y014261D01*
X001371Y014306D01*
X001354Y014353D01*
X001340Y014401D01*
X001330Y014450D01*
X001324Y014500D01*
X001322Y014550D01*
X034786Y014550D02*
X034788Y014600D01*
X034794Y014650D01*
X034804Y014699D01*
X034818Y014747D01*
X034835Y014794D01*
X034856Y014839D01*
X034881Y014883D01*
X034909Y014924D01*
X034941Y014963D01*
X034975Y015000D01*
X035012Y015034D01*
X035052Y015064D01*
X035094Y015091D01*
X035138Y015115D01*
X035184Y015136D01*
X035231Y015152D01*
X035279Y015165D01*
X035329Y015174D01*
X035378Y015179D01*
X035429Y015180D01*
X035479Y015177D01*
X035528Y015170D01*
X035577Y015159D01*
X035625Y015144D01*
X035671Y015126D01*
X035716Y015104D01*
X035759Y015078D01*
X035800Y015049D01*
X035839Y015017D01*
X035875Y014982D01*
X035907Y014944D01*
X035937Y014904D01*
X035964Y014861D01*
X035987Y014817D01*
X036006Y014771D01*
X036022Y014723D01*
X036034Y014674D01*
X036042Y014625D01*
X036046Y014575D01*
X036046Y014525D01*
X036042Y014475D01*
X036034Y014426D01*
X036022Y014377D01*
X036006Y014329D01*
X035987Y014283D01*
X035964Y014239D01*
X035937Y014196D01*
X035907Y014156D01*
X035875Y014118D01*
X035839Y014083D01*
X035800Y014051D01*
X035759Y014022D01*
X035716Y013996D01*
X035671Y013974D01*
X035625Y013956D01*
X035577Y013941D01*
X035528Y013930D01*
X035479Y013923D01*
X035429Y013920D01*
X035378Y013921D01*
X035329Y013926D01*
X035279Y013935D01*
X035231Y013948D01*
X035184Y013964D01*
X035138Y013985D01*
X035094Y014009D01*
X035052Y014036D01*
X035012Y014066D01*
X034975Y014100D01*
X034941Y014137D01*
X034909Y014176D01*
X034881Y014217D01*
X034856Y014261D01*
X034835Y014306D01*
X034818Y014353D01*
X034804Y014401D01*
X034794Y014450D01*
X034788Y014500D01*
X034786Y014550D01*
X034786Y004314D02*
X034788Y004364D01*
X034794Y004414D01*
X034804Y004463D01*
X034818Y004511D01*
X034835Y004558D01*
X034856Y004603D01*
X034881Y004647D01*
X034909Y004688D01*
X034941Y004727D01*
X034975Y004764D01*
X035012Y004798D01*
X035052Y004828D01*
X035094Y004855D01*
X035138Y004879D01*
X035184Y004900D01*
X035231Y004916D01*
X035279Y004929D01*
X035329Y004938D01*
X035378Y004943D01*
X035429Y004944D01*
X035479Y004941D01*
X035528Y004934D01*
X035577Y004923D01*
X035625Y004908D01*
X035671Y004890D01*
X035716Y004868D01*
X035759Y004842D01*
X035800Y004813D01*
X035839Y004781D01*
X035875Y004746D01*
X035907Y004708D01*
X035937Y004668D01*
X035964Y004625D01*
X035987Y004581D01*
X036006Y004535D01*
X036022Y004487D01*
X036034Y004438D01*
X036042Y004389D01*
X036046Y004339D01*
X036046Y004289D01*
X036042Y004239D01*
X036034Y004190D01*
X036022Y004141D01*
X036006Y004093D01*
X035987Y004047D01*
X035964Y004003D01*
X035937Y003960D01*
X035907Y003920D01*
X035875Y003882D01*
X035839Y003847D01*
X035800Y003815D01*
X035759Y003786D01*
X035716Y003760D01*
X035671Y003738D01*
X035625Y003720D01*
X035577Y003705D01*
X035528Y003694D01*
X035479Y003687D01*
X035429Y003684D01*
X035378Y003685D01*
X035329Y003690D01*
X035279Y003699D01*
X035231Y003712D01*
X035184Y003728D01*
X035138Y003749D01*
X035094Y003773D01*
X035052Y003800D01*
X035012Y003830D01*
X034975Y003864D01*
X034941Y003901D01*
X034909Y003940D01*
X034881Y003981D01*
X034856Y004025D01*
X034835Y004070D01*
X034818Y004117D01*
X034804Y004165D01*
X034794Y004214D01*
X034788Y004264D01*
X034786Y004314D01*
D11*
X031782Y003920D03*
X030782Y003920D03*
X030782Y002920D03*
X031782Y002920D03*
X031782Y001920D03*
X030782Y001920D03*
X030782Y004920D03*
X031782Y004920D03*
X031782Y005920D03*
X030782Y005920D03*
X030782Y015306D03*
X031782Y015306D03*
X031782Y016306D03*
X030782Y016306D03*
X030782Y017306D03*
X031782Y017306D03*
X031782Y018306D03*
X030782Y018306D03*
X030782Y019306D03*
X031782Y019306D03*
X013869Y011613D03*
X012869Y011613D03*
X012869Y010613D03*
X013869Y010613D03*
X013869Y009613D03*
X012869Y009613D03*
X006586Y005920D03*
X005586Y005920D03*
X005586Y004920D03*
X006586Y004920D03*
X006586Y003920D03*
X005586Y003920D03*
X005586Y002920D03*
X006586Y002920D03*
X006586Y001920D03*
X005586Y001920D03*
D12*
X009845Y002542D03*
X010593Y002542D03*
X012995Y007857D03*
X013743Y007857D03*
X010200Y009826D03*
X009452Y009826D03*
X010830Y013763D03*
X011578Y013763D03*
X021656Y013763D03*
X022404Y013763D03*
X028940Y012582D03*
X029688Y012582D03*
X029688Y010613D03*
X028940Y010613D03*
X028940Y008645D03*
X029688Y008645D03*
D13*
X024196Y006460D03*
X024196Y005711D03*
X020062Y008467D03*
X020062Y009215D03*
X020062Y011026D03*
X020062Y011774D03*
X027542Y014373D03*
X027542Y015121D03*
X029117Y015121D03*
X029117Y014373D03*
X028526Y017916D03*
X028526Y018664D03*
X027345Y018664D03*
X027345Y017916D03*
X026164Y017916D03*
X026164Y018664D03*
X024983Y018664D03*
X024983Y017916D03*
X023802Y017916D03*
X023802Y018664D03*
X022227Y018664D03*
X022227Y017916D03*
X020259Y017916D03*
X020259Y018664D03*
X019078Y018664D03*
X019078Y017916D03*
X017503Y017916D03*
X017503Y018664D03*
X016322Y018664D03*
X016322Y017916D03*
X007857Y011971D03*
X007857Y011223D03*
D14*
X018093Y001558D03*
X019274Y001558D03*
D15*
X021826Y002355D03*
X023826Y002355D03*
X015558Y002355D03*
X013558Y002355D03*
D16*
X010337Y011223D03*
X010337Y011597D03*
X010337Y011971D03*
X009314Y011971D03*
X009314Y011223D03*
D17*
X009247Y020156D03*
X010247Y020156D03*
X011247Y020156D03*
X012247Y020156D03*
X013247Y020156D03*
X014247Y020156D03*
X015247Y020156D03*
X016247Y020156D03*
X017247Y020156D03*
X018247Y020156D03*
X019247Y020156D03*
X020247Y020156D03*
X021247Y020156D03*
X022247Y020156D03*
X023247Y020156D03*
X024247Y020156D03*
X025247Y020156D03*
X026247Y020156D03*
X027247Y020156D03*
X028247Y020156D03*
X028247Y001156D03*
X027247Y001156D03*
X026247Y001156D03*
X011247Y001156D03*
X010247Y001156D03*
X009247Y001156D03*
D18*
X009994Y015162D03*
X009994Y015662D03*
X009994Y016162D03*
X009994Y016662D03*
X009994Y017162D03*
X009994Y017662D03*
X009994Y018162D03*
X009994Y018662D03*
X012414Y018662D03*
X012414Y018162D03*
X012414Y017662D03*
X012414Y017162D03*
X012414Y016662D03*
X012414Y016162D03*
X012414Y015662D03*
X012414Y015162D03*
D19*
X011439Y006011D03*
X011439Y005101D03*
X011439Y004191D03*
D20*
X008999Y005101D03*
D21*
X009274Y008251D03*
X010377Y008251D03*
D22*
X022700Y009038D03*
X022700Y009353D03*
X022700Y009668D03*
X022700Y009983D03*
X022700Y010298D03*
X022700Y010613D03*
X022700Y010928D03*
X022700Y011243D03*
X022700Y011558D03*
X022700Y011873D03*
X022700Y012188D03*
X027267Y012188D03*
X027267Y011873D03*
X027267Y011558D03*
X027267Y011243D03*
X027267Y010928D03*
X027267Y010613D03*
X027267Y010298D03*
X027267Y009983D03*
X027267Y009668D03*
X027267Y009353D03*
X027267Y009038D03*
D23*
X026558Y008330D03*
X026243Y008330D03*
X025928Y008330D03*
X025613Y008330D03*
X025298Y008330D03*
X024983Y008330D03*
X024668Y008330D03*
X024353Y008330D03*
X024038Y008330D03*
X023723Y008330D03*
X023408Y008330D03*
X023408Y012897D03*
X023723Y012897D03*
X024038Y012897D03*
X024353Y012897D03*
X024668Y012897D03*
X024983Y012897D03*
X025298Y012897D03*
X025613Y012897D03*
X025928Y012897D03*
X026243Y012897D03*
X026558Y012897D03*
D24*
X017700Y011923D03*
X017700Y008123D03*
D25*
X030982Y008613D02*
X031582Y008613D01*
X031582Y009613D02*
X030982Y009613D01*
X030982Y010613D02*
X031582Y010613D01*
X031582Y011613D02*
X030982Y011613D01*
X030982Y012613D02*
X031582Y012613D01*
D26*
X031282Y012613D02*
X031251Y012582D01*
X029688Y012582D01*
X029708Y012562D01*
X029708Y011991D01*
X029314Y011597D01*
X028723Y011597D01*
X028133Y011007D01*
X028133Y010023D01*
X027778Y009668D01*
X027267Y009668D01*
X027267Y009353D02*
X029235Y009353D01*
X029708Y009826D01*
X029708Y010593D01*
X029688Y010613D01*
X031282Y010613D01*
X030895Y010173D02*
X030733Y010240D01*
X030609Y010364D01*
X030597Y010393D01*
X030084Y010393D01*
X030084Y010260D01*
X030002Y010178D01*
X029928Y010178D01*
X029928Y009735D01*
X029799Y009606D01*
X029326Y009133D01*
X027702Y009133D01*
X027702Y008882D01*
X027620Y008800D01*
X027108Y008800D01*
X028027Y007880D01*
X029223Y007880D01*
X029468Y008125D01*
X029468Y008209D01*
X029374Y008209D01*
X029342Y008242D01*
X029340Y008239D01*
X029306Y008205D01*
X029265Y008182D01*
X029219Y008169D01*
X028988Y008169D01*
X028988Y008597D01*
X028892Y008597D01*
X028504Y008597D01*
X028504Y008326D01*
X028516Y008280D01*
X028540Y008239D01*
X028573Y008205D01*
X028614Y008182D01*
X028660Y008169D01*
X028892Y008169D01*
X028892Y008597D01*
X028892Y008693D01*
X028892Y009120D01*
X028660Y009120D01*
X028614Y009108D01*
X028573Y009084D01*
X028540Y009050D01*
X028516Y009009D01*
X028504Y008964D01*
X028504Y008693D01*
X028892Y008693D01*
X028988Y008693D01*
X028988Y009120D01*
X029219Y009120D01*
X029265Y009108D01*
X029306Y009084D01*
X029340Y009050D01*
X029342Y009047D01*
X029374Y009080D01*
X030002Y009080D01*
X030084Y008998D01*
X030084Y008865D01*
X030612Y008865D01*
X030733Y008986D01*
X030895Y009053D01*
X031670Y009053D01*
X031832Y008986D01*
X031955Y008862D01*
X032022Y008701D01*
X032022Y008526D01*
X031955Y008364D01*
X031832Y008240D01*
X031670Y008173D01*
X030895Y008173D01*
X030733Y008240D01*
X030609Y008364D01*
X030584Y008425D01*
X030084Y008425D01*
X030084Y008291D01*
X030002Y008209D01*
X029908Y008209D01*
X029908Y007943D01*
X029779Y007814D01*
X029405Y007440D01*
X027845Y007440D01*
X027716Y007569D01*
X026796Y008489D01*
X026796Y007976D01*
X026714Y007894D01*
X026402Y007894D01*
X026400Y007895D01*
X026399Y007894D01*
X026148Y007894D01*
X026148Y007397D01*
X026649Y006896D01*
X031118Y006896D01*
X031653Y006360D01*
X031965Y006360D01*
X032222Y006102D01*
X032222Y005738D01*
X031965Y005480D01*
X031600Y005480D01*
X031342Y005738D01*
X031342Y006049D01*
X030935Y006456D01*
X026467Y006456D01*
X026338Y006585D01*
X025833Y007090D01*
X025833Y006925D01*
X026452Y006306D01*
X030545Y006306D01*
X030600Y006360D01*
X030965Y006360D01*
X031222Y006102D01*
X031222Y005738D01*
X030965Y005480D01*
X030600Y005480D01*
X030342Y005738D01*
X030342Y005866D01*
X026270Y005866D01*
X026141Y005994D01*
X025393Y006742D01*
X025393Y007854D01*
X025298Y007854D01*
X025298Y008330D01*
X025298Y008805D01*
X025203Y008805D01*
X025203Y010704D01*
X025199Y010708D01*
X025876Y010708D01*
X026503Y010082D01*
X026270Y009849D01*
X026141Y009720D01*
X026141Y009144D01*
X026520Y008765D01*
X026402Y008765D01*
X026400Y008764D01*
X026399Y008765D01*
X026087Y008765D01*
X026086Y008764D01*
X026084Y008765D01*
X025772Y008765D01*
X025771Y008764D01*
X025769Y008765D01*
X025511Y008765D01*
X025507Y008769D01*
X025466Y008793D01*
X025420Y008805D01*
X025298Y008805D01*
X025298Y008330D01*
X025298Y008330D01*
X025298Y008330D01*
X025222Y008330D01*
X025222Y008330D01*
X025298Y008330D01*
X025375Y008330D01*
X025375Y008330D01*
X025298Y008330D01*
X025298Y008330D01*
X025298Y008330D01*
X025298Y007854D01*
X025203Y007854D01*
X025203Y003421D01*
X024326Y002544D01*
X024360Y002461D01*
X024360Y002249D01*
X024279Y002053D01*
X024128Y001903D01*
X023932Y001821D01*
X023720Y001821D01*
X023524Y001903D01*
X023374Y002053D01*
X023292Y002249D01*
X023292Y002461D01*
X023374Y002658D01*
X023524Y002808D01*
X023720Y002889D01*
X023932Y002889D01*
X024015Y002855D01*
X024763Y003603D01*
X024763Y005994D01*
X024621Y006136D01*
X024599Y006113D01*
X024602Y006111D01*
X024635Y006078D01*
X024659Y006037D01*
X024671Y005991D01*
X024671Y005759D01*
X024244Y005759D01*
X024244Y005664D01*
X024671Y005664D01*
X024671Y005432D01*
X024659Y005386D01*
X024635Y005345D01*
X024602Y005312D01*
X024561Y005288D01*
X024515Y005276D01*
X024244Y005276D01*
X024244Y005664D01*
X024148Y005664D01*
X023720Y005664D01*
X023720Y005432D01*
X023733Y005386D01*
X023756Y005345D01*
X023790Y005312D01*
X023831Y005288D01*
X023877Y005276D01*
X024148Y005276D01*
X024148Y005664D01*
X024148Y005759D01*
X023720Y005759D01*
X023720Y005991D01*
X023733Y006037D01*
X023756Y006078D01*
X023790Y006111D01*
X023793Y006113D01*
X023760Y006146D01*
X023760Y006773D01*
X023842Y006855D01*
X024549Y006855D01*
X024631Y006773D01*
X024631Y006680D01*
X024700Y006680D01*
X024763Y006617D01*
X024763Y007720D01*
X024759Y007716D01*
X024287Y007243D01*
X023499Y007243D01*
X022349Y006092D01*
X022349Y005954D01*
X022162Y005767D01*
X021899Y005767D01*
X021712Y005954D01*
X021712Y006217D01*
X021899Y006404D01*
X022037Y006404D01*
X023188Y007555D01*
X023317Y007683D01*
X024105Y007683D01*
X024315Y007894D01*
X024197Y007894D01*
X024196Y007895D01*
X024195Y007894D01*
X023882Y007894D01*
X023881Y007895D01*
X023880Y007894D01*
X023567Y007894D01*
X023566Y007895D01*
X023565Y007894D01*
X023252Y007894D01*
X023170Y007976D01*
X023170Y008683D01*
X023252Y008765D01*
X023565Y008765D01*
X023566Y008764D01*
X023567Y008765D01*
X023880Y008765D01*
X023881Y008764D01*
X023882Y008765D01*
X024195Y008765D01*
X024196Y008764D01*
X024197Y008765D01*
X024510Y008765D01*
X024511Y008764D01*
X024512Y008765D01*
X024763Y008765D01*
X024763Y010522D01*
X024577Y010708D01*
X023175Y010708D01*
X023175Y010613D01*
X022700Y010613D01*
X022700Y010613D01*
X023175Y010613D01*
X023175Y010491D01*
X023163Y010445D01*
X023139Y010404D01*
X023135Y010400D01*
X023135Y010142D01*
X023134Y010141D01*
X023135Y010140D01*
X023135Y009827D01*
X023134Y009826D01*
X023135Y009825D01*
X023135Y009512D01*
X023134Y009511D01*
X023135Y009510D01*
X023135Y009197D01*
X023134Y009196D01*
X023135Y009195D01*
X023135Y008882D01*
X023053Y008800D01*
X022346Y008800D01*
X022264Y008882D01*
X022264Y009133D01*
X021649Y009133D01*
X021463Y008947D01*
X021463Y005601D01*
X019494Y003632D01*
X019494Y002198D01*
X019582Y002198D01*
X019664Y002116D01*
X019664Y001000D01*
X019582Y000918D01*
X018966Y000918D01*
X018884Y001000D01*
X018884Y002116D01*
X018966Y002198D01*
X019054Y002198D01*
X019054Y003814D01*
X019183Y003943D01*
X021023Y005783D01*
X021023Y009129D01*
X021152Y009258D01*
X021342Y009448D01*
X021177Y009448D01*
X020872Y009144D01*
X020872Y005798D01*
X018313Y003238D01*
X018313Y002198D01*
X018401Y002198D01*
X018483Y002116D01*
X018483Y001000D01*
X018401Y000918D01*
X017785Y000918D01*
X017703Y001000D01*
X017703Y002116D01*
X017785Y002198D01*
X017873Y002198D01*
X017873Y003421D01*
X018002Y003550D01*
X020432Y005980D01*
X020432Y008047D01*
X020427Y008044D01*
X020381Y008031D01*
X020110Y008031D01*
X020110Y008419D01*
X020014Y008419D01*
X020014Y008031D01*
X019743Y008031D01*
X019697Y008044D01*
X019656Y008067D01*
X019623Y008101D01*
X019599Y008142D01*
X019587Y008188D01*
X019587Y008419D01*
X020014Y008419D01*
X020014Y008515D01*
X019587Y008515D01*
X019587Y008747D01*
X019599Y008793D01*
X019623Y008834D01*
X019656Y008867D01*
X019659Y008869D01*
X019627Y008902D01*
X019627Y008995D01*
X018884Y008995D01*
X018220Y008331D01*
X018220Y007015D01*
X018138Y006933D01*
X017262Y006933D01*
X017180Y007015D01*
X017180Y009231D01*
X017262Y009313D01*
X018138Y009313D01*
X018220Y009231D01*
X018220Y008954D01*
X018701Y009435D01*
X019627Y009435D01*
X019627Y009529D01*
X019709Y009611D01*
X020147Y009611D01*
X020656Y010121D01*
X020147Y010631D01*
X019709Y010631D01*
X019627Y010713D01*
X019627Y010806D01*
X018770Y010806D01*
X018220Y011357D01*
X018220Y010815D01*
X018138Y010733D01*
X017262Y010733D01*
X017180Y010815D01*
X017180Y013031D01*
X017262Y013113D01*
X018138Y013113D01*
X018220Y013031D01*
X018220Y011979D01*
X018952Y011246D01*
X019627Y011246D01*
X019627Y011340D01*
X019659Y011373D01*
X019656Y011375D01*
X019623Y011408D01*
X019599Y011449D01*
X019587Y011495D01*
X019587Y011727D01*
X020014Y011727D01*
X020014Y011822D01*
X019587Y011822D01*
X019587Y012054D01*
X019599Y012100D01*
X019623Y012141D01*
X019656Y012174D01*
X019697Y012198D01*
X019743Y012210D01*
X020014Y012210D01*
X020014Y011822D01*
X020110Y011822D01*
X020537Y011822D01*
X020537Y012054D01*
X020525Y012100D01*
X020501Y012141D01*
X020468Y012174D01*
X020427Y012198D01*
X020381Y012210D01*
X020110Y012210D01*
X020110Y011822D01*
X020110Y011727D01*
X020537Y011727D01*
X020537Y011495D01*
X020525Y011449D01*
X020501Y011408D01*
X020468Y011375D01*
X020465Y011373D01*
X020497Y011340D01*
X020497Y010902D01*
X020881Y010518D01*
X022224Y010518D01*
X022224Y010613D01*
X022700Y010613D01*
X022700Y010537D01*
X022700Y010537D01*
X022700Y010613D01*
X022700Y010613D01*
X022700Y010613D01*
X022700Y010690D01*
X022700Y010690D01*
X022700Y010613D01*
X022700Y010613D01*
X022224Y010613D01*
X022224Y010735D01*
X022237Y010781D01*
X022260Y010822D01*
X022264Y010826D01*
X022264Y011023D01*
X021964Y011023D01*
X021955Y011014D01*
X021955Y010875D01*
X021768Y010689D01*
X021505Y010689D01*
X021319Y010875D01*
X021319Y011139D01*
X021505Y011325D01*
X021644Y011325D01*
X021657Y011338D01*
X021237Y011338D01*
X021178Y011279D01*
X020914Y011279D01*
X020728Y011466D01*
X020728Y011729D01*
X020914Y011915D01*
X021178Y011915D01*
X021315Y011778D01*
X021342Y011778D01*
X020758Y012362D01*
X020629Y012490D01*
X020629Y014248D01*
X020758Y014376D01*
X021106Y014724D01*
X017291Y014724D01*
X014309Y011742D01*
X014309Y011431D01*
X014051Y011173D01*
X013687Y011173D01*
X013589Y011271D01*
X013589Y011204D01*
X013740Y011053D01*
X014051Y011053D01*
X014309Y010795D01*
X014309Y010431D01*
X014051Y010173D01*
X013687Y010173D01*
X013429Y010431D01*
X013429Y010742D01*
X013278Y010893D01*
X013278Y010893D01*
X013149Y011022D01*
X013149Y011271D01*
X013051Y011173D01*
X012740Y011173D01*
X012408Y010841D01*
X012408Y009831D01*
X012670Y010093D01*
X012849Y010093D01*
X012849Y009633D01*
X012889Y009633D01*
X013349Y009633D01*
X013349Y009812D01*
X013068Y010093D01*
X012889Y010093D01*
X012889Y009633D01*
X012889Y009593D01*
X012889Y009133D01*
X013068Y009133D01*
X013349Y009414D01*
X013349Y009593D01*
X012889Y009593D01*
X012849Y009593D01*
X012849Y009133D01*
X012670Y009133D01*
X012408Y009395D01*
X012408Y008755D01*
X012871Y008292D01*
X013309Y008292D01*
X013369Y008232D01*
X013429Y008292D01*
X013649Y008292D01*
X013649Y009211D01*
X013429Y009431D01*
X013429Y009795D01*
X013687Y010053D01*
X014051Y010053D01*
X014309Y009795D01*
X014309Y009431D01*
X014089Y009211D01*
X014089Y008260D01*
X014139Y008210D01*
X014139Y007504D01*
X014057Y007422D01*
X013429Y007422D01*
X013369Y007482D01*
X013309Y007422D01*
X012681Y007422D01*
X012599Y007504D01*
X012599Y007942D01*
X011968Y008573D01*
X011968Y010719D01*
X011683Y011003D01*
X010660Y011003D01*
X010632Y010975D01*
X010043Y010975D01*
X009961Y011057D01*
X009961Y011374D01*
X009957Y011379D01*
X009934Y011420D01*
X009921Y011465D01*
X009921Y011597D01*
X010337Y011597D01*
X010337Y011597D01*
X009921Y011597D01*
X009921Y011729D01*
X009934Y011775D01*
X009957Y011816D01*
X009961Y011820D01*
X009961Y012138D01*
X010043Y012220D01*
X010632Y012220D01*
X010640Y012211D01*
X011900Y012211D01*
X012362Y012673D01*
X012362Y013533D01*
X012263Y013631D01*
X012263Y013894D01*
X012450Y014081D01*
X012713Y014081D01*
X012900Y013894D01*
X012900Y013631D01*
X012802Y013533D01*
X012802Y012490D01*
X012211Y011900D01*
X012211Y011900D01*
X012082Y011771D01*
X010743Y011771D01*
X010754Y011729D01*
X010754Y011597D01*
X010337Y011597D01*
X010337Y011597D01*
X010754Y011597D01*
X010754Y011465D01*
X010748Y011443D01*
X011866Y011443D01*
X012127Y011182D01*
X012429Y011484D01*
X012429Y011795D01*
X012687Y012053D01*
X013051Y012053D01*
X013149Y011955D01*
X013149Y014320D01*
X013051Y014418D01*
X013051Y014682D01*
X013237Y014868D01*
X013501Y014868D01*
X013687Y014682D01*
X013687Y014418D01*
X013589Y014320D01*
X013589Y011955D01*
X013687Y012053D01*
X013998Y012053D01*
X016980Y015035D01*
X017109Y015164D01*
X025679Y015164D01*
X027648Y017132D01*
X029616Y017132D01*
X030010Y017526D01*
X030380Y017526D01*
X030600Y017746D01*
X030965Y017746D01*
X031222Y017488D01*
X031222Y017124D01*
X030965Y016866D01*
X030600Y016866D01*
X030380Y017086D01*
X030192Y017086D01*
X029928Y016821D01*
X029799Y016692D01*
X027830Y016692D01*
X025862Y014724D01*
X021728Y014724D01*
X021069Y014065D01*
X021069Y013983D01*
X021260Y013983D01*
X021260Y014116D01*
X021342Y014198D01*
X021970Y014198D01*
X022030Y014138D01*
X022091Y014198D01*
X022718Y014198D01*
X022800Y014116D01*
X022800Y013409D01*
X022718Y013327D01*
X022624Y013327D01*
X022624Y013283D01*
X023170Y012737D01*
X023170Y013250D01*
X023252Y013332D01*
X023565Y013332D01*
X023566Y013331D01*
X023567Y013332D01*
X023880Y013332D01*
X023881Y013331D01*
X023882Y013332D01*
X024195Y013332D01*
X024196Y013331D01*
X024197Y013332D01*
X024510Y013332D01*
X024511Y013331D01*
X024512Y013332D01*
X024770Y013332D01*
X024774Y013336D01*
X024815Y013360D01*
X024861Y013372D01*
X024983Y013372D01*
X024983Y012897D01*
X024983Y012897D01*
X024983Y013372D01*
X025105Y013372D01*
X025151Y013360D01*
X025192Y013336D01*
X025196Y013332D01*
X025393Y013332D01*
X025393Y013632D01*
X025384Y013641D01*
X025245Y013641D01*
X025059Y013828D01*
X025059Y014091D01*
X025245Y014278D01*
X025509Y014278D01*
X025695Y014091D01*
X025695Y013953D01*
X025708Y013939D01*
X025708Y014208D01*
X026732Y015232D01*
X026861Y015361D01*
X027107Y015361D01*
X027107Y015435D01*
X027189Y015517D01*
X027627Y015517D01*
X028507Y016397D01*
X028507Y016397D01*
X028636Y016526D01*
X030380Y016526D01*
X030600Y016746D01*
X030965Y016746D01*
X031222Y016488D01*
X031222Y016124D01*
X031099Y016000D01*
X031166Y016000D01*
X031342Y016177D01*
X031342Y016488D01*
X031600Y016746D01*
X031965Y016746D01*
X032222Y016488D01*
X032222Y016124D01*
X031965Y015866D01*
X031653Y015866D01*
X031477Y015689D01*
X031348Y015560D01*
X031207Y015560D01*
X031262Y015505D01*
X031262Y015326D01*
X030802Y015326D01*
X030802Y015286D01*
X030802Y014826D01*
X030981Y014826D01*
X031262Y015107D01*
X031262Y015286D01*
X030802Y015286D01*
X030762Y015286D01*
X030302Y015286D01*
X030302Y015107D01*
X030584Y014826D01*
X030762Y014826D01*
X030762Y015286D01*
X030762Y015326D01*
X030302Y015326D01*
X030302Y015505D01*
X030358Y015560D01*
X029868Y015560D01*
X029552Y015245D01*
X029552Y014807D01*
X029520Y014775D01*
X029523Y014773D01*
X029556Y014739D01*
X029580Y014698D01*
X029592Y014653D01*
X029592Y014421D01*
X029165Y014421D01*
X029165Y014325D01*
X029592Y014325D01*
X029592Y014093D01*
X029580Y014048D01*
X029556Y014006D01*
X029523Y013973D01*
X029482Y013949D01*
X029436Y013937D01*
X029165Y013937D01*
X029165Y014325D01*
X029069Y014325D01*
X028642Y014325D01*
X028642Y014093D01*
X028654Y014048D01*
X028678Y014006D01*
X028711Y013973D01*
X028752Y013949D01*
X028798Y013937D01*
X029069Y013937D01*
X029069Y014325D01*
X029069Y014421D01*
X028642Y014421D01*
X028642Y014653D01*
X028654Y014698D01*
X028678Y014739D01*
X028711Y014773D01*
X028714Y014775D01*
X028682Y014807D01*
X028682Y015435D01*
X028764Y015517D01*
X029202Y015517D01*
X029685Y016000D01*
X030466Y016000D01*
X030380Y016086D01*
X028818Y016086D01*
X027977Y015245D01*
X027977Y014807D01*
X027945Y014775D01*
X027948Y014773D01*
X027982Y014739D01*
X028005Y014698D01*
X028017Y014653D01*
X028017Y014421D01*
X027590Y014421D01*
X027590Y014325D01*
X027590Y013937D01*
X027861Y013937D01*
X027907Y013949D01*
X027948Y013973D01*
X027982Y014006D01*
X028005Y014048D01*
X028017Y014093D01*
X028017Y014325D01*
X027590Y014325D01*
X027494Y014325D01*
X027067Y014325D01*
X027067Y014093D01*
X027079Y014048D01*
X027103Y014006D01*
X027136Y013973D01*
X027177Y013949D01*
X027223Y013937D01*
X027494Y013937D01*
X027494Y014325D01*
X027494Y014421D01*
X027067Y014421D01*
X027067Y014653D01*
X027079Y014698D01*
X027103Y014739D01*
X027136Y014773D01*
X027139Y014775D01*
X027107Y014807D01*
X027107Y014921D01*
X027043Y014921D01*
X026400Y014278D01*
X026493Y014278D01*
X026679Y014091D01*
X026679Y013828D01*
X026493Y013641D01*
X026463Y013641D01*
X026463Y013388D01*
X026634Y013559D01*
X026634Y013698D01*
X026820Y013884D01*
X027083Y013884D01*
X027270Y013698D01*
X027270Y013434D01*
X027083Y013248D01*
X026945Y013248D01*
X026796Y013099D01*
X026796Y012543D01*
X026714Y012461D01*
X026402Y012461D01*
X026400Y012462D01*
X026399Y012461D01*
X026087Y012461D01*
X026086Y012462D01*
X026084Y012461D01*
X025772Y012461D01*
X025771Y012462D01*
X025769Y012461D01*
X025518Y012461D01*
X025518Y012188D01*
X025639Y012309D01*
X025778Y012309D01*
X025876Y012408D01*
X026895Y012408D01*
X026913Y012426D01*
X027620Y012426D01*
X027702Y012344D01*
X027702Y012031D01*
X027701Y012030D01*
X027702Y012029D01*
X027702Y011871D01*
X027913Y012082D01*
X027913Y013263D01*
X028306Y013657D01*
X028435Y013786D01*
X031191Y013786D01*
X031456Y014051D01*
X031456Y015010D01*
X031342Y015124D01*
X031342Y015488D01*
X031600Y015746D01*
X031965Y015746D01*
X032222Y015488D01*
X032222Y015124D01*
X031965Y014866D01*
X031896Y014866D01*
X031896Y013868D01*
X031767Y013740D01*
X031373Y013346D01*
X028618Y013346D01*
X028353Y013081D01*
X028353Y011900D01*
X028224Y011771D01*
X027791Y011338D01*
X027702Y011338D01*
X027702Y011087D01*
X027701Y011086D01*
X027702Y011084D01*
X027702Y010826D01*
X027706Y010822D01*
X027730Y010781D01*
X027742Y010735D01*
X027742Y010613D01*
X027267Y010613D01*
X027267Y010613D01*
X027742Y010613D01*
X027742Y010491D01*
X027730Y010445D01*
X027706Y010404D01*
X027702Y010400D01*
X027702Y010142D01*
X027701Y010141D01*
X027702Y010140D01*
X027702Y009903D01*
X027913Y010114D01*
X027913Y011098D01*
X028503Y011688D01*
X028632Y011817D01*
X029223Y011817D01*
X029488Y012082D01*
X029488Y012146D01*
X029374Y012146D01*
X029342Y012179D01*
X029340Y012176D01*
X029306Y012142D01*
X029265Y012119D01*
X029219Y012106D01*
X028988Y012106D01*
X028988Y012534D01*
X028892Y012534D01*
X028504Y012534D01*
X028504Y012263D01*
X028516Y012217D01*
X028540Y012176D01*
X028573Y012142D01*
X028614Y012119D01*
X028660Y012106D01*
X028892Y012106D01*
X028892Y012534D01*
X028892Y012630D01*
X028892Y013057D01*
X028660Y013057D01*
X028614Y013045D01*
X028573Y013021D01*
X028540Y012987D01*
X028516Y012946D01*
X028504Y012901D01*
X028504Y012630D01*
X028892Y012630D01*
X028988Y012630D01*
X028988Y013057D01*
X029219Y013057D01*
X029265Y013045D01*
X029306Y013021D01*
X029340Y012987D01*
X029342Y012984D01*
X029374Y013017D01*
X030002Y013017D01*
X030084Y012935D01*
X030084Y012802D01*
X030584Y012802D01*
X030609Y012862D01*
X030733Y012986D01*
X030895Y013053D01*
X031670Y013053D01*
X031832Y012986D01*
X031955Y012862D01*
X032022Y012701D01*
X032022Y012526D01*
X031955Y012364D01*
X031832Y012240D01*
X031670Y012173D01*
X030895Y012173D01*
X030733Y012240D01*
X030612Y012362D01*
X030084Y012362D01*
X030084Y012228D01*
X030002Y012146D01*
X029928Y012146D01*
X029928Y011900D01*
X029799Y011771D01*
X029405Y011377D01*
X028814Y011377D01*
X028353Y010916D01*
X028353Y009931D01*
X028224Y009803D01*
X027995Y009573D01*
X029144Y009573D01*
X029488Y009917D01*
X029488Y010178D01*
X029374Y010178D01*
X029342Y010210D01*
X029340Y010207D01*
X029306Y010174D01*
X029265Y010150D01*
X029219Y010138D01*
X028988Y010138D01*
X028988Y010565D01*
X028892Y010565D01*
X028892Y010138D01*
X028660Y010138D01*
X028614Y010150D01*
X028573Y010174D01*
X028540Y010207D01*
X028516Y010248D01*
X028504Y010294D01*
X028504Y010565D01*
X028892Y010565D01*
X028892Y010661D01*
X028892Y011088D01*
X028660Y011088D01*
X028614Y011076D01*
X028573Y011052D01*
X028540Y011019D01*
X028516Y010978D01*
X028504Y010932D01*
X028504Y010661D01*
X028892Y010661D01*
X028988Y010661D01*
X028988Y011088D01*
X029219Y011088D01*
X029265Y011076D01*
X029306Y011052D01*
X029340Y011019D01*
X029342Y011016D01*
X029374Y011048D01*
X030002Y011048D01*
X030084Y010966D01*
X030084Y010833D01*
X030597Y010833D01*
X030609Y010862D01*
X030733Y010986D01*
X030895Y011053D01*
X031670Y011053D01*
X031832Y010986D01*
X031955Y010862D01*
X032022Y010701D01*
X032022Y010526D01*
X031955Y010364D01*
X031832Y010240D01*
X031670Y010173D01*
X030895Y010173D01*
X030820Y010204D02*
X030028Y010204D01*
X030084Y010362D02*
X030611Y010362D01*
X030733Y009986D02*
X030609Y009862D01*
X030542Y009701D01*
X030542Y009526D01*
X030609Y009364D01*
X030733Y009240D01*
X030895Y009173D01*
X031670Y009173D01*
X031832Y009240D01*
X031955Y009364D01*
X032022Y009526D01*
X032022Y009701D01*
X031955Y009862D01*
X031832Y009986D01*
X031670Y010053D01*
X030895Y010053D01*
X030733Y009986D01*
X030634Y009887D02*
X029928Y009887D01*
X029928Y010045D02*
X030876Y010045D01*
X030554Y009728D02*
X029921Y009728D01*
X029763Y009570D02*
X030542Y009570D01*
X030590Y009411D02*
X029604Y009411D01*
X029446Y009253D02*
X030720Y009253D01*
X030683Y008936D02*
X030084Y008936D01*
X029688Y008645D02*
X029688Y008034D01*
X029314Y007660D01*
X027936Y007660D01*
X026361Y009235D01*
X026361Y009629D01*
X026715Y009983D01*
X027267Y009983D01*
X027267Y010298D02*
X026597Y010298D01*
X025967Y010928D01*
X027267Y010928D01*
X027267Y010690D02*
X027267Y010613D01*
X027267Y010537D01*
X027267Y010537D01*
X027267Y010613D01*
X027267Y010613D01*
X027267Y010613D01*
X027267Y010690D01*
X027267Y010690D01*
X027267Y010679D02*
X027267Y010679D01*
X027267Y010613D02*
X027267Y010613D01*
X026791Y010613D01*
X026791Y010518D01*
X026688Y010518D01*
X026499Y010708D01*
X026791Y010708D01*
X026791Y010613D01*
X027267Y010613D01*
X026791Y010679D02*
X026527Y010679D01*
X026686Y010521D02*
X026791Y010521D01*
X026380Y010204D02*
X025203Y010204D01*
X025203Y010362D02*
X026222Y010362D01*
X026063Y010521D02*
X025203Y010521D01*
X025203Y010679D02*
X025905Y010679D01*
X025967Y010928D02*
X024983Y010928D01*
X025298Y011243D01*
X025298Y012897D01*
X025060Y012897D02*
X024983Y012897D01*
X024907Y012897D01*
X024907Y012897D01*
X024983Y012897D01*
X024983Y012897D01*
X024983Y012897D01*
X024983Y012897D01*
X024983Y012421D01*
X024861Y012421D01*
X024815Y012434D01*
X024774Y012457D01*
X024770Y012461D01*
X024512Y012461D01*
X024511Y012462D01*
X024510Y012461D01*
X024197Y012461D01*
X024196Y012462D01*
X024195Y012461D01*
X023882Y012461D01*
X023881Y012462D01*
X023880Y012461D01*
X023567Y012461D01*
X023566Y012462D01*
X023565Y012461D01*
X023446Y012461D01*
X024759Y011148D01*
X024892Y011148D01*
X025078Y011334D01*
X025078Y012421D01*
X024983Y012421D01*
X024983Y012897D01*
X025060Y012897D01*
X025060Y012897D01*
X024983Y012898D02*
X024983Y012898D01*
X024983Y012740D02*
X024983Y012740D01*
X024983Y012581D02*
X024983Y012581D01*
X024983Y012423D02*
X024983Y012423D01*
X024855Y012423D02*
X023484Y012423D01*
X023643Y012264D02*
X025078Y012264D01*
X025078Y012106D02*
X023801Y012106D01*
X023960Y011947D02*
X025078Y011947D01*
X025078Y011789D02*
X024118Y011789D01*
X024277Y011630D02*
X025078Y011630D01*
X025078Y011472D02*
X024435Y011472D01*
X024594Y011313D02*
X025057Y011313D01*
X024899Y011155D02*
X024752Y011155D01*
X024668Y010928D02*
X024983Y010613D01*
X024983Y008330D01*
X024983Y006086D01*
X024609Y006460D01*
X024196Y006460D01*
X023760Y006400D02*
X022656Y006400D01*
X022814Y006558D02*
X023760Y006558D01*
X023760Y006717D02*
X022973Y006717D01*
X023131Y006875D02*
X024763Y006875D01*
X024763Y006717D02*
X024631Y006717D01*
X024763Y007034D02*
X023290Y007034D01*
X023448Y007192D02*
X024763Y007192D01*
X024763Y007351D02*
X024394Y007351D01*
X024553Y007509D02*
X024763Y007509D01*
X024763Y007668D02*
X024711Y007668D01*
X024668Y007936D02*
X024668Y008330D01*
X025298Y008302D02*
X025298Y008302D01*
X025298Y008460D02*
X025298Y008460D01*
X025298Y008619D02*
X025298Y008619D01*
X025298Y008777D02*
X025298Y008777D01*
X025203Y008936D02*
X026349Y008936D01*
X026191Y009094D02*
X025203Y009094D01*
X025203Y009253D02*
X026141Y009253D01*
X026141Y009411D02*
X025203Y009411D01*
X025203Y009570D02*
X026141Y009570D01*
X026150Y009728D02*
X025203Y009728D01*
X025203Y009887D02*
X026308Y009887D01*
X026467Y010045D02*
X025203Y010045D01*
X024763Y010045D02*
X023135Y010045D01*
X023135Y009887D02*
X024763Y009887D01*
X024763Y009728D02*
X023135Y009728D01*
X023135Y009570D02*
X024763Y009570D01*
X024763Y009411D02*
X023135Y009411D01*
X023135Y009253D02*
X024763Y009253D01*
X024763Y009094D02*
X023135Y009094D01*
X023135Y008936D02*
X024763Y008936D01*
X024763Y008777D02*
X021463Y008777D01*
X021463Y008619D02*
X023170Y008619D01*
X023170Y008460D02*
X021463Y008460D01*
X021463Y008302D02*
X023170Y008302D01*
X023170Y008143D02*
X021463Y008143D01*
X021463Y007985D02*
X023170Y007985D01*
X023302Y007668D02*
X021463Y007668D01*
X021463Y007826D02*
X024248Y007826D01*
X024196Y007463D02*
X024668Y007936D01*
X025203Y007826D02*
X025393Y007826D01*
X025393Y007668D02*
X025203Y007668D01*
X025203Y007509D02*
X025393Y007509D01*
X025393Y007351D02*
X025203Y007351D01*
X025203Y007192D02*
X025393Y007192D01*
X025393Y007034D02*
X025203Y007034D01*
X025203Y006875D02*
X025393Y006875D01*
X025419Y006717D02*
X025203Y006717D01*
X025203Y006558D02*
X025577Y006558D01*
X025736Y006400D02*
X025203Y006400D01*
X025203Y006241D02*
X025894Y006241D01*
X026053Y006083D02*
X025203Y006083D01*
X025203Y005924D02*
X026211Y005924D01*
X026361Y006086D02*
X030617Y006086D01*
X030782Y005920D01*
X030473Y005607D02*
X025203Y005607D01*
X025203Y005449D02*
X036811Y005449D01*
X036811Y005607D02*
X032092Y005607D01*
X032222Y005766D02*
X036811Y005766D01*
X036811Y005924D02*
X032222Y005924D01*
X032222Y006083D02*
X036811Y006083D01*
X036811Y006241D02*
X032083Y006241D01*
X031614Y006400D02*
X036811Y006400D01*
X036811Y006558D02*
X031455Y006558D01*
X031297Y006717D02*
X036811Y006717D01*
X036811Y006875D02*
X031138Y006875D01*
X031026Y006676D02*
X031782Y005920D01*
X031473Y005607D02*
X031092Y005607D01*
X031222Y005766D02*
X031342Y005766D01*
X031342Y005924D02*
X031222Y005924D01*
X031222Y006083D02*
X031309Y006083D01*
X031150Y006241D02*
X031083Y006241D01*
X030992Y006400D02*
X026358Y006400D01*
X026365Y006558D02*
X026199Y006558D01*
X026206Y006717D02*
X026041Y006717D01*
X026048Y006875D02*
X025882Y006875D01*
X025889Y007034D02*
X025833Y007034D01*
X025928Y007306D02*
X026558Y006676D01*
X031026Y006676D01*
X030342Y005766D02*
X025203Y005766D01*
X024983Y006086D02*
X024983Y003512D01*
X023826Y002355D01*
X023470Y002754D02*
X022238Y002754D01*
X022264Y002729D02*
X022200Y002793D01*
X022127Y002846D01*
X022046Y002887D01*
X021960Y002915D01*
X021874Y002928D01*
X021874Y002403D01*
X022399Y002403D01*
X022386Y002490D01*
X022358Y002575D01*
X022317Y002656D01*
X022264Y002729D01*
X022347Y002596D02*
X023348Y002596D01*
X023292Y002437D02*
X022394Y002437D01*
X022399Y002307D02*
X021874Y002307D01*
X021874Y001782D01*
X021960Y001796D01*
X022046Y001824D01*
X022127Y001865D01*
X022200Y001918D01*
X022264Y001981D01*
X022317Y002055D01*
X022358Y002135D01*
X022386Y002221D01*
X022399Y002307D01*
X022395Y002279D02*
X023292Y002279D01*
X023346Y002120D02*
X022350Y002120D01*
X022244Y001962D02*
X023465Y001962D01*
X024188Y001962D02*
X030342Y001962D01*
X030342Y002102D02*
X030342Y001738D01*
X030600Y001480D01*
X030965Y001480D01*
X031222Y001738D01*
X031222Y002102D01*
X030965Y002360D01*
X030600Y002360D01*
X030342Y002102D01*
X030360Y002120D02*
X024306Y002120D01*
X024360Y002279D02*
X030519Y002279D01*
X030600Y002480D02*
X030965Y002480D01*
X031222Y002738D01*
X031222Y003102D01*
X030965Y003360D01*
X030600Y003360D01*
X030342Y003102D01*
X030342Y002738D01*
X030600Y002480D01*
X030484Y002596D02*
X024378Y002596D01*
X024360Y002437D02*
X036811Y002437D01*
X036811Y002279D02*
X032046Y002279D01*
X031965Y002360D02*
X031600Y002360D01*
X031342Y002102D01*
X031342Y001738D01*
X031600Y001480D01*
X031965Y001480D01*
X032222Y001738D01*
X032222Y002102D01*
X031965Y002360D01*
X031965Y002480D02*
X032222Y002738D01*
X032222Y003102D01*
X031965Y003360D01*
X031600Y003360D01*
X031342Y003102D01*
X031342Y002738D01*
X031600Y002480D01*
X031965Y002480D01*
X032080Y002596D02*
X036811Y002596D01*
X036811Y002754D02*
X032222Y002754D01*
X032222Y002913D02*
X036811Y002913D01*
X036811Y003071D02*
X032222Y003071D01*
X032095Y003230D02*
X036811Y003230D01*
X036811Y003388D02*
X025170Y003388D01*
X025203Y003547D02*
X030477Y003547D01*
X030584Y003440D02*
X030302Y003721D01*
X030302Y003900D01*
X030762Y003900D01*
X030762Y003940D01*
X030302Y003940D01*
X030302Y004119D01*
X030584Y004400D01*
X030762Y004400D01*
X030762Y003940D01*
X030802Y003940D01*
X030802Y004400D01*
X030981Y004400D01*
X031262Y004119D01*
X031262Y003940D01*
X030802Y003940D01*
X030802Y003900D01*
X030802Y003440D01*
X030981Y003440D01*
X031262Y003721D01*
X031262Y003900D01*
X030802Y003900D01*
X030762Y003900D01*
X030762Y003440D01*
X030584Y003440D01*
X030762Y003547D02*
X030802Y003547D01*
X030802Y003705D02*
X030762Y003705D01*
X030762Y003864D02*
X030802Y003864D01*
X030802Y004022D02*
X030762Y004022D01*
X030762Y004181D02*
X030802Y004181D01*
X030802Y004339D02*
X030762Y004339D01*
X030762Y004440D02*
X030762Y004900D01*
X030302Y004900D01*
X030302Y004721D01*
X030584Y004440D01*
X030762Y004440D01*
X030802Y004440D02*
X030981Y004440D01*
X031262Y004721D01*
X031262Y004900D01*
X030802Y004900D01*
X030802Y004440D01*
X030802Y004498D02*
X030762Y004498D01*
X030762Y004656D02*
X030802Y004656D01*
X030802Y004815D02*
X030762Y004815D01*
X030762Y004900D02*
X030802Y004900D01*
X030802Y004940D01*
X030762Y004940D01*
X030762Y004900D01*
X030762Y004940D02*
X030302Y004940D01*
X030302Y005119D01*
X030584Y005400D01*
X030762Y005400D01*
X030762Y004940D01*
X030762Y004973D02*
X030802Y004973D01*
X030802Y004940D02*
X030802Y005400D01*
X030981Y005400D01*
X031262Y005119D01*
X031262Y004940D01*
X030802Y004940D01*
X030802Y005132D02*
X030762Y005132D01*
X030762Y005290D02*
X030802Y005290D01*
X031091Y005290D02*
X031474Y005290D01*
X031584Y005400D02*
X031302Y005119D01*
X031302Y004940D01*
X031762Y004940D01*
X031762Y004900D01*
X031302Y004900D01*
X031302Y004721D01*
X031584Y004440D01*
X031762Y004440D01*
X031762Y004900D01*
X031802Y004900D01*
X031802Y004440D01*
X031981Y004440D01*
X032262Y004721D01*
X032262Y004900D01*
X031802Y004900D01*
X031802Y004940D01*
X031762Y004940D01*
X031762Y005400D01*
X031584Y005400D01*
X031762Y005290D02*
X031802Y005290D01*
X031802Y005400D02*
X031802Y004940D01*
X032262Y004940D01*
X032262Y005119D01*
X031981Y005400D01*
X031802Y005400D01*
X031802Y005132D02*
X031762Y005132D01*
X031762Y004973D02*
X031802Y004973D01*
X031802Y004815D02*
X031762Y004815D01*
X031762Y004656D02*
X031802Y004656D01*
X031802Y004498D02*
X031762Y004498D01*
X031762Y004400D02*
X031584Y004400D01*
X031302Y004119D01*
X031302Y003940D01*
X031762Y003940D01*
X031762Y003900D01*
X031302Y003900D01*
X031302Y003721D01*
X031584Y003440D01*
X031762Y003440D01*
X031762Y003900D01*
X031802Y003900D01*
X031802Y003440D01*
X031981Y003440D01*
X032262Y003721D01*
X032262Y003900D01*
X031802Y003900D01*
X031802Y003940D01*
X031762Y003940D01*
X031762Y004400D01*
X031802Y004400D02*
X031802Y003940D01*
X032262Y003940D01*
X032262Y004119D01*
X031981Y004400D01*
X031802Y004400D01*
X031802Y004339D02*
X031762Y004339D01*
X031762Y004181D02*
X031802Y004181D01*
X031802Y004022D02*
X031762Y004022D01*
X031762Y003864D02*
X031802Y003864D01*
X031802Y003705D02*
X031762Y003705D01*
X031762Y003547D02*
X031802Y003547D01*
X032088Y003547D02*
X035152Y003547D01*
X035255Y003504D02*
X035577Y003504D01*
X035875Y003627D01*
X036103Y003855D01*
X036226Y004153D01*
X036226Y004475D01*
X036103Y004773D01*
X035875Y005000D01*
X035577Y005124D01*
X035255Y005124D01*
X034957Y005000D01*
X034730Y004773D01*
X034606Y004475D01*
X034606Y004153D01*
X034730Y003855D01*
X034957Y003627D01*
X035255Y003504D01*
X034879Y003705D02*
X032246Y003705D01*
X032262Y003864D02*
X034726Y003864D01*
X034660Y004022D02*
X032262Y004022D01*
X032200Y004181D02*
X034606Y004181D01*
X034606Y004339D02*
X032042Y004339D01*
X032039Y004498D02*
X034616Y004498D01*
X034681Y004656D02*
X032197Y004656D01*
X032262Y004815D02*
X034772Y004815D01*
X034930Y004973D02*
X032262Y004973D01*
X032249Y005132D02*
X036811Y005132D01*
X036811Y005290D02*
X032091Y005290D01*
X031315Y005132D02*
X031249Y005132D01*
X031262Y004973D02*
X031302Y004973D01*
X031302Y004815D02*
X031262Y004815D01*
X031197Y004656D02*
X031367Y004656D01*
X031526Y004498D02*
X031039Y004498D01*
X031042Y004339D02*
X031523Y004339D01*
X031364Y004181D02*
X031200Y004181D01*
X031262Y004022D02*
X031302Y004022D01*
X031302Y003864D02*
X031262Y003864D01*
X031246Y003705D02*
X031318Y003705D01*
X031477Y003547D02*
X031088Y003547D01*
X031095Y003230D02*
X031470Y003230D01*
X031342Y003071D02*
X031222Y003071D01*
X031222Y002913D02*
X031342Y002913D01*
X031342Y002754D02*
X031222Y002754D01*
X031080Y002596D02*
X031484Y002596D01*
X031519Y002279D02*
X031046Y002279D01*
X031204Y002120D02*
X031360Y002120D01*
X031342Y001962D02*
X031222Y001962D01*
X031222Y001803D02*
X031342Y001803D01*
X031435Y001645D02*
X031129Y001645D01*
X030971Y001486D02*
X031594Y001486D01*
X031971Y001486D02*
X036811Y001486D01*
X036811Y001328D02*
X028667Y001328D01*
X028667Y001420D02*
X028655Y001466D01*
X028631Y001507D01*
X028597Y001540D01*
X028556Y001564D01*
X028511Y001576D01*
X028247Y001576D01*
X028247Y001156D01*
X028247Y000736D01*
X028511Y000736D01*
X028556Y000749D01*
X028597Y000772D01*
X028631Y000806D01*
X028655Y000847D01*
X028667Y000893D01*
X028667Y001156D01*
X028247Y001156D01*
X028247Y001156D01*
X028247Y000736D01*
X027983Y000736D01*
X027937Y000749D01*
X027896Y000772D01*
X027863Y000806D01*
X027839Y000847D01*
X027827Y000893D01*
X027827Y001156D01*
X028247Y001156D01*
X028247Y001156D01*
X028247Y001156D01*
X028667Y001156D01*
X028667Y001420D01*
X028643Y001486D02*
X030594Y001486D01*
X030435Y001645D02*
X019664Y001645D01*
X019664Y001803D02*
X021668Y001803D01*
X021692Y001796D02*
X021606Y001824D01*
X021525Y001865D01*
X021452Y001918D01*
X021389Y001981D01*
X021335Y002055D01*
X021294Y002135D01*
X021267Y002221D01*
X021253Y002307D01*
X021778Y002307D01*
X021874Y002307D01*
X021874Y002403D01*
X021778Y002403D01*
X021778Y002307D01*
X021778Y001782D01*
X021692Y001796D01*
X021778Y001803D02*
X021874Y001803D01*
X021984Y001803D02*
X030342Y001803D01*
X030342Y002754D02*
X024536Y002754D01*
X024695Y002913D02*
X030342Y002913D01*
X030342Y003071D02*
X024853Y003071D01*
X025012Y003230D02*
X030470Y003230D01*
X030318Y003705D02*
X025203Y003705D01*
X025203Y003864D02*
X030302Y003864D01*
X030302Y004022D02*
X025203Y004022D01*
X025203Y004181D02*
X030364Y004181D01*
X030523Y004339D02*
X025203Y004339D01*
X025203Y004498D02*
X030526Y004498D01*
X030367Y004656D02*
X025203Y004656D01*
X025203Y004815D02*
X030302Y004815D01*
X030302Y004973D02*
X025203Y004973D01*
X025203Y005132D02*
X030315Y005132D01*
X030474Y005290D02*
X025203Y005290D01*
X024763Y005290D02*
X024565Y005290D01*
X024671Y005449D02*
X024763Y005449D01*
X024763Y005607D02*
X024671Y005607D01*
X024671Y005766D02*
X024763Y005766D01*
X024763Y005924D02*
X024671Y005924D01*
X024675Y006083D02*
X024630Y006083D01*
X024244Y005607D02*
X024148Y005607D01*
X024148Y005449D02*
X024244Y005449D01*
X024244Y005290D02*
X024148Y005290D01*
X023827Y005290D02*
X021153Y005290D01*
X020994Y005132D02*
X024763Y005132D01*
X024763Y004973D02*
X020836Y004973D01*
X020677Y004815D02*
X024763Y004815D01*
X024763Y004656D02*
X020519Y004656D01*
X020360Y004498D02*
X024763Y004498D01*
X024763Y004339D02*
X020202Y004339D01*
X020043Y004181D02*
X024763Y004181D01*
X024763Y004022D02*
X019885Y004022D01*
X019726Y003864D02*
X024763Y003864D01*
X024763Y003705D02*
X019568Y003705D01*
X019494Y003547D02*
X024707Y003547D01*
X024548Y003388D02*
X019494Y003388D01*
X019494Y003230D02*
X024390Y003230D01*
X024231Y003071D02*
X019494Y003071D01*
X019494Y002913D02*
X021686Y002913D01*
X021692Y002915D02*
X021606Y002887D01*
X021525Y002846D01*
X021452Y002793D01*
X021389Y002729D01*
X021335Y002656D01*
X021294Y002575D01*
X021267Y002490D01*
X021253Y002403D01*
X021778Y002403D01*
X021778Y002928D01*
X021692Y002915D01*
X021778Y002913D02*
X021874Y002913D01*
X021966Y002913D02*
X024073Y002913D01*
X021874Y002754D02*
X021778Y002754D01*
X021778Y002596D02*
X021874Y002596D01*
X021874Y002437D02*
X021778Y002437D01*
X021778Y002279D02*
X021874Y002279D01*
X021874Y002120D02*
X021778Y002120D01*
X021778Y001962D02*
X021874Y001962D01*
X021408Y001962D02*
X019664Y001962D01*
X019660Y002120D02*
X021302Y002120D01*
X021257Y002279D02*
X019494Y002279D01*
X019494Y002437D02*
X021258Y002437D01*
X021305Y002596D02*
X019494Y002596D01*
X019494Y002754D02*
X021414Y002754D01*
X019664Y001486D02*
X025851Y001486D01*
X025839Y001466D02*
X025863Y001507D01*
X025896Y001540D01*
X025937Y001564D01*
X025983Y001576D01*
X026247Y001576D01*
X026511Y001576D01*
X026556Y001564D01*
X026597Y001540D01*
X026631Y001507D01*
X026655Y001466D01*
X026667Y001420D01*
X026667Y001156D01*
X026247Y001156D01*
X026247Y000736D01*
X026511Y000736D01*
X026556Y000749D01*
X026597Y000772D01*
X026631Y000806D01*
X026655Y000847D01*
X026667Y000893D01*
X026667Y001156D01*
X026247Y001156D01*
X026247Y001156D01*
X026247Y000736D01*
X025983Y000736D01*
X025937Y000749D01*
X025896Y000772D01*
X025863Y000806D01*
X025839Y000847D01*
X025827Y000893D01*
X025827Y001156D01*
X026247Y001156D01*
X026247Y001156D01*
X026247Y001156D01*
X025827Y001156D01*
X025827Y001420D01*
X025839Y001466D01*
X025827Y001328D02*
X019664Y001328D01*
X019664Y001169D02*
X025827Y001169D01*
X025827Y001011D02*
X019664Y001011D01*
X018884Y001011D02*
X018483Y001011D01*
X018483Y001169D02*
X018884Y001169D01*
X018884Y001328D02*
X018483Y001328D01*
X018483Y001486D02*
X018884Y001486D01*
X018884Y001645D02*
X018483Y001645D01*
X018483Y001803D02*
X018884Y001803D01*
X018884Y001962D02*
X018483Y001962D01*
X018479Y002120D02*
X018889Y002120D01*
X019054Y002279D02*
X018313Y002279D01*
X018313Y002437D02*
X019054Y002437D01*
X019054Y002596D02*
X018313Y002596D01*
X018313Y002754D02*
X019054Y002754D01*
X019054Y002913D02*
X018313Y002913D01*
X018313Y003071D02*
X019054Y003071D01*
X019054Y003230D02*
X018313Y003230D01*
X018463Y003388D02*
X019054Y003388D01*
X019054Y003547D02*
X018622Y003547D01*
X018780Y003705D02*
X019054Y003705D01*
X019104Y003864D02*
X018939Y003864D01*
X019097Y004022D02*
X019262Y004022D01*
X019256Y004181D02*
X019421Y004181D01*
X019414Y004339D02*
X019579Y004339D01*
X019573Y004498D02*
X019738Y004498D01*
X019731Y004656D02*
X019896Y004656D01*
X019890Y004815D02*
X020055Y004815D01*
X020048Y004973D02*
X020213Y004973D01*
X020207Y005132D02*
X020372Y005132D01*
X020365Y005290D02*
X020530Y005290D01*
X020524Y005449D02*
X020689Y005449D01*
X020682Y005607D02*
X020847Y005607D01*
X020841Y005766D02*
X021006Y005766D01*
X021023Y005924D02*
X020872Y005924D01*
X020872Y006083D02*
X021023Y006083D01*
X021023Y006241D02*
X020872Y006241D01*
X020872Y006400D02*
X021023Y006400D01*
X021023Y006558D02*
X020872Y006558D01*
X020872Y006717D02*
X021023Y006717D01*
X021023Y006875D02*
X020872Y006875D01*
X020872Y007034D02*
X021023Y007034D01*
X021023Y007192D02*
X020872Y007192D01*
X020872Y007351D02*
X021023Y007351D01*
X021023Y007509D02*
X020872Y007509D01*
X020872Y007668D02*
X021023Y007668D01*
X021023Y007826D02*
X020872Y007826D01*
X020872Y007985D02*
X021023Y007985D01*
X021023Y008143D02*
X020872Y008143D01*
X020872Y008302D02*
X021023Y008302D01*
X021023Y008460D02*
X020872Y008460D01*
X020872Y008619D02*
X021023Y008619D01*
X021023Y008777D02*
X020872Y008777D01*
X020872Y008936D02*
X021023Y008936D01*
X021023Y009094D02*
X020872Y009094D01*
X020981Y009253D02*
X021146Y009253D01*
X021140Y009411D02*
X021305Y009411D01*
X021558Y009353D02*
X021243Y009038D01*
X021243Y005692D01*
X019274Y003723D01*
X019274Y001558D01*
X018093Y001558D02*
X018093Y003330D01*
X020652Y005889D01*
X020652Y009235D01*
X021086Y009668D01*
X022700Y009668D01*
X022700Y009353D02*
X021558Y009353D01*
X021610Y009094D02*
X022264Y009094D01*
X022264Y008936D02*
X021463Y008936D01*
X020264Y009728D02*
X014309Y009728D01*
X014309Y009570D02*
X019667Y009570D01*
X020062Y009215D02*
X018793Y009215D01*
X017700Y008123D01*
X018220Y008143D02*
X019599Y008143D01*
X019587Y008302D02*
X018220Y008302D01*
X018349Y008460D02*
X020014Y008460D01*
X020014Y008302D02*
X020110Y008302D01*
X020110Y008143D02*
X020014Y008143D01*
X020432Y007985D02*
X018220Y007985D01*
X018220Y007826D02*
X020432Y007826D01*
X020432Y007668D02*
X018220Y007668D01*
X018220Y007509D02*
X020432Y007509D01*
X020432Y007351D02*
X018220Y007351D01*
X018220Y007192D02*
X020432Y007192D01*
X020432Y007034D02*
X018220Y007034D01*
X017180Y007034D02*
X000557Y007034D01*
X000557Y007192D02*
X017180Y007192D01*
X017180Y007351D02*
X000557Y007351D01*
X000557Y007509D02*
X012599Y007509D01*
X012599Y007668D02*
X000557Y007668D01*
X000557Y007826D02*
X012599Y007826D01*
X012556Y007985D02*
X010949Y007985D01*
X010951Y007991D02*
X010951Y008213D01*
X010415Y008213D01*
X010415Y008289D01*
X010951Y008289D01*
X010951Y008511D01*
X010938Y008557D01*
X010915Y008598D01*
X010881Y008631D01*
X010840Y008655D01*
X010794Y008667D01*
X010415Y008667D01*
X010415Y008289D01*
X010339Y008289D01*
X010339Y008667D01*
X009959Y008667D01*
X009914Y008655D01*
X009873Y008631D01*
X009839Y008598D01*
X009815Y008557D01*
X009808Y008530D01*
X009808Y008545D01*
X009726Y008627D01*
X009494Y008627D01*
X009494Y009390D01*
X009766Y009390D01*
X009798Y009423D01*
X009800Y009420D01*
X009833Y009386D01*
X009874Y009363D01*
X009920Y009350D01*
X010152Y009350D01*
X010152Y009778D01*
X010248Y009778D01*
X010248Y009874D01*
X010152Y009874D01*
X010152Y010301D01*
X009920Y010301D01*
X009874Y010289D01*
X009833Y010265D01*
X009800Y010231D01*
X009798Y010228D01*
X009766Y010261D01*
X009534Y010261D01*
X009534Y010975D01*
X009608Y010975D01*
X009690Y011057D01*
X009690Y011390D01*
X009608Y011472D01*
X009020Y011472D01*
X008938Y011390D01*
X008938Y011057D01*
X009020Y010975D01*
X009094Y010975D01*
X009094Y010217D01*
X009056Y010179D01*
X009056Y010046D01*
X007358Y010046D01*
X007093Y010310D01*
X007093Y012294D01*
X007358Y012558D01*
X011295Y012558D01*
X011424Y012687D01*
X011798Y013061D01*
X011798Y013327D01*
X011892Y013327D01*
X011974Y013409D01*
X011974Y013847D01*
X012505Y014379D01*
X012634Y014508D01*
X012634Y014892D01*
X012872Y014892D01*
X012922Y014942D01*
X015647Y014942D01*
X016019Y015314D01*
X016019Y015314D01*
X016148Y015443D01*
X016148Y016807D01*
X015754Y017200D01*
X015754Y018396D01*
X015822Y018464D01*
X015886Y018464D01*
X015886Y018350D01*
X015919Y018318D01*
X015916Y018316D01*
X015882Y018283D01*
X015859Y018242D01*
X015846Y018196D01*
X015846Y017964D01*
X016274Y017964D01*
X016274Y017868D01*
X016370Y017868D01*
X016370Y017964D01*
X016797Y017964D01*
X016797Y018196D01*
X016785Y018242D01*
X016761Y018283D01*
X016728Y018316D01*
X016725Y018318D01*
X016757Y018350D01*
X016757Y018978D01*
X016675Y019060D01*
X016542Y019060D01*
X016542Y019173D01*
X016413Y019302D01*
X015976Y019738D01*
X015983Y019736D01*
X016247Y019736D01*
X016511Y019736D01*
X016556Y019749D01*
X016597Y019772D01*
X016631Y019806D01*
X016655Y019847D01*
X016667Y019893D01*
X016667Y020156D01*
X016247Y020156D01*
X016247Y019736D01*
X016247Y020156D01*
X016247Y020156D01*
X016247Y020156D01*
X015827Y020156D01*
X015827Y019893D01*
X015829Y019886D01*
X015627Y020088D01*
X015627Y020454D01*
X015545Y020536D01*
X014949Y020536D01*
X014867Y020454D01*
X014867Y020376D01*
X014627Y020376D01*
X014627Y020454D01*
X014545Y020536D01*
X013949Y020536D01*
X013867Y020454D01*
X013867Y019858D01*
X013949Y019776D01*
X014545Y019776D01*
X014627Y019858D01*
X014627Y019936D01*
X014867Y019936D01*
X014867Y019858D01*
X014949Y019776D01*
X015316Y019776D01*
X016032Y019060D01*
X015968Y019060D01*
X015886Y018978D01*
X015886Y018904D01*
X015640Y018904D01*
X015511Y018775D01*
X015361Y018625D01*
X015361Y018972D01*
X014770Y019562D01*
X014641Y019691D01*
X013008Y019691D01*
X012910Y019789D01*
X012647Y019789D01*
X012460Y019603D01*
X012460Y019340D01*
X012647Y019153D01*
X012910Y019153D01*
X013008Y019251D01*
X014459Y019251D01*
X014921Y018790D01*
X014921Y016748D01*
X014823Y016650D01*
X014823Y016387D01*
X015009Y016200D01*
X015272Y016200D01*
X015459Y016387D01*
X015459Y016650D01*
X015361Y016748D01*
X015361Y016972D01*
X015443Y016889D01*
X015708Y016624D01*
X015708Y015625D01*
X015465Y015382D01*
X012922Y015382D01*
X012892Y015412D01*
X012922Y015442D01*
X015177Y015442D01*
X015206Y015413D01*
X015469Y015413D01*
X015656Y015599D01*
X015656Y015863D01*
X015469Y016049D01*
X015206Y016049D01*
X015039Y015882D01*
X013576Y015882D01*
X013687Y015993D01*
X013687Y016257D01*
X013501Y016442D01*
X013998Y016442D01*
X014149Y016594D01*
X014288Y016594D01*
X014474Y016781D01*
X014474Y017044D01*
X014288Y017230D01*
X014025Y017230D01*
X013838Y017044D01*
X013838Y016905D01*
X013815Y016882D01*
X013592Y016882D01*
X013687Y016977D01*
X013687Y017241D01*
X013501Y017427D01*
X013237Y017427D01*
X013139Y017329D01*
X012954Y017329D01*
X012954Y017350D01*
X012892Y017412D01*
X012922Y017442D01*
X014358Y017442D01*
X014418Y017382D01*
X014682Y017382D01*
X014868Y017568D01*
X014868Y017831D01*
X014682Y018018D01*
X014418Y018018D01*
X014283Y017882D01*
X012922Y017882D01*
X012892Y017912D01*
X012922Y017942D01*
X013726Y017942D01*
X013756Y017972D01*
X013894Y017972D01*
X014081Y018158D01*
X014081Y018422D01*
X013894Y018608D01*
X013631Y018608D01*
X013445Y018422D01*
X013445Y018382D01*
X012922Y018382D01*
X012919Y018385D01*
X012924Y018388D01*
X012958Y018422D01*
X012981Y018463D01*
X012994Y018509D01*
X012994Y018662D01*
X012414Y018662D01*
X012414Y018662D01*
X012994Y018662D01*
X012994Y018816D01*
X012981Y018862D01*
X012958Y018903D01*
X012924Y018936D01*
X012883Y018960D01*
X012837Y018972D01*
X012414Y018972D01*
X012414Y018662D01*
X012414Y018662D01*
X011834Y018662D01*
X011834Y018509D01*
X011846Y018463D01*
X011870Y018422D01*
X011903Y018388D01*
X011908Y018385D01*
X011874Y018350D01*
X011874Y017974D01*
X011936Y017912D01*
X011874Y017850D01*
X011874Y017474D01*
X011936Y017412D01*
X011874Y017350D01*
X011874Y016974D01*
X011936Y016912D01*
X011874Y016850D01*
X011874Y016474D01*
X011936Y016412D01*
X011874Y016350D01*
X011874Y015974D01*
X011936Y015912D01*
X011930Y015907D01*
X011817Y016019D01*
X011817Y019416D01*
X012178Y019776D01*
X012545Y019776D01*
X012627Y019858D01*
X012627Y020454D01*
X012545Y020536D01*
X011949Y020536D01*
X011867Y020454D01*
X011867Y020088D01*
X011424Y019644D01*
X011424Y019776D01*
X011545Y019776D01*
X011627Y019858D01*
X011627Y020454D01*
X011545Y020536D01*
X010949Y020536D01*
X010867Y020454D01*
X010867Y019858D01*
X010949Y019776D01*
X010984Y019776D01*
X010984Y019731D01*
X010627Y020088D01*
X010627Y020454D01*
X010545Y020536D01*
X009949Y020536D01*
X009867Y020454D01*
X009867Y019858D01*
X009949Y019776D01*
X010316Y019776D01*
X010590Y019502D01*
X010590Y017594D01*
X010534Y017538D01*
X010534Y017850D01*
X010472Y017912D01*
X010534Y017974D01*
X010534Y018350D01*
X010472Y018412D01*
X010534Y018474D01*
X010534Y018850D01*
X010452Y018932D01*
X010243Y018932D01*
X010243Y019045D01*
X010341Y019143D01*
X010341Y019406D01*
X010154Y019593D01*
X009891Y019593D01*
X009704Y019406D01*
X009704Y019143D01*
X009803Y019045D01*
X009803Y018932D01*
X009536Y018932D01*
X009455Y018852D01*
X009455Y019776D01*
X009545Y019776D01*
X009627Y019858D01*
X009627Y020454D01*
X009545Y020536D01*
X008949Y020536D01*
X008867Y020454D01*
X008867Y019858D01*
X008949Y019776D01*
X009015Y019776D01*
X009015Y018396D01*
X009144Y018267D01*
X009469Y017942D01*
X009486Y017942D01*
X009516Y017912D01*
X009486Y017882D01*
X009303Y017882D01*
X008947Y017526D01*
X008818Y017397D01*
X008818Y016945D01*
X008720Y016847D01*
X008720Y016584D01*
X008907Y016397D01*
X009170Y016397D01*
X009356Y016584D01*
X009356Y016847D01*
X009258Y016945D01*
X009258Y017215D01*
X009486Y017442D01*
X009516Y017412D01*
X009454Y017350D01*
X009454Y016974D01*
X009516Y016912D01*
X009454Y016850D01*
X009454Y016474D01*
X009516Y016412D01*
X009486Y016382D01*
X008788Y016382D01*
X008357Y015951D01*
X008228Y015822D01*
X008228Y015567D01*
X008130Y015469D01*
X008130Y015206D01*
X008316Y015019D01*
X008579Y015019D01*
X008766Y015206D01*
X008766Y015469D01*
X008668Y015567D01*
X008668Y015640D01*
X008970Y015942D01*
X009486Y015942D01*
X009516Y015912D01*
X009454Y015850D01*
X009454Y015474D01*
X009516Y015412D01*
X009454Y015350D01*
X009454Y014974D01*
X009536Y014892D01*
X010452Y014892D01*
X010534Y014974D01*
X010534Y015350D01*
X010472Y015412D01*
X010502Y015442D01*
X011029Y015442D01*
X011295Y015708D01*
X011400Y015814D01*
X011506Y015708D01*
X011772Y015442D01*
X011906Y015442D01*
X011936Y015412D01*
X011874Y015350D01*
X011874Y014974D01*
X011956Y014892D01*
X012194Y014892D01*
X012194Y014690D01*
X011702Y014198D01*
X011264Y014198D01*
X011231Y014165D01*
X011230Y014168D01*
X011196Y014202D01*
X011155Y014226D01*
X011109Y014238D01*
X010878Y014238D01*
X010878Y013811D01*
X010782Y013811D01*
X010782Y014238D01*
X010550Y014238D01*
X010504Y014226D01*
X010463Y014202D01*
X010430Y014168D01*
X010406Y014127D01*
X010394Y014082D01*
X010394Y013811D01*
X010782Y013811D01*
X010782Y013715D01*
X010878Y013715D01*
X010878Y013287D01*
X011109Y013287D01*
X011155Y013300D01*
X011196Y013323D01*
X011230Y013357D01*
X011231Y013360D01*
X011264Y013327D01*
X011358Y013327D01*
X011358Y013244D01*
X011112Y012998D01*
X007175Y012998D01*
X006653Y012476D01*
X006653Y010128D01*
X007047Y009735D01*
X007047Y009735D01*
X007175Y009606D01*
X009054Y009606D01*
X009054Y008627D01*
X008823Y008627D01*
X008741Y008545D01*
X008741Y007957D01*
X008823Y007875D01*
X009726Y007875D01*
X009808Y007957D01*
X009808Y007972D01*
X009815Y007945D01*
X009839Y007904D01*
X009873Y007871D01*
X009914Y007847D01*
X009959Y007835D01*
X010339Y007835D01*
X010339Y008213D01*
X010415Y008213D01*
X010415Y007835D01*
X010794Y007835D01*
X010840Y007847D01*
X010881Y007871D01*
X010915Y007904D01*
X010938Y007945D01*
X010951Y007991D01*
X010951Y008143D02*
X012398Y008143D01*
X012239Y008302D02*
X010951Y008302D01*
X010951Y008460D02*
X012081Y008460D01*
X011968Y008619D02*
X010893Y008619D01*
X010415Y008619D02*
X010339Y008619D01*
X010339Y008460D02*
X010415Y008460D01*
X010415Y008302D02*
X010339Y008302D01*
X010339Y008143D02*
X010415Y008143D01*
X010415Y007985D02*
X010339Y007985D01*
X009860Y008619D02*
X009734Y008619D01*
X009494Y008777D02*
X011968Y008777D01*
X011968Y008936D02*
X009494Y008936D01*
X009494Y009094D02*
X011968Y009094D01*
X011968Y009253D02*
X009494Y009253D01*
X009787Y009411D02*
X009808Y009411D01*
X010152Y009411D02*
X010248Y009411D01*
X010248Y009350D02*
X010479Y009350D01*
X010525Y009363D01*
X010566Y009386D01*
X010600Y009420D01*
X010623Y009461D01*
X010636Y009507D01*
X010636Y009778D01*
X010248Y009778D01*
X010248Y009350D01*
X010248Y009570D02*
X010152Y009570D01*
X010152Y009728D02*
X010248Y009728D01*
X010248Y009874D02*
X010636Y009874D01*
X010636Y010145D01*
X010623Y010190D01*
X010600Y010231D01*
X010566Y010265D01*
X010525Y010289D01*
X010479Y010301D01*
X010248Y010301D01*
X010248Y009874D01*
X010248Y009887D02*
X010152Y009887D01*
X010152Y010045D02*
X010248Y010045D01*
X010248Y010204D02*
X010152Y010204D01*
X010616Y010204D02*
X011968Y010204D01*
X011968Y010362D02*
X009534Y010362D01*
X009534Y010521D02*
X011968Y010521D01*
X011968Y010679D02*
X009534Y010679D01*
X009534Y010838D02*
X011849Y010838D01*
X011690Y010996D02*
X010653Y010996D01*
X010337Y011223D02*
X011774Y011223D01*
X012188Y010810D01*
X012188Y008664D01*
X012995Y007857D01*
X012861Y008302D02*
X013649Y008302D01*
X013649Y008460D02*
X012703Y008460D01*
X012544Y008619D02*
X013649Y008619D01*
X013649Y008777D02*
X012408Y008777D01*
X012408Y008936D02*
X013649Y008936D01*
X013649Y009094D02*
X012408Y009094D01*
X012408Y009253D02*
X012550Y009253D01*
X012849Y009253D02*
X012889Y009253D01*
X012889Y009411D02*
X012849Y009411D01*
X012849Y009570D02*
X012889Y009570D01*
X012889Y009728D02*
X012849Y009728D01*
X012849Y009887D02*
X012889Y009887D01*
X012889Y010045D02*
X012849Y010045D01*
X012687Y010173D02*
X013051Y010173D01*
X013309Y010431D01*
X013309Y010795D01*
X013051Y011053D01*
X012687Y011053D01*
X012429Y010795D01*
X012429Y010431D01*
X012687Y010173D01*
X012656Y010204D02*
X012408Y010204D01*
X012408Y010362D02*
X012497Y010362D01*
X012429Y010521D02*
X012408Y010521D01*
X012408Y010679D02*
X012429Y010679D01*
X012408Y010838D02*
X012472Y010838D01*
X012563Y010996D02*
X012630Y010996D01*
X012722Y011155D02*
X013149Y011155D01*
X013175Y010996D02*
X013108Y010996D01*
X013266Y010838D02*
X013333Y010838D01*
X013309Y010679D02*
X013429Y010679D01*
X013429Y010521D02*
X013309Y010521D01*
X013241Y010362D02*
X013497Y010362D01*
X013656Y010204D02*
X013082Y010204D01*
X013116Y010045D02*
X013679Y010045D01*
X013521Y009887D02*
X013274Y009887D01*
X013349Y009728D02*
X013429Y009728D01*
X013429Y009570D02*
X013349Y009570D01*
X013346Y009411D02*
X013448Y009411D01*
X013607Y009253D02*
X013188Y009253D01*
X013869Y009613D02*
X013869Y007983D01*
X013743Y007857D01*
X014139Y007826D02*
X017180Y007826D01*
X017180Y007668D02*
X014139Y007668D01*
X014139Y007509D02*
X017180Y007509D01*
X017180Y007985D02*
X014139Y007985D01*
X014139Y008143D02*
X017180Y008143D01*
X017180Y008302D02*
X014089Y008302D01*
X014089Y008460D02*
X017180Y008460D01*
X017180Y008619D02*
X014089Y008619D01*
X014089Y008777D02*
X017180Y008777D01*
X017180Y008936D02*
X014089Y008936D01*
X014089Y009094D02*
X017180Y009094D01*
X017202Y009253D02*
X014131Y009253D01*
X014290Y009411D02*
X018677Y009411D01*
X018519Y009253D02*
X018197Y009253D01*
X018220Y009094D02*
X018360Y009094D01*
X018666Y008777D02*
X019595Y008777D01*
X019587Y008619D02*
X018507Y008619D01*
X018824Y008936D02*
X019627Y008936D01*
X020062Y009215D02*
X020830Y009983D01*
X022700Y009983D01*
X022700Y010298D02*
X020790Y010298D01*
X020062Y011026D01*
X018861Y011026D01*
X017965Y011923D01*
X017700Y011923D01*
X018220Y012106D02*
X019602Y012106D01*
X019587Y011947D02*
X018251Y011947D01*
X018410Y011789D02*
X020014Y011789D01*
X020110Y011789D02*
X020788Y011789D01*
X020728Y011630D02*
X020537Y011630D01*
X020531Y011472D02*
X020728Y011472D01*
X020880Y011313D02*
X020497Y011313D01*
X020497Y011155D02*
X021335Y011155D01*
X021319Y010996D02*
X020497Y010996D01*
X020562Y010838D02*
X021356Y010838D01*
X021637Y011007D02*
X021873Y011243D01*
X022700Y011243D01*
X022700Y010928D02*
X024668Y010928D01*
X022404Y013192D01*
X022404Y013763D01*
X022765Y013374D02*
X025393Y013374D01*
X025393Y013532D02*
X022800Y013532D01*
X022800Y013691D02*
X025196Y013691D01*
X025059Y013849D02*
X022800Y013849D01*
X022800Y014008D02*
X025059Y014008D01*
X025134Y014166D02*
X022750Y014166D01*
X022059Y014166D02*
X022002Y014166D01*
X021311Y014166D02*
X021170Y014166D01*
X021260Y014008D02*
X021069Y014008D01*
X021046Y013763D02*
X020849Y013566D01*
X020849Y012582D01*
X021558Y011873D01*
X022700Y011873D01*
X022700Y011558D02*
X021086Y011558D01*
X021046Y011597D01*
X021304Y011789D02*
X021331Y011789D01*
X021172Y011947D02*
X020537Y011947D01*
X020521Y012106D02*
X021014Y012106D01*
X020855Y012264D02*
X018220Y012264D01*
X018220Y012423D02*
X020697Y012423D01*
X020629Y012581D02*
X018220Y012581D01*
X018220Y012740D02*
X020629Y012740D01*
X020629Y012898D02*
X018220Y012898D01*
X018193Y013057D02*
X020629Y013057D01*
X020629Y013215D02*
X015782Y013215D01*
X015624Y013057D02*
X017206Y013057D01*
X017180Y012898D02*
X015465Y012898D01*
X015307Y012740D02*
X017180Y012740D01*
X017180Y012581D02*
X015148Y012581D01*
X014990Y012423D02*
X017180Y012423D01*
X017180Y012264D02*
X014831Y012264D01*
X014673Y012106D02*
X017180Y012106D01*
X017180Y011947D02*
X014514Y011947D01*
X014356Y011789D02*
X017180Y011789D01*
X017180Y011630D02*
X014309Y011630D01*
X014309Y011472D02*
X017180Y011472D01*
X017180Y011313D02*
X014192Y011313D01*
X013869Y011613D02*
X017200Y014944D01*
X021637Y014944D01*
X020849Y014156D01*
X020849Y013566D01*
X020629Y013532D02*
X016099Y013532D01*
X015941Y013374D02*
X020629Y013374D01*
X020629Y013691D02*
X016258Y013691D01*
X016416Y013849D02*
X020629Y013849D01*
X020629Y014008D02*
X016575Y014008D01*
X016733Y014166D02*
X020629Y014166D01*
X020707Y014325D02*
X016892Y014325D01*
X017050Y014483D02*
X020865Y014483D01*
X021024Y014642D02*
X017209Y014642D01*
X016904Y014959D02*
X015664Y014959D01*
X015822Y015117D02*
X017062Y015117D01*
X016745Y014800D02*
X013569Y014800D01*
X013687Y014642D02*
X016587Y014642D01*
X016428Y014483D02*
X013687Y014483D01*
X013594Y014325D02*
X016270Y014325D01*
X016111Y014166D02*
X013589Y014166D01*
X013589Y014008D02*
X015953Y014008D01*
X015794Y013849D02*
X013589Y013849D01*
X013589Y013691D02*
X015636Y013691D01*
X015477Y013532D02*
X013589Y013532D01*
X013589Y013374D02*
X015319Y013374D01*
X015160Y013215D02*
X013589Y013215D01*
X013589Y013057D02*
X015002Y013057D01*
X014843Y012898D02*
X013589Y012898D01*
X013589Y012740D02*
X014685Y012740D01*
X014526Y012581D02*
X013589Y012581D01*
X013589Y012423D02*
X014368Y012423D01*
X014209Y012264D02*
X013589Y012264D01*
X013589Y012106D02*
X014051Y012106D01*
X013149Y012106D02*
X012417Y012106D01*
X012575Y012264D02*
X013149Y012264D01*
X013149Y012423D02*
X012734Y012423D01*
X012802Y012581D02*
X013149Y012581D01*
X013149Y012740D02*
X012802Y012740D01*
X012802Y012898D02*
X013149Y012898D01*
X013149Y013057D02*
X012802Y013057D01*
X012802Y013215D02*
X013149Y013215D01*
X013149Y013374D02*
X012802Y013374D01*
X012802Y013532D02*
X013149Y013532D01*
X013149Y013691D02*
X012900Y013691D01*
X012900Y013849D02*
X013149Y013849D01*
X013149Y014008D02*
X012786Y014008D01*
X012582Y013763D02*
X012582Y012582D01*
X011991Y011991D01*
X010357Y011991D01*
X010337Y011971D01*
X009961Y011947D02*
X009690Y011947D01*
X009690Y011805D02*
X009690Y012138D01*
X009608Y012220D01*
X009020Y012220D01*
X008991Y012191D01*
X008292Y012191D01*
X008292Y012285D01*
X008210Y012367D01*
X007504Y012367D01*
X007422Y012285D01*
X007422Y011657D01*
X007454Y011625D01*
X007451Y011623D01*
X007418Y011590D01*
X007394Y011549D01*
X007382Y011503D01*
X007382Y011271D01*
X007809Y011271D01*
X007809Y011175D01*
X007905Y011175D01*
X007905Y010787D01*
X008176Y010787D01*
X008222Y010800D01*
X008263Y010823D01*
X008296Y010857D01*
X008320Y010898D01*
X008332Y010944D01*
X008332Y011175D01*
X007905Y011175D01*
X007905Y011271D01*
X008332Y011271D01*
X008332Y011503D01*
X008320Y011549D01*
X008296Y011590D01*
X008263Y011623D01*
X008260Y011625D01*
X008292Y011657D01*
X008292Y011751D01*
X008991Y011751D01*
X009020Y011723D01*
X009608Y011723D01*
X009690Y011805D01*
X009674Y011789D02*
X009941Y011789D01*
X009921Y011630D02*
X008265Y011630D01*
X008332Y011472D02*
X009921Y011472D01*
X009961Y011313D02*
X009690Y011313D01*
X009690Y011155D02*
X009961Y011155D01*
X010022Y010996D02*
X009629Y010996D01*
X009314Y011223D02*
X009314Y009963D01*
X009452Y009826D01*
X007267Y009826D01*
X006873Y010219D01*
X006873Y012385D01*
X007267Y012778D01*
X011204Y012778D01*
X011578Y013152D01*
X011578Y013763D01*
X012414Y014599D01*
X012414Y015162D01*
X015556Y015162D01*
X015928Y015534D01*
X015928Y016715D01*
X015534Y017109D01*
X015534Y018487D01*
X015731Y018684D01*
X016302Y018684D01*
X016322Y018664D01*
X016322Y019082D01*
X015247Y020156D01*
X014247Y020156D01*
X013867Y020189D02*
X013627Y020189D01*
X013627Y020031D02*
X013867Y020031D01*
X013867Y019872D02*
X013627Y019872D01*
X013627Y019858D02*
X013545Y019776D01*
X012949Y019776D01*
X012867Y019858D01*
X012867Y020454D01*
X012949Y020536D01*
X013545Y020536D01*
X013627Y020454D01*
X013627Y019858D01*
X013627Y020348D02*
X013867Y020348D01*
X013919Y020506D02*
X013575Y020506D01*
X012919Y020506D02*
X012575Y020506D01*
X012627Y020348D02*
X012867Y020348D01*
X012867Y020189D02*
X012627Y020189D01*
X012627Y020031D02*
X012867Y020031D01*
X012867Y019872D02*
X012627Y019872D01*
X012571Y019714D02*
X012116Y019714D01*
X011957Y019555D02*
X012460Y019555D01*
X012460Y019397D02*
X011817Y019397D01*
X011817Y019238D02*
X012562Y019238D01*
X012414Y018972D02*
X011990Y018972D01*
X011944Y018960D01*
X011903Y018936D01*
X011870Y018903D01*
X011846Y018862D01*
X011834Y018816D01*
X011834Y018662D01*
X012414Y018662D01*
X012414Y018662D01*
X012414Y018972D01*
X012414Y018921D02*
X012414Y018921D01*
X012414Y018763D02*
X012414Y018763D01*
X012939Y018921D02*
X014789Y018921D01*
X014921Y018763D02*
X012994Y018763D01*
X012994Y018604D02*
X013627Y018604D01*
X013468Y018446D02*
X012972Y018446D01*
X012414Y018162D02*
X013635Y018162D01*
X013763Y018290D01*
X014081Y018287D02*
X014921Y018287D01*
X014921Y018129D02*
X014051Y018129D01*
X014057Y018446D02*
X014921Y018446D01*
X014921Y018604D02*
X013898Y018604D01*
X014630Y019080D02*
X011817Y019080D01*
X011817Y018921D02*
X011888Y018921D01*
X011834Y018763D02*
X011817Y018763D01*
X011817Y018604D02*
X011834Y018604D01*
X011817Y018446D02*
X011856Y018446D01*
X011874Y018287D02*
X011817Y018287D01*
X011817Y018129D02*
X011874Y018129D01*
X011878Y017970D02*
X011817Y017970D01*
X011817Y017812D02*
X011874Y017812D01*
X011874Y017653D02*
X011817Y017653D01*
X011817Y017495D02*
X011874Y017495D01*
X011874Y017336D02*
X011817Y017336D01*
X011817Y017178D02*
X011874Y017178D01*
X011874Y017019D02*
X011817Y017019D01*
X011817Y016861D02*
X011884Y016861D01*
X011874Y016702D02*
X011817Y016702D01*
X011817Y016544D02*
X011874Y016544D01*
X011909Y016385D02*
X011817Y016385D01*
X011817Y016227D02*
X011874Y016227D01*
X011874Y016068D02*
X011817Y016068D01*
X011927Y015910D02*
X011933Y015910D01*
X011863Y015662D02*
X011597Y015928D01*
X011597Y019507D01*
X012247Y020156D01*
X011867Y020189D02*
X011627Y020189D01*
X011627Y020031D02*
X011810Y020031D01*
X011652Y019872D02*
X011627Y019872D01*
X011493Y019714D02*
X011424Y019714D01*
X010867Y019872D02*
X010842Y019872D01*
X010867Y020031D02*
X010684Y020031D01*
X010627Y020189D02*
X010867Y020189D01*
X010867Y020348D02*
X010627Y020348D01*
X010575Y020506D02*
X010919Y020506D01*
X011575Y020506D02*
X011919Y020506D01*
X011867Y020348D02*
X011627Y020348D01*
X011247Y020156D02*
X011204Y020113D01*
X011204Y015928D01*
X010938Y015662D01*
X009994Y015662D01*
X009513Y015910D02*
X008938Y015910D01*
X008779Y015751D02*
X009454Y015751D01*
X009454Y015593D02*
X008668Y015593D01*
X008766Y015434D02*
X009494Y015434D01*
X009454Y015276D02*
X008766Y015276D01*
X008677Y015117D02*
X009454Y015117D01*
X009469Y014959D02*
X006541Y014959D01*
X006541Y015117D02*
X008218Y015117D01*
X008130Y015276D02*
X006541Y015276D01*
X006541Y015325D02*
X006542Y015326D01*
X006542Y015331D01*
X006545Y015335D01*
X006541Y015408D01*
X006541Y015482D01*
X006540Y015482D01*
X006536Y015855D01*
X006424Y015965D01*
X006267Y015964D01*
X006156Y015851D01*
X006157Y015830D01*
X005809Y016140D01*
X005758Y016192D01*
X005751Y016192D01*
X005747Y016196D01*
X005674Y016192D01*
X005600Y016192D01*
X005596Y016187D01*
X005589Y016187D01*
X005541Y016132D01*
X005489Y016081D01*
X005489Y016074D01*
X005485Y016069D01*
X005489Y015996D01*
X005488Y015622D01*
X005501Y015610D01*
X005489Y015600D01*
X005478Y015460D01*
X005467Y015448D01*
X005471Y015383D01*
X005466Y015318D01*
X005476Y015307D01*
X005487Y015115D01*
X005495Y015108D01*
X005476Y015090D01*
X005476Y015082D01*
X005471Y015077D01*
X005475Y015005D01*
X005474Y014817D01*
X005469Y014811D01*
X005473Y014739D01*
X005472Y014666D01*
X005477Y014661D01*
X005478Y014654D01*
X005507Y014628D01*
X005448Y014562D01*
X005457Y014405D01*
X005504Y014362D01*
X005502Y014360D01*
X005450Y014309D01*
X005450Y014302D01*
X005445Y014296D01*
X005449Y014224D01*
X005448Y014036D01*
X005443Y014031D01*
X005447Y013958D01*
X005446Y013886D01*
X005452Y013881D01*
X005452Y013873D01*
X005485Y013844D01*
X005443Y013802D01*
X005442Y013504D01*
X005438Y013499D01*
X005442Y013426D01*
X005442Y013353D01*
X005447Y013348D01*
X005447Y013342D01*
X005502Y013293D01*
X005553Y013242D01*
X005560Y013242D01*
X005671Y013142D01*
X005673Y013141D01*
X006013Y012838D01*
X006170Y012847D01*
X006275Y012965D01*
X006265Y013122D01*
X006041Y013321D01*
X006040Y013350D01*
X006055Y013336D01*
X006212Y013345D01*
X006317Y013463D01*
X006308Y013620D01*
X006071Y013831D01*
X006071Y013858D01*
X006221Y013724D01*
X006273Y013672D01*
X006279Y013672D01*
X006284Y013668D01*
X006357Y013672D01*
X006430Y013672D01*
X006434Y013677D01*
X006441Y013677D01*
X006489Y013732D01*
X006541Y013784D01*
X006541Y013790D01*
X006545Y013795D01*
X006541Y013868D01*
X006541Y015325D01*
X006541Y015434D02*
X008130Y015434D01*
X008228Y015593D02*
X006539Y015593D01*
X006537Y015751D02*
X008228Y015751D01*
X008315Y015910D02*
X006481Y015910D01*
X006214Y015910D02*
X006068Y015910D01*
X005890Y016068D02*
X008474Y016068D01*
X008632Y016227D02*
X000557Y016227D01*
X000557Y016385D02*
X009489Y016385D01*
X009454Y016544D02*
X009317Y016544D01*
X009356Y016702D02*
X009454Y016702D01*
X009464Y016861D02*
X009343Y016861D01*
X009258Y017019D02*
X009454Y017019D01*
X009454Y017178D02*
X009258Y017178D01*
X009380Y017336D02*
X009454Y017336D01*
X009395Y017662D02*
X009038Y017306D01*
X009038Y016715D01*
X008720Y016702D02*
X000557Y016702D01*
X000557Y016544D02*
X008760Y016544D01*
X008879Y016162D02*
X008448Y015731D01*
X008448Y015337D01*
X008879Y016162D02*
X009994Y016162D01*
X011180Y015593D02*
X011621Y015593D01*
X011463Y015751D02*
X011338Y015751D01*
X011863Y015662D02*
X012414Y015662D01*
X015269Y015662D01*
X015337Y015731D01*
X015656Y015751D02*
X015708Y015751D01*
X015708Y015910D02*
X015609Y015910D01*
X015708Y016068D02*
X013687Y016068D01*
X013687Y016227D02*
X014982Y016227D01*
X014824Y016385D02*
X013558Y016385D01*
X013332Y016162D02*
X013369Y016125D01*
X013332Y016162D02*
X012414Y016162D01*
X012414Y016662D02*
X013906Y016662D01*
X014156Y016912D01*
X014396Y016702D02*
X014875Y016702D01*
X014921Y016861D02*
X014474Y016861D01*
X014474Y017019D02*
X014921Y017019D01*
X014921Y017178D02*
X014341Y017178D01*
X013972Y017178D02*
X013687Y017178D01*
X013687Y017019D02*
X013838Y017019D01*
X013592Y017336D02*
X014921Y017336D01*
X014921Y017495D02*
X014795Y017495D01*
X014868Y017653D02*
X014921Y017653D01*
X014921Y017812D02*
X014868Y017812D01*
X014921Y017970D02*
X014729Y017970D01*
X014550Y017700D02*
X014513Y017662D01*
X012414Y017662D01*
X012954Y017336D02*
X013146Y017336D01*
X013369Y017109D02*
X012467Y017109D01*
X012414Y017162D01*
X013754Y017970D02*
X014371Y017970D01*
X015141Y018881D02*
X014550Y019471D01*
X012778Y019471D01*
X012995Y019238D02*
X014472Y019238D01*
X014936Y019397D02*
X015695Y019397D01*
X015537Y019555D02*
X014777Y019555D01*
X014867Y019872D02*
X014627Y019872D01*
X015378Y019714D02*
X012986Y019714D01*
X014575Y020506D02*
X014919Y020506D01*
X015575Y020506D02*
X015863Y020506D01*
X015863Y020507D02*
X015839Y020466D01*
X015827Y020420D01*
X015827Y020156D01*
X016247Y020156D01*
X016247Y020156D01*
X016667Y020156D01*
X016667Y020420D01*
X016655Y020466D01*
X016631Y020507D01*
X016597Y020540D01*
X016556Y020564D01*
X016511Y020576D01*
X016247Y020576D01*
X016247Y020156D01*
X016247Y020156D01*
X016247Y020576D01*
X015983Y020576D01*
X015937Y020564D01*
X015896Y020540D01*
X015863Y020507D01*
X015827Y020348D02*
X015627Y020348D01*
X015627Y020189D02*
X015827Y020189D01*
X015827Y020031D02*
X015684Y020031D01*
X016001Y019714D02*
X017283Y019714D01*
X017283Y019747D02*
X017283Y019060D01*
X017150Y019060D01*
X017068Y018978D01*
X017068Y018350D01*
X017100Y018318D01*
X017097Y018316D01*
X017064Y018283D01*
X017040Y018242D01*
X017028Y018196D01*
X017028Y017964D01*
X017455Y017964D01*
X017455Y017868D01*
X017551Y017868D01*
X017551Y017480D01*
X017822Y017480D01*
X017868Y017493D01*
X017909Y017516D01*
X017942Y017550D01*
X017966Y017591D01*
X017978Y017637D01*
X017978Y017868D01*
X017551Y017868D01*
X017551Y017964D01*
X017978Y017964D01*
X017978Y018196D01*
X017966Y018242D01*
X017942Y018283D01*
X017909Y018316D01*
X017906Y018318D01*
X017938Y018350D01*
X017938Y018978D01*
X017856Y019060D01*
X017723Y019060D01*
X017723Y019807D01*
X017733Y019883D01*
X017723Y019896D01*
X017723Y019913D01*
X017669Y019967D01*
X017627Y020022D01*
X017627Y020454D01*
X017545Y020536D01*
X016949Y020536D01*
X016867Y020454D01*
X016867Y019858D01*
X016949Y019776D01*
X017261Y019776D01*
X017283Y019747D01*
X017283Y019555D02*
X016159Y019555D01*
X016318Y019397D02*
X017283Y019397D01*
X017283Y019238D02*
X016476Y019238D01*
X016542Y019080D02*
X017283Y019080D01*
X017068Y018921D02*
X016757Y018921D01*
X016757Y018763D02*
X017068Y018763D01*
X017068Y018604D02*
X016757Y018604D01*
X016757Y018446D02*
X017068Y018446D01*
X017068Y018287D02*
X016756Y018287D01*
X016797Y018129D02*
X017028Y018129D01*
X017028Y017970D02*
X016797Y017970D01*
X016797Y017868D02*
X016370Y017868D01*
X016370Y017480D01*
X016641Y017480D01*
X016686Y017493D01*
X016728Y017516D01*
X016761Y017550D01*
X016785Y017591D01*
X016797Y017637D01*
X016797Y017868D01*
X016797Y017812D02*
X017028Y017812D01*
X017028Y017868D02*
X017028Y017637D01*
X017040Y017591D01*
X017064Y017550D01*
X017097Y017516D01*
X017138Y017493D01*
X017184Y017480D01*
X017455Y017480D01*
X017455Y017868D01*
X017028Y017868D01*
X017028Y017653D02*
X016797Y017653D01*
X016690Y017495D02*
X017134Y017495D01*
X017455Y017495D02*
X017551Y017495D01*
X017551Y017653D02*
X017455Y017653D01*
X017455Y017812D02*
X017551Y017812D01*
X017872Y017495D02*
X023433Y017495D01*
X023437Y017493D02*
X023483Y017480D01*
X023754Y017480D01*
X023754Y017868D01*
X023850Y017868D01*
X023850Y017480D01*
X024121Y017480D01*
X024167Y017493D01*
X024208Y017516D01*
X024241Y017550D01*
X024265Y017591D01*
X024277Y017637D01*
X024277Y017868D01*
X023850Y017868D01*
X023850Y017964D01*
X024277Y017964D01*
X024277Y018196D01*
X024265Y018242D01*
X024241Y018283D01*
X024208Y018316D01*
X024205Y018318D01*
X024237Y018350D01*
X024237Y018978D01*
X024155Y019060D01*
X024022Y019060D01*
X024022Y019620D01*
X024178Y019776D01*
X024545Y019776D01*
X024627Y019858D01*
X024627Y020454D01*
X024545Y020536D01*
X023949Y020536D01*
X023867Y020454D01*
X023867Y020088D01*
X023711Y019931D01*
X023665Y019886D01*
X023667Y019893D01*
X023667Y020156D01*
X023247Y020156D01*
X023247Y019736D01*
X023511Y019736D01*
X023556Y019749D01*
X023582Y019763D01*
X023582Y019060D01*
X023449Y019060D01*
X023367Y018978D01*
X023367Y018350D01*
X023399Y018318D01*
X023396Y018316D01*
X023363Y018283D01*
X023339Y018242D01*
X023327Y018196D01*
X023327Y017964D01*
X023754Y017964D01*
X023754Y017868D01*
X023327Y017868D01*
X023327Y017637D01*
X023339Y017591D01*
X023363Y017550D01*
X023396Y017516D01*
X023437Y017493D01*
X023327Y017653D02*
X022663Y017653D01*
X022663Y017602D02*
X022663Y018230D01*
X022602Y018290D01*
X022663Y018350D01*
X022663Y018978D01*
X022581Y019060D01*
X022467Y019060D01*
X022467Y019776D01*
X022545Y019776D01*
X022627Y019858D01*
X022627Y020454D01*
X022545Y020536D01*
X021949Y020536D01*
X021867Y020454D01*
X021867Y019858D01*
X021949Y019776D01*
X022027Y019776D01*
X022027Y019060D01*
X021874Y019060D01*
X021792Y018978D01*
X021792Y018350D01*
X021852Y018290D01*
X021792Y018230D01*
X021792Y018117D01*
X021728Y018117D01*
X021467Y018377D01*
X021467Y019776D01*
X021545Y019776D01*
X021627Y019858D01*
X021627Y020454D01*
X021545Y020536D01*
X020949Y020536D01*
X020867Y020454D01*
X020867Y019858D01*
X020949Y019776D01*
X021027Y019776D01*
X021027Y018195D01*
X021417Y017805D01*
X021546Y017677D01*
X021792Y017677D01*
X021792Y017602D01*
X021874Y017520D01*
X022581Y017520D01*
X022663Y017602D01*
X022663Y017812D02*
X023327Y017812D01*
X023327Y017970D02*
X022663Y017970D01*
X022663Y018129D02*
X023327Y018129D01*
X023367Y018287D02*
X022605Y018287D01*
X022663Y018446D02*
X023367Y018446D01*
X023367Y018604D02*
X022663Y018604D01*
X022663Y018763D02*
X023367Y018763D01*
X023367Y018921D02*
X022663Y018921D01*
X022467Y019080D02*
X023582Y019080D01*
X023582Y019238D02*
X022467Y019238D01*
X022467Y019397D02*
X023582Y019397D01*
X023582Y019555D02*
X022467Y019555D01*
X022467Y019714D02*
X023582Y019714D01*
X023802Y019711D02*
X023802Y018664D01*
X024237Y018604D02*
X024548Y018604D01*
X024548Y018446D02*
X024237Y018446D01*
X024237Y018287D02*
X024549Y018287D01*
X024544Y018283D02*
X024520Y018242D01*
X024508Y018196D01*
X024508Y017964D01*
X024935Y017964D01*
X024935Y017868D01*
X025031Y017868D01*
X025031Y017480D01*
X025302Y017480D01*
X025348Y017493D01*
X025389Y017516D01*
X025422Y017550D01*
X025446Y017591D01*
X025458Y017637D01*
X025458Y017868D01*
X025031Y017868D01*
X025031Y017964D01*
X025458Y017964D01*
X025458Y018196D01*
X025446Y018242D01*
X025422Y018283D01*
X025389Y018316D01*
X025386Y018318D01*
X025418Y018350D01*
X025418Y018978D01*
X025336Y019060D01*
X025203Y019060D01*
X025203Y019776D01*
X025545Y019776D01*
X025627Y019858D01*
X025627Y020454D01*
X025545Y020536D01*
X024949Y020536D01*
X024867Y020454D01*
X024867Y020088D01*
X024763Y019984D01*
X024763Y019060D01*
X024630Y019060D01*
X024548Y018978D01*
X024548Y018350D01*
X024580Y018318D01*
X024577Y018316D01*
X024544Y018283D01*
X024508Y018129D02*
X024277Y018129D01*
X024277Y017970D02*
X024508Y017970D01*
X024508Y017868D02*
X024508Y017637D01*
X024520Y017591D01*
X024544Y017550D01*
X024577Y017516D01*
X024618Y017493D01*
X024664Y017480D01*
X024935Y017480D01*
X024935Y017868D01*
X024508Y017868D01*
X024508Y017812D02*
X024277Y017812D01*
X024277Y017653D02*
X024508Y017653D01*
X024614Y017495D02*
X024171Y017495D01*
X023850Y017495D02*
X023754Y017495D01*
X023754Y017653D02*
X023850Y017653D01*
X023850Y017812D02*
X023754Y017812D01*
X023782Y017897D02*
X023802Y017916D01*
X024935Y017812D02*
X025031Y017812D01*
X025031Y017653D02*
X024935Y017653D01*
X024935Y017495D02*
X025031Y017495D01*
X025352Y017495D02*
X025796Y017495D01*
X025799Y017493D02*
X025845Y017480D01*
X026116Y017480D01*
X026116Y017868D01*
X025689Y017868D01*
X025689Y017637D01*
X025701Y017591D01*
X025725Y017550D01*
X025758Y017516D01*
X025799Y017493D01*
X025689Y017653D02*
X025458Y017653D01*
X025458Y017812D02*
X025689Y017812D01*
X025689Y017964D02*
X026116Y017964D01*
X026116Y017868D01*
X026212Y017868D01*
X026212Y017480D01*
X026483Y017480D01*
X026529Y017493D01*
X026570Y017516D01*
X026604Y017550D01*
X026627Y017591D01*
X026640Y017637D01*
X026640Y017868D01*
X026212Y017868D01*
X026212Y017964D01*
X026640Y017964D01*
X026640Y018196D01*
X026627Y018242D01*
X026604Y018283D01*
X026570Y018316D01*
X026567Y018318D01*
X026600Y018350D01*
X026600Y018978D01*
X026518Y019060D01*
X026384Y019060D01*
X026384Y019776D01*
X026545Y019776D01*
X026627Y019858D01*
X026627Y020454D01*
X026545Y020536D01*
X025949Y020536D01*
X025867Y020454D01*
X025867Y019858D01*
X025944Y019781D01*
X025944Y019060D01*
X025811Y019060D01*
X025729Y018978D01*
X025729Y018350D01*
X025761Y018318D01*
X025758Y018316D01*
X025725Y018283D01*
X025701Y018242D01*
X025689Y018196D01*
X025689Y017964D01*
X025689Y017970D02*
X025458Y017970D01*
X025458Y018129D02*
X025689Y018129D01*
X025730Y018287D02*
X025418Y018287D01*
X025418Y018446D02*
X025729Y018446D01*
X025729Y018604D02*
X025418Y018604D01*
X025418Y018763D02*
X025729Y018763D01*
X025729Y018921D02*
X025418Y018921D01*
X025203Y019080D02*
X025944Y019080D01*
X025944Y019238D02*
X025203Y019238D01*
X025203Y019397D02*
X025944Y019397D01*
X025944Y019555D02*
X025203Y019555D01*
X025203Y019714D02*
X025944Y019714D01*
X025867Y019872D02*
X025627Y019872D01*
X025627Y020031D02*
X025867Y020031D01*
X025867Y020189D02*
X025627Y020189D01*
X025627Y020348D02*
X025867Y020348D01*
X025919Y020506D02*
X025575Y020506D01*
X025247Y020156D02*
X024983Y019893D01*
X024983Y018664D01*
X024548Y018763D02*
X024237Y018763D01*
X024237Y018921D02*
X024548Y018921D01*
X024763Y019080D02*
X024022Y019080D01*
X024022Y019238D02*
X024763Y019238D01*
X024763Y019397D02*
X024022Y019397D01*
X024022Y019555D02*
X024763Y019555D01*
X024763Y019714D02*
X024116Y019714D01*
X023802Y019711D02*
X024247Y020156D01*
X024627Y020189D02*
X024867Y020189D01*
X024867Y020348D02*
X024627Y020348D01*
X024575Y020506D02*
X024919Y020506D01*
X024810Y020031D02*
X024627Y020031D01*
X024627Y019872D02*
X024763Y019872D01*
X023867Y020189D02*
X023667Y020189D01*
X023667Y020156D02*
X023247Y020156D01*
X023247Y020156D01*
X023247Y019736D01*
X022983Y019736D01*
X022937Y019749D01*
X022896Y019772D01*
X022863Y019806D01*
X022839Y019847D01*
X022827Y019893D01*
X022827Y020156D01*
X023247Y020156D01*
X023247Y020156D01*
X023247Y020156D01*
X022827Y020156D01*
X022827Y020420D01*
X022839Y020466D01*
X022863Y020507D01*
X022896Y020540D01*
X022937Y020564D01*
X022983Y020576D01*
X023247Y020576D01*
X023247Y020156D01*
X023247Y020156D01*
X023247Y020576D01*
X023511Y020576D01*
X023556Y020564D01*
X023597Y020540D01*
X023631Y020507D01*
X023655Y020466D01*
X023667Y020420D01*
X023667Y020156D01*
X023667Y020031D02*
X023810Y020031D01*
X023867Y020348D02*
X023667Y020348D01*
X023631Y020506D02*
X023919Y020506D01*
X023247Y020506D02*
X023247Y020506D01*
X023247Y020348D02*
X023247Y020348D01*
X023247Y020189D02*
X023247Y020189D01*
X023247Y020031D02*
X023247Y020031D01*
X023247Y019872D02*
X023247Y019872D01*
X022832Y019872D02*
X022627Y019872D01*
X022627Y020031D02*
X022827Y020031D01*
X022827Y020189D02*
X022627Y020189D01*
X022627Y020348D02*
X022827Y020348D01*
X022863Y020506D02*
X022575Y020506D01*
X022247Y020156D02*
X022247Y018684D01*
X022227Y018664D01*
X021792Y018604D02*
X021467Y018604D01*
X021467Y018446D02*
X021792Y018446D01*
X021849Y018287D02*
X021557Y018287D01*
X021715Y018129D02*
X021792Y018129D01*
X021637Y017897D02*
X022208Y017897D01*
X022227Y017916D01*
X021792Y017653D02*
X020694Y017653D01*
X020694Y017602D02*
X020694Y018230D01*
X020634Y018290D01*
X020694Y018350D01*
X020694Y018978D01*
X020612Y019060D01*
X020467Y019060D01*
X020467Y019776D01*
X020545Y019776D01*
X020627Y019858D01*
X020627Y020454D01*
X020545Y020536D01*
X019949Y020536D01*
X019867Y020454D01*
X019867Y019858D01*
X019949Y019776D01*
X020027Y019776D01*
X020027Y019060D01*
X019905Y019060D01*
X019823Y018978D01*
X019823Y018643D01*
X019759Y018707D01*
X019582Y018884D01*
X019513Y018884D01*
X019513Y018978D01*
X019431Y019060D01*
X019298Y019060D01*
X019298Y019776D01*
X019545Y019776D01*
X019627Y019858D01*
X019627Y020454D01*
X019545Y020536D01*
X018949Y020536D01*
X018867Y020454D01*
X018867Y020088D01*
X018858Y020078D01*
X018858Y019060D01*
X018724Y019060D01*
X018642Y018978D01*
X018642Y018350D01*
X018702Y018290D01*
X018642Y018230D01*
X018642Y018117D01*
X018578Y018117D01*
X018467Y018228D01*
X018467Y019776D01*
X018545Y019776D01*
X018627Y019858D01*
X018627Y020454D01*
X018545Y020536D01*
X017949Y020536D01*
X017867Y020454D01*
X017867Y019858D01*
X017949Y019776D01*
X018027Y019776D01*
X018027Y018046D01*
X018267Y017805D01*
X018396Y017677D01*
X018642Y017677D01*
X018642Y017602D01*
X018724Y017520D01*
X019431Y017520D01*
X019513Y017602D01*
X019513Y017938D01*
X019625Y017825D01*
X019754Y017696D01*
X019823Y017696D01*
X019823Y017602D01*
X019905Y017520D01*
X020612Y017520D01*
X020694Y017602D01*
X020694Y017812D02*
X021410Y017812D01*
X021252Y017970D02*
X020694Y017970D01*
X020694Y018129D02*
X021093Y018129D01*
X021027Y018287D02*
X020637Y018287D01*
X020694Y018446D02*
X021027Y018446D01*
X021027Y018604D02*
X020694Y018604D01*
X020694Y018763D02*
X021027Y018763D01*
X021027Y018921D02*
X020694Y018921D01*
X020467Y019080D02*
X021027Y019080D01*
X021027Y019238D02*
X020467Y019238D01*
X020467Y019397D02*
X021027Y019397D01*
X021027Y019555D02*
X020467Y019555D01*
X020467Y019714D02*
X021027Y019714D01*
X020867Y019872D02*
X020627Y019872D01*
X020627Y020031D02*
X020867Y020031D01*
X020867Y020189D02*
X020627Y020189D01*
X020627Y020348D02*
X020867Y020348D01*
X020919Y020506D02*
X020575Y020506D01*
X020247Y020156D02*
X020247Y018676D01*
X020259Y018664D01*
X019823Y018763D02*
X019704Y018763D01*
X019823Y018921D02*
X019513Y018921D01*
X019298Y019080D02*
X020027Y019080D01*
X020027Y019238D02*
X019298Y019238D01*
X019298Y019397D02*
X020027Y019397D01*
X020027Y019555D02*
X019298Y019555D01*
X019298Y019714D02*
X020027Y019714D01*
X019867Y019872D02*
X019627Y019872D01*
X019627Y020031D02*
X019867Y020031D01*
X019867Y020189D02*
X019627Y020189D01*
X019627Y020348D02*
X019867Y020348D01*
X019919Y020506D02*
X019575Y020506D01*
X019247Y020156D02*
X019078Y019987D01*
X019078Y018664D01*
X019491Y018664D01*
X019668Y018487D01*
X019668Y018093D01*
X019845Y017916D01*
X020259Y017916D01*
X019823Y017653D02*
X019513Y017653D01*
X019513Y017812D02*
X019639Y017812D01*
X019078Y017916D02*
X019058Y017897D01*
X018487Y017897D01*
X018247Y018137D01*
X018247Y020156D01*
X018627Y020189D02*
X018867Y020189D01*
X018858Y020031D02*
X018627Y020031D01*
X018627Y019872D02*
X018858Y019872D01*
X018858Y019714D02*
X018467Y019714D01*
X018467Y019555D02*
X018858Y019555D01*
X018858Y019397D02*
X018467Y019397D01*
X018467Y019238D02*
X018858Y019238D01*
X018858Y019080D02*
X018467Y019080D01*
X018467Y018921D02*
X018642Y018921D01*
X018642Y018763D02*
X018467Y018763D01*
X018467Y018604D02*
X018642Y018604D01*
X018642Y018446D02*
X018467Y018446D01*
X018467Y018287D02*
X018700Y018287D01*
X018642Y018129D02*
X018566Y018129D01*
X018102Y017970D02*
X017978Y017970D01*
X017978Y017812D02*
X018261Y017812D01*
X017978Y017653D02*
X018642Y017653D01*
X018027Y018129D02*
X017978Y018129D01*
X017937Y018287D02*
X018027Y018287D01*
X018027Y018446D02*
X017938Y018446D01*
X017938Y018604D02*
X018027Y018604D01*
X018027Y018763D02*
X017938Y018763D01*
X017938Y018921D02*
X018027Y018921D01*
X018027Y019080D02*
X017723Y019080D01*
X017723Y019238D02*
X018027Y019238D01*
X018027Y019397D02*
X017723Y019397D01*
X017723Y019555D02*
X018027Y019555D01*
X018027Y019714D02*
X017723Y019714D01*
X017732Y019872D02*
X017867Y019872D01*
X017867Y020031D02*
X017627Y020031D01*
X017627Y020189D02*
X017867Y020189D01*
X017867Y020348D02*
X017627Y020348D01*
X017575Y020506D02*
X017919Y020506D01*
X018575Y020506D02*
X018919Y020506D01*
X018867Y020348D02*
X018627Y020348D01*
X017503Y019822D02*
X017503Y018664D01*
X016274Y017868D02*
X016274Y017480D01*
X016003Y017480D01*
X015957Y017493D01*
X015916Y017516D01*
X015882Y017550D01*
X015859Y017591D01*
X015846Y017637D01*
X015846Y017868D01*
X016274Y017868D01*
X016274Y017812D02*
X016370Y017812D01*
X016370Y017653D02*
X016274Y017653D01*
X016274Y017495D02*
X016370Y017495D01*
X015953Y017495D02*
X015754Y017495D01*
X015754Y017653D02*
X015846Y017653D01*
X015846Y017812D02*
X015754Y017812D01*
X015754Y017970D02*
X015846Y017970D01*
X015846Y018129D02*
X015754Y018129D01*
X015754Y018287D02*
X015887Y018287D01*
X015886Y018446D02*
X015804Y018446D01*
X015499Y018763D02*
X015361Y018763D01*
X015361Y018921D02*
X015886Y018921D01*
X016012Y019080D02*
X015253Y019080D01*
X015094Y019238D02*
X015854Y019238D01*
X015141Y018881D02*
X015141Y016519D01*
X015459Y016544D02*
X015708Y016544D01*
X015708Y016385D02*
X015457Y016385D01*
X015299Y016227D02*
X015708Y016227D01*
X016148Y016227D02*
X026743Y016227D01*
X026901Y016385D02*
X016148Y016385D01*
X016148Y016544D02*
X027060Y016544D01*
X027218Y016702D02*
X016148Y016702D01*
X016094Y016861D02*
X027377Y016861D01*
X027535Y017019D02*
X015935Y017019D01*
X015777Y017178D02*
X029662Y017178D01*
X029821Y017336D02*
X015754Y017336D01*
X015471Y016861D02*
X015361Y016861D01*
X015407Y016702D02*
X015630Y016702D01*
X014823Y016544D02*
X014099Y016544D01*
X013604Y015910D02*
X015066Y015910D01*
X015649Y015593D02*
X015675Y015593D01*
X015517Y015434D02*
X015491Y015434D01*
X015184Y015434D02*
X012914Y015434D01*
X013169Y014800D02*
X012634Y014800D01*
X012634Y014642D02*
X013051Y014642D01*
X013051Y014483D02*
X012609Y014483D01*
X012451Y014325D02*
X013144Y014325D01*
X013149Y014166D02*
X012292Y014166D01*
X012377Y014008D02*
X012134Y014008D01*
X012263Y013849D02*
X011975Y013849D01*
X011974Y013691D02*
X012263Y013691D01*
X012362Y013532D02*
X011974Y013532D01*
X011938Y013374D02*
X012362Y013374D01*
X012362Y013215D02*
X011798Y013215D01*
X011793Y013057D02*
X012362Y013057D01*
X012362Y012898D02*
X011635Y012898D01*
X011476Y012740D02*
X012362Y012740D01*
X012270Y012581D02*
X011318Y012581D01*
X011171Y013057D02*
X006269Y013057D01*
X006216Y012898D02*
X007075Y012898D01*
X006917Y012740D02*
X000557Y012740D01*
X000557Y012898D02*
X005945Y012898D01*
X005767Y013057D02*
X000557Y013057D01*
X000557Y013215D02*
X005589Y013215D01*
X005671Y013142D02*
X005671Y013142D01*
X006041Y013321D02*
X006041Y013321D01*
X006041Y013321D01*
X006160Y013215D02*
X011329Y013215D01*
X010878Y013374D02*
X010782Y013374D01*
X010782Y013287D02*
X010782Y013715D01*
X010394Y013715D01*
X010394Y013444D01*
X010406Y013398D01*
X010430Y013357D01*
X010463Y013323D01*
X010504Y013300D01*
X010550Y013287D01*
X010782Y013287D01*
X010782Y013532D02*
X010878Y013532D01*
X010878Y013691D02*
X010782Y013691D01*
X010782Y013849D02*
X010878Y013849D01*
X010878Y014008D02*
X010782Y014008D01*
X010782Y014166D02*
X010878Y014166D01*
X011231Y014166D02*
X011232Y014166D01*
X011829Y014325D02*
X006541Y014325D01*
X006541Y014483D02*
X011987Y014483D01*
X012146Y014642D02*
X006541Y014642D01*
X006541Y014800D02*
X012194Y014800D01*
X011889Y014959D02*
X010518Y014959D01*
X010534Y015117D02*
X011874Y015117D01*
X011874Y015276D02*
X010534Y015276D01*
X010494Y015434D02*
X011914Y015434D01*
X013369Y014550D02*
X013369Y011113D01*
X013869Y010613D01*
X014309Y010679D02*
X019660Y010679D01*
X020256Y010521D02*
X014309Y010521D01*
X014241Y010362D02*
X020415Y010362D01*
X020573Y010204D02*
X014082Y010204D01*
X014059Y010045D02*
X020581Y010045D01*
X020422Y009887D02*
X014217Y009887D01*
X014266Y010838D02*
X017180Y010838D01*
X017180Y010996D02*
X014108Y010996D01*
X013638Y011155D02*
X017180Y011155D01*
X018220Y011155D02*
X018422Y011155D01*
X018580Y010996D02*
X018220Y010996D01*
X018220Y010838D02*
X018739Y010838D01*
X018885Y011313D02*
X019627Y011313D01*
X019593Y011472D02*
X018727Y011472D01*
X018568Y011630D02*
X019587Y011630D01*
X020014Y011947D02*
X020110Y011947D01*
X020110Y012106D02*
X020014Y012106D01*
X021212Y011313D02*
X021493Y011313D01*
X021955Y010996D02*
X022264Y010996D01*
X022264Y010838D02*
X021918Y010838D01*
X022224Y010679D02*
X020720Y010679D01*
X020879Y010521D02*
X022224Y010521D01*
X022700Y010679D02*
X022700Y010679D01*
X023175Y010679D02*
X024606Y010679D01*
X024763Y010521D02*
X023175Y010521D01*
X023135Y010362D02*
X024763Y010362D01*
X024763Y010204D02*
X023135Y010204D01*
X024668Y010928D02*
X024983Y010928D01*
X026164Y011400D02*
X026637Y011873D01*
X027267Y011873D01*
X027267Y011558D02*
X027700Y011558D01*
X028133Y011991D01*
X028133Y013172D01*
X028526Y013566D01*
X031282Y013566D01*
X031676Y013960D01*
X031676Y015200D01*
X031782Y015306D01*
X031447Y015593D02*
X031380Y015593D01*
X031342Y015434D02*
X031262Y015434D01*
X031262Y015276D02*
X031342Y015276D01*
X031349Y015117D02*
X031262Y015117D01*
X031114Y014959D02*
X031456Y014959D01*
X031456Y014800D02*
X029546Y014800D01*
X029552Y014959D02*
X030451Y014959D01*
X030302Y015117D02*
X029552Y015117D01*
X029583Y015276D02*
X030302Y015276D01*
X030302Y015434D02*
X029742Y015434D01*
X029278Y015593D02*
X028325Y015593D01*
X028167Y015434D02*
X028682Y015434D01*
X028682Y015276D02*
X028008Y015276D01*
X027977Y015117D02*
X028682Y015117D01*
X028682Y014959D02*
X027977Y014959D01*
X027971Y014800D02*
X028688Y014800D01*
X028642Y014642D02*
X028017Y014642D01*
X028017Y014483D02*
X028642Y014483D01*
X028642Y014325D02*
X028017Y014325D01*
X028017Y014166D02*
X028642Y014166D01*
X028677Y014008D02*
X027982Y014008D01*
X027590Y014008D02*
X027494Y014008D01*
X027494Y014166D02*
X027590Y014166D01*
X027590Y014325D02*
X027494Y014325D01*
X027067Y014325D02*
X026447Y014325D01*
X026604Y014166D02*
X027067Y014166D01*
X027102Y014008D02*
X026679Y014008D01*
X026679Y013849D02*
X026785Y013849D01*
X026634Y013691D02*
X026542Y013691D01*
X026607Y013532D02*
X026463Y013532D01*
X026558Y013172D02*
X026952Y013566D01*
X027270Y013532D02*
X028182Y013532D01*
X028023Y013374D02*
X027210Y013374D01*
X027270Y013691D02*
X028340Y013691D01*
X028487Y013215D02*
X036811Y013215D01*
X036811Y013057D02*
X028353Y013057D01*
X028353Y012898D02*
X028504Y012898D01*
X028504Y012740D02*
X028353Y012740D01*
X028353Y012581D02*
X028892Y012581D01*
X028892Y012423D02*
X028988Y012423D01*
X028988Y012264D02*
X028892Y012264D01*
X028504Y012264D02*
X028353Y012264D01*
X028353Y012106D02*
X029488Y012106D01*
X029353Y011947D02*
X028353Y011947D01*
X028242Y011789D02*
X028604Y011789D01*
X028445Y011630D02*
X028083Y011630D01*
X027925Y011472D02*
X028287Y011472D01*
X028128Y011313D02*
X027702Y011313D01*
X027702Y011155D02*
X027970Y011155D01*
X027913Y010996D02*
X027702Y010996D01*
X027702Y010838D02*
X027913Y010838D01*
X027913Y010679D02*
X027742Y010679D01*
X027742Y010521D02*
X027913Y010521D01*
X027913Y010362D02*
X027702Y010362D01*
X027702Y010204D02*
X027913Y010204D01*
X027844Y010045D02*
X027702Y010045D01*
X028308Y009887D02*
X029458Y009887D01*
X029488Y010045D02*
X028353Y010045D01*
X028353Y010204D02*
X028543Y010204D01*
X028504Y010362D02*
X028353Y010362D01*
X028353Y010521D02*
X028504Y010521D01*
X028504Y010679D02*
X028353Y010679D01*
X028353Y010838D02*
X028504Y010838D01*
X028527Y010996D02*
X028433Y010996D01*
X028592Y011155D02*
X036811Y011155D01*
X036811Y011313D02*
X031905Y011313D01*
X031955Y011364D02*
X032022Y011526D01*
X032022Y011701D01*
X031955Y011862D01*
X031832Y011986D01*
X031670Y012053D01*
X030895Y012053D01*
X030733Y011986D01*
X030609Y011862D01*
X030542Y011701D01*
X030542Y011526D01*
X030609Y011364D01*
X030733Y011240D01*
X030895Y011173D01*
X031670Y011173D01*
X031832Y011240D01*
X031955Y011364D01*
X032000Y011472D02*
X036811Y011472D01*
X036811Y011630D02*
X032022Y011630D01*
X031986Y011789D02*
X036811Y011789D01*
X036811Y011947D02*
X031870Y011947D01*
X031856Y012264D02*
X036811Y012264D01*
X036811Y012106D02*
X029928Y012106D01*
X029928Y011947D02*
X030694Y011947D01*
X030579Y011789D02*
X029817Y011789D01*
X029658Y011630D02*
X030542Y011630D01*
X030565Y011472D02*
X029500Y011472D01*
X028750Y011313D02*
X030660Y011313D01*
X030758Y010996D02*
X030054Y010996D01*
X030084Y010838D02*
X030599Y010838D01*
X031744Y010204D02*
X036811Y010204D01*
X036811Y010362D02*
X031954Y010362D01*
X032020Y010521D02*
X036811Y010521D01*
X036811Y010679D02*
X032022Y010679D01*
X031966Y010838D02*
X036811Y010838D01*
X036811Y010996D02*
X031807Y010996D01*
X031688Y010045D02*
X036811Y010045D01*
X036811Y009887D02*
X031931Y009887D01*
X032011Y009728D02*
X036811Y009728D01*
X036811Y009570D02*
X032022Y009570D01*
X031975Y009411D02*
X036811Y009411D01*
X036811Y009253D02*
X031844Y009253D01*
X031882Y008936D02*
X036811Y008936D01*
X036811Y009094D02*
X029288Y009094D01*
X028988Y009094D02*
X028892Y009094D01*
X028892Y008936D02*
X028988Y008936D01*
X028988Y008777D02*
X028892Y008777D01*
X028892Y008619D02*
X027288Y008619D01*
X027130Y008777D02*
X028504Y008777D01*
X028504Y008936D02*
X027702Y008936D01*
X027702Y009094D02*
X028592Y009094D01*
X028504Y008460D02*
X027447Y008460D01*
X027605Y008302D02*
X028510Y008302D01*
X028892Y008302D02*
X028988Y008302D01*
X028988Y008460D02*
X028892Y008460D01*
X029468Y008143D02*
X027764Y008143D01*
X027922Y007985D02*
X029327Y007985D01*
X029633Y007668D02*
X036811Y007668D01*
X036811Y007826D02*
X029791Y007826D01*
X029908Y007985D02*
X036811Y007985D01*
X036811Y008143D02*
X029908Y008143D01*
X030084Y008302D02*
X030671Y008302D01*
X031251Y008645D02*
X031282Y008613D01*
X031251Y008645D02*
X029688Y008645D01*
X029299Y009728D02*
X028150Y009728D01*
X028892Y010204D02*
X028988Y010204D01*
X028988Y010362D02*
X028892Y010362D01*
X028892Y010521D02*
X028988Y010521D01*
X028988Y010679D02*
X028892Y010679D01*
X028892Y010838D02*
X028988Y010838D01*
X028988Y010996D02*
X028892Y010996D01*
X029336Y010204D02*
X029348Y010204D01*
X031991Y008777D02*
X036811Y008777D01*
X036811Y008619D02*
X032022Y008619D01*
X031995Y008460D02*
X036811Y008460D01*
X036811Y008302D02*
X031893Y008302D01*
X029474Y007509D02*
X036811Y007509D01*
X036811Y007351D02*
X026194Y007351D01*
X026148Y007509D02*
X027776Y007509D01*
X027617Y007668D02*
X026148Y007668D01*
X026148Y007826D02*
X027459Y007826D01*
X027300Y007985D02*
X026796Y007985D01*
X026796Y008143D02*
X027142Y008143D01*
X026983Y008302D02*
X026796Y008302D01*
X026796Y008460D02*
X026825Y008460D01*
X026508Y008777D02*
X025492Y008777D01*
X025613Y008330D02*
X025613Y006834D01*
X026361Y006086D01*
X026511Y007034D02*
X036811Y007034D01*
X036811Y007192D02*
X026353Y007192D01*
X025928Y007306D02*
X025928Y008330D01*
X025298Y008143D02*
X025298Y008143D01*
X025298Y007985D02*
X025298Y007985D01*
X024196Y007463D02*
X023408Y007463D01*
X022030Y006086D01*
X021712Y006083D02*
X021463Y006083D01*
X021463Y006241D02*
X021736Y006241D01*
X021895Y006400D02*
X021463Y006400D01*
X021463Y006558D02*
X022192Y006558D01*
X022351Y006717D02*
X021463Y006717D01*
X021463Y006875D02*
X022509Y006875D01*
X022668Y007034D02*
X021463Y007034D01*
X021463Y007192D02*
X022826Y007192D01*
X022985Y007351D02*
X021463Y007351D01*
X021463Y007509D02*
X023143Y007509D01*
X023760Y006241D02*
X022497Y006241D01*
X022349Y006083D02*
X023761Y006083D01*
X023720Y005924D02*
X022319Y005924D01*
X021742Y005924D02*
X021463Y005924D01*
X021463Y005766D02*
X023720Y005766D01*
X023720Y005607D02*
X021463Y005607D01*
X021311Y005449D02*
X023720Y005449D01*
X020432Y006083D02*
X020183Y006083D01*
X020183Y005954D02*
X020183Y006217D01*
X019997Y006404D01*
X019733Y006404D01*
X019635Y006306D01*
X012019Y006306D01*
X012019Y006309D01*
X011937Y006391D01*
X010941Y006391D01*
X010859Y006309D01*
X010859Y005713D01*
X010941Y005631D01*
X011937Y005631D01*
X012019Y005713D01*
X012019Y005866D01*
X019635Y005866D01*
X019733Y005767D01*
X019997Y005767D01*
X020183Y005954D01*
X020154Y005924D02*
X020377Y005924D01*
X020219Y005766D02*
X012019Y005766D01*
X011937Y005481D02*
X012019Y005399D01*
X012019Y004803D01*
X011937Y004721D01*
X010941Y004721D01*
X010859Y004803D01*
X010859Y005399D01*
X010941Y005481D01*
X011937Y005481D01*
X011970Y005449D02*
X019902Y005449D01*
X020060Y005607D02*
X009572Y005607D01*
X009572Y005449D02*
X010909Y005449D01*
X010859Y005290D02*
X009572Y005290D01*
X009572Y005132D02*
X010859Y005132D01*
X010859Y004973D02*
X009572Y004973D01*
X009572Y004815D02*
X010859Y004815D01*
X010941Y004571D02*
X010859Y004489D01*
X010859Y003893D01*
X010941Y003811D01*
X011219Y003811D01*
X011219Y003479D01*
X010718Y002977D01*
X010279Y002977D01*
X010219Y002917D01*
X010159Y002977D01*
X009721Y002977D01*
X009219Y003479D01*
X009219Y004253D01*
X009490Y004253D01*
X009572Y004335D01*
X009572Y005868D01*
X009490Y005950D01*
X008508Y005950D01*
X008426Y005868D01*
X008426Y004335D01*
X008508Y004253D01*
X008779Y004253D01*
X008779Y003297D01*
X008908Y003168D01*
X009449Y002627D01*
X009449Y002189D01*
X009531Y002107D01*
X010159Y002107D01*
X010219Y002167D01*
X010279Y002107D01*
X010373Y002107D01*
X010373Y001594D01*
X010316Y001536D01*
X009949Y001536D01*
X009867Y001454D01*
X009867Y001376D01*
X009627Y001376D01*
X009627Y001454D01*
X009545Y001536D01*
X008949Y001536D01*
X008867Y001454D01*
X008867Y000858D01*
X008949Y000776D01*
X009545Y000776D01*
X009627Y000858D01*
X009627Y000936D01*
X009867Y000936D01*
X009867Y000858D01*
X009949Y000776D01*
X010545Y000776D01*
X010627Y000858D01*
X010627Y000936D01*
X010867Y000936D01*
X010867Y000858D01*
X010949Y000776D01*
X011545Y000776D01*
X011627Y000858D01*
X011627Y001454D01*
X011545Y001536D01*
X010949Y001536D01*
X010867Y001454D01*
X010867Y001376D01*
X010778Y001376D01*
X010813Y001412D01*
X010813Y002107D01*
X010907Y002107D01*
X010989Y002189D01*
X010989Y002627D01*
X011530Y003168D01*
X011659Y003297D01*
X011659Y003811D01*
X011937Y003811D01*
X012019Y003893D01*
X012019Y004489D01*
X011937Y004571D01*
X010941Y004571D01*
X010868Y004498D02*
X009572Y004498D01*
X009572Y004656D02*
X019109Y004656D01*
X018951Y004498D02*
X012011Y004498D01*
X012019Y004339D02*
X018792Y004339D01*
X018634Y004181D02*
X012019Y004181D01*
X012019Y004022D02*
X018475Y004022D01*
X018317Y003864D02*
X011990Y003864D01*
X011659Y003705D02*
X018158Y003705D01*
X018000Y003547D02*
X011659Y003547D01*
X011659Y003388D02*
X017873Y003388D01*
X017873Y003230D02*
X011592Y003230D01*
X011439Y003388D02*
X011439Y004191D01*
X010859Y004181D02*
X009219Y004181D01*
X009219Y004022D02*
X010859Y004022D01*
X010889Y003864D02*
X009219Y003864D01*
X009219Y003705D02*
X011219Y003705D01*
X011219Y003547D02*
X009219Y003547D01*
X009310Y003388D02*
X011128Y003388D01*
X010970Y003230D02*
X009469Y003230D01*
X009627Y003071D02*
X010811Y003071D01*
X011117Y002754D02*
X013146Y002754D01*
X013121Y002729D02*
X013068Y002656D01*
X013027Y002575D01*
X012999Y002490D01*
X012985Y002403D01*
X013510Y002403D01*
X013510Y002307D01*
X012985Y002307D01*
X012999Y002221D01*
X013027Y002135D01*
X013068Y002055D01*
X013121Y001981D01*
X013185Y001918D01*
X013258Y001865D01*
X013338Y001824D01*
X013424Y001796D01*
X013510Y001782D01*
X013510Y002307D01*
X013606Y002307D01*
X013606Y001782D01*
X013693Y001796D01*
X013779Y001824D01*
X013859Y001865D01*
X013932Y001918D01*
X013996Y001981D01*
X014049Y002055D01*
X014090Y002135D01*
X014118Y002221D01*
X014132Y002307D01*
X013606Y002307D01*
X013606Y002403D01*
X013510Y002403D01*
X013510Y002928D01*
X013424Y002915D01*
X013338Y002887D01*
X013258Y002846D01*
X013185Y002793D01*
X013121Y002729D01*
X013037Y002596D02*
X010989Y002596D01*
X010989Y002437D02*
X012991Y002437D01*
X012990Y002279D02*
X010989Y002279D01*
X010921Y002120D02*
X013034Y002120D01*
X013140Y001962D02*
X010813Y001962D01*
X010813Y001803D02*
X013400Y001803D01*
X013510Y001803D02*
X013606Y001803D01*
X013717Y001803D02*
X017703Y001803D01*
X017703Y001645D02*
X010813Y001645D01*
X010813Y001486D02*
X010899Y001486D01*
X010593Y001503D02*
X010593Y002542D01*
X011439Y003388D01*
X011434Y003071D02*
X017873Y003071D01*
X017873Y002913D02*
X013699Y002913D01*
X013693Y002915D02*
X013606Y002928D01*
X013606Y002403D01*
X014132Y002403D01*
X014118Y002490D01*
X014090Y002575D01*
X014049Y002656D01*
X013996Y002729D01*
X013932Y002793D01*
X013859Y002846D01*
X013779Y002887D01*
X013693Y002915D01*
X013606Y002913D02*
X013510Y002913D01*
X013418Y002913D02*
X011275Y002913D01*
X010266Y002120D02*
X010173Y002120D01*
X010373Y001962D02*
X007026Y001962D01*
X007026Y002102D02*
X006768Y002360D01*
X006403Y002360D01*
X006146Y002102D01*
X006146Y001738D01*
X006403Y001480D01*
X006768Y001480D01*
X007026Y001738D01*
X007026Y002102D01*
X007008Y002120D02*
X009518Y002120D01*
X009449Y002279D02*
X006849Y002279D01*
X006768Y002480D02*
X006403Y002480D01*
X006146Y002738D01*
X006146Y003102D01*
X006403Y003360D01*
X006768Y003360D01*
X007026Y003102D01*
X007026Y002738D01*
X006768Y002480D01*
X006883Y002596D02*
X009449Y002596D01*
X009449Y002437D02*
X000557Y002437D01*
X000557Y002279D02*
X005322Y002279D01*
X005403Y002360D02*
X005146Y002102D01*
X005146Y001738D01*
X005403Y001480D01*
X005768Y001480D01*
X006026Y001738D01*
X006026Y002102D01*
X005768Y002360D01*
X005403Y002360D01*
X005403Y002480D02*
X005768Y002480D01*
X006026Y002738D01*
X006026Y003102D01*
X005768Y003360D01*
X005403Y003360D01*
X005146Y003102D01*
X005146Y002738D01*
X005403Y002480D01*
X005288Y002596D02*
X000557Y002596D01*
X000557Y002754D02*
X005146Y002754D01*
X005146Y002913D02*
X000557Y002913D01*
X000557Y003071D02*
X005146Y003071D01*
X005273Y003230D02*
X000557Y003230D01*
X000557Y003388D02*
X008779Y003388D01*
X008779Y003547D02*
X006891Y003547D01*
X006784Y003440D02*
X007066Y003721D01*
X007066Y003900D01*
X006606Y003900D01*
X006606Y003940D01*
X007066Y003940D01*
X007066Y004119D01*
X006784Y004400D01*
X006606Y004400D01*
X006606Y003940D01*
X006566Y003940D01*
X006566Y004400D01*
X006387Y004400D01*
X006106Y004119D01*
X006106Y003940D01*
X006566Y003940D01*
X006566Y003900D01*
X006606Y003900D01*
X006606Y003440D01*
X006784Y003440D01*
X006606Y003547D02*
X006566Y003547D01*
X006566Y003440D02*
X006566Y003900D01*
X006106Y003900D01*
X006106Y003721D01*
X006387Y003440D01*
X006566Y003440D01*
X006566Y003705D02*
X006606Y003705D01*
X006606Y003864D02*
X006566Y003864D01*
X006566Y004022D02*
X006606Y004022D01*
X006606Y004181D02*
X006566Y004181D01*
X006566Y004339D02*
X006606Y004339D01*
X006606Y004440D02*
X006784Y004440D01*
X007066Y004721D01*
X007066Y004900D01*
X006606Y004900D01*
X006606Y004940D01*
X007066Y004940D01*
X007066Y005119D01*
X006784Y005400D01*
X006606Y005400D01*
X006606Y004940D01*
X006566Y004940D01*
X006566Y005400D01*
X006387Y005400D01*
X006106Y005119D01*
X006106Y004940D01*
X006566Y004940D01*
X006566Y004900D01*
X006606Y004900D01*
X006606Y004440D01*
X006566Y004440D02*
X006566Y004900D01*
X006106Y004900D01*
X006106Y004721D01*
X006387Y004440D01*
X006566Y004440D01*
X006566Y004498D02*
X006606Y004498D01*
X006606Y004656D02*
X006566Y004656D01*
X006566Y004815D02*
X006606Y004815D01*
X006606Y004973D02*
X006566Y004973D01*
X006566Y005132D02*
X006606Y005132D01*
X006606Y005290D02*
X006566Y005290D01*
X006403Y005480D02*
X006768Y005480D01*
X007026Y005738D01*
X007026Y006102D01*
X006768Y006360D01*
X006403Y006360D01*
X006146Y006102D01*
X006146Y005738D01*
X006403Y005480D01*
X006276Y005607D02*
X005895Y005607D01*
X005768Y005480D02*
X005403Y005480D01*
X005146Y005738D01*
X005146Y006102D01*
X005403Y006360D01*
X005768Y006360D01*
X006026Y006102D01*
X006026Y005738D01*
X005768Y005480D01*
X005784Y005400D02*
X005606Y005400D01*
X005606Y004940D01*
X006066Y004940D01*
X006066Y005119D01*
X005784Y005400D01*
X005894Y005290D02*
X006277Y005290D01*
X006118Y005132D02*
X006053Y005132D01*
X006066Y004973D02*
X006106Y004973D01*
X006066Y004900D02*
X005606Y004900D01*
X005606Y004940D01*
X005566Y004940D01*
X005566Y005400D01*
X005387Y005400D01*
X005106Y005119D01*
X005106Y004940D01*
X005566Y004940D01*
X005566Y004900D01*
X005606Y004900D01*
X005606Y004440D01*
X005784Y004440D01*
X006066Y004721D01*
X006066Y004900D01*
X006066Y004815D02*
X006106Y004815D01*
X006170Y004656D02*
X006001Y004656D01*
X005842Y004498D02*
X006329Y004498D01*
X006326Y004339D02*
X005845Y004339D01*
X005784Y004400D02*
X005606Y004400D01*
X005606Y003940D01*
X006066Y003940D01*
X006066Y004119D01*
X005784Y004400D01*
X005606Y004339D02*
X005566Y004339D01*
X005566Y004400D02*
X005387Y004400D01*
X005106Y004119D01*
X005106Y003940D01*
X005566Y003940D01*
X005566Y004400D01*
X005566Y004440D02*
X005566Y004900D01*
X005106Y004900D01*
X005106Y004721D01*
X005387Y004440D01*
X005566Y004440D01*
X005566Y004498D02*
X005606Y004498D01*
X005606Y004656D02*
X005566Y004656D01*
X005566Y004815D02*
X005606Y004815D01*
X005606Y004973D02*
X005566Y004973D01*
X005566Y005132D02*
X005606Y005132D01*
X005606Y005290D02*
X005566Y005290D01*
X005277Y005290D02*
X000557Y005290D01*
X000557Y005132D02*
X005118Y005132D01*
X005106Y004973D02*
X002438Y004973D01*
X002410Y005000D02*
X002113Y005124D01*
X001791Y005124D01*
X001493Y005000D01*
X001265Y004773D01*
X001142Y004475D01*
X001142Y004153D01*
X001265Y003855D01*
X001493Y003627D01*
X001791Y003504D01*
X002113Y003504D01*
X002410Y003627D01*
X002638Y003855D01*
X002762Y004153D01*
X002762Y004475D01*
X002638Y004773D01*
X002410Y005000D01*
X002596Y004815D02*
X005106Y004815D01*
X005170Y004656D02*
X002686Y004656D01*
X002752Y004498D02*
X005329Y004498D01*
X005326Y004339D02*
X002762Y004339D01*
X002762Y004181D02*
X005167Y004181D01*
X005106Y004022D02*
X002708Y004022D01*
X002642Y003864D02*
X005106Y003864D01*
X005106Y003900D02*
X005106Y003721D01*
X005387Y003440D01*
X005566Y003440D01*
X005566Y003900D01*
X005606Y003900D01*
X005606Y003940D01*
X005566Y003940D01*
X005566Y003900D01*
X005106Y003900D01*
X005121Y003705D02*
X002489Y003705D01*
X002216Y003547D02*
X005280Y003547D01*
X005566Y003547D02*
X005606Y003547D01*
X005606Y003440D02*
X005784Y003440D01*
X006066Y003721D01*
X006066Y003900D01*
X005606Y003900D01*
X005606Y003440D01*
X005606Y003705D02*
X005566Y003705D01*
X005566Y003864D02*
X005606Y003864D01*
X005606Y004022D02*
X005566Y004022D01*
X005566Y004181D02*
X005606Y004181D01*
X006004Y004181D02*
X006167Y004181D01*
X006106Y004022D02*
X006066Y004022D01*
X006066Y003864D02*
X006106Y003864D01*
X006121Y003705D02*
X006050Y003705D01*
X005891Y003547D02*
X006280Y003547D01*
X006273Y003230D02*
X005898Y003230D01*
X006026Y003071D02*
X006146Y003071D01*
X006146Y002913D02*
X006026Y002913D01*
X006026Y002754D02*
X006146Y002754D01*
X006288Y002596D02*
X005883Y002596D01*
X005849Y002279D02*
X006322Y002279D01*
X006163Y002120D02*
X006008Y002120D01*
X006026Y001962D02*
X006146Y001962D01*
X006146Y001803D02*
X006026Y001803D01*
X005932Y001645D02*
X006239Y001645D01*
X006397Y001486D02*
X005774Y001486D01*
X005397Y001486D02*
X000557Y001486D01*
X000557Y001328D02*
X008867Y001328D01*
X008867Y001169D02*
X000557Y001169D01*
X000557Y001011D02*
X008867Y001011D01*
X008873Y000852D02*
X000557Y000852D01*
X000557Y000694D02*
X036811Y000694D01*
X036811Y000557D02*
X000557Y000557D01*
X000557Y020669D01*
X036811Y020669D01*
X036811Y000557D01*
X036811Y000852D02*
X028656Y000852D01*
X028667Y001011D02*
X036811Y001011D01*
X036811Y001169D02*
X028667Y001169D01*
X028247Y001169D02*
X028247Y001169D01*
X028247Y001156D02*
X028247Y001576D01*
X027983Y001576D01*
X027937Y001564D01*
X027896Y001540D01*
X027863Y001507D01*
X027839Y001466D01*
X027827Y001420D01*
X027827Y001156D01*
X028247Y001156D01*
X028247Y001156D01*
X028247Y001011D02*
X028247Y001011D01*
X028247Y000852D02*
X028247Y000852D01*
X027838Y000852D02*
X027656Y000852D01*
X027655Y000847D02*
X027667Y000893D01*
X027667Y001156D01*
X027247Y001156D01*
X027247Y000736D01*
X027511Y000736D01*
X027556Y000749D01*
X027597Y000772D01*
X027631Y000806D01*
X027655Y000847D01*
X027667Y001011D02*
X027827Y001011D01*
X027827Y001169D02*
X027667Y001169D01*
X027667Y001156D02*
X027667Y001420D01*
X027655Y001466D01*
X027631Y001507D01*
X027597Y001540D01*
X027556Y001564D01*
X027511Y001576D01*
X027247Y001576D01*
X027247Y001156D01*
X027247Y001156D01*
X027247Y000736D01*
X026983Y000736D01*
X026937Y000749D01*
X026896Y000772D01*
X026863Y000806D01*
X026839Y000847D01*
X026827Y000893D01*
X026827Y001156D01*
X027247Y001156D01*
X027247Y001156D01*
X027247Y001156D01*
X027667Y001156D01*
X027667Y001328D02*
X027827Y001328D01*
X027851Y001486D02*
X027643Y001486D01*
X027247Y001486D02*
X027247Y001486D01*
X027247Y001576D02*
X026983Y001576D01*
X026937Y001564D01*
X026896Y001540D01*
X026863Y001507D01*
X026839Y001466D01*
X026827Y001420D01*
X026827Y001156D01*
X027247Y001156D01*
X027247Y001156D01*
X027247Y001576D01*
X027247Y001328D02*
X027247Y001328D01*
X027247Y001169D02*
X027247Y001169D01*
X027247Y001011D02*
X027247Y001011D01*
X027247Y000852D02*
X027247Y000852D01*
X026838Y000852D02*
X026656Y000852D01*
X026667Y001011D02*
X026827Y001011D01*
X026827Y001169D02*
X026667Y001169D01*
X026667Y001328D02*
X026827Y001328D01*
X026851Y001486D02*
X026643Y001486D01*
X026247Y001486D02*
X026247Y001486D01*
X026247Y001576D02*
X026247Y001156D01*
X026247Y001156D01*
X026247Y001576D01*
X026247Y001328D02*
X026247Y001328D01*
X026247Y001169D02*
X026247Y001169D01*
X026247Y001011D02*
X026247Y001011D01*
X026247Y000852D02*
X026247Y000852D01*
X025838Y000852D02*
X011621Y000852D01*
X011627Y001011D02*
X017703Y001011D01*
X017703Y001169D02*
X011627Y001169D01*
X011627Y001328D02*
X017703Y001328D01*
X017703Y001486D02*
X011595Y001486D01*
X011247Y001156D02*
X010247Y001156D01*
X010593Y001503D01*
X010373Y001645D02*
X006932Y001645D01*
X007026Y001803D02*
X010373Y001803D01*
X009899Y001486D02*
X009595Y001486D01*
X009247Y001156D02*
X010247Y001156D01*
X010621Y000852D02*
X010873Y000852D01*
X009873Y000852D02*
X009621Y000852D01*
X008899Y001486D02*
X006774Y001486D01*
X005239Y001645D02*
X000557Y001645D01*
X000557Y001803D02*
X005146Y001803D01*
X005146Y001962D02*
X000557Y001962D01*
X000557Y002120D02*
X005163Y002120D01*
X007026Y002754D02*
X009322Y002754D01*
X009164Y002913D02*
X007026Y002913D01*
X007026Y003071D02*
X009005Y003071D01*
X008847Y003230D02*
X006898Y003230D01*
X007050Y003705D02*
X008779Y003705D01*
X008779Y003864D02*
X007066Y003864D01*
X007066Y004022D02*
X008779Y004022D01*
X008779Y004181D02*
X007004Y004181D01*
X006845Y004339D02*
X008426Y004339D01*
X008426Y004498D02*
X006842Y004498D01*
X007001Y004656D02*
X008426Y004656D01*
X008426Y004815D02*
X007066Y004815D01*
X007066Y004973D02*
X008426Y004973D01*
X008426Y005132D02*
X007053Y005132D01*
X006894Y005290D02*
X008426Y005290D01*
X008426Y005449D02*
X000557Y005449D01*
X000557Y005607D02*
X005276Y005607D01*
X005146Y005766D02*
X000557Y005766D01*
X000557Y005924D02*
X005146Y005924D01*
X005146Y006083D02*
X000557Y006083D01*
X000557Y006241D02*
X005284Y006241D01*
X005887Y006241D02*
X006284Y006241D01*
X006146Y006083D02*
X006026Y006083D01*
X006026Y005924D02*
X006146Y005924D01*
X006146Y005766D02*
X006026Y005766D01*
X006895Y005607D02*
X008426Y005607D01*
X008426Y005766D02*
X007026Y005766D01*
X007026Y005924D02*
X008483Y005924D01*
X008999Y005101D02*
X008999Y003388D01*
X009845Y002542D01*
X009572Y004339D02*
X010859Y004339D01*
X012019Y004815D02*
X019268Y004815D01*
X019426Y004973D02*
X012019Y004973D01*
X012019Y005132D02*
X019585Y005132D01*
X019743Y005290D02*
X012019Y005290D01*
X010859Y005766D02*
X009572Y005766D01*
X009516Y005924D02*
X010859Y005924D01*
X010859Y006083D02*
X007026Y006083D01*
X006887Y006241D02*
X010859Y006241D01*
X011439Y006011D02*
X011514Y006086D01*
X019865Y006086D01*
X020159Y006241D02*
X020432Y006241D01*
X020432Y006400D02*
X020001Y006400D01*
X019730Y006400D02*
X000557Y006400D01*
X000557Y006558D02*
X020432Y006558D01*
X020432Y006717D02*
X000557Y006717D01*
X000557Y006875D02*
X020432Y006875D01*
X016011Y002658D02*
X015861Y002808D01*
X015665Y002889D01*
X015452Y002889D01*
X015256Y002808D01*
X015106Y002658D01*
X015025Y002461D01*
X015025Y002249D01*
X015106Y002053D01*
X015256Y001903D01*
X015452Y001821D01*
X015665Y001821D01*
X015861Y001903D01*
X016011Y002053D01*
X016092Y002249D01*
X016092Y002461D01*
X016011Y002658D01*
X016036Y002596D02*
X017873Y002596D01*
X017873Y002754D02*
X015914Y002754D01*
X016092Y002437D02*
X017873Y002437D01*
X017873Y002279D02*
X016092Y002279D01*
X016039Y002120D02*
X017708Y002120D01*
X017703Y001962D02*
X015920Y001962D01*
X015197Y001962D02*
X013976Y001962D01*
X014083Y002120D02*
X015078Y002120D01*
X015025Y002279D02*
X014127Y002279D01*
X014126Y002437D02*
X015025Y002437D01*
X015080Y002596D02*
X014080Y002596D01*
X013971Y002754D02*
X015203Y002754D01*
X013606Y002754D02*
X013510Y002754D01*
X013510Y002596D02*
X013606Y002596D01*
X013606Y002437D02*
X013510Y002437D01*
X013510Y002279D02*
X013606Y002279D01*
X013606Y002120D02*
X013510Y002120D01*
X013510Y001962D02*
X013606Y001962D01*
X008741Y007985D02*
X000557Y007985D01*
X000557Y008143D02*
X008741Y008143D01*
X008741Y008302D02*
X000557Y008302D01*
X000557Y008460D02*
X008741Y008460D01*
X008815Y008619D02*
X000557Y008619D01*
X000557Y008777D02*
X009054Y008777D01*
X009054Y008936D02*
X000557Y008936D01*
X000557Y009094D02*
X009054Y009094D01*
X009054Y009253D02*
X000557Y009253D01*
X000557Y009411D02*
X009054Y009411D01*
X009054Y009570D02*
X000557Y009570D01*
X000557Y009728D02*
X007053Y009728D01*
X006894Y009887D02*
X000557Y009887D01*
X000557Y010045D02*
X006736Y010045D01*
X006653Y010204D02*
X000557Y010204D01*
X000557Y010362D02*
X006653Y010362D01*
X006653Y010521D02*
X000557Y010521D01*
X000557Y010679D02*
X006653Y010679D01*
X006653Y010838D02*
X000557Y010838D01*
X000557Y010996D02*
X006653Y010996D01*
X006653Y011155D02*
X000557Y011155D01*
X000557Y011313D02*
X006653Y011313D01*
X006653Y011472D02*
X000557Y011472D01*
X000557Y011630D02*
X006653Y011630D01*
X006653Y011789D02*
X000557Y011789D01*
X000557Y011947D02*
X006653Y011947D01*
X006653Y012106D02*
X000557Y012106D01*
X000557Y012264D02*
X006653Y012264D01*
X006653Y012423D02*
X000557Y012423D01*
X000557Y012581D02*
X006758Y012581D01*
X007222Y012423D02*
X012112Y012423D01*
X011953Y012264D02*
X008292Y012264D01*
X007857Y011971D02*
X009314Y011971D01*
X009690Y012106D02*
X009961Y012106D01*
X010754Y011630D02*
X012429Y011630D01*
X012417Y011472D02*
X010754Y011472D01*
X011996Y011313D02*
X012258Y011313D01*
X012188Y010932D02*
X012188Y010810D01*
X012188Y010932D02*
X012869Y011613D01*
X012429Y011789D02*
X012100Y011789D01*
X012258Y011947D02*
X012581Y011947D01*
X010420Y013374D02*
X006237Y013374D01*
X006313Y013532D02*
X010394Y013532D01*
X010394Y013691D02*
X006453Y013691D01*
X006542Y013849D02*
X010394Y013849D01*
X010394Y014008D02*
X006541Y014008D01*
X006541Y014166D02*
X010428Y014166D01*
X007422Y012264D02*
X007093Y012264D01*
X007093Y012106D02*
X007422Y012106D01*
X007422Y011947D02*
X007093Y011947D01*
X007093Y011789D02*
X007422Y011789D01*
X007449Y011630D02*
X007093Y011630D01*
X007093Y011472D02*
X007382Y011472D01*
X007382Y011313D02*
X007093Y011313D01*
X007093Y011155D02*
X007382Y011155D01*
X007382Y011175D02*
X007382Y010944D01*
X007394Y010898D01*
X007418Y010857D01*
X007451Y010823D01*
X007492Y010800D01*
X007538Y010787D01*
X007809Y010787D01*
X007809Y011175D01*
X007382Y011175D01*
X007382Y010996D02*
X007093Y010996D01*
X007093Y010838D02*
X007437Y010838D01*
X007809Y010838D02*
X007905Y010838D01*
X007905Y010996D02*
X007809Y010996D01*
X007809Y011155D02*
X007905Y011155D01*
X008332Y011155D02*
X008938Y011155D01*
X008938Y011313D02*
X008332Y011313D01*
X008332Y010996D02*
X008998Y010996D01*
X009094Y010838D02*
X008277Y010838D01*
X009094Y010679D02*
X007093Y010679D01*
X007093Y010521D02*
X009094Y010521D01*
X009094Y010362D02*
X007093Y010362D01*
X007200Y010204D02*
X009081Y010204D01*
X009452Y009826D02*
X009274Y009649D01*
X009274Y008251D01*
X010591Y009411D02*
X011968Y009411D01*
X011968Y009570D02*
X010636Y009570D01*
X010636Y009728D02*
X011968Y009728D01*
X011968Y009887D02*
X010636Y009887D01*
X010636Y010045D02*
X011968Y010045D01*
X012408Y010045D02*
X012622Y010045D01*
X012464Y009887D02*
X012408Y009887D01*
X018220Y011313D02*
X018263Y011313D01*
X021834Y012385D02*
X022030Y012188D01*
X022700Y012188D01*
X023167Y012740D02*
X023170Y012740D01*
X023170Y012898D02*
X023009Y012898D01*
X022850Y013057D02*
X023170Y013057D01*
X023170Y013215D02*
X022692Y013215D01*
X021656Y013763D02*
X021046Y013763D01*
X021329Y014325D02*
X025825Y014325D01*
X025708Y014166D02*
X025620Y014166D01*
X025695Y014008D02*
X025708Y014008D01*
X025928Y014117D02*
X026952Y015141D01*
X027523Y015141D01*
X027542Y015121D01*
X028727Y016306D01*
X030782Y016306D01*
X031222Y016227D02*
X031342Y016227D01*
X031342Y016385D02*
X031222Y016385D01*
X031167Y016544D02*
X031398Y016544D01*
X031557Y016702D02*
X031008Y016702D01*
X030557Y016702D02*
X029809Y016702D01*
X029967Y016861D02*
X036811Y016861D01*
X036811Y017019D02*
X032118Y017019D01*
X032222Y017124D02*
X031965Y016866D01*
X031600Y016866D01*
X031342Y017124D01*
X031342Y017488D01*
X031600Y017746D01*
X031965Y017746D01*
X032222Y017488D01*
X032222Y017124D01*
X032222Y017178D02*
X036811Y017178D01*
X036811Y017336D02*
X032222Y017336D01*
X032216Y017495D02*
X036811Y017495D01*
X036811Y017653D02*
X032057Y017653D01*
X031965Y017866D02*
X031600Y017866D01*
X031342Y018124D01*
X031342Y018488D01*
X031600Y018746D01*
X031965Y018746D01*
X032222Y018488D01*
X032222Y018124D01*
X031965Y017866D01*
X032069Y017970D02*
X036811Y017970D01*
X036811Y017812D02*
X029002Y017812D01*
X029002Y017868D02*
X029002Y017637D01*
X028989Y017591D01*
X028966Y017550D01*
X028932Y017516D01*
X028891Y017493D01*
X028845Y017480D01*
X028574Y017480D01*
X028574Y017868D01*
X028479Y017868D01*
X028479Y017480D01*
X028207Y017480D01*
X028162Y017493D01*
X028121Y017516D01*
X028087Y017550D01*
X028063Y017591D01*
X028051Y017637D01*
X028051Y017868D01*
X028478Y017868D01*
X028478Y017964D01*
X028051Y017964D01*
X028051Y018196D01*
X028063Y018242D01*
X028087Y018283D01*
X028121Y018316D01*
X028124Y018318D01*
X028091Y018350D01*
X028091Y018978D01*
X028173Y019060D01*
X028306Y019060D01*
X028306Y019776D01*
X027949Y019776D01*
X027867Y019858D01*
X027867Y020454D01*
X027949Y020536D01*
X028545Y020536D01*
X028627Y020454D01*
X028627Y020088D01*
X028746Y019968D01*
X028746Y019060D01*
X028880Y019060D01*
X028962Y018978D01*
X028962Y018350D01*
X028929Y018318D01*
X028932Y018316D01*
X028966Y018283D01*
X028989Y018242D01*
X029002Y018196D01*
X029002Y017964D01*
X028574Y017964D01*
X028574Y017868D01*
X029002Y017868D01*
X029002Y017970D02*
X030496Y017970D01*
X030600Y017866D02*
X030965Y017866D01*
X031222Y018124D01*
X031222Y018488D01*
X030965Y018746D01*
X030600Y018746D01*
X030342Y018488D01*
X030342Y018124D01*
X030600Y017866D01*
X030508Y017653D02*
X029002Y017653D01*
X028895Y017495D02*
X029979Y017495D01*
X030101Y017306D02*
X029708Y016912D01*
X027739Y016912D01*
X025771Y014944D01*
X021637Y014944D01*
X021646Y014642D02*
X026142Y014642D01*
X026300Y014800D02*
X025938Y014800D01*
X026097Y014959D02*
X026459Y014959D01*
X026617Y015117D02*
X026255Y015117D01*
X026414Y015276D02*
X026776Y015276D01*
X026572Y015434D02*
X027107Y015434D01*
X026731Y015593D02*
X027703Y015593D01*
X027862Y015751D02*
X026889Y015751D01*
X027048Y015910D02*
X028020Y015910D01*
X028179Y016068D02*
X027206Y016068D01*
X027365Y016227D02*
X028337Y016227D01*
X028496Y016385D02*
X027523Y016385D01*
X027682Y016544D02*
X030398Y016544D01*
X030398Y016068D02*
X028801Y016068D01*
X028642Y015910D02*
X029595Y015910D01*
X029776Y015780D02*
X029117Y015121D01*
X029592Y014642D02*
X031456Y014642D01*
X031456Y014483D02*
X029592Y014483D01*
X029592Y014325D02*
X031456Y014325D01*
X031456Y014166D02*
X029592Y014166D01*
X029557Y014008D02*
X031413Y014008D01*
X031255Y013849D02*
X027118Y013849D01*
X026361Y013960D02*
X026243Y013841D01*
X026243Y012897D01*
X026558Y012897D02*
X026558Y013172D01*
X026796Y013057D02*
X027913Y013057D01*
X027913Y013215D02*
X026912Y013215D01*
X026796Y012898D02*
X027913Y012898D01*
X027913Y012740D02*
X026796Y012740D01*
X026796Y012581D02*
X027913Y012581D01*
X027913Y012423D02*
X027623Y012423D01*
X027702Y012264D02*
X027913Y012264D01*
X027913Y012106D02*
X027702Y012106D01*
X027702Y011947D02*
X027778Y011947D01*
X027267Y012188D02*
X025967Y012188D01*
X025771Y011991D01*
X025594Y012264D02*
X025518Y012264D01*
X025518Y012423D02*
X026910Y012423D01*
X025928Y012897D02*
X025928Y014117D01*
X025983Y014483D02*
X021487Y014483D01*
X024983Y013215D02*
X024983Y013215D01*
X024983Y013057D02*
X024983Y013057D01*
X025613Y012897D02*
X025613Y013723D01*
X025377Y013960D01*
X026606Y014483D02*
X027067Y014483D01*
X027067Y014642D02*
X026764Y014642D01*
X026923Y014800D02*
X027114Y014800D01*
X025950Y015434D02*
X016139Y015434D01*
X016148Y015593D02*
X026109Y015593D01*
X026267Y015751D02*
X016148Y015751D01*
X016148Y015910D02*
X026426Y015910D01*
X026584Y016068D02*
X016148Y016068D01*
X015981Y015276D02*
X025792Y015276D01*
X028484Y015751D02*
X029436Y015751D01*
X029776Y015780D02*
X031257Y015780D01*
X031782Y016306D01*
X032222Y016227D02*
X036811Y016227D01*
X036811Y016385D02*
X032222Y016385D01*
X032167Y016544D02*
X036811Y016544D01*
X036811Y016702D02*
X032008Y016702D01*
X031447Y017019D02*
X031118Y017019D01*
X031222Y017178D02*
X031342Y017178D01*
X031342Y017336D02*
X031222Y017336D01*
X031216Y017495D02*
X031349Y017495D01*
X031508Y017653D02*
X031057Y017653D01*
X031069Y017970D02*
X031496Y017970D01*
X031342Y018129D02*
X031222Y018129D01*
X031222Y018287D02*
X031342Y018287D01*
X031342Y018446D02*
X031222Y018446D01*
X031106Y018604D02*
X031459Y018604D01*
X031600Y018866D02*
X031965Y018866D01*
X032222Y019124D01*
X032222Y019488D01*
X031965Y019746D01*
X031600Y019746D01*
X031342Y019488D01*
X031342Y019124D01*
X031600Y018866D01*
X031545Y018921D02*
X031077Y018921D01*
X030981Y018826D02*
X031262Y019107D01*
X031262Y019286D01*
X030802Y019286D01*
X030802Y018826D01*
X030981Y018826D01*
X030802Y018921D02*
X030762Y018921D01*
X030762Y018826D02*
X030584Y018826D01*
X030302Y019107D01*
X030302Y019286D01*
X030762Y019286D01*
X030762Y019326D01*
X030302Y019326D01*
X030302Y019505D01*
X030584Y019786D01*
X030762Y019786D01*
X030762Y019326D01*
X030802Y019326D01*
X030802Y019786D01*
X030981Y019786D01*
X031262Y019505D01*
X031262Y019326D01*
X030802Y019326D01*
X030802Y019286D01*
X030762Y019286D01*
X030762Y018826D01*
X030762Y019080D02*
X030802Y019080D01*
X030802Y019238D02*
X030762Y019238D01*
X030762Y019397D02*
X030802Y019397D01*
X030802Y019555D02*
X030762Y019555D01*
X030762Y019714D02*
X030802Y019714D01*
X031053Y019714D02*
X031568Y019714D01*
X031410Y019555D02*
X031212Y019555D01*
X031262Y019397D02*
X031342Y019397D01*
X031342Y019238D02*
X031262Y019238D01*
X031235Y019080D02*
X031386Y019080D01*
X032020Y018921D02*
X036811Y018921D01*
X036811Y018763D02*
X028962Y018763D01*
X028962Y018921D02*
X030488Y018921D01*
X030330Y019080D02*
X028746Y019080D01*
X028746Y019238D02*
X030302Y019238D01*
X030302Y019397D02*
X028746Y019397D01*
X028746Y019555D02*
X030353Y019555D01*
X030511Y019714D02*
X028746Y019714D01*
X028746Y019872D02*
X036811Y019872D01*
X036811Y019714D02*
X031997Y019714D01*
X032155Y019555D02*
X036811Y019555D01*
X036811Y019397D02*
X032222Y019397D01*
X032222Y019238D02*
X036811Y019238D01*
X036811Y019080D02*
X032179Y019080D01*
X032106Y018604D02*
X036811Y018604D01*
X036811Y018446D02*
X032222Y018446D01*
X032222Y018287D02*
X036811Y018287D01*
X036811Y018129D02*
X032222Y018129D01*
X030782Y017306D02*
X030101Y017306D01*
X030126Y017019D02*
X030447Y017019D01*
X030342Y018129D02*
X029002Y018129D01*
X028961Y018287D02*
X030342Y018287D01*
X030342Y018446D02*
X028962Y018446D01*
X028962Y018604D02*
X030459Y018604D01*
X028526Y018664D02*
X028526Y019877D01*
X028247Y020156D01*
X028627Y020189D02*
X036811Y020189D01*
X036811Y020031D02*
X028684Y020031D01*
X028627Y020348D02*
X036811Y020348D01*
X036811Y020506D02*
X028575Y020506D01*
X027919Y020506D02*
X027575Y020506D01*
X027545Y020536D02*
X026949Y020536D01*
X026867Y020454D01*
X026867Y019858D01*
X026949Y019776D01*
X027125Y019776D01*
X027125Y019060D01*
X026992Y019060D01*
X026910Y018978D01*
X026910Y018350D01*
X026943Y018318D01*
X026940Y018316D01*
X026906Y018283D01*
X026882Y018242D01*
X026870Y018196D01*
X026870Y017964D01*
X027297Y017964D01*
X027297Y017868D01*
X026870Y017868D01*
X026870Y017637D01*
X026882Y017591D01*
X026906Y017550D01*
X026940Y017516D01*
X026981Y017493D01*
X027026Y017480D01*
X027297Y017480D01*
X027297Y017868D01*
X027393Y017868D01*
X027393Y017480D01*
X027664Y017480D01*
X027710Y017493D01*
X027751Y017516D01*
X027785Y017550D01*
X027808Y017591D01*
X027821Y017637D01*
X027821Y017868D01*
X027393Y017868D01*
X027393Y017964D01*
X027821Y017964D01*
X027821Y018196D01*
X027808Y018242D01*
X027785Y018283D01*
X027751Y018316D01*
X027748Y018318D01*
X027781Y018350D01*
X027781Y018978D01*
X027699Y019060D01*
X027565Y019060D01*
X027565Y019797D01*
X027627Y019858D01*
X027627Y020454D01*
X027545Y020536D01*
X027627Y020348D02*
X027867Y020348D01*
X027867Y020189D02*
X027627Y020189D01*
X027627Y020031D02*
X027867Y020031D01*
X027867Y019872D02*
X027627Y019872D01*
X027565Y019714D02*
X028306Y019714D01*
X028306Y019555D02*
X027565Y019555D01*
X027565Y019397D02*
X028306Y019397D01*
X028306Y019238D02*
X027565Y019238D01*
X027565Y019080D02*
X028306Y019080D01*
X028091Y018921D02*
X027781Y018921D01*
X027781Y018763D02*
X028091Y018763D01*
X028091Y018604D02*
X027781Y018604D01*
X027781Y018446D02*
X028091Y018446D01*
X028092Y018287D02*
X027780Y018287D01*
X027821Y018129D02*
X028051Y018129D01*
X028051Y017970D02*
X027821Y017970D01*
X027821Y017812D02*
X028051Y017812D01*
X028051Y017653D02*
X027821Y017653D01*
X027714Y017495D02*
X028158Y017495D01*
X028479Y017495D02*
X028574Y017495D01*
X028574Y017653D02*
X028479Y017653D01*
X028479Y017812D02*
X028574Y017812D01*
X027393Y017812D02*
X027297Y017812D01*
X027297Y017653D02*
X027393Y017653D01*
X027393Y017495D02*
X027297Y017495D01*
X026977Y017495D02*
X026533Y017495D01*
X026640Y017653D02*
X026870Y017653D01*
X026870Y017812D02*
X026640Y017812D01*
X026640Y017970D02*
X026870Y017970D01*
X026870Y018129D02*
X026640Y018129D01*
X026599Y018287D02*
X026911Y018287D01*
X026910Y018446D02*
X026600Y018446D01*
X026600Y018604D02*
X026910Y018604D01*
X026910Y018763D02*
X026600Y018763D01*
X026600Y018921D02*
X026910Y018921D01*
X027125Y019080D02*
X026384Y019080D01*
X026384Y019238D02*
X027125Y019238D01*
X027125Y019397D02*
X026384Y019397D01*
X026384Y019555D02*
X027125Y019555D01*
X027125Y019714D02*
X026384Y019714D01*
X026627Y019872D02*
X026867Y019872D01*
X026867Y020031D02*
X026627Y020031D01*
X026627Y020189D02*
X026867Y020189D01*
X026867Y020348D02*
X026627Y020348D01*
X026575Y020506D02*
X026919Y020506D01*
X027247Y020156D02*
X027345Y020058D01*
X027345Y018664D01*
X026164Y018664D02*
X026164Y020074D01*
X026247Y020156D01*
X026212Y017812D02*
X026116Y017812D01*
X026116Y017653D02*
X026212Y017653D01*
X026212Y017495D02*
X026116Y017495D01*
X022027Y019080D02*
X021467Y019080D01*
X021467Y019238D02*
X022027Y019238D01*
X022027Y019397D02*
X021467Y019397D01*
X021467Y019555D02*
X022027Y019555D01*
X022027Y019714D02*
X021467Y019714D01*
X021627Y019872D02*
X021867Y019872D01*
X021867Y020031D02*
X021627Y020031D01*
X021627Y020189D02*
X021867Y020189D01*
X021867Y020348D02*
X021627Y020348D01*
X021575Y020506D02*
X021919Y020506D01*
X021247Y020156D02*
X021247Y018286D01*
X021637Y017897D01*
X021792Y018763D02*
X021467Y018763D01*
X021467Y018921D02*
X021792Y018921D01*
X017503Y019822D02*
X017247Y020156D01*
X016867Y020189D02*
X016667Y020189D01*
X016667Y020031D02*
X016867Y020031D01*
X016867Y019872D02*
X016661Y019872D01*
X016247Y019872D02*
X016247Y019872D01*
X016247Y020031D02*
X016247Y020031D01*
X016247Y020189D02*
X016247Y020189D01*
X016247Y020348D02*
X016247Y020348D01*
X016247Y020506D02*
X016247Y020506D01*
X016631Y020506D02*
X016919Y020506D01*
X016867Y020348D02*
X016667Y020348D01*
X010810Y019593D02*
X010810Y017503D01*
X010469Y017162D01*
X009994Y017162D01*
X009994Y017662D02*
X009395Y017662D01*
X009233Y017812D02*
X000557Y017812D01*
X000557Y017970D02*
X009441Y017970D01*
X009282Y018129D02*
X000557Y018129D01*
X000557Y018287D02*
X009124Y018287D01*
X009015Y018446D02*
X000557Y018446D01*
X000557Y018604D02*
X009015Y018604D01*
X009015Y018763D02*
X000557Y018763D01*
X000557Y018921D02*
X009015Y018921D01*
X009015Y019080D02*
X000557Y019080D01*
X000557Y019238D02*
X009015Y019238D01*
X009015Y019397D02*
X000557Y019397D01*
X000557Y019555D02*
X009015Y019555D01*
X009015Y019714D02*
X000557Y019714D01*
X000557Y019872D02*
X008867Y019872D01*
X008867Y020031D02*
X000557Y020031D01*
X000557Y020189D02*
X008867Y020189D01*
X008867Y020348D02*
X000557Y020348D01*
X000557Y020506D02*
X008919Y020506D01*
X009235Y020145D02*
X009247Y020156D01*
X009235Y020145D02*
X009235Y018487D01*
X009560Y018162D01*
X009994Y018162D01*
X009994Y018662D02*
X010023Y018691D01*
X010023Y019274D01*
X010341Y019238D02*
X010590Y019238D01*
X010590Y019080D02*
X010278Y019080D01*
X010463Y018921D02*
X010590Y018921D01*
X010590Y018763D02*
X010534Y018763D01*
X010534Y018604D02*
X010590Y018604D01*
X010590Y018446D02*
X010505Y018446D01*
X010534Y018287D02*
X010590Y018287D01*
X010590Y018129D02*
X010534Y018129D01*
X010530Y017970D02*
X010590Y017970D01*
X010590Y017812D02*
X010534Y017812D01*
X010534Y017653D02*
X010590Y017653D01*
X009075Y017653D02*
X000557Y017653D01*
X000557Y017495D02*
X008916Y017495D01*
X008818Y017336D02*
X000557Y017336D01*
X000557Y017178D02*
X008818Y017178D01*
X008818Y017019D02*
X000557Y017019D01*
X000557Y016861D02*
X008734Y016861D01*
X005485Y016068D02*
X000557Y016068D01*
X000557Y015910D02*
X005489Y015910D01*
X005489Y015751D02*
X000557Y015751D01*
X000557Y015593D02*
X005489Y015593D01*
X005468Y015434D02*
X000557Y015434D01*
X000557Y015276D02*
X001587Y015276D01*
X001493Y015237D02*
X001265Y015009D01*
X001142Y014711D01*
X001142Y014389D01*
X001265Y014091D01*
X001493Y013863D01*
X001791Y013740D01*
X002113Y013740D01*
X002410Y013863D01*
X002638Y014091D01*
X002762Y014389D01*
X002762Y014711D01*
X002638Y015009D01*
X002410Y015237D01*
X002113Y015360D01*
X001791Y015360D01*
X001493Y015237D01*
X001374Y015117D02*
X000557Y015117D01*
X000557Y014959D02*
X001244Y014959D01*
X001179Y014800D02*
X000557Y014800D01*
X000557Y014642D02*
X001142Y014642D01*
X001142Y014483D02*
X000557Y014483D01*
X000557Y014325D02*
X001168Y014325D01*
X001234Y014166D02*
X000557Y014166D01*
X000557Y014008D02*
X001348Y014008D01*
X001527Y013849D02*
X000557Y013849D01*
X000557Y013691D02*
X005443Y013691D01*
X005442Y013532D02*
X000557Y013532D01*
X000557Y013374D02*
X005442Y013374D01*
X005479Y013849D02*
X002376Y013849D01*
X002555Y014008D02*
X005444Y014008D01*
X005449Y014166D02*
X002669Y014166D01*
X002735Y014325D02*
X005466Y014325D01*
X005452Y014483D02*
X002762Y014483D01*
X002762Y014642D02*
X005491Y014642D01*
X005469Y014800D02*
X002725Y014800D01*
X002659Y014959D02*
X005475Y014959D01*
X005486Y015117D02*
X002530Y015117D01*
X002316Y015276D02*
X005477Y015276D01*
X006071Y013849D02*
X006080Y013849D01*
X006228Y013691D02*
X006254Y013691D01*
X009455Y018921D02*
X009525Y018921D01*
X009455Y019080D02*
X009767Y019080D01*
X009704Y019238D02*
X009455Y019238D01*
X009455Y019397D02*
X009704Y019397D01*
X009854Y019555D02*
X009455Y019555D01*
X009455Y019714D02*
X010378Y019714D01*
X010537Y019555D02*
X010192Y019555D01*
X010341Y019397D02*
X010590Y019397D01*
X010810Y019593D02*
X010247Y020156D01*
X009867Y020189D02*
X009627Y020189D01*
X009627Y020031D02*
X009867Y020031D01*
X009867Y019872D02*
X009627Y019872D01*
X009627Y020348D02*
X009867Y020348D01*
X009919Y020506D02*
X009575Y020506D01*
X000557Y020665D02*
X036811Y020665D01*
X036811Y016068D02*
X032167Y016068D01*
X032009Y015910D02*
X036811Y015910D01*
X036811Y015751D02*
X031539Y015751D01*
X031234Y016068D02*
X031167Y016068D01*
X032118Y015593D02*
X036811Y015593D01*
X036811Y015434D02*
X032222Y015434D01*
X032222Y015276D02*
X035052Y015276D01*
X034957Y015237D02*
X034730Y015009D01*
X034606Y014711D01*
X034606Y014389D01*
X034730Y014091D01*
X034957Y013863D01*
X035255Y013740D01*
X035577Y013740D01*
X035875Y013863D01*
X036103Y014091D01*
X036226Y014389D01*
X036226Y014711D01*
X036103Y015009D01*
X035875Y015237D01*
X035577Y015360D01*
X035255Y015360D01*
X034957Y015237D01*
X034838Y015117D02*
X032216Y015117D01*
X032058Y014959D02*
X034709Y014959D01*
X034643Y014800D02*
X031896Y014800D01*
X031896Y014642D02*
X034606Y014642D01*
X034606Y014483D02*
X031896Y014483D01*
X031896Y014325D02*
X034633Y014325D01*
X034699Y014166D02*
X031896Y014166D01*
X031896Y014008D02*
X034813Y014008D01*
X034991Y013849D02*
X031877Y013849D01*
X031719Y013691D02*
X036811Y013691D01*
X036811Y013849D02*
X035841Y013849D01*
X036019Y014008D02*
X036811Y014008D01*
X036811Y014166D02*
X036134Y014166D01*
X036200Y014325D02*
X036811Y014325D01*
X036811Y014483D02*
X036226Y014483D01*
X036226Y014642D02*
X036811Y014642D01*
X036811Y014800D02*
X036189Y014800D01*
X036124Y014959D02*
X036811Y014959D01*
X036811Y015117D02*
X035994Y015117D01*
X035780Y015276D02*
X036811Y015276D01*
X036811Y013532D02*
X031560Y013532D01*
X031402Y013374D02*
X036811Y013374D01*
X036811Y012898D02*
X031919Y012898D01*
X032006Y012740D02*
X036811Y012740D01*
X036811Y012581D02*
X032022Y012581D01*
X031980Y012423D02*
X036811Y012423D01*
X030709Y012264D02*
X030084Y012264D01*
X030084Y012898D02*
X030645Y012898D01*
X028988Y012898D02*
X028892Y012898D01*
X028892Y012740D02*
X028988Y012740D01*
X028504Y012423D02*
X028353Y012423D01*
X029069Y014008D02*
X029165Y014008D01*
X029165Y014166D02*
X029069Y014166D01*
X029069Y014325D02*
X029165Y014325D01*
X030762Y014959D02*
X030802Y014959D01*
X030802Y015117D02*
X030762Y015117D01*
X030762Y015276D02*
X030802Y015276D01*
X035902Y004973D02*
X036811Y004973D01*
X036811Y004815D02*
X036061Y004815D01*
X036151Y004656D02*
X036811Y004656D01*
X036811Y004498D02*
X036217Y004498D01*
X036226Y004339D02*
X036811Y004339D01*
X036811Y004181D02*
X036226Y004181D01*
X036172Y004022D02*
X036811Y004022D01*
X036811Y003864D02*
X036106Y003864D01*
X035953Y003705D02*
X036811Y003705D01*
X036811Y003547D02*
X035681Y003547D01*
X036811Y002120D02*
X032204Y002120D01*
X032222Y001962D02*
X036811Y001962D01*
X036811Y001803D02*
X032222Y001803D01*
X032129Y001645D02*
X036811Y001645D01*
X028247Y001486D02*
X028247Y001486D01*
X028247Y001328D02*
X028247Y001328D01*
X001687Y003547D02*
X000557Y003547D01*
X000557Y003705D02*
X001415Y003705D01*
X001261Y003864D02*
X000557Y003864D01*
X000557Y004022D02*
X001196Y004022D01*
X001142Y004181D02*
X000557Y004181D01*
X000557Y004339D02*
X001142Y004339D01*
X001151Y004498D02*
X000557Y004498D01*
X000557Y004656D02*
X001217Y004656D01*
X001307Y004815D02*
X000557Y004815D01*
X000557Y004973D02*
X001466Y004973D01*
D27*
X012582Y013763D03*
X013369Y014550D03*
X015337Y015731D03*
X015141Y016519D03*
X014156Y016912D03*
X013369Y017109D03*
X014550Y017700D03*
X013763Y018290D03*
X012778Y019471D03*
X010023Y019274D03*
X005692Y019668D03*
X009038Y016715D03*
X008448Y015337D03*
X013369Y016125D03*
X021046Y011597D03*
X021637Y011007D03*
X019274Y010023D03*
X021834Y012385D03*
X025377Y013960D03*
X026361Y013960D03*
X026952Y013566D03*
X025771Y011991D03*
X026164Y011400D03*
X022030Y006086D03*
X019865Y006086D03*
D28*
X006080Y013032D02*
X005856Y013232D01*
X005840Y013514D01*
X005632Y013431D02*
X005856Y013232D01*
X005632Y013431D02*
X005633Y013723D01*
X005637Y013963D02*
X005880Y013747D01*
X005882Y014012D01*
X005640Y014229D01*
X005637Y013963D01*
X005880Y013747D02*
X006122Y013530D01*
X006351Y013862D02*
X006351Y015403D01*
X006347Y015775D01*
X006351Y015403D02*
X005679Y016002D01*
X005679Y015701D01*
X005672Y015505D02*
X005662Y015381D01*
X006147Y014948D01*
X005908Y014793D02*
X005906Y014527D01*
X005663Y014743D01*
X005665Y015009D01*
X005908Y014793D01*
X005906Y014527D02*
X006148Y014311D01*
X006147Y014647D01*
X005642Y014494D02*
X006351Y013862D01*
X005672Y015204D02*
X005662Y015381D01*
M02*
